<svg width="109" height="183" viewBox="0 0 109 183" fill="none" xmlns="http://www.w3.org/2000/svg">
<path d="M26.356 38.7137C26.4388 38.722 26.5216 38.7385 26.6044 38.7385C26.6126 38.7385 26.6292 38.7385 26.6375 38.7385H86.8656C91.3935 38.7385 95.8717 37.8939 99.8036 35.567C103.843 33.1903 107.667 29.1161 108.768 24.4291C109.555 21.0919 108.214 17.0343 105.59 14.8315C101.774 11.6268 96.9974 12.9269 93.2063 15.3946C93.8023 12.6288 93.9926 9.66425 93.0821 7.01436C91.5342 2.51782 87.3374 0.422746 82.8096 0.0501049C77.4705 -0.397065 72.1397 1.93815 67.9263 5.05178C64.4083 7.65199 61.296 10.865 58.7961 14.4837C58.7133 14.2519 58.6223 14.0117 58.5229 13.7881C57.7697 12.0077 56.5943 10.4261 54.9222 9.39926C52.861 8.13228 50.4026 8.01635 48.0683 8.39727C43.35 9.15911 39.5092 12.4549 36.4879 15.9743C33.2927 19.6924 30.6687 23.8909 28.3758 28.2135C27.01 30.7889 25.7352 33.4222 24.6343 36.1218C24.3777 36.7511 24.6012 37.4467 25.0399 37.9684C25.3213 38.3659 25.76 38.6475 26.3477 38.7137H26.356Z" fill="#E91315"/>
<path d="M108.479 77.6917C107.535 71.332 105.06 65.1461 101.376 59.8795C93.7609 48.9818 81.452 42.1004 68.1664 41.4462C65.9149 41.3385 63.6468 41.3965 61.3953 41.3965H48.954C41.6531 41.3965 34.3357 41.2888 27.0265 41.3965C26.8941 41.3965 26.7616 41.3965 26.6292 41.3965C25.5117 41.3965 24.5598 42.3488 24.5598 43.4667V71.1995C17.8714 73.7666 11.1748 76.3419 4.48648 78.909C3.47661 79.2982 2.47501 79.6792 1.46514 80.0684C-0.413886 80.7888 -0.579439 83.3973 1.46514 84.0598C8.65013 86.4033 15.8268 88.7468 23.0118 91.0903C23.5251 91.2559 24.0466 91.4298 24.5598 91.5954V131.543C24.5598 135.592 24.419 139.674 24.5598 143.724C24.5598 143.782 24.5598 143.84 24.5598 143.898C24.5598 144.51 24.7833 144.982 25.1226 145.314C25.1392 145.33 25.1475 145.347 25.164 145.363C25.1723 145.372 25.1889 145.38 25.1971 145.388C25.2054 145.388 25.2137 145.405 25.222 145.413C25.9007 146.051 26.7864 146.076 27.548 145.703C27.7384 145.62 27.9205 145.512 28.0695 145.372C28.0695 145.372 28.0778 145.372 28.086 145.355L40.8916 134.913C47.6958 129.365 54.5 123.816 61.2959 118.277C62.3224 117.44 63.3405 116.604 64.367 115.776C66.842 118.252 69.3253 120.736 71.8003 123.212C72.5866 123.999 73.9359 124.007 74.7306 123.212C81.3775 116.562 88.0245 109.913 94.6631 103.271C95.1018 102.833 95.5488 102.385 95.9875 101.947C99.1413 105.102 102.295 108.257 105.449 111.412C105.457 111.42 105.474 111.428 105.482 111.436C105.49 111.436 105.499 111.453 105.507 111.461C106.21 112.116 107.038 112.14 107.717 111.809C108.396 111.561 108.942 110.973 108.975 110.045C108.975 110.02 108.975 110.004 108.975 109.979C108.975 109.971 108.975 109.962 108.975 109.946V88.3741C108.975 84.7968 108.983 81.2608 108.462 77.7083L108.479 77.6917ZM43.8384 61.0554C41.9511 59.1673 44.8814 56.2442 46.7687 58.1239C47.3729 58.7284 47.9855 59.3412 48.5898 59.9457C49.9307 61.2872 51.2717 62.6287 52.6127 63.9703C54.5579 62.016 56.5115 60.0699 58.4567 58.1156C60.344 56.2276 63.266 59.159 61.387 61.0471C60.7827 61.6516 60.1702 62.2644 59.5659 62.8689L55.543 66.8934C57.4882 68.8394 59.4418 70.7937 61.3953 72.748C63.2826 74.6361 60.3523 77.5592 58.465 75.6795C57.8607 75.075 57.2482 74.4622 56.6439 73.8577C55.3029 72.5162 53.962 71.1747 52.621 69.8331C50.6674 71.7874 48.7222 73.7335 46.7687 75.6878C44.8814 77.5758 41.9594 74.6444 43.8384 72.7563C44.4427 72.1518 45.0552 71.539 45.6595 70.9345L49.6824 66.91C47.7372 64.964 45.7836 63.0097 43.8384 61.0554ZM8.18659 81.8984C13.5091 79.8531 18.8399 77.8077 24.1624 75.7623C24.2949 75.7126 24.4273 75.6629 24.5598 75.6132V87.2479C19.1048 85.4675 13.6416 83.6871 8.18659 81.9067V81.8984ZM94.539 97.5411C87.892 104.191 81.2451 110.84 74.6064 117.482C74.1677 117.92 73.7207 118.368 73.282 118.806C70.8566 116.38 68.423 113.946 65.9977 111.519C65.1451 110.666 63.9365 110.815 63.0674 111.519C58.7961 114.997 54.5331 118.475 50.2618 121.962C43.4576 127.51 36.6534 133.058 29.8575 138.598C29.4767 138.913 29.0876 139.227 28.7069 139.534V111.329C29.2615 113.159 29.8823 114.575 30.5362 115.858C32.0593 118.864 35.4035 120.728 39.0291 120.645C45.1463 120.512 49.4589 114.534 48.0683 108.58C47.7537 107.23 47.1577 106.004 46.2058 105.077C44.9724 103.876 44.1447 103.164 43.6232 102.742C41.9759 101.425 40.9164 99.4374 40.9909 97.3258C41.0488 95.6034 41.769 93.9058 43.1265 92.6388C45.2208 90.6845 48.2338 90.3201 50.6674 91.5043C54.4586 93.7484 58.9037 94.6262 63.622 94.6262C76.2371 94.6262 88.2397 83.6457 88.2397 69.5764C88.2397 59.6476 83.5049 51.3087 76.1626 46.8702C83.4883 48.841 90.1518 52.9069 95.2757 58.7284C99.2738 63.2664 102.146 68.7649 103.653 74.6195C104.646 78.495 104.853 82.4036 104.853 86.3784V104.903C102.386 102.435 99.9277 99.9757 97.461 97.508C96.6746 96.7213 95.3253 96.713 94.5307 97.508L94.539 97.5411Z" fill="#E91315"/>
<path d="M108.95 121.084C108.95 121.084 108.942 121.051 108.934 121.034C108.909 120.935 108.884 120.836 108.843 120.744C108.81 120.653 108.76 120.571 108.71 120.488C108.694 120.463 108.685 120.446 108.669 120.422C108.603 120.314 108.52 120.223 108.437 120.132C108.421 120.115 108.404 120.09 108.387 120.074C104.745 116.43 101.103 112.787 97.461 109.143C96.6746 108.356 95.3253 108.348 94.5307 109.143C87.8837 115.793 81.2368 122.442 74.5981 129.083C74.1594 129.522 73.7124 129.969 73.2737 130.408C70.8483 127.982 68.4147 125.547 65.9894 123.121C65.1368 122.268 63.9282 122.417 63.0591 123.121C58.7878 126.599 54.5248 130.077 50.2536 133.563C43.4493 139.112 36.6451 144.66 29.8492 150.2C28.3095 151.45 26.7699 152.709 25.2385 153.959C25.222 153.968 25.2054 153.984 25.1971 153.992C25.1889 153.992 25.1806 154.009 25.1723 154.017C24.775 154.34 24.5929 154.829 24.5763 155.334C24.5763 155.384 24.5598 155.425 24.5598 155.475V180.914C24.5598 182.032 25.5117 182.984 26.6292 182.984H66.7757C66.7757 182.984 66.8088 182.984 66.8337 182.984C67.3138 182.984 67.8022 182.818 68.2409 182.379C72.777 177.841 77.3049 173.312 81.841 168.774C89.0343 161.578 96.2276 154.382 103.429 147.177C105.085 145.521 106.74 143.873 108.387 142.217C108.826 141.778 108.992 141.289 108.992 140.809C108.992 140.793 108.992 140.776 108.992 140.751V121.515C108.992 121.515 108.992 121.473 108.992 121.457C108.992 121.324 108.983 121.192 108.95 121.059V121.084ZM53.2252 178.86H28.7069V156.46L40.9081 146.515C47.7123 140.966 54.5165 135.418 61.3125 129.878C62.3389 129.042 63.3571 128.206 64.3835 127.378C66.8585 129.854 69.3418 132.338 71.8168 134.814C72.6032 135.6 73.9525 135.609 74.7471 134.814C81.3941 128.164 88.041 121.515 94.6797 114.873C95.1184 114.434 95.5654 113.987 96.0041 113.548L104.861 122.409V138.714H66.784C65.6665 138.714 64.7146 139.666 64.7146 140.784V178.877H53.2252V178.86ZM70.2772 174.504C69.8054 174.976 69.3252 175.457 68.8534 175.929V142.838H101.931C98.5784 146.192 95.2177 149.554 91.8653 152.908C84.672 160.104 77.4787 167.3 70.2772 174.504Z" fill="#E91315"/>
</svg>
