<svg fill="none" height="170" viewBox="0 0 170 170" width="170" xmlns="http://www.w3.org/2000/svg"><path d="m0 0h170v170h-170z" fill="#000"/><path clip-rule="evenodd" d="m114.929 36.18c.548-.5194 1.381.1889.953.8098l-19.1787 27.7676c-.3017.437.0435 1.0264.5742.9802l11.2745-.9818c.561-.0489.9.6043.534 1.0314l-19.3489 22.6224c-.3652.4275-.0268 1.0805.5344 1.0315l12.1405-1.0572c.593-.0515.921.6705.489 1.0792l-46.8293 44.3569c-.5484.519-1.3822-.189-.9534-.81l19.4306-28.133c.3018-.437-.0434-1.026-.574-.98l-11.5152 1.003c-.5595.049-.8986-.6-.5372-1.028l18.7797-22.2358c.3615-.428.0224-1.0776-.5372-1.0286l-11.5764 1.0082c-.5937.0518-.921-.6705-.4892-1.0793z" fill="#fff" fill-rule="evenodd"/></svg>