<svg xmlns="http://www.w3.org/2000/svg" width="519" height="885" fill="none"><path fill="#E91315" d="M44.6 188.3s-58.5-23.1 3.8-93c23-25.8 23.5-29.5 23.5-29.5-23.3 25.6-126.6 68.6-27.3 122.5Z"/><path fill="#E91315" d="M10.1 127.2a43.8 43.8 0 0 1 12.4-16.3c2.2-2.8 4.7-5 7-7.8 3.4-.4 4.5-3.7 7.3-5a12.1 12.1 0 0 1 5.4-4.3c.6-2.7 3.2-3.4 4.5-5.6 2.9-.5 3.9-3.4 6.3-4.5.3-1.3 1.6-.6 2.6-1.2 1.7-.8 2.5-2.8 4.3-3.4 2.8-1.7 4.7-4.3 7.7-5.7-2.7-3.1-4.1-7.8-6.8-1.8-2.7 2.5-5.2 3.4-8.1 5.7-3.7 4.6-8.5 6.4-12.5 11-1.7 1.5-4.8 2.2-5.5 4.3-2.9.5-4 3.5-6.4 4.9.1 1 0 1.2-1.1 1.3-1 .7-1.8 1.9-3 2.2-1.7.6.4 2.4-1.5 2.7-.3 2-2.8.8-3.2 2.9-.3 1-1.4 1.1-2.2 1.6.1 1.2-.8 1.6-1.7 2.1-.7 1.7-1.6 4.2-3.7 4.2-1.5.6-1.3 2.2-2.8 2.3.1 3.3-3.8 5.2-5.3 8.4.7-.4 6.7 4.5 6.3 2Z"/><path fill="#E91315" d="M45.2 185a65.5 65.5 0 0 1-18-10.9c-3-1.6-5.7-3.7-8.5-5.6-.5-3-3.9-3.9-4.7-6.2-1.7-1.8-3.6-3.4-4-6-2.4-1-2.4-3.6-3.9-5.4.7-2.6-1.3-4.6-.8-7.2-.8-1.5 1.8-3 .7-5 1.2-3.6 1.4-7.5 3.8-10.7-2.8-.8-7-5.3-6.8.4-.2 4.9-3.6 8.4-2.6 13.6-.4 2 .5 3.2.6 4.8.4 1.5-.3 2.9.6 4 1 3.4 2.8 7.1 4.3 9.6 2 6.2 7.4 8.7 11.1 13.6 6.2 1.1 2.6 3 7.2 4.1 1.3 2.6 4.7 2.8 6.9 4.4 1.4.8 1.2 3.3 3.3 3.1 0 1.4 1 .9 2 .8 2 1.6 4.4 3.1 6.7 4.9-.4-.7 4.5-6.6 2-6.4h.1Z"/><path fill="#E91315" d="M22 128.3c-2 6.8-4.7 13.1-5.4 20.5 1 1.6-.5 3.4.4 4.8 1 2 .5 3.7.1 5.9 1 3.8 2.3 6.8 3.6 10.2.5 2.1 2.3 2.7 3.6 4.4 1.3 1.9 2.2 4.3 4.5 5.4 2.7 4 6.8 8.4 12.2 10 .7.8 1.5 1.5 2.5 1.9-.4-.5 3.8-7.1 1.7-6.3-1.3-.8-5.3-.4-5.7-2.5-2.6-2.5-6.2-4.7-8.7-7-.5-2.5-3.7-4.2-4.7-6.8.6-1.2-1.4-2-.7-3.5-1.3-.3-.6-.9-.8-2 .2-.8-.3-.8-.9-1.2.3-1.4-.6-2.3-.6-3.5-1-.3-1-.5-.4-1.3a8.4 8.4 0 0 1 0-3.7c-3.2-1.1.5-3.6-1-5.8 1.5-1.8.3-4.7 1-6.7.2-1.4 2.7-1.6 2-3.3 1.4-.3.5-.9.3-1.7 1-1.9 2.1-3.8 3.5-5.8-.7.2-6.6-4.2-6.5-2Z"/><path fill="#E91315" d="M64.5 71.3C60 79 52.2 84.9 47.5 93c-2.3.6-3.7 2.4-4.4 4.4-1.4.4-2 1.9-2.5 3-1.2.1-.8 1.2-1.7 1.7-.5.8-1.5.7-1.4 1.9-.4 1.8-1.9 3.9-3 5.2a16.7 16.7 0 0 0-3.8 5.8c-2.8 1-5.8 7.2-6.6 10.2-4.7 2.8 2.6 3.8 4.3 5l1.3-5.7c0-1.2 1.3-.9 2-1.6-.3-1.1 1-1.7 1.4-2.7 2.3-5 5.2-8.2 8.4-13 1.3-1 1.7-2.4 3.4-3-.4-1.4 1.1-1.4 2-2.2-.3-1.3 1-1.8 1.9-2.6 0-1 1-1.1.6-2.3 1 0 1.4-.7 2.1-1.4.8-1.2 2.4-1.2 1.3-3.1 1.2-.4.9-2.1 2.5-1.7 1-1.1 1-2.5 2.6-2.8-.2-1.1.6-1.4 1.4-1.9.2-1 .6-2.3 1.5-2.9.8-1.1 3.1-.3 3.2-2.3 1.4.3.8-.7.9-1.6l5.3-4.8c-.6.3-5.7-5.6-5.8-3.3Z"/><path fill="#E91315" d="M70.2 74.6c1.8-2.5 3-5.4 4.1-8.2.2-.8.4-1.7 0-2.4-.2-.3-.2-1.4-.8-1-2.4 1.2-5.3 1.6-7.5 3.5-5 1.2.5 4.8 1.6 7-6.4-6.5.9.1 2.6 1Z"/><g fill="#E91315" opacity=".9"><path d="M407.6 420.9ZM480.3 130c.2-1.9-1.4-4.2 0-5.6-.8-1-.6-2.2-.1-3.2-.7-.5-1-.7-.4-1.6-.1-1 .3-1.7-.8-2.3.1-1.6 0-3.7-1.5-4.4.8-1.6-.4-3.3-.3-5-1.7-.2-1.3-1-2-2 .6-2.2-.8-2.7-1-4.6.5-1.1-1-1-.8-2.1.2-1.5-2-2.2-1.9-3.6-.7-1 .5-1.7.1-2.6.1-1.2-1.2-1.2-.4-2.3-1.5-.3-1.3-1.8-2.3-2.9 0-1.6-.7-3.1-1.3-4.7 0 .3-1.4.9-2.9 1.5 1.7-.8 3.4-1.6 2.6-2-1.5-1.5-2.7-3.2-4.6-4.7.5-1.8-.7-2.6-1.5-4-2.5-3.5-5.2-5.7-7.3-9a40.5 40.5 0 0 1-8.6-10c-1.8.4-1.5-2.1-3-2.3-.2-.8-.7-.7-1.3-.7.4-1.4-1.5-2.2-1.3-3.5 0-1.1-1.3-.5-1.9-.8.2-1.1-1.5-1.6-.2-2.8-.4-1.3-1.5-2-.6-3.4-1-.5-.6-1.3-.3-2.1-.5-.8-1-2.2-.7-3-.1-1.4 2.3-2 1.3-3.6 1.4-.4.4-1 0-1.7a62.6 62.6 0 0 1 2.8-6.3c.4-1.6.3-3.3.6-5 .1-.6.7-1.4.3-2-.2-.4-.1-1-.6-1-.9.2-1.6-.4-2.5-.6l-2-3.2-5-.1c-14.6-6.2-25.6-7.5-41.8-10.3-4.6.7-13.6 4.9-17-.3-12.5 4.6-6-.8-15.5-.3-1.5 3.8-6.9.9-9-.2-13.1-2.2-12 5.9-17-.3-2.7.9-9.1 3-12 2.3-5.1-2.6-16.3-5.3-20.5-.4-2.4 0-7.7.5-8.5-2.7-7-.8-15.4 9.4-22.4 10.6-2.5 1.4-8.9 1.4-11.3-.2.6-4.2-.5-3.7-3.9-3.6-6.3-1-14 1.6-19.6 4.2-5.7 0-12.5-1.4-17.5 2.6-3.3 2-8.9 2-12 4.3-1-1-3-2.6-4.6-2-4.4 4.7-11.6-1.2-17.5 4.6-3.6 3-9.2-1.9-15 1.2-3.2 1.6-10.3 4.5-13.7 5.8-5.4-1-15.4 1.2-20.5 3-1.4.9-3.7 2-3.1 4-2.5.5-6.5 2.9-8.6 4.3-4 8.6-4.4-.5-4.3 14.5-8-2.3-11 7.4-14.7 12.7.2 2.9-3 1.1-4.1 6-1.8 2-5.5 8.9-8.7 8.8-1.8.5-3 2.3-4.3 3.9l-.1.2-1.4 1.2h-1c-1.1.6-1 2.3-2.4 2.3-1.9 1.2-3 3.6-4.5 5.3-1 1.2-3.4.4-3.6 2.5-1.3-.1-.9.8-1 1.8a48.4 48.4 0 0 0-5.2 6c.2 0 1.2.5 2.3 1.2-1.8-1-3.3-1.4-3.3 2.2-.2 3.6-2.6 5.7-3.2 9.2-.2 6.2-1 11.3 1.2 17.3.5 5.2 2.3 9.2 5 13.7 2.2.4 1.6 6 5 5.1 1.3 1.6 1.2 3.9 3.5 4.7.3 1 .4 2 1.6 1.9.5.8.6 1.7 1.7 1.8 1.2 1 3.1 1.5 2.8 3.4.4 1.5 2 1.4 2 2.9 3.1-.1 4.5 3.7 7.1 5.5 0-.2.4-.9 1-1.6-.6 1.2-.8 2.2 0 2 1.8.8 3.9 1.6 6.2 2.2.4 1.8 2 2 3.4 3 5.3 2.1 9.5 3.8 14.8 5.3 3 .2 5 3.2 7.6 2.9.7 1 1.8 2 3 1.3.9.6 1.8 1.6 3 1.3.5.7 1 .5 1.6.1.5 1.6 2.6 1.4 3.5 2.6 1 1.3 2-1.4 2.7.3 2-.2 2 2.6 4.3 2 1.4 1.7 3.4 2.4 5.5 3 2.3.1 1.7 3.6 4 3.6 0 1.4.8.8 1.8.8 1.2 1.4 3 2.4 4.3 4.3.3 1 1 .6 1.9-.2-.4.6-.7 1-.9 1 2 1.5 5.8 1.8 6.7 4.3 2.5 3.6 8 5.6 9.4 9.6 3.2 2.5 6.4 5.8 7.4 9.5 1.5 0 1.2 1.6 1.7 2.8 1.2 0 1.3.9 1.8 1.8 1.6 2.3 3.1 3.8 3.9 7 3.4-.2 1.3 4 3.9 5.3-.3 2.7 2 4.5 2.8 6.9.7 1.3-1.4 2.8.2 4-1 1 0 1 .6 1.7 0 2.2 0 4.5-.5 7h1c-.9 0-1.3.3-.8.9l.7 6c-1.6.8-1.3 2.2-2 3.6-1.3 5.9-4 9.2-7.3 14.2-.8 1.1-2.2.7-2.4 2-.9.8-2.4.5-2.3 1.9-1.8-.2-2.2 1.4-3.4 1.8-1.1.4-1.6 1.3-2.7 1.5-.1 1-.2 1.1-1.2.8-1.7 1-3.7.2-4.2 2.3-2 .4-2.8-.8-4.5-.4-.9.6-1.4-.2-2.1-.6-.6.3-1 .6-1.5 0-6.6-1.2-2.3-1.4-5.7-4 .4-2-.5 0-2-2.5-.8-1.4-.4-3.4-.9-5.1 0 .2-1.6.4-3.1.8 1.1-.4 2.2-.9 3-.9-.7-2.8-1.6-5.5-1.7-8.4-.2-2.2.5-4.3-.4-6.4-.4-.7-.9.6-1.2.8a24.2 24.2 0 0 0-7.1 7.2c-2.6 2.7-2.6 4-1.4 5.2-1.3-.7-2.3-.5-2.3 2.3 0 1.3-1 2.3-1 3.8-2 .5-1.8 2.4-3 4-1.2 5.4-3.7 9-4.5 14.7-1.6 2.8-1.7 5.1-3.3 7.9 1.2 1.6-1.5 4 .2 5.5-1.5 1-1 3.1-1.9 4.6 1.5.8.8 1.4 1.1 2.6-1.5 1.8-.5 2.7-1.2 4.5-.3 1.8-.3 3.8.3 6-.2 1.5-2.5 2.5-1.4 4.2-1.3.6-.3 1 .2 1.8-.5 1.7-.3 3.8-1 5.7-.6.8 0 1.2.9 1.3-1 .3-1.3 1-.2 3 1.4 3.5.1 5.1.4 8.7 1.6 5.4 1 9.7 3 15.1 0 3.2 1.1 5.3 1 8.5 1.2.8 1 3 1.7 4.4 1 .3 1 .5.6 1.4.2 1.1 1 2 .8 3.2.4 1.8 1.2 0 2.3 2.5-.5 2.4.9 2.6 1.2 4.5 0 1.3 1.4 1.4 1.1 3 1.2 1 3 2.6 2 4.3-.1 1.5 1.4 1.9.8 3.1 1.4.4 2.3 1.9 2.8 3.4.2 1.3 1 2.5 1.6 3.7 1.7 1.7 3.2 3 5.5 4.5 0 3.5 4.3 4.8 6.1 7.7 2-.4 2.4 2.6 4 3 1.7 2 5.4 2.4 6.4 5 1.1-.2 2 .8 2.5 1.7 1.3-.5 1.6 1 2.7 1.7 1.6-.8 2.3 1.6 4 1.2.5.7.8.4 1.5.1.2.6.6 1.1 1.4 1.3 1 .4 1.8.9 2.7 1.5.7-.3 1.3-1.6 2-.4 1.5-.6 1.5 1.3 2.7 1.5 1.3-.3 2 0 3 1 1.2-1 1.7 1 3.1.4 1.5.2 3.2-.5 3.8 1.3 1 1 2.2.2 2.6 1.5 1.2-.9 2.9-.4 4.1.5 1 .7 2.2 1.2 3.4 1.8-.2-.2.2-1 .6-2.1-.5 1.4-.8 2.5-.1 2.3 1.3 0 1.8.6 3.2.1 1.6 1 3.2.2 4 2.3 2 .6 4.9 1.8 6.9 3.3 1.8-.9 2.5 2 4 2.2 1.7 1.7 5.5 2.2 5.8 4.7 1 0 1.8 1.1 2 2.1 1.3-.3 1.2 1.2 1.9 2.1 1.5 0 2.3 2.1 3.2 3 1.4-.2 2 3 2.8 4.3 1.5-.3 1.4.5 2.3 1.3.6 1-.6 2 .8 2.8 1.1 1.5 1.1 4.1 3 6.4.4 1.5-1.6 3-.3 4.3-1.1.8 0 1 .6 1.6-.1 2-.3 4.3-.8 6.6h.7c-.6 0-.8.1-.6.4.4 1.2 0 2 .9 3.1-.8 1.3 1 2.9-.6 3.7-1 2.2-.5 5.4-2 7.8.8.8-.8 3-1.6 3.2-.5 2.2-2.3 4.1-4 5.6-1-.5-.7.6-1.7.8-1 .4-1.5-.2-1.7 1-2-.8-2.7 1.3-4.7.7-.6.8-1.4 0-1.8 1.2-1-1.2-2.6-.1-3.7-1-1-.6-1.1.8-1.6 1.2-.8-.7-1.4.1-2.2-.4-.8-2-3 0-4-1.7-.9.6-1.5 0-2.2-.5a5 5 0 0 1-3.7-.7c0-1.9-2.2-1.7-2.3-3-1.4.7-1.3-.4-2.5-.7-1.3-.8-1.7-2.7-2.9-4 .1.3-1.3 1.2-2.5 2.2l2.5-2.2a28.9 28.9 0 0 1-7.1-13.6c-.4-3 0-6.5-1.6-9.1a59.3 59.3 0 0 0-7.2 24.8c-.6 1 0 1.5.9 1.7-1 .2-1.3.8-.5 2.3.8 2 1.6 3.8.5 5.6.8.8.2 2 .5 3 .2 1.5 1.3 2.9 1 4.5 1.2.3.8 1 .9 2 .8.6.3 1 .2 1.7l3 6.1c.7.8-.5 1.6.8 2 .6 1 0 2.4 1.5 2.5-.4 2.4 2.5 3.7 3.4 5.8 1-.1 1.1-.1 1 .9.6 1 1.7 1.4 1.8 2.5.5 1.6 2.2-.7 2.4 1 1.6 0 .7 1.6 1.7 2.3.7.3 1.6.3 1.8 1.2.2 1.2 1.3.2 1.7 1.3.6 1.2 2.6.7 3.3 1.9 1 .3.4 1.5 1.2 2 .5 1 1.6.3 1.5 1.7 1.4-.7 1.8.6 3.3.8.8 1.3 2.1 2 3.4 3-.1-.3.7-1.6 1.5-3l-1.5 3c2 .5 3.5.7 5.7 1 1.1-.2 1 1 1.8 1.6 1-.5 1.2.6 2.2.6 1.7.4 4.6 1.8 5.9 1 2.6 1.5 5.4 1.9 8.7 2 1.7.8 3.1.5 4.7 1.7.9-1 1.7.2 2.8.5.8-1 1.9-.1 3 .1.8-.6 1.4.3 2-.8.5.8 1.3.8 2.1 1 4 1 1-.5 4.4-.7 1.1.2 1.3 1.7 2.7 1 .8-.6 1.2.2 2 .6 1.3-.8 2.9.4 4.6-.3 1.4.3 1.7 2.7 3.4 2 .3 1.4.8.4 1.6.1 1.6 1 3.4 1.8 5.2 3.2-.2-.2.5-1.3 1.1-2.5-.8 1.6-1.4 3-.3 2.6l5 1.4c0 1.6 1.1 1.8 2 3 .5 1 1.6 1 2.3 1.6 1 .6 1 2 2.4 1.6 1.3 2.5 3.3 4.3 5.8 6.3.7 1.7 2 2.3 2.4 4.2 1.3-.1 1 1.3 1.6 2.3 1.3-.2 1.5 1.1 2 2 1 .2.9 1.3 2 1-.2.8.4 1.4.8 2.1 2 3.7 1 .3 3.6 2.7.6 1-.4 2.1 1.1 2.6 1 .2.7 1.1 1 1.9 1.4.4 1.7 2.4 3.5 3 .7 1.3-.6 3.3 1.2 4-.7 1.2.3.8 1.1 1.1l2.6 6c0-.2.4-.5 1.1-.9-1.2 1-1.3 2 1.8 2.8h2.2l.1.1v-.1c1.6-.5 1.8-2 1.2-3.8.6-.9.8-1.9 0-2.6.6-.2.8-.7 0-1.6.8-.6-.2-.5-.3-1.2-.6-1-.3-2.4-1-3.6 1.5-1.4.6-3.3 1-5.3-1-1.5.7-3.6-.8-4.6.6-1.7.6-3 .8-4.6-.2-3.4-.4-6.7 1-9.5-1-.9.2-1.7.5-2.9-.9-.7-.3-1.3-.2-2.3.2-1 .3-2.1-.5-2.8 1.4-.8.5-2.7 1.5-3.6.7-1-.6-1.3-1-1.8.8-1-.3-2.2 1.3-2.4.3-3.2 2.1-5 2-8.2.7-1.4 3-1.4 2.8-3.2 1.4 0 .6-.8.5-1.7 1.2-1.6 2.6-3.4 4.2-5-.3 0-1.3-.8-2.5-1.6 1.2.6 2.3 1.1 2.4 1.4l.5-1.5c1 0 0-.6.4-1.2.2-1.1 1.2-2 1.4-3.3 1.5-.1 3.7-2.6 4.3-4.1 2.1-1.5 2.6-4.1 5-4.3 1.6-1.6 4.2-4.6 6.5-4.2.4-1 1.6-1.2 2.6-1 .2-1.3 1.5-.6 2.6-.8.3-1.6 2.4-.3 3.1-1.6 1.2.4.7-1.5 2-.3 1.3-.3 2.4-.3 3.8-.2.3-1.6 1.1-1 2.1-1.8 2.2 1 2.7-.3 4.6-.4 2.2-.2 4-2 6.4-2.9 1.6 1.3 2.8-.6 4.1 0 .3-1.7 1.7-1.5 2.7-2.6 1.6 0 3-.9 4.5-1.6-.1 0-.4-.3-.7-.8.8.7 1.6.7 2.6-1.3 1.8-3.2 4.2-3.5 6.7-6 2.3-2.2 3.2-5.4 5.8-6.6 1-2.3 2.8-4.4 4-6.8 1.3 0 .6-1 1.5-1.7.6-.8 1.6-.8 1-2 2.2-.9 1.3-3 3-4.6-.2-.6 0-1 .4-1.4-.5-.8-.5-1 .5-1.4a18 18 0 0 1 1.8-3.5c-1.2-1-.4-1.5-.5-2.7 2-1.4 1-3.1 2.6-4.7-.7-.9 0-1.5.5-2.2a6.4 6.4 0 0 1 .3-4c2-.5 1.1-2.6 2.4-3.2-.9-1.2-.5-3 .1-4.3.7-1 1-2.5 1.3-3.7H434c1.4 0 2-.6 1-3-.4-1.2 0-2.5-.6-3.8 1.6-1.3.6-3 1-4.8-1-5.1-.4-9-2-14.1-.7-2-.3-3.3-.8-5.2.5-.9 0-1-.6-1.4.4-.8.1-1.6.3-2.4-1.7-.5-.4-2.7-1.7-3.5.1-1-.3-1-1-1.2.7-1.6-.7-3.1-.6-4.8-3 0-1.2-3.1-2.7-4.7-1.1-.7.3-2.3-1.3-2.6 0-2.2-2.1-3-2.6-4.9 1.2-1.6-.7-2.7-.2-4-1.5-.2-1.5-1.6-2.5-2.6 0-1.6-.9-3-1.6-4.5 0 .3-1.4 1-2.7 1.8l2.6-1.8c-2.9-4-12.5-14.3-16.8-13.7a137 137 0 0 1 6.2 19.3l2.5-.6-2.5.7c.9.3-.3.4.6.3.7 0 .4.5 1.2.6-.2.2-1.5.6-.5.6-1 .5.7 1 0 1.5 1.5 0-.2.4.7.5-.7.4-.5.3-.1.8-.1.6 1 1-.2 1.3.7 0 .3.5-.2.6.9.2.7-.1.2.5-.7.4.4 0 .5.2-.8.7.3.5 0 .8.5.1 1.1 0 .1.3.1.5 0 .4-.2.8 1 0 1.3.2 1.4.4-.4.5-1.4.4-.1.8-1.5.6.6.1-.5.8 1.5.6.6.7-.3 1.2-.3-1.2-2.7-3-2.5-6.5-.5-2.7-1.7-7.3-3.9-9-.4-3.9-3-6.8-5.3-10.2.5-1.4-1.7-2-1.5-3.8-.8-.1-1.2-.1-1.1-1.1-.6-1-.5-1.8-1.8-1.7-.7-1.5-1.8-3.3-3.4-3.2 0-1.7-2-2.7-2.6-4.3-1.5.7-1.5-.2-2.7-.7-.6-1.3-.5-2.6-2.4-3-.8-2.1-2.8-3.3-4.9-4.5-1-1.1-.2-3.4-2-3.9.4-1.3-.6-.9-1.5-1-.8-1.7-2.3-3-3-5 0-.8-.7-.8-1.5-.4.6-.7.7-1.2 0-1.2l-4-3.1c-1.3-.5.2-2.5-1.6-2.7-1-3.8-5.7-5.7-5.7-9.3-1.8-1.8-2.9-4.3-4.2-6.5.8-1.1-.5-1-.5-2.1-.4-1 .2-1.7-1-2 .7-2.2-1.5-3-1.3-5.2-1-.6-.4-1.5-1.6-1.7.9-1.3-.6-2.7-.1-4-4.3-4.4 0-2.8-2.4-6.4.9-1.3-.3-1.8-.2-3 .6-1.3-1.2-2.6-.8-3.9-.2-1.4 2-2.3.8-3.8 1.2-.7.2-1-.3-1.8.3-2 .7-4.4 1.3-6.8-.2.2-1.4 0-2.8 0h2.8c0-2.7-2.1-5.8.2-8.2 0-2.2.3-5.2 1.2-7.6-1.5-1.5 1.1-3.1.8-4.7 1-2 .4-5.8 2.6-7-.3-1 .5-2 1.3-2.7-.8-1.1.7-1.7 1.4-2.6-.6-1.4 1-3 1.5-4.3-.7-1 2-3.3 2.8-4.5-2-2.7 2.4-3 2.4-5.7 1.5-.3 1-1.5 2-2.2 1.3-.5.9-2.7 2.1-3.3.8-1.2 3.1-.3 3.2-2.2 1.4.3.8-.7 1-1.5 1.7-1.3 3.6-2.7 5.7-4-.2 0-.6-.4-1.1-1 .7.7 1.3 1.1 1.4.6 1-1.8 2.3-3.2 3.6-5.2 2 .3 2.6-1.4 4.3-2.2 4-4.2 8.2-6.2 13-10 1.4.4 2-1.7 3.7-1.3 0-1.4 1.5-1 2.7-1.5 0-1.3 1.5-1.3 2.6-1.9.3-1 1.4-.7 1.3-1.9.6.1 1.2.2 1.7-.4 1.4-1 3.4-.6 3-2.8 1 .1 1-1 2-1.1.6.2 1 .5 1.6 0 2-2.2 4.8-2.2 6.6-4.9 1.4-.7 3.5.7 4.4-1 1.2.7 1-.4 1.4-1.2 2-.7 4.4-1.6 6.7-2.6l-.5-.7c.7.8 1.5.7 2.6-1.1 2-3 4.9-3.4 7.4-5.7 2.5-2.1 3.7-5.2 6.6-6.2 2.8-4.4 6.5-7.5 9.4-10.7 1-.9 1-2.4 2.5-3.3-.1-1.1 1-1.3.4-2.4 1-.1 1.4-1 2-1.7 2.8-2.7-.1-2.5 1.5-3.9-.4-1.6 1.4-1.3 1.9-2.4.2-.9-.1-1.8.8-2.2 1.8-1.6 1-6.5 3.7-7.1 1.3-.8.6-2.3 2-2.6-.7-1.4 0-3 .8-4.3.8-1 1.3-2.4 1.8-3.7l-1-.1c1 0 1.4-.6 1.1-2.5-.8-3.6 1.2-5.8 1.6-9.3-.2-4.6.4-8 .1-12.4Zm-70.7 305v-.1l1.2.1h-1.2ZM440 24.7l-2.6-.8c1 .3 2 .5 2.6.8ZM147.5 424l-2.5 1.7c0-.3 1.2-1 2.5-1.7ZM410 434.3l.3-.5h.1c0 .2-.1.4-.4.5Zm.3-.5h-.6l.3-.4c.8.2 0 .2.2.4Zm-.2-.6c.2 0 .1 0 0 0Zm-206 91.8Z"/></g><g opacity=".8"><path fill="#FFC83F" d="M216 227.5c-11.7-73.5-152.3-5.3-200-58C-19.9 131.8 30.3 99 30.3 99s-31.8 63.5 78.5 66c110.2 2.5 107.1 62.5 107.1 62.5Z"/><path fill="#E91315" d="M72.7 158c-6-.7-11.6-2.6-17.3-5.4-2-1-4.6-1.2-6.2-3-1.7-.2-3.6-.4-4.4-2.1-2.6-3.7-7.7-5-9-9.5-4.1-1.3-3.8-5.7-6-8.7.2-1-.3-2.1-.9-3 .6-1 1-2.3.5-3.4-.6-3.6-.5-8 .6-11.6-2.6.3-8-3.3-6.5 1.8.6 1.6 0 3.3.8 5-1.5 1.1-.4 2.3-1 3.6.6 4 1.5 7.5 3.1 10.6.3 4.4 4.6 8.2 6.6 11.9 0 1 .5 1 1.4 1 .3 1.3 1 2.9 2.4 2.7 2.2 2.7 4.5 3.1 7.1 5.1 1 2.5 2.6-.2 3.5 1.3 1.7-.4 1.5 1.6 2.7 2 1 .1 2-.2 2.5.8 2 1.9 6.6.4 8 3.3.8.6 1.4 1.2 2.4.9.3 1.3 1 .6 2 .3 1.3 1 3.2 1 4.8 2 3.3 3.5 4.4-6.2 3-5.7Z"/><path fill="#E91315" d="M149 166c-10-1-20-4-30.5-2.9a7.8 7.8 0 0 0-6.7-.7c-1.3-.8-3-.4-4.2 0-.7-.5-1-.7-1.7-.2-1.2-.2-2.3-1-3.3-.3-1.9.8-4.5.7-6.4.3-2.4-.7-4.9-.5-7.3-.4-2.9-2.5-7.8-1.9-11.7-2.8-5.9-1.6-3-.3-5 5.5 2.4.2 4.2 0 6.8 0 1.1-.5 1.4.9 2.4 1.2 1-.7 1.5.4 2.6.2 6.3.3 11.2 1.4 17.5 1 3.3.9 5.9.4 9 1.5 1-1.1 2.3-.3 3.5-.2.9-.7 1.7.2 2.3-1 .5.5 1 .9 1.8.7 1.2 0 2.2.3 3.3.6.6-.5.8-1.8 1.9-.9 1.6-1.1 2.3 1.5 4 .5 1.2-.8 2 1.3 3.2 0 1.7 1.3 3.5-.2 5.1.4 1.6 0 2.2 2.5 4 1.6.5 1.3 1 .4 2 0 2.1.7 4.5 1.5 7 2.5-.5-.5 2.7-7.7.5-6.6Z"/><path fill="#E91315" d="M214.1 207.3a82.5 82.5 0 0 0-17.2-21c-3.2-.3-4.3-2.8-6.4-4.8-1.7-.5-3.2-1.4-4.5-2.6-1.7.2-2.5-1.6-4-1.6-1.9-2-4-1.5-6.5-2.2-2.1-1-4.2-2.5-6.8-2.6-1.9-1.2-3.7-1.3-5.5-3-3.8-.8-7.7-2-11.5-2.9-2.7-2.7-2.4 5-3 6 2.4.4 6-1 8 1 3.7 1.5 8.4 2.3 12.2 3.4 2 2 5.9 2 8.6 3.6.3 1.4 2.5.9 3.1 2.5 1.3-.6 1.2.5 2.2 1 .4.9.9.7 1.6.5 1 1.3 2.4 1.4 3.3 2.3 1.6-.4 3.1 2.3 4.6 3.5 2.7-1.7 2.8 2.1 4.8 3 1.5 0 .8 2.2 2.5 2 .4 1.9 2.8 2 3.5 3.5 1 1-.2 3.2 1.7 3.8-.7 1.3.5 1 1.3 1.4.8 2 1.8 4.3 2.4 6.8 0-.7 7.8-2.3 5.6-3.6Z"/><path fill="#E91315" d="M145.7 189.7c6-1 12 .4 18.3 1.2 2.7.7 5.3.5 8 1 1.4 2.5 4.4 1.4 6 3 2 .2 3.3 1 5.2 2 .8 1.1 2.8.2 4.2 1.1.3.9 1.1.8 2 1 .4.8 1 1.5 1.9 2 1.4-.3 1.4 1.1 2.5 1.3 1.1.8 1.4 1.1 1.9 2.5 3 2.7 6.2 5.3 8.3 8.8 1.4-2 7.7-4 3.2-5.9-1.5-.4-2.2-1.9-3.8-2.3.2-1.8-1.2-2.3-2.3-3.5-4.2-3.1-7.4-5.7-12-8-2-.2-2.8-2.1-4.2-2.1-.6-.5-1.4-.9-1.8-1.6-.7.3-1 .5-1.5-.4-.9-.4-1.3-1.2-2.3-.5-1.3-1-3.2-1.8-4.5-.9-.9-1.5-3-1.2-4.4-2.2-.8 1.3-1.4.7-2.6.9-1.7-1.8-3.2-.5-5-1.9-.8.8-1.5.3-2.3-.2-1 .3-2.4.9-3.2.5-1.1.1-1.2-1.2-2.2-1.4-1-.5-1.6.5-2.2-.7-1 1.3-2 .4-3.5.8-1.4-.8-3-.9-4.6-1 .5.4-.8 7.7.8 6.5Z"/><path fill="#E91315" d="M77 196.4c8.8-1.2 18.3 0 27.3-3 2 1 4.3.6 6-.4 1.3.6 2.7 0 3.8-.6.6.3 1 .4 1.5-.1 1.1 0 2.2.5 3-.3 1.5-1.1 4-1.5 5.6-1.5 2.3.2 4.5-.4 6.5-1 2.7 1.7 7.5.1 10.8.1.8-.7 1.7.2 2.6.1 1.7 1.3.3-6.3.6-6.6l-5.8 1.6c-1 .7-1.5-.5-2.4-.6-.8.9-1.4-.1-2.4.3-5.6 1-9.8 1-15.4 2.5-2-.3-3.3.5-5.3-.2-.6 1.3-1.7.3-3 .3-.5 1.2-1.8.6-3 .7-.7.8-1.5 0-1.8 1.3-.6-.4-1-.7-1.8-.4-1 .2-1.9 0-3 0-.3 1.6-1 1.1-2 1.7-1.3.1-1.8-1.3-3-.2-.8.7-1.5 0-2.3-.1-1.2 1-3.2.2-4.8 1.5-1.5 0-2.6-2.1-4.2-1-.7-1.2-1-.1-1.7.4-2-.3-4.3-.5-6.6-1 .5.3-1 8 .7 6.5Z"/><path fill="#E91315" d="M12.5 170.4c5 4.4 9.8 9.2 15.6 13.3 1.8 0 2.6 2 4.2 2 2.2 0 3.2 1.4 4.7 2.9 1.4 1 3.4.6 4.4 1.8 1.3.5 2.8.2 3.7 1.3 1-.3 2 .4 2.8 1.1 1.4-.6 2.6-.3 4-.3 1.1 1 2.5 0 3.6 1.3 1.6.3 3 .2 4.4.4 2.3.5 4.3 2 7.1 1.4 2.7 1.4 5.6-.2 8.3.8 1.3 1.5 1.3-8.2 0-6.3-1.7.2-3.5.6-5.6 1-.7-.5-1.3-1.5-2.2-.7-3.5-1.7-7.9.5-10.5-1.8-2.4.1-5-.6-7.4-1-.3-1.4-1-.4-1.9-1.1-1-.4-1-1.3-2-.5-1.2-2-3.2-.9-4.7-2.5-1 .4-1.3-.7-2.2.2-.3-1.5-2.3-1.4-3-2.5-6 .2-1.8-2-6.1-2.5-.4-1.5-1.5-1-2.2-1.8-.6-1.3-2.7-.8-3.3-2-1.2-.7-.2-3-2.1-3.1.3-1.4-.6-.8-1.5-1-1.1-1.6-2.5-3.4-3.7-5.4.1.6-6.5 4.4-4.4 5Z"/><path fill="#E91315" d="M17.9 105c-4.2 5.7-10 10.3-12.7 17.2-.8 1.9-2.3 3.2-1.6 5.3-.6 1.7-2.2 2.5-2.6 4.2a14 14 0 0 1-.8 4.9c.5 1.6 0 3.2 0 5-.5 2 .8 3.3 1.4 5.3.2 2.2.1 4.8 1.8 6.6.9 4.8 3 10.3 7.2 13.8.2.9.7 1.8 1.3 2.5-.1-.6 6.8-4.7 4.3-5-.9-1-4.9-2.6-4.3-4.4-1.3-3.2-3.8-6.5-5-9.6.2-3.5-2.8-7.7-.6-11.2-1.1-.8.1-1.6.4-2.7-.9-.7-.3-1.2-.1-2.2.3-1 .6-2-.2-2.8 1.4-.5 1-2.4 2-3.1-.8-6 1.7-2 1.9-6.3 1.7-1.3 2.3-3.3 3-5.4 1-1.2 3.3-.6 3.5-2.5 1.4.3.8-.6.9-1.5 1.6-1.2 3.4-2.6 5.4-3.9-.6.2-4.8-6.5-5.2-4.1Zm196.8 103.2c3.3 8 5 17.6 2.5 26.1 0 .2-.3.7-.4.4-2.8-7.2-7-14-11.9-20-2.8-1.2 4-4.4 4.3-5.3-.6 1.9-.5 1.2-.6 1.6l6-2.8Z"/><path fill="#E91315" d="M18.5 104.4c2.5-2.5 5.5-4.2 8.4-6.1 2-1.3 4-3 6.5-3.2-1 4.9-2.7 10.9-3.4 16.2-6.4-.1-7.6-3-11.5-7Z"/></g><g opacity=".8"><path fill="#FFC83F" d="M460.4 184.8c2.8 15 3.7 34.4-6.6 54.2-10.4 19.8-40 34-40 34s26.3-9.6 28.6-53.5c2.2-44-43.6-91.6-43.6-91.6s56.8 12 61.6 56.9Z"/><path fill="#E91315" d="M438.4 206.3c1.7 6.3 1.3 13.1 0 19.8 0 3.3-.3 6.5-.6 9.8-2.5 1.8-1.4 5-3 6.9-.6 3.9-3 6.5-3.6 10.7-1.2 2-3 3.4-3.9 5.9-1 .4-1.6 1.5-2.1 2.5-1.2 0-2.4.6-3 1.7-2.6 2.5-6 5.2-9.6 6.2 1.6 2.4 1 8.8 5 4.5 3.6-4.3 10.6-5.9 12.3-11.8 3.5-2.5 5-6.6 7-10.6 1.3-.3.5-1.4 1.3-2.2.5-1 1.6-1.3 1-2.5 2-1.9 1.6-5 2.7-7.4-.6-.8-.6-1 .2-1.7.5-1.2.4-2.5 1.2-3.5 1-1.4-1.9-1.6-.5-3-.8-1.8 2-2.7.6-5 1.4-2.3.1-5.1.4-7.7-.3-1.2 1.1-1.6 1.2-2.6.5-1.2-.7-1.8.5-2.6-1.4-1-.6-2.4-1.2-4 .6-1.6.5-3.5.4-5.3-.3.6-8.1.2-6.3 2Z"/><path fill="#E91315" d="M404 138.9c5.3 5 9.1 11.3 13.2 17.7 1.1.7 2 2 2.2 3.4 1.4 1 3 2 3.1 4 .4 3.4 3.4 5.3 4.2 8.3 1 1 1.8 2.7 2 4.5 1 .6 1.7 1.3 2.3 2.4 1.7 2.3 1.3 5.3 3.4 7.5-.2 1 .4 2.3 1.1 3.1a4 4 0 0 0 .6 4.4c.3 3.8 2.3 7.3 2 11.2 8-1 7.1-.7 4-7.5-.2-2.3-.1-4.4-1-7-3-5-3.3-10-6.7-14.8-1-2-1-5.2-2.8-6.2 0-1.2-.1-2.8-1.5-3.1-.5-1.7-1.3-3.8-3-4.1.2-1.9-1.5-3.3-2-5.1-1.6.3-1.5-.7-2.6-1.4-.4-1.6-.2-3-2.1-3.7-.5-2.4-2.4-4.1-4.5-5.8-1-1.4.1-3.7-1.9-4.5.6-1.3-.5-1-1.4-1.4-.8-1.8-2.4-3.5-3.1-5.6 0-3.1-7 3.4-5.3 3.7h-.1Z"/><path fill="#E91315" d="M459 167.4c-3.3-5.3-6.2-10.6-10.5-15.6a4 4 0 0 1-2.4-2.5c-1.8-.4-3.5-1.3-3.8-3.3-1.5-1.8-4.2-2.8-5.6-4.3a5.8 5.8 0 0 1-3.3-2.6c-2.2.5-3.4-1.4-5.4-1.6-1.6-2.8-5.5-1.9-6.8-4.8-3.4-1.9-7.3-2.9-10.9-4.8.4 1-4.2 7.6-.7 6.4.2.9.5 0 1.1.1 1.1-.2 2.1.6 3.4.4.5 1.9 2.4 1.7 4 3 1.6-.5 2.6 2 4 1 .5.5.9 1.2 1.7 1 .3.6.2 1.2 1.1 1 1.4 1.1 3.4 1.4 4.8 2.6 1 .2.3 1.5 1.6 1.2 1 .6.9 2 2.1 1.4.3 1 1 2.2 2 1.7.9 1.2 2.1 2.4 3.4 2 0 1 .9 1.7 1.7 2.1.8 3 2.3-1.4 3.9 3.7 1.1.2 1.5.8 1.6 2 1.5.2 1.7 2.2 3.5 2.7.8 1.1-.6 3 1 3.7-.7 1.1.3.8 1 1.1.7 1.7 1.3 3.6 1.7 5.7.1-.6 7.6-2.3 5.8-3.3Z"/><path fill="#E91315" d="M460.8 231c1.1-5.3 2.6-9.8 3.8-15.4.4-2-.3-4.1.6-6.2-.5-1.3-1.3-2.9-.3-4.3 1.5-1.8-.5-4 .4-5.7-.3-2.1-1-3.9-.3-6.1-2.7-2.4-.9-6.1-2.5-8.9v.1c0-1 .2-2.1-.5-3 .7-.9 1-2.1.5-3.2-1-1.7-.5-4-1.6-5.8-1-1.4-1.1-2.9-1.5-4.5-.5.9-8.4 2.1-5.3 3.8-.5.7.4.3.7 1 .8.6.9 1.8 1.8 2.6-1.3 2.3.8 4.7.9 7.4-.3 1.5 1.2.4.5 2.8l.7 4.8c1.3 1.6.1 3.5.7 4.6-.1.7 0 1.4-.5 2 1.2.6.2 1 .2 2-.5.7 0 .8.5 1.3-.4 1.4-.5 3 .7 3.8-.8.7-.8 1.8-.6 2.8-1 1.1-.1 1.6.8 2.1-.7.7.3 1.2-.2 2-1.3.4-.7 1.6-.4 2.6-.5.6-1.2 1.2-.3 1.9-.8 1-.5 1.9-.3 3 .4 1.7-1.5 2-2.1 3.3.4.7 0 .8-.6 1 1.1 1 0 1.4.2 2.5-.4 1.5-1.9 2.4-2.5 4 .5-.4 7 3.7 6.5 1.6Z"/><path fill="#E91315" d="M415.9 275.5c6-4.4 13.5-7 19.2-12.6.3-2.2 3-1.4 4.3-2.6.3-1 1.5-1 1.7-2.2 1.3-.1 2-1.5 2.5-2.4 1.3 0 1.5-1.8 3-2 0-1.9 1.5-3 2.5-4.3.2-1.4 2.7-1.3 2.5-3.2 1.3-1.7 2.2-3 4-4.3.5-2.3 2.4-3.7 3-6 .2-1.7 1.2-2.8 2-4.2-1 .3-7.5-4.4-6.4-1-.9.3 0 .6-.2 1.2.2 1-.6 2-.5 3.3-1.6.3-1.5 1.5-2.3 2.6-1.2 1.2-.9 3-2.5 4 .2.6.5 1-.3 1.3-2 1.8-3.5 4.4-5.6 6.7-1.3-.3-1.3 1.7-3 1.5.4 1.3-1 1.1-2 1.7.3 1.2-1 1.4-1.9 2 0 .6-.2.8-.8 1 .1.9.2 1-.8.9-1 .8-1.8 1.3-3 1.8.5 1.6-.2 1.3-.8 2.4-.9.5-2-.4-2.5 1-.2 1-1 .6-1.8.8-.4 1.5-2.4 1.6-3.1 3.3-1.2.7-3-.8-3.8.9-1.1-.8-.9.2-1.2 1-1.7.6-3.7 1.3-5.8 1.8.6 0 2.5 7.5 3.6 5.6Zm-12.5-137.3c-2-2.3-3.4-5-5.2-7.3-1.3-1.5-2.8-2.7-3.3-4.7-.1-.1 0-.6.2-.4 3 .3 6-.4 9 .4 6.7 1 6.6 2.4 4 8 .9-.4-4 3.4-4.7 4Z"/></g><path fill="#E91315" d="M434 417.3s9.4-17.8-24.3-33.4c0 0 21.6 20.4 24.4 33.4Z"/><path fill="#E91315" d="M433.2 407c-.2-.5-1.5.6-.5-.5-.3 0-.4 0-.4-.2-.6 0 0-.2 0-.4.3-.5-.3 0-.4 0 .1-.3.4-.4 0-.3 0-1-.8-.4-.4-1 0-.2 0-.1-.2-.1 0-.3.3-.3-.1-.3.2-.3-1 0-.3-.7-.6 0-1.6.4-1-.4.9-1-.2-.4.2-1-1 .2-.4.2-.4-.3-.4 0-.5.3-.2-.2-.6.3-.4.2-.2-.2-.5.3-.3-.2-.1-.6-.7.3-1 .3-1.5.3.5-.5 0-.3-.3-.2.4-.6.5-1-.3-.7.3-.4.1-.5-.4-.5l.7-.8c.1-.5-.9-.1-.5-.7.1-1-1.3-.1-.6-1 .2-.9-5.2 4-5.3 3.9.9-.2 0 .4.6 0 .7 0 1.8-.3.8.4-.6.9.7-.3 0 .5.3 0 .1.2.2.4.3-.2.6 0 .6.2-.3.6.5-.2.6-.1 0 .3-.4.6.1.4-.4.5-.4.4.2.5 0 .6 1.2.3.2 1.1.7-.3.4.2 0 .5 1-.5.5 0 .3.5.6-.3.6-.4.5.3.2 0 .6-.4.3 0 .5-.2 1-.6.3.2.3.4.2.2 0 .7.8-.5 2.1-1 1 .2 0 .4 1-.5.4.2-.5.7.2 0 .4 0l-.2.6c1.7-.4.5.3 0 1.2.9-.3-.1.1-.2.3.2 0 1.5-.8.6 0 .4-.1.6 0 .2.3-2.3 2.8 6.2-3 5.3-2.5Z"/><path fill="#E91315" d="M424.8 397.4c.4.4.5 0 1-.1-.3.6-.4.3.1.6.4.5.3-.1.1.8.3-.1.7-.5.3.1.4-.2.6.4.5.7.6-.2.5 0 .4.4.4 0 .2 0 .1.3.3 0 1.2 0 .7.8.3 0 1.2-.4 1.1 0 .3.2-1.1 1.4 0 1-.4.6.1.3.5.3-.4.4-.4.6.2.4-.5.7.8-.2 0 .6.5-.2.3.3 0 .6.6-.1 1.8-.2 1.3.4.7 0 .5 0 .1.6 0 .4.4.1.7.3-.7.5.1.2-.2.6 1 0-.5.4-.5.8 1.1.4-.4 1.2 1 1.7-3 1.3 8-.7 5.5-1 1-.4-1.2 0-.6-.6-1.2-.5-.4-.4.2-1-.9 0 0-.4-.4-1-1 0 0-1.3-1.2-.8.6-.8-.4-.4.5-1-.7-.1-.6-1-1.4-1.2-.1-.4 0-.5.4-.8-.7.2-.5-.4-.2-.8 0 0-.6.3-.7.2.5-.6.7-1.1-.3-.7.3-.9-.4-.9-1-.6.7-.6-.2-.8.1-1.3.1-.8-1.8 1.3-1.1.1-1.5.5 1-1.2-.8-.7l.2-.7c-.5.3-.6.3-.4-.3-.6.1-1.1.3-1.2-.2.3-.4.7-1 .6-1.4-.8.4 0-.1 0-.4-1.5.8 0 0-1.2 0 1.7-4.7-4.9 3.8-4.4 3.3Z"/><path fill="#E91315" d="M427.6 410.5c1.2 2 2.8 3.9 3.7 6.1.5 1.6.7 3.2 1.9 4.4.5.5.7-.6 1-1 2.3-1.6 3.7-4.2 4-7 1.3-7.1-1.6-5-6.5-4.1 5.1-4.5-3.1 1.5-4 1.6h-.1Zm1.6-18a63.9 63.9 0 0 0-26.1-13.3c4.2 4.7 8 10.2 12.4 15 4.2 5.1 5 8.9 10.7 2.7l-1.6.4.5-.6c1.1-1 3-3.1 4-4.2Z"/><g fill="#FFC83F" opacity=".9"><path d="M394 458.4c.3-1.6-.6-1.8-1.8-1.4 1.1-.7 1.5-1.8-.2-3.4a32.5 32.5 0 0 0-10.4-11.5c-1 7.3 1.2 7.4-3.3 15.4l1.1.7c-.7-.4-1.3-.6-1.2-.3-.4.5 0 .6.2 1.2-.4.1-.9-.4-.7.4-.2.2-.5.3-.3.7-.7 0-1-.1-.6.6-.5-.2-.6 1-1.3.9.3 1-1.3.6-1.2 1.4-.5 0-.2.6-.6.8-.9-.1-.7.7-.7 1.3-.7.6-1.2-.3-2 0 .1.8-.6.2-.5 1.2-.5-.3-.8-.4-.7.3-.5-.1-.4 0-.5.4-.6-.6-.6.7-1.5 0 .1 1-.2 1.1-.6 1.8-.3-.2-.4-.3-.6.1 0 .8-.8-.3-1.3.1 0 1.3-1.2.1-1.4 1.2-.3-.4-.7-.9-1.2-.9-.7 1.1-1.9.1-3 1.1 0 .6-.5.2-.8 0-.3-.2-.4 0-.3.5l-.2-.6c0-.1 0-.3-.4-.6.6.3 1 .3 1-.3 2.8-5.9 6.3-11.2 9-17.6-.5-1.7 1.3-2.9 1-4.3-.4-2.2.7-3.4 1.8-5.2.6-1.5-.2-3.3.7-4.7.2-1.4-.5-2.7.3-3.8-.5-1-.2-2.1.2-3.1-1-1.1-1-2.4-1.7-3.8.5-.8-.1-1.5-.6-2.2.7-1.6-.1-3-1.2-4.3.1-1-.6-2.2-1.4-2.8.3-1.2 0-2.6-1-3.4a39.8 39.8 0 0 0-7.4-7.2c-.4-1.1-1-1-1.6-.5.2-.5.2-1-.4-1-5.5-2.1-10-5.4-15.9-7.3-1.4-1.4-4-.5-5.4-2.2-2.4.8-4-.2-5.8-1.7-1.8-.6-3.4-.2-5-1.3a9 9 0 0 1-5.7-1.4c-2.3.9-5.2.6-7.2-.7-3-.4-5.2-.4-7.5-2.4-2.2.2-3.7-1.2-5.8-1.6-1.3-.5-2.7 0-3.7-1.1-.4-1-1-.6-1.6.2.3-.8.3-1.4-.4-1.1-2.7-.6-5-1.2-7-3.4-2.6-.5-5.6-3-7.4-5-2-.7-3-2.7-4.8-3.6-2.2-.2-1.6-2.8-2.8-4.1-1.2-.8-2-2-2.6-3.3a7.4 7.4 0 0 1-2.9-4.7c-3.8-1.6-4-6.3-6.2-9.2a4.2 4.2 0 0 1-.4-3c-.3-1.3-1.2-2.2-1.6-3.4-.2-3-2.5-5-2.5-8.1-.4.3-1 .5-1.6.6 1.1-.5 1.8-1 1.3-1.3-2.8-5.5-3.9-11.7-5.2-18a4 4 0 0 1-.6-3.4c-.8-1-1.6-2-1.7-3.4 1.5-3-.7-5.8-.3-8.6a5 5 0 0 1-.1-4.2c-.8-.8-1-1.6-1.2-2.7-.8-2.3.6-4.5-.4-7 .6-.7.5-1.9.1-2.8.8-.7 1.4-1.7 1.2-2.9.3-3.3.6-7 1.7-10.4h-.4.4a77.1 77.1 0 0 1 11.9-30c10.9-12.8-26 16.8-28.5 18.9l.7.8c-.7-.6-1.2-.9-1.4-.1-3 4.3-7.5 6.6-10.9 10.8-2.6 2.8-6.4 5.2-7.5 9-2.2 1.8-5 2.7-5.7 5.6-2 .4-1.6 3-3.4 3.4-.1 1.1-1.1 1.9-2 2.3-.2 1.6-.8 3.4-2.2 4.3-.2 1.8-2 2.1-2.9 3.6.1 1.9-2 2.4-2.2 4.2-2.7.7-6.3 7.4-7.1 10.1-.7.7-1.5 1.4-2 2.3.2-.1.7.1 1.3.5-1-.4-1.6-.5-1.6.3-2.3 6.3-5.9 12-7.9 18.8-.7 1.3-.2 3.2-1.5 4.4.1 1.7.6 3.6-.7 4.9-2.1 2.6-.9 6-2 8.7a8 8 0 0 1-.8 4.7c1.4 2 .3 4.3 1.2 6.4-1.6 2.3.2 4.7-.3 7 .8 1-.5 1.6-.5 2.6 0 2 .8 3.8.7 5.9.1 2.7 1.7 5 1.5 7.8.2-.2.7-.4 1.4-.5-1 .5-1.5 1-1 1.3 2.6 5.8 4 11.7 7.5 17.4 1.4 4.3 6 6.4 7.2 10.8 2.8 3 5.2 5.3 8.2 8 .1 1.3 1.4 1 2.3 1.1 1.3 1 2.4 2.1 4 2.5 1.4 2.4 4.4 3.2 6.7 4.2 1.6 3.7 9 4.4 12.3 6.3.6 1 1.2.7 1.7-.1 0 .8.1 1.3.6 1 6.6 1.1 12.7 3.5 19.4 4.9 2.9.9 5.6.9 8.4 1.4 1.8 2.5 4.8 1.6 7 3.3 1.8 0 3.8.9 5.2 2.5 2.3-.7 3.6 1.3 5.8 1.7.8 2.4 3.5 2.5 4.6 4.6 1.3 0 .5 1.2 1 2 1 1.6 2.5 2.5 3.1 4.4.9 2.2 3 3.4 2.6 6 .5-.3 1.1-.5 1.8-.6-1 .4-1.5.9-1.5 1.2 2 5.6-2.6 11.5-6.3 16.1a4.5 4.5 0 0 1-2.4 3c-.4 1.5-.7 3.4-2.5 4-3 1.5-3.5 5-5.6 7a8.7 8.7 0 0 1-2.8 4c.6 2.5-1.4 4.2-1.3 6.6-2.2 1.8-1.3 4.7-2.3 7-.8 3.1-1.3 7-.5 10.8a67 67 0 0 1 2.3 6.3l.7-.5c-.6.5-.8 1-.1 1.3 3.4 4.2 5.7 8.7 10 12.4 2.7 2.7 5.3 6.4 9 7.6 1.4 1.8 2.3 3.7 4 5.1.8.4 1.6.5 1.7 1.5.5.8 1.5.5 1.6 1.5 1.2.6 2.4 2 3 3.5 1.5.2 2.3 1.1 3.5 1.9.3 1.4 2.1 1.4 2.1 3.1 1.3 1.5 2.7 2.3 3.5 4 1.3.3.4 1.4 1 2.3 1 1.6 2.5 2.7 3.2 4.5 3.5 4.2 3.2 6.3 4.8 5.8l-.7.5c3.5 5.3 7.5 11.4 11.3 16 1.2-2.6.9-5.4 1.1-8 .3-3.9 1.2-7.5 1.4-11.3l-.6-.1c.6-.1 1-.4.6-1-.1-7.3 1-14.8 4-21.8.6-2.9 1.8-5.3 2.8-8 3-1.4 3-4.7 5.5-6.5.8-2 2.4-3.8 4.5-4.8.2-1.6 1.2-2.5 2.2-3.8 1.6-1 2.9-2.2 4.8-3.1 1.4-2 3.8-3.1 6-3.2l13.9-6.5c-.5-.5-.8-1.1-1.2-1.8l1.2 1.8.8-.6c7.2-5.8 14.5-11.4 19.6-19.8 1.4-2.8 2.5-5.4 5-7.8 1.3-4 3-7.3 4.1-11.4 1-2 0-4.9.8-7.3.7-3 .7-5.9.7-8.9a35 35 0 0 0-2.6-16.7Zm-12.8.7-1-.5 1 .5Zm-148-194.6-.1-.2.2.2ZM378.2 457.6Z"/></g><g fill="#FFC83F" opacity=".9"><path d="M352.3 203c-4.2.6-8.6 1-12.7 2l.1.6c-.3-.5-.7-.7-1.2-.2-9.6 3.7-20.3 5.7-29.3 11.6-1.8 2.4-4.5 2.4-7.1 3.7-2 2.3-5.2 3.2-6.8 5.8-3.2 1.3-5 4.1-6.8 7-2 1.9-4.5 3.5-5.7 6.3-1.9 2-3.9 3.5-5.8 5.7-2.4 3.6-4.5 7.7-7 11.2-.8.6-.7 1.2-.2 1.7-.7-.2-1 0-1 .8-3 8-6.2 16-7.8 24.8-.6 4 .7 8.1-1 11.8-.5 3.6.5 6.7.4 10 .8 2.7.3 6.5 2.1 9.4 1.2 3 .6 6.4 2.6 9.2.8 7.1 4.5 13.7 8 20.3 0 1 .9.8 2 .2-1.1 1.2-1 2.7 1.7 5.2a52.2 52.2 0 0 0 17.5 14.6c-3.2-8.1-7.4-16-8.6-24.9-.3.2-1 .3-1.8.5 1.4-.3 2.3-.7 1.5-1.4-2.3-6.1-1.9-12.8-2.2-19.5.2-3-.4-5.7-.4-8.6 2.2-2.4.6-5.3 2-7.7-.3-2 0-4.2 1.2-6-.7-1.4-.3-2.6-.3-4.1.7-.7.5-1.5.3-2.4 1.4-1 1.7-2.6 1.6-4.2.8-.8 1-2 1-3.1 1-.5 2-1.4 2.1-2.6 1.2-3.5 3.1-7.3 5.4-10.3-.5-.1-1-.4-1.4-.7 1 .6 1.8.8 1.7-.1 3.4-7.9 10.2-14 15.1-21.3.1-2.4 3-2.3 4.3-3.8 1-2.4 3.5-3.4 4.4-5.7 1.4-.2 1.6-2 3.3-2.3.2-1.2.6-2 1.4-3 1.2-2 4-2.6 5-4.8 1.8-2 4-2.5 6-4.2 3-2.6 6-5.4 9.4-7.6l-1.2-1.5c4.2 2 10-7.4 16.6-12.8-2.6-1.1-5.7 0-8.4.4Z"/><path d="M328.6 359.7c.4-.5.3-1-.8-1.4.4-.9-.5-.4-.8-1-1-.7-1.4-2-2.6-2.8.7-1.9-.8-2.9-1.2-4.7-3.1-4.8-4.3-9.2-6.4-14.7 1-1-.6-2.4.4-3.8-1.2-.7-.2-1.8-.1-3-1.6-.8.1-2.7-1-3.8.3-.8-.2-1-.8-1.4.7-.7.5-1.5.6-2.5-.3-1.5.8-2.5-1.3-3.1.6-1.1-.8-2.2.7-3-.8-3.2.2-5.7-1-8.9 0-1.5 2.2-2.5 1.2-4.2 1.3-.6.3-1-.2-1.8l1.6-6.8c0 .2-1.6 0-3.2-.3 1.2 0 2.4.2 3.3.3.3-3 0-5.8.2-8.7.2-1.9.7-3.7 0-5.6-.5-.6-1 .7-1.5.8a18.7 18.7 0 0 0-7.8 6.7c-2 1.5-1.8 2.7-.8 3.6-1.5-.6-2.4 0-2.6 3.8-2 4.8-6 10-5.3 15.5-3 5.7-.9 12.4-2.4 18.4 1.2 1 .1 2.4.2 3.8 1 .7.6 1.7 1 2.9.7 3.2 1.7 5.7 2 9.4 2.7.4 2.3 3.2 2.9 5.2 1.8 1 1 3.3 2.8 3.8.6 2.5 3.2 3.2 4.3 5.3-.6 2.2 1.8 2.9 1.9 4.6.9.1 1.9 0 2 1.2 2.5 1.1 3.2 4 5.4 5.6 0-.3.9-1.2 1.8-2.2l-1.7 2.2c7.9 5.6 16.7 11.2 26.1 13.4a196 196 0 0 1-16.4-23c-.2 0-.3.2-.5.3Z"/></g><path fill="#E91315" d="M110.1 269.5s25.6-28.5 67.4-21.7c0 0-58.3 17-64.1 61.8 0 0-6-5.1-3.3-40Z"/><path fill="#E91315" d="M117.9 303.5c.8-5.9 3.7-11.6 7.6-16.4.6-2.3 2.6-3.6 3.5-5.7 0-2.3 2.8-2.1 4-3.5 1-2.3 3.6-3.1 4.6-5.3 1.5-.8 3.6-1.7 4-3.6 3-3 6.8-4.3 9.7-7.1 2.2.7 3.7-1.2 5.3-2.1 3.2-.6 5.3-3.2 8.5-3.7-1.7-2-1.7-8.5-5-4.3-1.7 1.4-3.2 3-5.4 2.6-.7 1.2-2.5 1.1-3.7 2-.8 1.7-3.7 1.4-3.7 3.3-3.8 1-6.5 4-9.7 6.6-1.3-.4-1 .9-2 1.2-1 .7-1.9.3-1.7 1.7-2.7.5-3.5 3.4-5.6 4.8.2 1 .1 1.2-.9 1.3-1 .8-1.4 2-2.5 2.4-1.4.7 1 2.1-.8 2.6-.2 2-3 1.4-2.7 4-2.3 1.2-2.3 4.2-3.6 6.4-.2 1.1-1.5.8-2 1.7-1 .7-.1 1.7-1.5 2 .8 1.4-.5 2.2-.5 3.8a11.2 11.2 0 0 0-2.4 4.4c.5-.4 7.3 3 6.5.8v.1Z"/><path fill="#E91315" d="M161.5 243.6a99.4 99.4 0 0 0-31.6 8c-2.6 3.4-7 3.4-10.3 5.8-3.1 3.4-7.6 5.3-10.4 9-1.6 2.3-2 5.4-1.3 8.2-1.6 2.2.1 4.7-.8 6.9 0 6-1.8 12.9.5 19.4-1.5 5.9 3.6 2.6 6.7 2.2-1.2-2.7-1.8-5.1-2.7-8.1 1.3-3.7.9-9.6-.1-13.4 1-3.7.9-7.4.8-11.3 1.4-1 2.3-1.5 3.5-2.7 1-.8 2-.5 2.1-2 2.6-.6 4.5-2.7 6.5-4.4 1.7-1.2 3.6-2.6 6.1-3.2 1.8-.2.5-2.6 2.4-2.3 1.3-1.7 3.8-.1 5.2-2.4 3.1.2 5.6-2.3 8.6-2.9 1.1-.6 2 .7 3 .5 1.3.3 1.9-1 3 0 1-1.3 3.4-1.5 5.1-1.2 1.7.3 3.3.3 5 .4-.7-.4 1-8.2-1.3-6.5Z"/><path fill="#E91315" d="M117.8 304.3c-.5 1.7-1.3 3.2-1.8 4.9 0 1.2-.3 2-1.2 2.8-.4.5-.8-.3-1.2-.4-1.6 0-2.7-1-3.6-2.3-4.2-5.3 0-5.1 4.3-6.2l-3-.4c1.8.4 5 1.1 6.5 1.6Zm45-60.9c4-.1 7.9.7 11.8 1.4 3 .7 6.3.6 8.8 2.5-5.6 2.9-12.2 6-18.2 8.9-2.7-4-2.3-8.4-2.5-12.7Z"/><path fill="#E91315" d="M180.9 472.5c-2.2-2.9-5.7-2.5-9-3.9-1 0-.6-1.4-1.8-.8-1-.5-1.4-1.9-2.5-1-.5-1-1.3-2-2.4-1.3-.8-1.2-2.1-1-3-1.8-1.2 1-.8-.5-2-.8-1.4-.7-2-2.3-3.5-.8-.3-1-1.2-.4-1.7-1.2 0-.9-.5-1.4-1.4-1.4-1.3.2-1-2-2.4-1.3-.8-2-4.5-1-4-3.8-.3-1.4-1.8-1-1.5-2.4-1.3.4-2.6-.9-3.1-2-.5-1-1.3-2-1.9-3 .1.3-1.2 1.3-2.4 2.3 1-1 2-2.2 2.4-2.3-2.4-2.6-5-5-7.1-7.8-2.1-2.6-3.3-5.9-6-8 0-.2-.5-.4-.5-.2.1 4.8-1 9.6.3 14.3.8 4.6 1.2 7 3.5 7.1-1.3.5-2 1.3-.3 2.8 1.2.9 1.3 2.3 2.6 3.3-1 1.5.4 1.9.4 3.1 1.7 3 3.4 5.3 5.4 7.3 1 3.2 5.6 5.2 7.3 7.6.8.7.6 1.6 1.8 1.2.3 1 1 2.3 2.3 1.8 1 1.3 2.5 2.5 3.9 1.9.2 1 1.3 1.7 2.4 1.9 1 2.2 2.1-.6 3 .7 1-.3 1.6.3 1.9 1.2 1 .6 2.1-.3 2.9.7.9.8 1.8-.3 2.8.8 1.6-.4 3.7-1 4.6.6 1.2.9 2.1-.3 3 .9.9-1.2 2.5-1.3 4-1 1.2.3 2.5.1 3.8 0-.2 0-.3-1-.5-2.1.6 2 1.7 2.8 4.6-.8 5.2-4-1.2-11.6-5.9-11.8Z" opacity=".8"/><path fill="#FFC83F" d="M145 264.2c7.8-5.4 16.5-9.1 24.2-14.5-6-.5-14.4-.3-21 1-4.6.6-7.2 1-7.4 3.4-.5-1.5-1.3-2.2-3.6-.2-3 2.2-6 1.6-9.3 3-4.8 2.6-8.6 4.5-12.9 7.9-2 2.6-4 4.3-6.6 6 .3 1.4-.9 1.3-1.6 2.3-1.1 1-1 2.8-2.6 4-.3 2.4-1.6 4.1-3 6.4-1 1.8.8 1.2-.1 4-1 1.3-2.1 2-1.5 4-1.5 2-1.4 4.8-1.2 7.4-.2 1.3-1.2 1.9-1.7 3-.6 1 .4 1.8-.8 2.5 2 2.6-.4 6-.2 9.4a47.7 47.7 0 0 0 0 0c.1 3 1 5.8 1.7 8.6.3 1.8.7 3.5 1.9 4.9.3.3.5-.1.6-.4 1.8-2.4 4.2-4.5 5.5-7.4 2-1.9 1.8-3 .7-4 1 .5 1.7.6 1.5-.3.5-1.6.9-3.4 1.3-5.5 1.9-.3 1.8-2.1 3-3.4 1.8-5.1 4.3-8.3 6.7-13.4 1.1-1 1.3-2.4 2.9-3.2-.6-1.2.8-1.5 1.6-2.4-.8-1.5 1.6-2 1.3-3.4.8-.5.4-.8.2-1.5 1 0 1.3-.8 1.9-1.5 2.8-2.5-.3-2.4 1.4-3.5 0-1.8 2.6-1.1 2.4-3.4 2.4-1 2.5-3.9 4.6-5.3 1.7 1 2.4-1 3.7-.6.3-2.7 4-2.5 6.3-3.8-.2 0-.9-1.4-1.6-2.9l1.8 2.9Z" opacity=".9"/><path fill="#E91315" d="M463.7 223.2c.8-3 .8-5.9 1-8.9 0-2 .4-4.2-.8-6.1a53 53 0 0 0-9.6 8.7c-1.3.5-.9 1.3 0 2.2-.5-.4-1-.7-1-1-2.2 2.8-2.8 7.2-6.6 8.4-6.8 8.4-14.4 17-23.1 22.7-3.4 2.6-5.8 6-10.1 7.3-1.5 1-2 4.2-4.8 3-1.5.6-2.4 2-4.3 1.3-.6 1-1.7.8-2.8.8-1 .7-2.5 1.7-3.8 1.6-1.7.6-3.3-1.4-5 .2-1-1-1.3 0-2 .7l-9 .5c.4.1.4 1.7.6 3.3l-.6-3.3c-2.7.4-5.3 1.4-8 2-1.7 0-3.4.1-4.9 1.1-.4.3 0 .5.3.7 2.2 2.5 4.4 5.1 7.6 6.4 2.3 2 3.4 1.7 4 .5-.1 1.7 1 2.4 5.4 2 9.6 3 16.3 1.5 25.6-.5 5.3-3.5 12.2-5.2 16.4-9 2.9-.1 3.8-2.5 6-3.7l7-6.2c2.8-.4 1.2-3 3-3.8.4-2 2.5-1.7 3.4-3a6.3 6.3 0 0 1 3-3.6c1-2.4 2.7-5 3.9-7.4 2-2.2 5.1-4 4.5-7.2 1.7-3 3.4-6.3 4.7-9.7-.4.2-1.8-.4-3.2-.9l3.2.9Z"/><path fill="#E91315" d="M426.3 541.3a34.2 34.2 0 0 1-5.4 6.2 51.5 51.5 0 0 1-17.5 8.9l1 3.2c-.5-1.8-1.1-3.7-1.6-2.9-1 .2-1.1.7-1.7 1.4-.6-.3-.8-.7-1.3 0-1.3.5-2.5-.3-3.3.8a55 55 0 0 0-10.9 2c-1 1.7-2.7-.2-4.2.1-.6.8-1.5.1-2 1.2-.7-.4-1.4-.5-1.7.4-.6-.2-.9-.2-1.1.5-1-.6-1.8.8-3 .2-.4 1.2-1.3 1.5-2.1 2.4-.8-.3-1.1.3-1.5.9-.6 0-1.2-.3-1.7.1-1 1.2-2.4 1.3-3.2 2.6-1.7-1-2.8.8-3.8 1.8-2.4.4-2.9 3.2-5 4-.4 0-.4.3 0 .8-.6-.3-1-.3-1.2.4a41 41 0 0 0-10 27c6-7 10.5-15.3 18.6-20.4l-.4-.5c.4.4.7.5.8 0 1.2-.4.6-2.2 2-1.5.8-1 2-1.4 3-1.4.8-1.2 4.6-2.3 6.2-2.3 1-.5 2.2-1.4 3.5-1 1-1 2.3-1.8 3.6-.6 1.8.2 2.7-1 4.4-.5.4-1 1 .2 1.5-.7.9.7 1.8-.5 2.8.4 1-1.8 3-1 4.3-2 .8.4 2.1.7 2.7-.2 1-.4 2 .2 2.9-.8.7.6 1.8 1 2.6.4 1.1-1.1 3-.5 4.3-1.5 1.3-1 2.5-1.5 4.1-2l-1.3-2.1c6.6 5.8 20.3-19.5 21.4-26.2-3.3-1.6-4-3.3-5.9 1ZM292.2 609c-.1-.4-.3-.1-.6 0 0-.8-.4.1-.7.2.2-.5 0-1.1-.6-1 0-1.6-.8 0-1.2.3 0-.6-.1-.4-.5-.3-.3-.7.3-1.5-1-.8.1-1.6-.4-.1-.7-.8-.3-.8-2.2.8-1.5-1.2-.1-1.2-.9 0-.5-1.3-1.8 1.5-1.9-1.8-2.8-.8l.2-.6c-7.8-3-17.6-4.2-25.3-.8 5 2 10 4.8 15.4 6.6 4 2 6 3 7.6 1.2-.5 1.3-.7 2.3.2 1.5.6-.6.8 0 1.4-.3.6-.4.1.8.4 1 .4-.2.4-.4.5.2.3 0 .4.2.7.4.2-.1.3-.4.6-.1.7.2.6.7 1.1-.1.2.9.9.1.7 1.2.5-.5 1 .3 1.6.1.7 0 1.1.3.9 1 .4-.3.4-.2.7.2 3.1 2 7.5-2.7 3.4-5.8Zm-12.2-1h.1l-.4.8.3-.8Zm11.2 1.7Z" opacity=".8"/><path fill="#FFC83F" d="M221.3 400.1c1.4-.4 1.9-1.3.2-3.8-.9-2.2-2-4.2-1.4-6.6-1.1-2.9-2.6-6.1-3.9-9.3-2.4-1.6-2.4-5.3-5-7.5-2.9-3.4-5.5-6.8-8.1-9.5-3.7-3.6-8-4.8-12-8.4-1.5 1-4 .3-4.5-1.5-1.1-1-2.8-.1-3.5-1.4-2.3-1.5-5.4-1.4-8-2.7-.5-2.2-3-1.8-3.7-3.3-.8.3-1.7.8-2.2-.3-2.7 0-4.3-2.5-6.9-3.3.2.2-.2 1-.6 2 .5-1.3.8-2.4 0-2.2-2.9-.8-6.8 0-9-2.8-5.2-1.6-10.5-3.2-15-5.8l-2.4-1a101 101 0 0 1-6.5-4.3c-.4-.5-.6-1-1.4-1l-.4-.3c-.8-2-3-2.1-3.8-4.3-2-.9-2.3-2-3.2-4-1-1.2-.4-2.8-2.7-2.6-.9-1.8-.3-3.4-1.4-5.1-1-2.7-1-5.5-2.8-8.2-.3-1.8 1.6-3.4.4-5.1 1.1-1 0-1.3-.6-2 .1-2.6.4-5.3.9-8-.2.2-1.8 0-3.5-.3l3.5.2c.3-6.8.8-14.2 6-19.1.5-1.2 2.1-3 1.9-4-6.4 2.7-12.9 5.2-17.1 11-3.2 3.3-4.5 5.2-3 7-1.3-.8-2.3-.9-2.4 1.4-.3 2-.4 4.1-2.4 5.1.2 1.2-1 2.2-1.3 3.6.5 1.6-1.7 3.2-.4 4.5-2 2.9-1.7 6.4-2 10.2-1.2.5 0 1-.6 2-.1 1-1 1.4 0 2.1-.7.9-1.2 2.2-.2 3-.2.9-.7 2 0 2.8-.4.8 0 .9.6 1.3-1.2 1 0 2.6-.7 3.8-.5 1.5 2.2.7 1.2 2.2 1.3 1-.4 1.7 0 2.8.3.7 1 1.2.5 2-.3 1.2 1 1.5.4 2.9.6.7 1.6 1.8 1.5 2.7.5.9-.7 1.4-.5 2.4-.2 1 1 1.1.2 2.2 1.5.3 1.1 1.6 2.1 2.7-.2 1.5.4 3 1 4.4l.9-.6c-.8.6-.9 1.4.6 2.4 1.4.7 1.8 2 3.2 2.8-.5 1.6.7 2.3 1.6 3.5 3.2 3.6 6 5.6 9.5 8.7 2.2.7 3 2.4 4.7 3.3 1.2 1.4 2.2 1 3.3 2.8 1.5-1 2.1 1.5 3.6 1 .5.8.8.4 1.4 0 .6 1.7 2.6 1.7 3.7 2.8 2-2.3 2.9 1.2 5 1 .9-.2 1.2.7 1.8 1.1.5-.2 1-.4 1.4.1 1.2 1 3 0 4.3 1 .2 2 2.3 1.3 2.7 2.6 1.2-.8 2.7-.3 4 .5.8.8 2 1.2 3.2 1.7-.1-.2 0-.7.2-1.4-.2 1.1-.2 1.8.6 1.4h5.4c.9 1.9 2.8 1.5 4.6 2.4 1.6-.6 3 1.6 4.3.4.6.4 1.1 1 2 .8.4.5.5 1 1.4.7 1.8 1.2 5.4.4 6.4 2.5 1-.4 2 .4 2.5 1.2 1-.9 1.6.5 2.5 1 1-.7 1.8.3 2.8.8 1-.4 1.3.6 2.1-.2.3.8 1 1 1.8 1.4 1.4.4 1.7 1.7 3 .1.5 1 1.3.3 2 1 0 .5 0 1 .8 1.2 1.2-.2 1.8.2 2.4 1.3 1.5-.4 2.6 1.3 4.4 1.2 1.2.7.8 3 2.6 3-.2 1.3.6.6 1.5.5 1.2 1.4 2.7 2.8 4 4.6h-.1c1.9 1.7 4.1 3.2 5.6 5.3 1.3 1.6 1.8 3.7 3.6 5 .2 0 .6.2.6-.1 1-3.7 2.8-7.2 2.4-11.2.6-3-.1-4-1.5-4.1Zm-9.2 3.5-1.4 1.6c.1-.3.7-.8 1.4-1.5ZM113.8 287.7Z"/><path fill="#E91315" d="M221.2 400.2c1.4-.4 2-1.3.4-3.8-2.2-5-1.8-10-5-14.9-2-2.7-2.8-5.8-5.2-8.6-2.9-3.3-5.5-6.7-8-9.5-3.8-3.6-8-4.8-12-8.3-1.5.9-3.9.1-4.5-1.7-1.1-.8-2.7 0-3.5-1.3-2.3-1.5-5.4-1.5-8-2.8-.4-2.2-2.8-1.7-3.5-3.3-.8.3-1.7.8-2.3-.3-2.6 0-4.2-2.6-6.7-3.4l-.2.9c.2-.8.2-1.2-.3-1.1-2.9-.9-6.8-.2-8.9-3a93.9 93.9 0 0 1-22.6-10.6c-1.1-.7-1.3-2.3-2.8-2-.5-1.1-1.2-2.5-2.6-2.3-1-1.5-2.1-3.3-3.8-3.3 0-2-2-3.1-2.3-5-1.7.2-2.1-1.2-2.8-2.6.8-1.3-.4-2.3-1.2-3.2 0-2.6-1.2-4.8-2.4-7.3-.5-1.8 1.6-3.4.2-5 1.2-1 0-1.3-.5-2 .3-2.1 0-4.3.8-6.6.8-1-.3-1.5-1.9-1.7l2 .1c.9-14.9 5.5-19.3 14.5-29.9.6-1.2-2.4 1.1-3 1.2-3 1.3-6.1 2.1-8.7 4-4.8 3.7-18.4 16-13.6 20.6-1-.4-1.9-.7-2-1-.4.8-.4 1.6-.6 2.4-.6 1.7-.8 4.6-.9 6.8-1.7 1-1.2 2.6-2 4-.7 7.9-1.6 14.7-.1 22.5.1 5.6.5 13.8 4.6 17.7-.2 4.6 3.6 6.2 5.7 9.2 0 2.6 6.3 8 8.8 9.2 1.8 2.3 2.8 5.8 6 5.6 2.2 1.9 5 3.9 7.6 5.6-.1-.3.6-1.4 1.3-2.6-.5 1.2-1 2.4-1.3 2.7 3 1 5.6 1.7 8.9 2.2 2.7 3 8.8 4.6 12.8 4.6 4.2 2.4 9 2.7 14 4.1 2.1 2 5.4 1.7 7.8 3.8 1.8-1 3 1.6 4.9 1.2.7.7 1.1.5 1.9.2.4.6 1 1.2 1.8 1.4 1.8.6 3 2.8 5 1.3a14 14 0 0 1 3.8 3c2.1-.3 2.6 2.2 4.4 2 1.3 1.9 3.8 1.6 5.2 3.1 1.3.5.8 1.9 1.7 2.7.6 1 1.9.7 1.8 2.1.8.1 2-.1 2.1 1.1 4 2.8 3.7 6.2 6 5.2l-1 .8c1.8 2.1 4 4 5.5 6.2 1.1 1.6 1.6 3.6 3.3 4.7.9.8.7-.8.9-1.2 1.1-2 1.7-4.3 2-6.6.6-4.5.5-6.8-1.5-7.3ZM113.7 287.7Z"/><path fill="#89BBE0" d="M439.1 762.9c.7-.1 1-.4.7-1-1.1-9.9 1-20.6-1.8-30.5.8-4.7 1-9.2-.2-13.4.3-1.9 1-4.5-.5-6.2-.2-1.7 0-3.4-.7-5 1.4-2.7-.4-5.2.2-7.9.3-3.8.8-8.5.2-12.9 0-3.2 0-4.5-.5-4.9.7-.2.9-.5.3-1.1-.1-1.1-1-2-1.8-2.6 0-.6-.3-1.1-.7-1.6-.2-.3-.6 0-1-.1-.9-.2-1.6-1-2.6-1v.6c-.2-.5-.4-.8-1-.5-7.4.8-15.3-.1-23 .6-12.3-.2-25 .8-38.2 3-3 0-6.9 1-9.2 1.6a8 8 0 0 0-3-.1l.3.9c-.3-.8-.6-1.2-1.1-.7-9.2 2.6-19.4 2.5-28.6 6.6-2.3-.7-4.6 0-6.4 1.2-1.4-.5-2.8.4-3.9 1.1-1-.6-1.4.6-2.5.4-.9.4-1.7-.3-2.3.7-1.5 1.4-4 2.2-5.8 2.5-2.4.2-4.6 1.4-6.7 2.4-2.8-1-9.4 2-12 3.7-1 0-2.1.1-3 .5.2 0 .4.6.7 1.3-.5-1-1-1.6-1.5-.9-7.6 4.8-17.8 6.5-24.5 13.2-2.3.8-4.4 1.2-6.2 2.5-.7.8-1 1.5-2.1 1.4-1 .4-.8 1.5-2 1.4a7.5 7.5 0 0 1-4 2.5c-.5 1.2-1 2-2 2.8-1.3 1-2.2 2.4-4 2.7-1.6 1.2-2.4 2.7-4.2 3.7-3.2 2.1-7.8 4.8-10.2 8.8-.8.5-1.8 1-2.5 1.7.1 0 .5.2.9.7-.8-.7-1.4-.9-1.5 0-5 7.4-13.6 13.3-17 22.1-1.6 2-4 3.1-4.8 5.6-.5 1.6-2.2 2.5-2.3 4.3-1.2 1.3-3 3-2.7 5-.7 1.5-1.8 2.7-2 4.3-2.2 1.7-3 4.6-3.9 7-3 1.5-5.2 7.6-6.2 11-.7.6-1.4 1.5-1.7 2.4h.5v.2c-.6 0-.9 0-.8.7a45 45 0 0 1-.6 2c-9 17-15 35.3-17 54.5a25.3 25.3 0 0 0-2.5 11.3c-.4.9-1 1.9-1 2.8l1.1.1c-1.2 0-1.8.6-1.1 2.7.2.5.3 1.1.7 1.6.3.2.5.6.4 1 0 .5.5.8.8 1.1.4.3.8 0 1.2.2 1.1.2 2 .9 3.1.9v-.3.3l1-.1c10.5-1 21.3 1.3 32.1-.3 3.6 1.8 8 1 11.5.6 4 1.5 8.2-1.1 12.3-.2 7.1 0 13.9 2.1 21.5 1 2 1.2 2.8.8 3.1-.3 0 .9.3 1.3 1 .9 9-.5 18.2 0 27.6.5 2.8-1.7 5.2-.3 8 .3 4.3-.7 8 .1 12.4-.3 2.2-.2 2.8-2.2 4.8-3.1 1.6 0 2.3-1.7 4.1-1.3 1.7-.8 3-1.7 4.6-2.4 5.3-1 10.6-3.9 15.9-6 1.3.2 1.6-.3 1.4-1.3.4.7.8 1 1.2.3 9-5.2 19.9-7.8 29-13.8 3.4 1 5-2.5 7.7-3 3-2.3 6.6-2.6 9.7-5.2 7.7-3.5 15.8-5.3 23.1-11 2.4-1.4 3.2-2 3.2-2.7.5.4 1 .5 1.2-.2 6.1-6.2 13.6-11.2 18.3-19.2 2.5-1.8 1.8-5.4 5-6.7 2.3-3.5 3.9-7 5.3-10.6 2-2 1.4-4.3 2.1-6.8 1-2.4 2.5-4.7 2.5-7.5 1-2 1-4 2.7-6 .6-4.2 1.4-8.4 1.8-12.6.8-1.1.4-1.7-.4-2Zm-6.7 11.6ZM211 761.3c1-1.2.8-2.6 2.5-3-.3-1.1.6-1.5 1.4-2 .3-1 .6-2.4 1.5-3 .8-1.2 3.2-.4 3.3-2.4 1.4.4.9-.6 1-1.5 1.7-1.5 3.7-3 5.8-4.5-.2 0-.5-.2-.8-.6.7.6 1.2.8 1.3-.2l3.3-5.1c2.2.1 3-2 5-3 .4-2 3.3-2 3.1-4 1.4-.7 2.7-1.1 3.6-2.2 2.4-1 4-4.7 6.6-4.4.4-1 1.6-1.5 2.7-1.6 0-1.4 1.6-1 2.7-1.6 0-1.4 1.6-1.4 2.6-2 .4-1 1.5-.7 1.3-2 1 .3 1.7-.3 2.6-.7.5-.8 1.5-.5 2.2-1-.2-1.6 1.5-3.1 3.2-2.4 1.3-.8 1.7-2.1 3.5-1.8.2-1.1 1.1-1 2-1.2.7-.8 1.7-2 2.7-2.1 1.2-.8 3 1 4-.8 1.1.8 1-.3 1.6-1l7-1.8c-.2 0-.4-.6-.7-1.5.4 1 .9 1.7 1.2 1.2 1.7-1.3 3.4-2.2 5.4-3.7 1.6.8 2.6-.2 4.2-.6 2-.9 3.7-1.5 5.5-2.1a283 283 0 0 0-93.4 65.6c-.4-1.3.6-2.9 2.1-3Zm82.5 117.2c-1.5-.8-2.3.4-3.5-.4l-.6-.2c3.6-.5 7.1-1.1 10.6-1.8-2.2 1.2-4.7 2.8-6.5 2.4Zm136-92.8a46.5 46.5 0 0 1 1.3-5.2c1.3 1.8-1.5 3.4-1.3 5.2Zm3.5-14.5.7-4c.2 1.5.1 2.8-.7 4Zm1.5-8.6v-.2l1.1.2h-1.1Z"/><path fill="#FFC83F" d="M372.7 668.4c-28-48.6-19.9-47.7-33.7 5-34-32.9-32.7-52.2-33.9 8.7"/><path fill="#E91315" d="m374.1 665.1-5.3 3c1.4 3.4 8.2-2.2 5.3-3Z"/><path fill="#E91315" d="M351.6 638c.4.8.8.6 1.4.9 0 .5-.6.7.2 1 .2.3.2.8.7.9-.2.7-.3 1 .5 1 0 .6.7 2 1.2 2.4.6 1 .4 2.2 1.5 2.6.7 1 .5 2 2 2 .5.9-.4 1.6 0 2.6 1 0 .2.7 1 .8.8.1 0 .6.3 1.1 1 0 .1.8 1 .7-.5.9.5.4.3 1.2.5.5-.3 1 .7 1 1.3-.1 1 1.5 2.2 1.7-.8 1.6 1.2 1.8 1.2 3.1 1.2.5-1.2 1 1.2 3-.4 1.7 1.9 2.2 1.6 3.8-.5 1.2 6.5-3.2 5.8-3.1-1-.1-.1-.8-.8-.6-1-.2-1-1-2-1.3 1-1.5-.2-1 0-2-.3-1-1.6-1.4-1.5-2.6-.5-.1-1 .4-.9-.4-.2-1.6-1.4-2.7-2.6-4.5.9-.8-.9-.9-.1-2-1.2.2-.5-.6-.6-1.4-1.4.4-.4-1.4-1.6-1.3.3-1.2-1.6.5-.5-1-.3-.4-.3-.8-.7-1 .8-2-1.8.3-1.3-1.1-1.5-.2.7-1.7-1.3-1.9.2-.6.5-1.1-.5-1 .3-1-.7-1.1-1.5-1.6-.2-.7.5-1.1.5-1.8.1-.9-.9-.4 0-1.3-4-.1 2-7.6-7.4 0Z"/><path fill="#E91315" d="M343.7 667.8c.3-.7-.1-.8-.4-1.4.3-.3.9 0 .5-.7.1-.4.5-.7.1-1 .7-.4 1-.5.4-1.1.4-.3.9-1.7.7-2.3.1-.8 1.2-1.6.7-2.6.1-1 .9-1.6-.2-2.5.8-1.4 2-.8 1.6-2.8-.6-.6.4-.3.4-1-.8-.5.4-.5-.3-1 1-.3-.1-.6.6-1 0-.6.8-.3.1-1-1-.8.3-1.6-.4-2.5 1-.3 1.1-1 .6-1.9.8-.1.1-.5.6-.9-.6-1 1.6.2 1.2-2.6 1.3-1 0-2.7 1.3-3.5 1.1-.5-6.9-2.2-6.3-1.7.6.7-.6.5.1.9.7.7 0 1.3.6 2.1-1.8.2-.4.7-1.3 1.1-.4 1 .2 2-.6 2.8.2.4 1 .4.3.8-.5.5.2.8-.8 1 .3 1-.2 2.3-.2 3.5-1.2 0 0 1-1.3 1.4 1 .6 0 .6-.5 1.2.9.5.4.9 0 1.5.2.3.4.4 0 .7 1.3.7 0 .2 0 1-.5 1.2-1 1.4.5 2-.5.2-.4.3 0 .7-.3.6-1.7.1-1 1.1.6.6-.2.6-.6 1 1 .6-.5.6.4 2 .4.9-1 .7-1.4 1.2-.7.5.4.8-.8.8 2.7 2.7-6.4 3.6 5.4 4.7Z"/><path fill="#E91315" d="M310.3 647.3c.5.7.8.4 1.5.5 0 .5-.5.8.3.8.3.4.3.8.8.8 0 .7 0 1 .8.9 0 .5 1 1.7 1.5 1.9.8.6.8 1.9 2 2 .8.8.8 1.7 2.2 1.3.8 1.5-.2 2.2 1.6 3 .8-.1 0 .6.5.9 1-.3.3.7 1.2.4-.4 1 .5.2.5 1 .5.4-.2 1 .8.7 1.2-.4 1.3 1.2 2.4 1-.3 1.2.3 1.6 1.3 1.7-.3.7.4.4.5 1 1.2.1-1 1.2 1.6 2.5 0 1.7 2.3 1.6 2.3 3.1-.2 1.3 5.6-4.6 5-4.3-.5 0-.8-.1-.6-.6-.8.4-1.1 0-1.7-.4-1.3 0-.5-.6-.5-1.4-.9.2-.6-.8-1.3-1.3-.7 0-1.2-.7-1.4-1.3-.8.3-.8.2-1-.6-.7 0-.2-.4-.2-.8-.8-.4-3.4-1.9-2.7-3-.7.3-1-.5-.8-1.2-1 .6-.5-.3-.8-1.1-.9.5-1-.2-1.3-.9-.4 0-.6.2-.6-.3-1.2.7-.2-.3-1-1-.8-1-.4-1.2-1.9-.3.1-.6 0-.5-.5-.5-.4-.5.7-1.4-.5-1.4-.8.1-.3-.5-.5-1-1.2.4-.2-.9-2.4-1-.3-.6.2-1.1.1-1.8 0-.8-.9-.1-.3-1.2-3.8.7.4-7.4-7 2Z"/><path fill="#E91315" d="M308.4 679.5c.2-.9-.2-.9-.7-1.4.4-.4 1-.3.4-.8 0-.5.3-.8 0-1.2.5-.4.8-.6 0-1.1.4-.3.6-2 .3-2.5 0-1 .8-1.9.1-2.7 0-1.2.6-1.8-.6-2.5.5-1.6 1.7-1.3 1-3.2-.7-.6.3-.5.2-1-.9-.5.3-.7-.5-1.2 1-.4-.2-.5.4-1 0-.7.7-.6-.1-1.1-1.1-.6 0-1.7-.9-2.5 1-.5.9-1.2.2-2 .8-.3 0-.6.4-1-.8-1 1.6-.2.6-3 1.2-1.2-.4-2.7.6-3.8 1-.8-7.2-.8-6.5-.4.2.3.4.5 0 .7.8.3.8.8.9 1.5.9.9-.2.8-.7 1.4.8.4-.1 1 0 1.8 1 .8-.7 2 .7 2.2-.2.5-.7.7-.2 1.1-.3.4-1 .3-.3.8-.5 1 1 3.1-.5 3.6.6.4.2 1-.4 1.4 1.2.4.2.6-.2 1.4 1 .3.5.8.2 1.5.4.2.6.3.2.7 1.5.4 0 .4 0 1.4 0 1.2-.5 1 1.2 1.5-.5.4-.4.4 0 .7-.1.7-1.5.5-.6 1.4.6.5-.2.6-.4 1 1.1.6-.4.9.7 2 .6 1-.7 1-1.1 1.6-.6.6.6.7-.6 1 3.2 2.2-5.6 5 6.2 3.6Z"/><path fill="#E91315" d="M308.5 679.8c0 3-5.3 3-6.5.2-1-1 6.6.1 6.5-.2Zm48.6-45.5c-1.2-2-2.9-3.8-4.2-5.7-.7-1.4-1.4-2.6-2.8-3.3-.2 0-.5-.1-.5.1-1.9 3.4-3.8 6.8-4.7 10.6 4 2 8.8 1.2 12.2-1.7Zm-13.4 34c-.4 1.7-1.4 3.2-2 4.8-.3 1.3-.5 2.2-1.7 2.9-2.7-1-5.5-2.6-7.6-4.8 3.6-4.4 6.1-5 11.4-3Zm-29-25.8c-1.5-1.6-3.5-2.9-5.2-4.4-1-1-1.8-2-3.3-2.4-.2 0-.5 0-.4.2-1.2 3.4-2.4 6.9-2.5 10.6 3.8 1.9 8.8-.4 11.5-4Z"/><path fill="#fff" d="M161 865.5s12-102.4 83.6-154.1c71.4-51.7 188.3-46 188.3-46l3 74.8a94.5 94.5 0 0 1-61.4 92.3 86.6 86.6 0 0 0-16.2 7.5l-61.7 27.2-2.4 1-133-2.7h-.1Z"/><path fill="#E91315" d="M439 749c-1-9.8 1-20.5-1.8-30.4.9-4.7 1-9.2-.1-13.4.3-1.9.9-4.5-.6-6.2-.1-1.8 0-3.5-.6-5 1.3-2.7-.5-5.2.1-7.9.3-3.8.8-8.5.2-12.9 0-7.5.4-4.3-6.6-4.7l1.6 6.8c0 2.2-.7 4-.5 6.4 1 6.4.6 11.7 1.3 18.3-.5 3 .2 5.6-.6 8.7 1.1 1 .4 2.4.4 3.7 1 2 .7 3 .5 5.3-.7 4.1 1.6 2.3 1 4.5 1.2 1.8-1.3 3.2.4 5.2-1.1 2.6.6 5.3.5 8 .2 1.6-2 2.8-.8 4.5-1.1.8-.2 1.2.3 2-.4 2.4-.5 5.1-1.3 7.8.5-.6 7.9 1.6 6.7-.6Zm-218.5-20.8c-5 7.4-13.7 13.3-17 22.1-1.7 2-4.1 3-4.9 5.6-.5 1.6-2.2 2.5-2.3 4.3-1.2 1.3-3 3-2.6 5-.8 1.5-1.8 2.7-2 4.3-2.2 1.7-3 4.6-4 7-2.9 1.5-5.2 7.6-6.2 11-.6.6-1.3 1.4-1.7 2.3.5-.4 7 4.4 6.3 1.8l1.3-6c2-.7 2.2-3 3.6-4.7-.3-1.9 2.3-3 1.4-4.7 1-1.2 2.1-2.2 2.5-3.5 1.7-2 1.9-5.8 4.3-6.8 0-1.1 1-2 2-2.5-.6-1.3 1-1.6 1.7-2.6-.7-1.6 1.9-2 1.6-3.7.8-.4.6-.8.4-1.5 1-.2 1.4-1 2-1.7.1-1 1.1-1.1 1.6-1.9-.9-1.3.1-3.4 1.9-3.5 1-1.2.7-2.6 2.4-3-.2-1.1.6-1.5 1.4-2 .3-1 .7-2.4 1.5-3 .9-1.2 3.2-.4 3.4-2.3 1.4.3.8-.7 1-1.6 1.7-1.4 3.6-3 5.7-4.5-.6.2-5-6.4-5.3-3.9Zm134.2-61c-9.2 2.7-19.4 2.6-28.6 6.7-2.2-.7-4.6 0-6.4 1.2-1.4-.5-2.8.4-3.9 1.1-1-.6-1.4.6-2.4.3-1 .4-1.8-.2-2.4.8-1.4 1.4-4 2.2-5.8 2.5-2.4.2-4.6 1.4-6.7 2.4-2.8-1-9.4 2-12 3.6-1 .1-2.1.2-3 .6.6 0 2.1 7.3 3 6 1.7-1.4 3.4-2.4 5.4-3.8 1.6.8 2.7-.2 4.2-.6 5.5-2.5 10-3.2 15.5-5.7 3.3-.2 5.4-1.3 8.6-1.2.6-1.7 2.8-.3 3.7-1.7 1 .2 1-.3 1.3-1 .9.6 1.7.3 2.7.1 4.4-.4 1-.9 4.5-2.2 1.2-.2 2 1 3.2-.1 2.4-.8 4.8-.5 7.3-2.2 1.6-.3 3 1.7 4.5.3 1 1.1 1.2 0 1.8-.6h7.4c-.7-.3-.2-8-2-6.4h.1Z"/><path fill="#E91315" d="M429 662c-9.5 1-19.5-.8-29.3 1.6-2-1.2-4.5-1-6.5 0-1.3-.8-2.8-.2-4 .3-1-.8-1.5.3-2.5-.2-1 .2-1.7-.5-2.4.3-1.7 1-4.3 1.3-6.2 1.3-2.4-.2-4.8.4-7 1-3-1.6-9.3-.1-12.6 1a8 8 0 0 0-3-.2c.6 0 .4 7.6 1.6 6.4 2-.9 3.9-1.4 6.2-2.4 1.3 1.2 2.6.4 4.2.4 5.9-1.2 10.4-1.1 16.4-2.3 3.2.4 5.5-.4 8.7.4.9-1.6 2.8.1 4-1 .8.3 1-.1 1.4-.7.7.7 1.6.5 2.6.6 4.4.3 1.1-.8 4.8-1.5 1.3 0 1.8 1.5 3.2.5 2.5-.4 4.9.3 7.6-1 1.6 0 2.8 2.3 4.4 1.2.7 1.2 1.1.2 2-.3l7.1 1.2c-.6-.4 1.3-7.8-.7-6.6Z"/><path fill="#E91315" d="M430 662c1-.1 1.7.7 2.6.9.3 0 .7-.2 1 .1l.6 1.5c.9.6 1.7 1.5 1.8 2.6 2.1 2.2-6 1-6.3 1.4.2-1.5 0-4.8.2-6.6Z"/><path fill="#EF656C" d="M301.6 804.5c2.2 2.6-20.8 65.2-7.3 59.8l7.3-59.8Z"/><path fill="#EF656C" d="M298.3 804.8c-.3 1 .1 1.5.5 2.4-1 .5-.4 1.1-.6 2-.2 1.1-.1 1.6-.8 2.5.8.7-.2 1 .2 1.7-1 4.8-1.5 9-1 13.6-1.5 1.3-1.7 3.2-1 4.8-.6.5-1 1.2-.3 1.8-.4.5-.5.7 0 1.3-.5.4-.7.6-.3 1.2-.3 1-1 1.7-.4 2.5.5.7.7 2.2.1 3 0 .7.7 1.2 0 1.8-.9.9-.4 1.9-.2 2.9-.6.6-.6 1.7-.3 2.5-1.9.9-1.8 6.4-2 8.7.5.7-.5 1.3-.6 2-1.3 1.4 6.3 1.2 6.5 1.6-.2-2-.4-3.4-.9-5.5 1.5-.7.6-1.6 1.3-2.5 0-5.4 1-8.9 1.1-14.5 1.2-.5 0-2 1.3-2.9-1-.7 0-1.4.4-2.4-1-.7-.2-1.6 0-2.5-.3-.5-.4-.8 0-1.2-.7-.6-.9-.6 0-1.2 0-1.2.2-2 .7-3.1-.4-.5-2-.6-1-1.5-.9-1.4 1.8-1.8.3-3.5 1.3-1 .2-1.5.6-2.4.8-1-.7-2.3 0-3.2 0-1.2 2.3-1.5 1.3-3 1.3-.3.3-.7-.2-1.4l1.9-5.4c-.3.5-7.6-1.8-6.6-.1Z"/><path fill="#EF656C" d="M292.9 859.9c.3-1 0-1.6-.3-2.5 1-.4 1-2.2 1-3.2.6-.7 1-1 .4-2 .6-1 1.1-2.8 1-4 .7-2.9 2.3-6.3 1.3-9.1.8-2 2.4-3.2 2-5.3-.5-.8.6-1 .6-1.7-.8-.8.5-1.1-.2-2 1-.4 0-1 .7-1.7.5-1 .7-1.5-.1-2.5.2-1.3.7-2.4.3-3.6 1.8-1.4.6-3.5 1.6-5.1-.6-1 .7-1 1-1.8.6-1.6.3-3.4 1.5-5 .8-7.5 2.2-4.4-5.4-6.5 0 2 .1 3.3.4 5.5-1.6.5-.8 1.5-1.6 2.3-.6 5.4-1.8 8.8-2.5 14.4-1.2.4 0 2-1.5 2.7 1 .9-.2 1.4-.7 2.4 1 .8.1 1.6-.2 2.6.3.4.3.7 0 1.1.6.7.7.7-.1 1.2-.2 1.2-.5 2-1 3 .3.6 1.8.8.7 1.6.8 1.4-1.9 1.7-.6 3.5-1.3.8-.3 1.4-.8 2.3-.9.9.5 2.4-.2 3.2-.1 1.2-2.5 1.3-1.6 2.8-1.4.3-.4.8 0 1.5l-2.3 5.2c.4-.4 7.3 2.6 6.6.7Z"/><path fill="#EF656C" d="M290 866.8c1 .2 2-.2 3-.1.5-.2 1 .3 1.5 0 1.4-.7.5-1.2 1.7-1.8 4.5-5.3-1.4-3.8-4.8-4.6l-1.4 6.5Z"/><path fill="#EF656C" d="M286.3 859.1c-.2 1 .2 2 .2 3 .1.3-.3.7 0 1.1.2.3.4.7.7.8.5 0 .8.4 1 1 4.4 5 3.6-1.6 4.7-4.5l-6.6-1.4Z"/><path fill="#fff" d="m300.8 803 57.5 37c-70.3 28.8-63.7 45.7-57.5-37Z"/><path fill="#E91315" d="M303 868c-1.5.7-3 .8-4.6 1.2-.6 0-1 .6-1.7.6-.5-.1-1.1 0-1.5-.4 0-.4.1-.9-.1-1.2-1.4-2-1.3-4.4-1.4-6.7 5.8-.4 7.8 1 9.3 6.6Z"/><path fill="#89BBE0" d="M517.8 770.7c1.1-1.8-.3-2.8-.5-4.3-.7-3.1-2.4-4.6-3-8-5.4-3.3-.9-3.3-4.8-5.7-.3-2.6-3.2-3.7-4.7-5.6-1-1-.1-3.2-2.1-3.6.3-1.3-.6-1-1.6-1a75 75 0 0 0-5-5.7c.1.2-.2.7-.8 1.3 1-1.5 1.3-2.6.4-4 1 .7 1.9.6 2.6-2 1-2 1-4.2 2.9-5.8 0-2.6 1.2-7.3-.9-9.3.2-5.8-5-11.2-7.4-15.2-1.2-1.8-3.1-2.6-4.6-4.2-1 .3-1.1.2-1.3-.8-.8-.8-2-1.2-2.3-2.2-.6-1-1.4 0-2.1.1-.5-1-2.2-.6-2-2.2-3-1.2-4.5-3.3-7.9-3.7-1.3-.8-1.2-3.2-3.1-3 0-1.4-.8-.7-1.7-.5l-5.6-4-.4 1c.3-1 .1-1.6-1.3-1.3-.2-.9-.6 0-1.2-.2-1.3 0-2.4-.8-3.8-.6-1.7-2.8-9.4-5.3-11.5-1.4-3.5 2.2-2.2 6.8-1.6 10.3.3 1.3-1 2-.1 2.9 0 1.2-1 2.2.1 2.9-1.4 1.8.5 3.2-.2 5.3.7.7 0 1.5 1 2-1 1 .1 2.6-.6 3.8 3.5 5-.6 2.8 1.5 6.6-1 1.2.2 1.8 0 3-.7 1.2 1.1 2.5.6 3.7.2 1.4-2 2.3-.8 3.7-1.2.8-.1 1 .4 1.7l-.8 6.8c.1-.2 1.3-.2 2.7-.1-1.1.1-2.2.3-2.7.1l1.6 5.7c.7 1-.6 1.4-.7 2.3.7.8 0 1.9.2 3 1 5.6.5 10 1.5 16-1 .8.4 2.4-.7 3.6 1.2.7 0 1.8 0 3 1.1.6.5 1.9.4 3 .8.8 0 1.5 1.1 2-.3.5-.7 1-.5 1.7.3 1.6-.9 3.1 1.3 3.7-.3.6-.3 1 .1 1.4.2 1-1 1.2-.7 2.2.7 1 .7 1.8 0 3 1.1 1.2.2 3.1 1.4 4.7 0 1.2-.8 1.8-1 2.8-.4 1.1.7 1.5-.3 2.4 2.3 1.7.8 5.2 1.8 8 .2.6.7 1 1 1.5-.5.8.4.5.7 1.1 1 1 1.2 2.3 2.4 3.1-.7 1.6.6 2 .8 3.3 2.7 3.8 5.7 6.1 8.4 9 5.6 3.5 9.3 6.6 15.5 7.2 2.3-.8 4.2-.6 6.8-.9 1.7.2.4-2.3 2.2-1.8 1-1.6 3.3 0 4-2.6 2-.5 3.4-2.6 4-4.6.1-2.2 3.7-2.4 2.8-4.8 1.3-.6.5-1.2 0-2 .6-1.5.1-3.6.2-5.3.7-1.8-.2-2.3-1.5-2.2a3.8 3.8 0 0 0 2.3-3.5c.3 1 .8 1.4 2 .3 1.4 0 3.7-1.6 5.2-2.7 2.2.8 3.5-1 5.3-2 5-5.3 7-12.3 6.9-19 0-1.4 1-2.6-.3-3.4Zm-70-89h-.5.4ZM449 800c.2-.2 1-.4 2-.6l-2 .6Z"/><path fill="#E91315" d="M445.9 751c4.8 0 7.8.4 5-5.4-3.1-4.2-7.3 3.5-5 5.5Zm60-5.2c.5 1 1 1 1.8 1.3-.4.8.7 2 1.3 2.6 0 .9-.2 1.4.7 1.6a9 9 0 0 0 1.4 3.5c.5 1.6.4 3 1.3 4.4.2 1.2 0 2.2 1.2 3 .2 1.1-.7 1.7-1 2.6-.2.7.6 1 0 1.6 1 1-.8 1.5.2 2.5-.4.4-.5.6-.1 1-.8.5-.3 1.2-.8 2-1.4.3.7 1.3-.3 2 .3 1-.9 1.3-.6 2.4-.5.3-1.1.3-1.3.8-.6.3-.2 1-.6 1.4-.7 0-1.2.7-1.5 1.4-1.5-.8-2.4.5-3.4 1.1-1.8-.4-3.2 1.6-4.7 1-2.2-1.6-.1 6.1-.5 6.5.5 0 1-.4 1.4-.5.5.6.4-.3 1-.4.8-.7 2-.7 2.8-1.6 1.3 1 1.7-.2 2.8-.1 1.5-1 4.6-2.3 4.5-4.1.7-.3 1.5-.5 1.5-1.4.6-.2 1.2 0 1.1-1 2-2.6 2.2-5.8 4.1-8-1-.9.3-1.5.7-2.5-1.4-.9.6-2.3-.5-3.3.4-.7 0-.7-.6-1.1 1-1.2 1.3-4.5-.8-4.4.5-.8-.4-1-.2-1.8.6-.5.7-1.2 0-1.8-.8-.5-.2-1.1-.2-1.8-.5-.3-.9-.3-.8-1-1.2-3.2-2-1-1.3-5.4-.9-.3-.6-.6-.3-1.2-.6-.2-1.6 0-1.2-1-.6-.3-1-.8-1-1.6 0-1-.6-2-1-3 0 .5-6.7 3.8-5 4.4Z"/><path fill="#E91315" d="M505.5 745.4c-2.1-3-.3-5.5 3.5-5.5 4.8 1.8-2.4 4-3.5 5.5Zm-14 47.5c-.7-1.8-1-3.6-1.8-5.2-.7-1.5-2-2.6-1.9-4.3 3-1 7.2-1 10.7-1.5 1.1 8.4.6 8.7-7 11Z"/><path fill="#E91315" d="M518 755.7c1.2-1.8-.3-2.8-.4-4.3-.7-3.1-2.5-4.6-3-8-5.4-3.3-1-3.3-4.8-5.7-.3-2.6-3.2-3.7-4.7-5.6-1.1-1-.1-3.2-2.1-3.6.3-1.3-.7-1-1.6-1a75 75 0 0 0-5-5.7c.1.2-.3.7-.8 1.3 1-1.5 1.2-2.6.4-4 1 .7 1.8.6 2.5-2 1-2 1.1-4.2 3-5.8 0-2.6 1.2-7.3-1-9.3.3-5.8-4.9-11.2-7.3-15.2-1.2-1.8-3.2-2.6-4.6-4.2-1 .3-1.1.2-1.3-.8-.8-.8-2-1.2-2.4-2.2-.5-1-1.4 0-2 .1-.5-1-2.2-.6-2-2.2-3-1.2-4.5-3.3-8-3.7-1.2-.8-1-3.2-3-3 0-1.4-.8-.7-1.7-.5l-5.7-4c.1.1 0 .5-.3 1 .3-1 .1-1.6-1.3-1.3-.2-.9-.6 0-1.3-.2-1.2 0-2.3-.8-3.7-.6-1.7-2.8-9.4-5.3-11.5-1.4-3.5 2.2-2.3 6.8-1.6 10.3.2 1.3-1 2-.2 2.9.1 1.2-1 2.2.2 2.9-1.4 1.8.5 3.2-.3 5.3.8.7 0 1.5 1.2 2-1.2 1 0 2.6-.7 3.8 3.5 5-.6 2.8 1.5 6.6-1 1.2.2 1.8-.1 3-.6 1.2 1.2 2.5.7 3.7.2 1.4-2 2.3-.8 3.7-1.2.8-.1 1 .4 1.7l-.8 6.8c0-.2 1.3-.2 2.7-.1-1.1.1-2.2.3-2.8.1.5 2.1 1 3.5 1.7 5.7.6 1-.6 1.4-.8 2.3.8.8 0 1.9.2 3 1.2 5.6.6 10 1.6 16-1.1.8.4 2.4-.8 3.6 1.2.7.1 1.8 0 3 .5.2.7.6.7 1-1.4.6-.4 2.1.2 6.7.2 6.2.4 12.7 1.1 19l-.1.2.2.1a54.8 54.8 0 0 0 9 26.3c4.5 3.3 8.1 6.8 13.3 9.7 2.6-1.5 5 1 7.5 1.5 3.3-.4 5.8-.6 9-1.5 3.4-3.2 7.7-4.4 10.4-8 .2-2.5 1.1-6.7 1.4-9.8.4-.4.3-.7 0-1.1 0-.8 0-1.5-.2-2v-4c.7-1.8-.2-2.3-1.5-2.1a3.8 3.8 0 0 0 2.3-3.6c.3 1 .8 1.4 2 .3 1.4 0 3.7-1.5 5.2-2.6 2.1.7 3.5-1.2 5.3-2.2 4.9-5.2 7-12.2 6.9-19 0-1.3 1-2.5-.3-3.3Zm-70-89h-.4.4Zm-15 82.5c3.5 0 8.2 1.2 5.3-4.1-2.4-3.1-7.5 2-5.3 4Zm-206.7-17.9 3.4-5.1c2.2 0 3-2 5-3.1.4-1.8 3.2-2 3-3.8 1.4-.8 2.8-1.3 3.6-2.3 2.4-1 4-4.7 6.6-4.4.4-1.1 1.7-1.5 2.7-1.6 0-1.4 1.6-1 2.7-1.6.1-1.4 1.6-1.4 2.7-2 .3-1 1.4-.7 1.3-2 1 .3 1.6-.3 2.5-.7.5-.8 1.5-.5 2.2-1-.2-1.6 1.6-3.1 3.2-2.4 1.3-.8 1.8-2.1 3.5-1.8.2-1.1 1.2-1 2-1.2.8-.8 1.7-2 2.7-2.1 1.3-.8 3 1 4-.8 1.2.8 1.1-.3 1.6-1 2.2-.6 4.5-1.3 7-1.8-.6-.2-2-7.7-3.3-5.8-7.6 4.8-17.8 6.5-24.5 13.2-2.3.8-4.4 1.2-6.2 2.5-.7.8-1 1.5-2.1 1.4-1 .3-.8 1.4-2 1.4a7.5 7.5 0 0 1-4 2.5c-.5 1.2-1 2-2 2.8-1.3 1-2.2 2.4-4 2.7-1.6 1.2-2.4 2.7-4.2 3.7-3.2 2.1-7.8 4.8-10.2 8.8-.8.4-1.8 1-2.5 1.7.7-.2 5.2 6.5 5.3 3.8Z"/><path fill="#E91315" d="M439.5 736.1c-.3-6.5 0-11.6-1-18.1.5-3.4-.3-6 .4-9.4-1.2-.8-.5-2.3-.6-3.6-.7-.8 0-1.7-1.2-2.2.4-.6.7-1.2.5-2-.2-1.2 0-2.2 0-3.5-.6-.5-2-.5-1.2-1.7-1.4-1.4 1-2.6-.2-4.2-.5-2.7 0-5.3-1.5-8-.1-1.8 2-3.3.7-5 1.1-.8 0-1.2-.5-2l.3-7.8c-.1.3-1.7.2-3.3.3l-.2-2.7-2.7-.2c.3-2.6.1-4.3-4.1-2.4-4 .1-7.2-1.6-11.5-.8-5.3.2-10.2-.4-16 .4-1.1-1.2-2.9.4-4.3-.8-.8 1.1-1.4.1-2.6.2-.8-.5-1.2 0-1.7.5-1.8-.3-4-.4-5 1-1.7-1.1-3.7-.1-5.6-.6-.5 1.6-1.3 1-2.5 1.6-1.9-1-3.2.2-5.1 0-2.2-.2-4.6 1.2-6.9 1.4-1.1.4-1.7-.8-2.7-.7-1.2-.4-1.6.8-2.6-.2-.8 1.4-2.3.9-3.7 1.5-1.7-.5-3.5-.3-5.3-.2.2.1.3 1 .4 2-.4-1.9-1.3-2.6-4.4-.2-1.2-.2-2.1.7-3.2 1.1-1-.4-2-1.1-2.8 0-3.3-.3-6.8 1.8-9.5 2.4-3.5.3-6.7 1.8-10.4 3-1.7 0-3.1 1-5 .6-.5.8-.7 1.1-1.6.7-4.6 1.3-7.6 3.8-12.5 4.5 0 1.7-2 3-3.8 2.2-1.5 1-2.5 1.8-4.3 2-.2 1.3-1.2 1.5-2.1 2.1-.6 1.2-1 2.7-1.9 3.6-.4 1.2-1.8 1-2.3 2-1 1 0 2-1.5 2.6 1.4 3.9-1.9 9.8.2 10.5h-.5c.1 1 1.3 1.7.9 2.7 4.2 3.3 4.9 9 10.7 10.6a20.3 20.3 0 0 0 17.4.4c1.4.1 4.8-1.4 5-3 2.9-.6 2.5-3.5 4.6-5-.1-1.1 1.1-1.4.5-2.5 1.4-.2 1.7-2 3-2.2 1.5-.4-.4-2.4 1.4-2.1.9-1.7 2.6.4 4-1.3 2.2 1.2 5 0 7.2 2-.5 1.8 1.6 2.3 1.1 3.6 1.4 0 2.1 1.8 2 3-.2 1.2-.2 2.3-.5 3.4l1.2.1c-2.8 0 .5 2.4-3.7 10.4-1.5 9 .4 17 1.3 25.8 1.3.5.5 1.4 1 2.5-.3 1.4 1.4 1.2 1.3 2.5 1 2.8 2.7 3.6 3.6 6.4 1.6 4 2.5 1 3.4 3.3 1.1.3 1.5 1.2 1.3 2.2.7 1.2 2.4 1 2.6 2.4 1.3 2.6 6.4 3 6.9 6 2 3.2 5.3 2.2 7.9 5.1 1.1.4 2 1.4 3.3 1.8-.2-.3.3-1.3.8-2.4-.7 1.9-.7 3.3 2.8 2.8 3.7-.3 6.2 1.7 10 1.9 6.1-.6 11.5-.1 17.4-2.7 3.3-.3 5.7-1.4 8.6-2.4 1.8-1.1 5-2.2 5.7-4.4 2 0 3.3-2 5.1-2.7-.5-1.7.6-2.4 1.8-3.5 2.1.5 1.6-2.5 3.2-3 1.5-1.5 2.8-3.5 3.3-5.9.3-.6.9-.9 1.4-1.2-.2 2.3-.8 4.9-1.6 7 1.3 1.9-1.5 3.5-1.3 5.3a42.1 42.1 0 0 1-6.1 13.3c-.9.5-.6 1-.5 1.7-1.2 1-1.4 2.6-2.3 3.7.3 1.6-2.3 3.4-3.5 5 1.6 2.7-2.1 3.2-2.9 5.3-1.6 2.3-3.7 3.8-5 6.7-1.2 1.2-3.7.5-4.2 2.6-1.3-.4-1 .6-1.3 1.5-2 1.3-4.3 2.8-6.8 4 .4 0 1.2 1.4 2 2.8-.6-.7-1.3-1.5-2-2.7-1.7 1.7-2.8 3.1-4.7 4.9-2.1.9-4.1 1.5-6.5 2.8-1 1.8-4 1.3-4.3 3.3-1.6.3-3.2.4-4.5 1.3-4 1.6-7.6 3.9-11.8 4.2-.3 1.4-1.3.7-2.4 1.3-1.4-.2-1 1.5-2.4 1.4l-1.4.8c-1.1-1-2-2.1-3.3-3l-.3.4c.1-.4 0-.7-.4-.6-.8-.7-1.4-.6-2.4-.6 0-1-1.7-1.7-2.6-2-.4-.8-.6-1.4-1.6-1.2-.8-.8-2.4-2-3.5-2.4-2.5-1.6-5-4.2-8-4.3-1.6-1.4-2.2-3.3-4.3-3.7-1 .2-.6-.9-1.4-1.2-1 .4-.8-.8-1.8-.5-.1-1-1-.4-1.4-1.3-.8-.8-1.2-1.2-2.4-.8-1.1-.6-2-1.4-3.3-1.5-.6-2.2-3-1.8-4.2-3.3-1.3.2-.7-1.5-1.7-2-1.9-.4-2.7-2-4.3-3-2.8-1.6-3.7-2.3-4.2-2l.3-.6c-2.1-1-4.3-2.4-6.7-2.2-.5 0-.8-.4-1.2-.4-1.3.9-1.1 1.7-1.3 3-.3 1.7-1 3.1-1 4.8h.5c-.5.1-.7.3-.5.6-.2 1 .2 1.5.6 2.3-.8.5-.6 2.2-.4 3.1-.5.7-.9 1.1-.2 1.9a9 9 0 0 0-.4 4c-.1 2.5-1.3 6.3.2 8.5-.5 2-1.9 3.3-1.2 5.2.6.8-.4 1-.3 1.7.8.7-.3 1.1.4 1.8-.9.6.2 1-.4 1.7-.3 1.1-.4 1.5.5 2.4 0 1.2-.3 2.2.3 3.3-1.6 1.6 0 3.4-.9 5 .9 1-.5 1-.7 1.8-.3 1.6.2 3.2-.7 4.8.3 7.4-1.3 4.4 6.4 5.5l-1.3-5.2c1.6-.7.5-1.4 1.2-2.3-.2-5.2.4-8.4.3-13.7 1.2-.5-.2-2 1.1-2.8-1-.6 0-1.3.3-2.3-1.4-.7.5-2-.5-2.9.7-1-1.3-.8.1-1.7 0-1.1.2-2 .6-3-.4-.4-2-.4-1-1.3-1-1.2 1.6-1.8 0-3.3 1.2-1 .1-1.4.5-2.3.7-.9-1-2.1-.3-3 0-1.1 2.3-1.5 1.2-2.8 1.3-.5.3-.7-.2-1.4l1.5-5.1c-.1.1-1.4 0-2.7-.2 1.8-.1 3-.8 4.3-2.2l-1.6 2.3c1.8.7 3.1 1.1 5.3 1.6-.1 1.7 1 1.3 1.6 2.3 4.8 2.5 7.6 4.8 12.5 7.4 0 1.3 1.9.8 2 2.4 1.2-.7 1.2.7 2 1.4 1-.6 1.5.5 2.3 1.2.6-.2.8 0 1 .4.9-.4 1-.5 1.2.5a9 9 0 0 1 2.5 2c.6 0 1.3-1.4 1.6-.2 1.7-.2 1 2.4 3.1 1.9.3 1.4 1.3.7 1.9 1.5.5 1.1 2.4.3 3 1.3 1 .5.2 2.8 2 2.5-.3 1.3.5.6 1.3.5l4 4c0-.1.5-1 1.2-1.9-.3.8-.5 1.6-.5 2.3l-.5.2-.2-.5a55.2 55.2 0 0 0-3.6 3c-.4 0-.7.2-1 .3-1-.5-1.3.4-2.3.3-3.4 2-6 3-9 4.4-.8-.1-1.5 0-2 .8-1.2-.7-1.3.2-1.7 1-1 .1-1.9.8-3.3.6l-.1.4a185.8 185.8 0 0 1-4.6 1.3l.4.4-.2.2-.2-.6c-.6.3-1 .8-1.6 1.2l-1.8 1c-1 .3-1.2.7-1.3 1l-1.8 1.4c-2.2-.5-5 .8-7 2.2a122 122 0 0 0-3.1 1.5h-.2c-.7-.5-.8 0-.9.5l-1.9.8-3.8.8.4.5c-2.6 1.4-5.6 3.6-7.8 3.1-1.5-.7-2.3.4-3.4-.4-1.5-.6-2.3.5-3.6.1-3.6 0-6 .6-9.8-.4-1.2 2.4-3.4 1-5.3.5-1.3.7-2.3.6-3.6 0-.7.8-1.6.3-2.6 0-2.6 1.5-4.8.3-7.2-.8-.7.5-1 .3-1.6-.3-1 1.3-1.9.3-3 .7-2.2 0-4.1-1-6.3-1v-.1l-7 1.1c-1 .6-1.6-.7-2.7-.9-1 .7-2.3-.1-3.6 0-7.7.4-15 .4-22.6-.3-1.1-1-1.6.8-2.6-.3-1.8-.5-2.7.5-4.5 0-1.3 0-2.7-.1-3.4.8-1.3-1.2-3.2-.2-4.6-1-2-.2-.8 1.3-3.7 1.3-1.8-1.2-3.3-.3-5.2-.7-2.5-.4-5.3.7-8 .4-1.2-1.8-3.3-.6-4.4-1.8-.6.5-1.2 1.4-2 .5-4.9.3-6.8-1.6-7.3.6v-1.4c.2 0 .3-.2.2-.4-.3-2.1-.2-4.1-.4-6.6 1.8-1 1.2-2.8 2-4.6.5-6 2.3-10.6 3.4-17 1.4-.5.4-2.5 2-3.4-1-1.1.5-1.9 1-3-1.2-1.4 1.2-2.6.5-4 .6-.7.3-1-.1-1.6.9-.5 1-1.4 1.4-2.3.3-1.5 1.7-2.1 0-3.5.9-.6.2-1.4.8-2.2.6-.2 1.1-.4 1.2-1.2 0-3 2.3-4.9 2-8.2.6-1.5 3.1-1.7 2.8-3.7 1.4-.1.6-.9.4-1.8l4-6.2c-.7.4-6.8-4.2-6.5-1.8-2.8 9-8.2 17.7-9.6 27.7a7.2 7.2 0 0 0-2.3 6.1c-1.1 1-1.1 2.6-1.1 4-1 .5-.3 1.4-1 2.2-.1 1-1 1.4-.5 2.4.3 2-.3 4.4-1 6.2a21 21 0 0 0-1.4 7c-2.4 2-3.2 9-3.2 12.2-.4.9-1 1.9-1 2.8h1.1c-1.2 0-1.8.7-.9 3.2 0 .9 1.1 1.3 1 2.2 0 .5.5.8.8 1.1.3.3.8 0 1.2.1l.6.2c-2.6 3.2.5 4.6 4.7 4.8h1c10.5-1 21.4 1.2 32.3-.4 3.6 1.8 8.1 1 11.6.6 4 1.5 8.2-1 12.3-.1 7.2-.2 14 2 21.7.9 2.1 1.4 3 .8 3.2-.5 0 1 .3 1.6 1 1.1 9.6-1 19.6 1 29.6 0 2-1.4 4.1.9 6.3.8 3.5-.6 6.6.2 10.3-.6 2.4-1.4 4.5-2.2 6.7-4.2 2.4-1 5-1.3 7-3.1 5.3-1.5 11.4-3 16.5-6.5a9 9 0 0 0 3-.7l-.4-.6c.4.6.8.8 1.3.2 8.3-5.4 19.3-7 27.4-13.3 2-1.2 4.6-.5 6-2.4 1 .1 1.5-.7 2.2-1.3 1 0 1.9 0 2.4-1 1.8-.4 3-1.4 5-1.9 1.6.6 1.6-1.8 3-1.7 7.9-4.4 16.4-6.1 23.6-12.5 2.4-1.5 3.3-2.2 3.2-2.8.5.4 1 .4 1.1-.3 5.5-6 12.4-11.2 16.7-18.6 2.7-3 2.8-6.8 6.2-9.1 1.7-3.2 2.5-6.5 4.3-9.3.9-2.8 1.8-4.8 1.8-8 1.1-1.2.4-2.9 1.7-4 .8-1.5-.2-3.2 1-4.4-.4-2.8 2.5-4.4 1.7-7.3 1.5-3.3.7-7 1.3-10.3.3-.5.3-.8.2-1 .5-1 0-1.4-1.1-1.6l.1-.5c.3-2.5.1-4.4 0-7-.3-1.3 1-1.7 1.3-2.7-.8-1 .3-1.7 0-2.8ZM246.3 866.5V864c.3.2.2 1.2 0 2.5Zm2.8 4.2v-.2.2ZM401.4 821v.1Zm34.3-72.9 2.3.6c-.3.1-1.2-.2-2.3-.6Z"/><path fill="#E91315" d="M435.2 668.6c0-.9-.7-1.5-1-2.3-.2-.2 0-.5-.2-.8-.4-.3-.9-.5-1.4-.5-.7-.8-1.3-1.9-2.4-2-2-2-1.1 6-1.6 6.3 1.6-.3 5-.5 6.6-.7Z"/><path fill="#fff" d="M386.2 732.7c28.8 1 29.6-44.3.8-44.4-28.8-1-29.6 44.3-.8 44.4Z"/><path fill="#E91315" d="M367.7 709.4c-.6-5.6 3-11.3 8-14.4.8-1.9 3.3-1.4 4-3.4 2.2-.5 4.2.5 6.2-.3.7-.7 1.1.3 2 .2.4-.4.7-.5 1.3 0a4 4 0 0 1 3.6 1.1c1.8-.8 3.1.2 4.6 1 1.3 0 1.2 1.7 2.3 2.3 1.8 0 1.6 2 3.2 2.6-.5 2.7 2.1 4.5 2.1 7.4 2 7-1.5 4.4 7.2 5-.1-3.2-3-5.7-2-9-1.2-2.3-2.3-4.7-4.1-6.8-.7-1.2-2-.8-2.5-2.5-2-3-6.7-3.6-9.4-6-1.2.3-2.3-.4-3.2-1-1 .9-1.4-.2-2.6-.3-.8-.5-1.2-.2-1.8.4-1.5-.7-2.8.1-4.2.1-1 1.9-6.4-.3-6 3.3-1.4-.1-1.7 1.7-3.2.8-1.2.5-1.2 2.1-2.5 2.2-1.3.2-.6 1.4-1.7 1.8-1.5.5-1 2.8-2.2 3.6-.4 1-1.7.6-2.3 1.5-.9.7-.2 1.8-1.5 2 1.2 5.5-7.2 11.5 4.7 8.4Z"/><path fill="#E91315" d="M405.5 711.5c.6 5.7-3 11.4-8 14.5-.9 1.8-3.3 1.4-4.1 3.3-2.1.5-4.2-.5-6.1.4-.8.7-1.1-.3-2-.2-.5.4-.8.4-1.3 0a4 4 0 0 1-3.6-1.2c-1.8.9-3.2-.1-4.6-1-1.3.2-1-1.3-2-1.7a6.8 6.8 0 0 1-2.8-2.7c-1.3-.3-.2-1.8-.8-2.8-1.7-1.3-1.5-3.2-2-5-2-7 1.6-4.4-7.2-5 .1 3.2 3 5.7 2 9 1.2 2.3 2.3 4.7 4.1 6.8.7 1.2 2 .8 2.4 2.5 2.2 3 6.8 3.6 9.5 6 1.1-.3 2.3.4 3.2 1 1-1 1.4.2 2.6.2.8.6 1.1.3 1.7-.3 1.6.6 2.9-.2 4.3-.2 1-1.8 6.4.4 6-3.2 1.4.1 1.7-1.7 3.2-.9 1.2-.4 1.2-2 2.5-2.2 1.3 0 .6-1.3 1.7-1.7 1.4-.6 1-2.8 2.2-3.6.4-1 1.7-.6 2.2-1.6 1-.7.2-1.7 1.6-2-1.2-5.4 7.2-11.5-4.7-8.3Z"/><path fill="#E91315" d="M395 708.6c0-1-.1-1.1-1.1-1.8.2-.8-.7-1.2-1.3-1.6.9-1.6-.8-2.3-2-3.4-1 .1-2-.4-2.8-.9-.5 1-.8.6-1.7.3-.5.6-.7 0-1.3-.2-2.8 1.4-4.2 3.5-6.2 5.4 1.3 1-1.6 2 .2 2.8-.5 1.2-.1 2.9 1.1 2.9-.5 1.2 1 4.1 2.5 2.5 0 1 .7.2 1.1.9-.2 1.2 1 1.1 1.8.7.5.5 1 1.1 1.4.2.6.1 1.1.7 1.4-.2 1-.4 1.5-1.5 2.7-.5 1.3 0 1-1.2 2.2-.8.7-4.2 3.1-5.4 1.8-5.6.5-.1.7-.3.3-.7Z"/></svg>