<svg fill="none" height="31" viewBox="0 0 40 31" width="40" xmlns="http://www.w3.org/2000/svg"><path d="m33.8838 2.59322c-2.5893-1.21146-5.3578-2.091892-8.2523-2.59322-.3555.642685-.7708 1.50711-1.0571 2.19476-3.0769-.46273-6.1255-.46273-9.1458 0-.2863-.68765-.711-1.552075-1.0697-2.19476-2.8976.501328-5.66931 1.385-8.25858 2.59963-5.222582 7.89197-6.638339 15.58797-5.930459 23.17467 3.463889 2.5868 6.820819 4.1582 10.121139 5.1864.8148-1.1215 1.5416-2.3136 2.1676-3.57-1.1923-.4531-2.3344-1.0122-3.41348-1.6613.28628-.2121.56631-.4339.83685-.662 6.58173 3.0784 13.73283 3.0784 20.23593 0 .2737.2281.5537.4499.8368.662-1.0822.6523-2.2274 1.2114-3.4198 1.6645.6261 1.2532 1.3497 2.4486 2.1677 3.57 3.3035-1.0283 6.6635-2.5996 10.1274-5.1896.8306-8.7949-1.4189-16.4202-5.9462-23.18108zm-20.5285 18.51538c-1.9758 0-3.59605-1.8445-3.59605-4.0906 0-2.2462 1.58565-4.0938 3.59605-4.0938s3.6306 1.8444 3.596 4.0938c.0032 2.2461-1.5856 4.0906-3.596 4.0906zm13.2893 0c-1.9758 0-3.5961-1.8445-3.5961-4.0906 0-2.2462 1.5857-4.0938 3.5961-4.0938 2.0103 0 3.6306 1.8444 3.596 4.0938 0 2.2461-1.5857 4.0906-3.596 4.0906z" fill="#0176ce"/></svg>