<svg fill="none" height="40" viewBox="0 0 40 40" width="40" xmlns="http://www.w3.org/2000/svg"><path clip-rule="evenodd" d="m2.6035 2.6035c-2.6035 2.60349-2.6035 6.79375-2.6035 15.1743v4.4444c0 8.3805 0 12.5708 2.6035 15.1743 2.60349 2.6035 6.79375 2.6035 15.1743 2.6035h4.4444c8.3805 0 12.5708 0 15.1743-2.6035s2.6035-6.7938 2.6035-15.1743v-4.4444c0-8.38055 0-12.57081-2.6035-15.1743-2.6035-2.6035-6.7938-2.6035-15.1743-2.6035h-4.4444c-8.38055 0-12.57081 0-15.1743 2.6035zm7.7064 3.61916h19.3777v3.91114h5.5111l-1.1555 3.9111h-.9778v15.8222c.4909 0 .8889.398.8889.8889v1.0667h.1778c.4909 0 .8889.3979.8889.8888v1.0667h-5.3334-2.8444-1.7778v-1.0667c0-.4909.398-.8888.8889-.8888h.1778v-1.0667c0-.43.3054-.7888.7111-.8711v-8.7289h-.0279c-.3144-3.4885-3.2462-6.2222-6.8166-6.2222-3.5703 0-6.5021 2.7337-6.8165 6.2222h-.0279v8.7111h.1778c.4909 0 .8889.398.8889.8889v1.0667h.1777c.491 0 .8889.3979.8889.8888v1.0667h-2.1333-2.8444-4.97783v-1.0667c0-.4909.39797-.8888.88889-.8888h.17778v-1.0667c0-.4909.39797-.8889.88889-.8889v-15.8222h-.97778l-1.15555-3.9111h5.1556z" fill="#0176ce" fill-rule="evenodd"/></svg>