<svg fill="none" height="40" viewBox="0 0 40 40" width="40" xmlns="http://www.w3.org/2000/svg" xmlns:xlink="http://www.w3.org/1999/xlink"><clipPath id="a"><path d="m0 0h40v40h-40z"/></clipPath><g clip-path="url(#a)"><path d="m19.9996 1.58365c-4.3217-.06222-8.5215 1.43267-11.83188 4.21149-3.31042 2.77883-5.51044 6.65606-6.19803 10.92316-.68758 4.267.18317 8.6391 2.45315 12.3171s5.78756 6.4165 9.91006 7.7149c.8334.1667 1.5-.75 1.5-1.5v-2.4166c-5 1.0833-6.58332-2.4167-6.58332-2.4167-.3251-1.0549-.96477-1.9854-1.83333-2.6667-1.66667-1.1666.08333-1.0833.08333-1.0833.55654.0444 1.095.2182 1.57245.5075.47746.2894.8807.6863 1.17757 1.1592 1.4167 2.4166 4.5833 2.1666 5.5833 1.75-.0875-.8286.0567-1.6653.4167-2.4167-5.6667-1-8.75002-4.3333-8.75002-8.8333-.05961-2.347.80877-4.6227 2.41667-6.3334-.44792-.8275-.66137-1.7615-.61731-2.70144.04406-.9399.34395-1.84992.86736-2.63187 1.0064.01979 1.9983.24426 2.9152.65974.9169.41547 1.7396 1.01325 2.4181 1.75692 1.447-.49376 2.9719-.71968 4.5-.66666 1.5215-.04716 3.0408.14978 4.5.58333.6886-.72475 1.5151-1.30453 2.431-1.70523.9159-.40071 1.9027-.61426 2.9023-.6281.5119.7843.8117 1.68794.8701 2.6227.0585.93471-.1265 1.86871-.5367 2.71061 1.5776 1.7238 2.4154 3.9981 2.3333 6.3334 0 4.5-3.0833 7.8333-8.75 8.8333.3599.7514.5042 1.5881.4167 2.4167v5.1666c-.0004.2042.041.4063.1216.594.0805.1876.1985.3568.3467.4973.1483.1404.3236.2491.5153.3194.1918.0703.3958.1007.5997.0893 4.0243-1.3963 7.4265-4.1683 9.6069-7.8276 2.1805-3.6593 2.9992-7.9708 2.3118-12.1746s-2.8366-8.03003-6.069-10.80426c-3.2324-2.77422-7.3403-4.31834-11.5997-4.36019z" fill="#0176ce"/></g></svg>