<svg fill="none" height="40" viewBox="0 0 40 40" width="40" xmlns="http://www.w3.org/2000/svg"><path clip-rule="evenodd" d="m40 20c0 11.0457-8.9543 20-20 20-11.04569 0-20-8.9543-20-20 0-11.04569 8.95431-20 20-20 11.0457 0 20 8.95431 20 20zm-6.7617.8127c.072-.2645.106-.538.102-.812-.0205-.5631-.2036-1.1082-.527-1.5695s-.7733-.8192-1.2955-1.0305c-.5222-.2114-1.0944-.2672-1.6475-.1605-.5531.1063-1.0637.3704-1.47.7605-.5651-.3841-1.1571-.727-1.7715-1.026-1.2301-.5994-2.5403-1.018-3.89-1.243-.674-.1125-1.3555-.1765-2.0385-.191l1.3-6.24002 4.28.90002c.105.977.9045 1.733 1.886 1.7835.981.0505 1.854-.6195 2.0585-1.5805.205-.96102-.319-1.92852-1.2355-2.28252s-1.9545.01-2.449.8595l-4.9-.98c-.08-.0175-.163-.019-.2435-.0045-.081.015-.158.0455-.227.09-.0685.0445-.128.1025-.174.17-.0465.068-.079.144-.0955.2245l-1.48 6.94002c-.6915.0105-1.3815.071-2.064.1815s-1.3565.27-2.016.478-1.303.464-1.9255.765c-.6224.3014-1.2221.6475-1.7945 1.0355-.3084-.2901-.6761-.5096-1.0777-.6435-.4017-.1338-.82759-.1787-1.2483-.1315-.42066.0469-.82606.1848-1.18808.4041-.36203.2194-.672.5148-.90842.8659-.23663.3511-.39407.7495-.46141 1.1676-.06734.418-.04298.8457.07141 1.2534.11457.4075.31633.7852.59129 1.1071.27497.3218.61659.5801 1.00121.7569-.0055.073-.01.1465-.0125.22-.00602.1466-.00602.2934 0 .44.0025.0735.007.147.0125.22 0 4.48 5.22 8.12 11.66 8.12s11.66-3.64 11.66-8.12c.0055-.073.01-.1465.0125-.22.006-.1466.006-.2934 0-.44-.0025-.0735-.007-.147-.0125-.22.2455-.122.4725-.278.6745-.4635s.377-.3985.5195-.6325c.143-.234.252-.4875.324-.752zm-19.312 2.602c-.186-.1855-.333-.406-.434-.6485-.1005-.243-.152-.503-.152-.7655 0-.809.4875-1.538 1.2345-1.848.7475-.3095 1.6075-.138 2.1795.434s.7435 1.432.434 2.1795c-.31.747-1.039 1.2345-1.848 1.2345-.2627 0-.5228-.0516-.7655-.152-.2425-.101-.463-.248-.6485-.434zm11.184 3.773c-.002.143-.0605.2795-.163.3795l.013-.0665c-.3515.265-.725.499-1.1165.7-.7847.4021-1.6327.6665-2.507.7815-.4365.057-.877.0765-1.3165.0585-.4395.018-.88-.0015-1.3165-.0585-.4365-.0575-.867-.152-1.287-.283s-.8285-.2975-1.22-.4985-.765-.435-1.1165-.7c-.085-.1035-.1285-.235-.122-.369s.063-.2605.1575-.3555c.095-.0945.2215-.151.3555-.1575s.2655.037.369.122c.298.2185.614.4115.9445.5765s.674.302 1.028.409c.3534.1075.7154.1844 1.082.23.3665.046.7365.061 1.1055.0445.3695.02.74.009 1.108-.0335.3675-.0425.731-.116 1.086-.2195.3553-.1038.7012-.2375 1.034-.3995s.6513-.3518.952-.5675c.1155-.0865.2535-.142.397-.14.143.002.2795.0605.3795.163s.1555.2405.1535.384zm.2605-3.1805c-.2505.104-.5195.1565-.7905.1535l.02-.08c-.809 0-1.538-.4875-1.848-1.2345-.3095-.7475-.138-1.6075.434-2.1795s1.432-.7435 2.1795-.434c.747.31 1.2345 1.039 1.2345 1.848.011.2709-.0334.5413-.1305.7945-.097.2535-.244.4845-.433.679s-.4155.3485-.666.453z" fill="#0176ce" fill-rule="evenodd"/></svg>