<svg xmlns="http://www.w3.org/2000/svg" width="530" height="488" fill="none"><g clip-path="url(#a)"><g fill="#FFC83F" opacity=".8"><path d="M505.7 21.1ZM528.7 208h.9l-1.6-6c1.5-.8.5-1.7 1-2.8-.5-5.9-.1-10-.6-16.1 1.1-.8-.3-2.3.9-3.3-1.1-.8 0-1.7.2-2.8-1.5-.8.3-2.4-.8-3.4.4-.8 0-.9-.6-1.3.4-.4.8-.8.6-1.5 1.1-4-1.3-2.4-.7-4.2-1-1.4 1.5-2.3-.1-4 1-1 0-1.6.2-2.6.7-1.2-1-2.4-.4-3.6-.2-1.2 2.1-2 1-3.4 1.2-.6.1-.9-.4-1.5l1.2-6.2-1.6-6c1.5-.9.5-1.7 1-2.8-.5-6-.1-10-.6-16.2 1.1-.7-.3-2.2.9-3.3-1.2-.7 0-1.6.1-2.7-1.4-.8.4-2.4-.7-3.5.4-.7 0-.8-.5-1.1v-.2c.4-.4.7-.8.5-1.4.6-2.2.2-2.7-.3-3a1167.7 1167.7 0 0 0 .7-15.6l.2-6 .2-1-.1-.6a434 434 0 0 0-.8-39.4 173.6 173.6 0 0 0-.5-5l-.1-.7c.6-.9-.3-1.4 0-2.4.7-1-1-2.4-.4-3.5-.2-1.3 2.1-2 1-3.4 1.2-.6.1-.9-.4-1.6l1.2-6.1c-.1.2-1.5 0-3 0h3c0-1.7-.6-3.2-.9-4.8-.1-.8.3-1.7-.4-2.3-.2-.3-.4-1-.9-.7-5.4.8-7.8.6-7 3-.6-1-1-1.5-1.1-1 .4 1-.1 1-.2 1.6 0 .7-.5-.5-.8-.5 0 .5.1.6-.3.2 0 .3-.3.1-.5.2v.3c-2.5 0-5.6 1.5-9.2 5l-.3-.2c.2.9-.1 0-.4-.2l.2.9c-.1 0-.3-.1-.4.3-1.2-1-1.4-.7-1.2 0l-.2-.4c-.3-.2-.6-.2 0-.3-.3 0-1.4 0-1-.3-1.1-.4-.2-.3.4-.6-.4-.1-.6 0 0-.3 0-.4-.3-.3-.5-.7.6-.4-.2-.2-.5-.3.9-.4-.4-.3.8-.6-.3 0-.6-.3-.4-.6-.7-.2-.4-.6.2-.7-.8 0-.2-.4.2-.5-1.1 0-.4 0 .1-.5-.3-.2-1 .2-.5-.3.4-.3-.1-.1-.3-.2.7-.4-.5-.1-.6-.2 1 0 .3-.5.8-.7.5-.5-2.2.2-1-.3-1.3-.2 1.4-.4-.2-.7l.6-.3c-.5 0-.8 0-.2-.3-1.4-.3-.7-.5.3-1 .5-.2-.5 0 .5-.3 0-.1-1.8.1-.5-.2-.4-.1-.6-.3-.1-.4.9-.5.7-.6 0-.6l.6-.1c-.1-1.4-1-2.6-1.3-4 .1-1-.3-1.6-1.1-2.1-.4-.2-.8.3-1.2.1-5-.6-5.8.4-5 2.3L495 5a88 88 0 0 0-5.7 4.4c-1.7-.7-2.7.4-4.2 1-5.2 3-9.6 4.3-14.8 7.6-3.2.7-5.1 2.2-8.3 2.7-.3 1.8-2.7.8-3.4 2.4-.9 0-.9.4-1 1.1-1-.4-1.8.2-2.7.5-3.7.7-1.3 2.2-3.4 2.4-1 1.7-3.2 0-4.2 2.1-2.6-.2-4.3 2.4-6.6 3.2-1.3.7-3-1-4 .8-1.1-.9-1.1.2-1.6 1l-7.1 1.8c.2 0 .6 1.1 1 2.4-.4-1-1-1.8-1-2.4L422 40c-1.6-.8-2.6.3-4.2.8-5.3 2.7-9.8 3.8-15.2 6.6-3.2.5-5.2 1.8-8.5 2-.4 1.8-2.7.7-3.5 2.1-.9 0-1 .4-1.2 1-.9-.4-1.7 0-2.6.3-3.8.4-1.6 2.1-3.7 2.2-1.2 1.5-3.1-.4-4.3 1.7-2.6-.4-4.5 2-6.9 2.6-1.3.6-3-1.3-4 .4-1.1-1-1.2.1-1.7.8l-7.3 1.3c.3 0 .6 1.4 1 2.8l-1-2.8c0 .2-.5.5-1 1 .8-.8 1.2-1.3.5-1 .6-.6-.5 0-.9 0 .2-.5-.2-.3-.5-.3-.7.1.4-.7.4-1-.8.3-.2-.1-.5-.6-.2-.2-1-.1-.7-.8-.3 0-1 .7-.6 0 0-.6-.7.1 0-.8-.6.1-.6-.6-1.2-.7-.9-.2.6-1.2-.4-.8 0-.8.5-1-.4-.6.2-.2.2-.6.3-1-.6.2-.6.6-.7 0 .1-.5-.6-.4-1-.1.7-.7-.3-.8 0-1.3.2-.6-1.1.6-1.2.5.5-1-.4.1-.3-.5.6-.6.5-.9-.3-.6.8-1.3-.6 0-.1-1.1-1.8.3-.9-.5-.4-1.6-.9.3 0-.1 0-.4-.2 0-1.5 1-.6 0-1 .2-.2-.8-.3-1.3.1-.3-.2-.2-.7.2l.6-.5c-.4-.6-1.2-.7-1.8-1.1-.4-.1-.3-.8-.8-.7-2.4.6-1 0-3-.6-1.5-.6-1.8 0-1.7 1a5 5 0 0 1-.2-1l-5.7 3.4c-.8 1-1.7 0-2.7 0-.7 1-2 .7-3.2 1.2-6.6 3-13 5.3-20 7.2-1-.3-1 .1-1.5.8-2-.7-3 1-4.8 1.3-2.5 1-4 2.4-7.1 2.5-1.8.4-.4 1.5-2.8 2.4-2-.5-3 .8-4.8 1-2.4.4-4.4 2.4-7 3-1.6-1.3-3 .5-4.3-.2-.5.7-.7 1.7-1.7 1.2-4.4 1.7-6.5.8-6.2 2.9l-.4-1.3c-.8.3-1.1 1-1.8 1.4-.2.3-.7.1-.9.5-.4 1.5.4 1.2-1 2.3-1.3 1.9-1 2.5.2 2.7h-1c3.2 12.5 2.5 25.4 5.3 38.6-.2 7.4 1.8 14.3 2.4 21.7-.3 4 1.7 3.1 1.6 5.5 1.3 2-1 4.1 1 6.3-1 3.3 1.1 6.5 1.4 9.8.5 1.3-.8 2.1-.7 3.4-.4 1.3.9 2-.2 3.2.7.7 1.6 1.4 1 2.5 1.2 2.8-.2 5.8.4 8.9-2 1-3.6 1.8-5.8 3.2-1.4-1-2.4-.1-4 0-5.2 2-9.2 2.4-14.5 4.6-3 0-5 1.2-8 1-.5 1.6-2.6.2-3.4 1.5-.8-.2-.9.3-1.2 1-.7-.6-1.5-.3-2.4-.2-3.6 0-1.5 2-3.5 1.8-1.2 1.4-2.8-.8-4.1 1.2-2.4-.8-4.3 1.3-6.5 1.7-1.3.5-2.6-1.6-3.8 0-1-1.1-1 0-1.6.6l-6.8.4c.3 0 .4 1.2.7 2.5-.4-1-.7-2-.7-2.5a77 77 0 0 0-5.9 3c-1.3-1.1-2.4-.3-3.9-.1-5.3 1.7-9.4 2-14.8 3.8-3 0-5 1-8 .6-.8 1.3-2.9 1-4.2 1.4-.4 1.6-2.3 0-3.6 1-2-1.2-1.3 1.9-2.9 1.3-1.3 1.3-2.8-1-4.2 1-2.3-.9-4.3 1.2-6.5 1.4-1.3.4-2.5-1.7-3.8-.2-.8-1.1-1 0-1.6.6l-6.8.1c.3 0 .4 1.2.5 2.6-.2-1-.5-2-.5-2.6a76 76 0 0 0-6 2.7c-1.3-1.1-2.4-.4-4-.3-5.3 1.5-9.4 1.5-14.8 3.2-3-.2-5 .8-8 .3-1 1.2-3 .7-4.4 1.2-.4 1.5-2.2-.2-3.6.8-2-1.3-1.4 1.8-3 1.1-1.3 1.3-2.7-1-4.1.8-2.3-.9-4.4 1-6.6 1.2-1.4.3-2.5-1.8-3.8-.4-.8-1.1-1 0-1.7.5-2 0-4.3 0-6.7-.2.2.1.3 1.2.3 2.5-.2-1.3-.5-2.3-.3-2.5-2.2.8-3.9 1.4-6.2 2.4-1.2-1.1-2.4-.4-3.9-.4-5.5 1.3-9.5 1.2-15 2.5-3-.3-5 .5-8 0-.7 1.5-2.7-.1-3.6 1-.9-.3-1 .2-1.3.8-.7-.6-1.6-.4-2.5-.4-3.5-.5-1.7 1.6-3.7 1.2-1.3 1.2-2.7-1.2-4.2.6-2.2-1-4.4.8-6.6 1-1.4.2-2.4-2-3.8-.7-.8-1.2-1-.1-1.7.5l-6.7-.5c.2 0 .2 1.5.2 3l-.2-3c-1 0-1.6.7-2.4 1-.3.3-.9 0-1.1.3-.2.3-.6.7-.6 1.1.1.5-.4.7-.7 1-2 2.3-1.3 3 0 3.3H5.2l1.3 6.8c-.2 2.2-1 4-.8 6.4.6 7.8.7 15 .2 22.8-.7.8-.3 1 .2 1.7-1.4 2 0 3.4-.4 5.4 0 2.9.9 5 0 8-.2 2 1.3 1 1.4 3.7-1.2 1.9-.3 3.4-.6 5.3-.5 2.5.7 5.2.5 8-1.8 1.2-.5 3.2-1.7 4.4.5.6 1.4 1.2.6 2.1.9 2.4-.9 4.7-.7 7.2.1-.2 1.3-.1 2.6 0-1 0-2 .2-2.6 0 .3 2.5.8 4.4 1.3 7-.2 2-1 3.9-.8 6.3.5 7.8.6 15 .1 22.8-.6.8-.3 1 .3 1.8-1.4 1.8 0 3.3-.4 5.3 0 2.9.8 5 0 8-.2 2 1.3 1 1.3 3.7-1.2 1.9-.2 3.4-.6 5.3-.4 2.5.8 5.2.6 8-1.9 1.2-.6 3.3-1.7 4.4.5.6 1.4 1.2.5 2.1 1 2.4-.8 4.7-.7 7.3.2-.3 1.3-.2 2.6 0H5.1l1.3 6.9c-.2 2-.9 3.9-.8 6.3.6 7.8.7 15.1.2 22.8-.6.8-.3 1.1.2 1.8-1.4 1.8 0 3.3-.3 5.3 0 2.9.8 5-.1 8-.1 2 1.4 1.1 1.4 3.7-1.2 1.9-.3 3.4-.6 5.3-.5 2.5.8 5.3.5 8-1.8 1.2-.5 3.3-1.7 4.4.5.6 1.4 1.2.6 2.1.9 2.4-.9 4.7-.7 7.3.2-.3 1.6-.2 3 0h-3c0 1 .5 1.7.7 2.6.3.5 0 1.2.2 1.7.5.4.9.8 1.6.7a6 6 0 0 0 2.6 1.4c1.7.9 2.1 0 2.1-1.3v1.5c2.4-.7 4.3-1.3 6.9-2.3 1.3 1.3 2.6.5 4.2.6 5.9-1.1 10.5-1 16.4-2.3 3.3.4 5.5-.5 8.7 0 .8-1.5 2.9 0 4-1.2.8.4 1-.1 1.3-.7.8.6 1.7.4 2.7.4 3.8.4 2-1.8 4-1.3 1.5-1.3 3 1 4.6-.8 2.4 1 4.7-.9 7.2-1.1 1.4-.3 2.6 1.8 4 .4.9 1 1.2 0 1.9-.6l7.3.1 6-2.2c.9-.8 1.5.4 2.5.5.7-1 1.5 0 2.4-.5 5.9-1.4 10.4-1.6 16.3-3.3 3.2.2 5.5-.8 8.7-.4 1-1.3 3.2-.8 4.7-1.3.5-1.5 2.5.2 3.9-1 2.1 1.3 1.6-1.8 3.2-1.2 1.4-1.3 3 .9 4.5-1 2.5.8 4.7-1.3 7.1-1.6 1.4-.4 2.8 1.7 4.1.2 1 1 1.1 0 1.8-.7l7.3-.2c2.1-.8 3.6-1.6 5.8-2.6.9-.8 1.6.3 2.6.3.7-1 1.5-.2 2.4-.7 5.8-1.7 10.3-2 16-4 3.3 0 5.5-1.2 8.7-1 .6-1.6 2.8-.3 3.8-1.6.8.2 1-.3 1.3-1 .8.6 1.7.3 2.6.1 3.8 0 1.8-1.9 3.9-1.7 1.3-1.4 3 .8 4.5-1.3 2.5.7 4.6-1.4 7-1.9 1.4-.5 2.8 1.5 4 0 1 1 1.2-.1 1.8-.8l7.3-.8 5.7-2.8c.8-.9 1.6.3 2.6.2.6-1 1.4-.2 2.3-.8 5.7-2 10.2-2.8 15.8-5.1 3.3-.2 5.4-1.4 8.6-1.3.9-1.4 3.1-1.2 4.5-1.9.4-1.6 2.5-.2 3.8-1.4 2.3 1 1.4-2 3-1.6 1.3-1.5 3.1.6 4.4-1.5 2.6.5 4.6-1.8 7-2.3 1.3-.6 2.9 1.3 4-.3 1 1 1.2 0 1.7-.8l7.3-1.2c2-1 3.4-2 5.5-3.2.7-.9 1.6.2 2.6 0 .5-1 1.4-.2 2.3-.8 5.5-2.4 10-3.2 15.5-5.9 3.2-.3 5.3-1.7 8.5-1.8.4-1.7 2.8-.6 3.5-2 1 0 1-.4 1.2-1 1 .4 1.8 0 2.7-.3 3.8-.4 1.5-2 3.6-2.1 1.2-1.6 3.1.4 4.3-1.8 2.6.4 4.4-2 6.8-2.7 1.3-.6 3 1.2 4-.5 1.1 1 1.2-.1 1.7-.9l7.2-1.5c2-1.3 3.8-2.3 6-4 1.6.9 2.6-.2 4.1-.6 5.4-2.6 10-3.6 15.2-6.6 3.3-.5 5.2-2 8.4-2.3.4-1.7 2.8-.7 3.5-2.2 1 .1 1-.3 1.2-1 .9.4 1.7-.1 2.6-.4 3.8-.5 1.4-2.1 3.5-2.3 1.1-1.6 3.2.3 4.3-2 2.5.3 4.3-2.2 6.6-3 1.3-.7 3 1 4-.6 1.1.8 1.1-.3 1.6-1l7.1-1.9c-.3 0-.7-1.3-1.2-2.7l1.2 2.7c.7-.3.9-1 1.4-1.4.5-.3.7-.3.7-1 0-.3-.2-.6 0-1 .6-.3 1.2-.7 1.6-1.4.6-.8.4-1.1-.3-1.3h.6c-.4-1.9-.8-3.2-1.5-5.4 1.4-.8.4-1.5 1-2.5-.6-5.4-.2-9-.7-14.6 1.2-.7-.3-2 1-3-1.2-.6-.1-1.4 0-2.5-1.4-.7.4-2.2-.6-3 .6-1.2-1.4-1 0-1.9 0-1.2 0-2 .3-3.2-.4-.4-2-.3-1-1.3-1.1-1.3 1.4-2-.2-3.6 1-1 0-1.5.3-2.4.6-1-1-2.2-.5-3.2-.2-1.2 2.1-1.8 1-3 1.2-.6.2-.9-.4-1.5l1.2-5.6c0 .2-1.4.1-2.9 0h2.9c-.5-1.9-.8-3.3-1.6-5.4 1.5-.8.5-1.6 1-2.5-.5-5.5-.1-9-.6-14.7 1.1-.6-.4-2 .9-3-1.2-.6 0-1.4.1-2.4-1.4-.7.4-2.2-.7-3.1.7-1.1-1.3-.9 0-1.8 0-1.2 0-2.1.4-3.2-.4-.5-2-.4-1-1.3-1.2-1.3 1.4-2.1-.3-3.6 1.1-1 0-1.5.3-2.5.4-.5 0-1.1-.3-1.8a41 41 0 0 1 11.2-16.7 9 9 0 0 0 3.2-1.2c6.6-3.5 12.5-5.6 19-9.5 7.2-2 12.7-6 19.4-9 4-1 2-2.6 4.3-3.2 1.4-1.8 4-.4 5.3-2.8 3.2-.3 5.3-3.2 8.1-4.5 2.6-.8 5.8-.2 7-3l8.7-3.3c-.4 0-.9-1.4-1.5-2.7l1.5 2.7c.6-.4.6-1 1-1.6.2-.1.4 0 .6-.3l-.1-1.2c-.3-.5 1.4-.9 1.6-1.7.7-.7.3-1-.5-1.2h-.1Zm-4.8-23.6c0 1.4-.2 2.7.5 4-1.5 1.9.1 3.9-.5 5.9.4.5.1 1-.2 1.4l.1-11.4h.1Zm5.6-39.1c-.1.2-1.8 0-3.4 0 .9-.1 2-.2 3.4 0Zm-.1-62.8h-.2.2ZM523 19.7h.3-.2Zm-17.3 1.4c-.6.2-1.3.2-1.9.3l1.9-.3ZM280 178l-3 .3.6 2.4c-.4-1-.7-1.8-.7-2.3.2-.4 1.6-.4 3-.4Zm-195 297c.2.8.4 1.9.4 3.2-.3-.1-.3-1.7-.4-3.2Zm72.3-12.8c.3.9.5 2 .6 3.3-.3-.1-.4-1.7-.6-3.3Zm71.5-16.8c.3.8.6 1.8.8 3.2-.3-.1-.5-1.7-.8-3.2Zm70.5-20.8c.3.8.7 1.8 1 3.2-.3 0-.6-1.6-1-3.2Zm69.3-24.4c.3.8.8 1.8 1.1 3-.3 0-.7-1.5-1.1-3Z"/></g><path fill="#F2A0AA" d="m265.3 97.2 26.3 203.4A1131.5 1131.5 0 0 0 519.4 206L495.6 2c-52.7 24.4-73.7 36.4-142.8 59.7l-13-17.3-77 27 2.5 25.8Z"/><path fill="#F2A0AA" d="M369.5 271.3c-8.4 4.8-19.3 5.5-27.6 11-4.7.6-9 1.6-12.6 3.8-3.7.2-6.8 2.7-10.4 4.2-2.8-.6-4.7 1.7-7.4 1.8-3.7.8-8.3 1.4-12.3 3-7.1 1.9-4.1 1.2-2.9 7.6 2.2-1 3.9-2 6.2-3.2.8-1 1.7.2 2.8 0 .6-1 1.6-.3 2.5-.9 6-2.4 11.1-3.3 17.1-6 3.5-.4 5.9-1.8 9.4-2 .6-1.7 3-.5 3.9-2 1 .1 1-.3 1.4-1 1 .4 1.8-.1 2.8-.3 3.8-.4 2-2.1 4-2.3 1.4-1.5 3.5.4 4.8-1.8 2.8.4 4.9-2 7.4-2.8 1.5-.7 3.3 1 4.5-.6 1 .9 1.2-.2 1.8-1l7.8-1.7c-.7-.1-1.7-7.8-3.2-5.8Z"/><path fill="#F2A0AA" d="M443.4 240.6c-8 5.3-18.8 6.8-26.8 13-4.6.8-8.7 2.1-12.2 4.6-3.7.4-6.6 3.1-10 5-3-.5-4.7 2-7.3 2.3-3.6 1-8.2 2-12 4-7 2.2-4.1 1.3-2.4 7.6l5.9-3.6c.8-1 1.8 0 2.8-.2.6-1 1.6-.4 2.5-1 5.8-2.9 10.8-4.3 16.6-7.3 3.4-.6 5.7-2.2 9.1-2.6.5-1.8 3-.8 3.8-2.4 1 0 1-.4 1.3-1.1 1 .4 1.9-.2 2.9-.5 3.7-.6 1.7-2.2 3.8-2.5 1.2-1.7 3.4 0 4.6-2.2 2.9.2 4.7-2.4 7.2-3.4 1.4-.7 3.3 1 4.4-.9 1.1.8 1.2-.3 1.7-1l7.7-2.3c-.7 0-2.2-7.7-3.6-5.6Z"/><path fill="#F2A0AA" d="M515 204.7c-7.6 6-18.3 8.2-25.8 14.8a30.5 30.5 0 0 0-11.9 5.5c-3.6.7-6.4 3.6-9.6 5.7-3-.3-4.5 2.3-7.1 2.8-3.6 1.2-8 2.6-11.8 4.8-6.8 2.8-4 1.6-1.8 7.8 2-1.3 3.6-2.5 5.6-4 .8-1 1.8-.1 2.8-.4.6-1.1 1.6-.5 2.4-1.3 5.7-3.2 10.6-4.8 16.1-8.4 3.4-.8 5.5-2.5 9-3.2.3-1.8 2.9-1 3.6-2.6 1.4 0 .6-1.7 2.2-1.1 1.5-.8 2.8-1.3 4.3-1.8.2-.8-.3-2 1.1-1.8 1.2-1.7 3.5-.1 4.5-2.5 2.8 0 4.5-2.7 7-3.8 1.3-.9 3.3.7 4.3-1.2 1.2.7 1.1-.4 1.6-1.2l7.5-2.8c-.7 0-2.8-7.5-4-5.3Z"/><path fill="#F2A0AA" d="M508.4 139.2c2.4 7.4.5 16.9 3.9 24.3 0 2.3-1.1 4.4-.1 6.6.5 1.3-.2 3 .9 4.2-.2 1.4-.6 3.9.9 5 .2 1.4.1 2.8 1 4-1.3 2.2.6 4.1.1 6.3 1 1-.7 1.8-.4 3 1 2.3.2 4.5.8 6.8.9 7.2.3 4.1 7 4a72 72 0 0 0-2.3-6c1.3-1.2.3-2 .7-3.2-1.3-6-1.4-10.6-2.6-16.8 1-1-.6-2.3.5-3.6-1.2-.6-.2-1.7-.2-2.9-1.6-.7 0-2.5-1.1-3.5.3-.8-.2-.9-.8-1.3.4-.4.7-1 .5-1.6.6-4.3-1.7-2.4-1.3-4.3-1.2-1.4 1.2-2.7-.6-4.2 1-2.1-.8-4.2-1-6.4-.2-1.4 2-2.4.6-3.7 1.2-.8.1-1-.5-1.7l.4-6.6c-.2.6-7.9 0-6.4 1.6Z"/><path fill="#F2A0AA" d="M500.7 73.4c2.4 7.4.5 17 3.9 24.3 0 2.4-1.1 4.5 0 6.6.4 1.3-.3 3 .8 4.2-.2 1.5-.6 4 1 5 .2 1.5 0 2.8.9 4-1.3 2.3.6 4.2.2 6.4 1 1-.7 1.8-.5 3 1 2.2.2 4.4.8 6.8.9 7.1.3 4 7 4a72 72 0 0 0-2.3-6.1c1.4-1.2.3-2 .7-3.1-1.3-6.1-1.4-10.6-2.6-16.9 1-.9-.6-2.3.5-3.6-1.2-.6-.2-1.7-.2-2.8-1.5-.7.1-2.6-1.1-3.5.3-.9-.2-1-.7-1.3.3-.5.6-1 .4-1.7.6-4.2-1.6-2.4-1.2-4.3-1.3-1.3 1.1-2.6-.7-4.1 1-2.2-.8-4.3-1-6.5-.2-1.3 2-2.3.6-3.7 1.2-.7.2-1-.4-1.6l.4-6.6c-.2.6-8 0-6.5 1.5Z"/><path fill="#F2A0AA" d="M493 7.7c2.4 7.4.5 16.9 3.9 24.3 0 2.3-1.1 4.5 0 6.6.5 1.3-.2 3 .8 4.2-.2 1.5-.6 4 1 5 .2 1.4 0 2.8.9 4-1.3 2.3.6 4.2.2 6.4 1 1-.7 1.7-.5 3 1 2.2.2 4.4.8 6.8 1 7 .3 4 7 3.9a72 72 0 0 0-2.2-6c1.3-1.2.2-2 .6-3.2-1.2-6-1.4-10.6-2.6-16.8 1-1-.6-2.3.5-3.6-1.2-.6-.2-1.7-.2-2.9-1.5-.6.1-2.5-1-3.5.2-.8-.3-.9-.8-1.2.3-.5.6-1 .4-1.7.6-4.3-1.6-2.4-1.2-4.3-1.2-1.3 1.1-2.6-.7-4.1 1-2.2-.8-4.3-.9-6.5-.3-1.3 2-2.4.6-3.7 1.1-.8 0-1-.5-1.6l.4-6.6c-.2.6-8-.1-6.5 1.5Z"/><path fill="#F2A0AA" d="M426.3 37.5c8.2-4.8 18.1-7 26.3-12.8 3.7.1 6.9-2.4 9.6-4.1 3.8-.3 6.1-4.3 9.8-5.1 5.8-3 12.2-3.8 18-8 5.2.9.4-4.6 0-6.6a88 88 0 0 0-5.7 4.3c-1.7-.7-2.7.5-4.2 1-5.3 3-9.6 4.4-14.8 7.6-3.2.7-5.1 2.3-8.3 2.7-.3 1.8-2.7.9-3.4 2.4-.9 0-.9.5-1 1.2-1-.4-1.8.1-2.7.4-3.7.7-1.4 2.3-3.4 2.5-1 1.6-3.2-.1-4.2 2-2.6-.1-4.3 2.4-6.6 3.3-1.3.7-3-1-4 .7-1.2-.9-1.1.2-1.6 1l-7.2 1.8c.7.1 2.2 7.7 3.4 5.7Z"/><path fill="#F2A0AA" d="M357 63.7c8.5-4.1 18.5-5.5 27.1-10.6 3.8.5 7.1-1.8 10-3.3 3.8.1 6.4-3.8 10.2-4.3 6-2.6 12.4-3 18.4-7 5.3 1 .7-4.6.3-6.7-2 1.4-3.8 2.5-5.9 4.2-1.6-.8-2.7.3-4.2.7-5.4 2.7-9.8 3.8-15.2 6.7-3.2.4-5.3 1.8-8.5 2-.4 1.7-2.8.6-3.5 2-1 0-1 .4-1.2 1.1-.9-.4-1.7 0-2.7.3-3.7.4-1.5 2-3.6 2.1-1.2 1.6-3.1-.4-4.3 1.8-2.6-.5-4.5 1.9-6.9 2.5-1.3.6-3-1.2-4 .4-1.1-.9-1.2.2-1.7 1l-7.3 1.2c.7 0 1.5 7.8 3 5.9ZM338.9 48.5c.2.7 1.5-.5.6.6.6-.2.3.6.8.4 0 .2-.3.4-.2.7.4-.3.8.4.8 1 .6-.2.5 0 .4.5.4 0 .2.1.1.4.3 0 1.3.2.9 1 1.8-.5 1 0 .8 1.3.7-.2 0 .5 1 .2-.3.4-.4.7.3.4-.3.5-.1.4.3.3-.7.8.3 0 0 .6 0 .9.3.3 1 .2-.1.6.9-.1.4.6.7 0 .5 0 .3.6.1.5.4.2.8.3-.4.4 0 .6.4.6-1.3 1.3.2 1 0 1.8 0 1 1.4.6 1 1.3-1 1.6 7-4.4 4.8-3.6.6-.6-.5 0-.8 0 .2-.4-.2-.3-.5-.3-.7.1.3-.6.3-1-.8.3-.1-.1-.4-.5-.3-.3-1-.2-.8-.9-.2 0-1 .8-.6 0 .2-.7-.8.3.1-.8-.6.1-.6-.6-1.2-.7-1-.2.6-1.2-.5-.8 0-.7.6-1-.4-.6.3-.2.3-.6.4-.9-.6.2-.6.5-.8-.2.1-.4-.5-.3-1 0 .7-.6-.2-.8.1-1.3.1-.6-1.2.6-1.3.5.5-.9-.4.1-.3-.5.7-.6.5-.8-.3-.6.8-1.2-.6 0 0-1-1.8.3-1-.5-.5-1.6-.8.3 0-.2 0-.5-.1 0-1.4 1-.6 0-1 .2-.1-.8-.3-1.3.6-1.1-6 4-5.2 3.8Z"/><path fill="#F2A0AA" d="M267.3 73.3c8.8-4.3 19-5.8 28-10.8 3.9.4 7.4-1.8 10.4-3.3 4 .1 6.8-3.7 10.7-4.2 6.2-2.4 12.9-2.6 19.2-6.2 5.3 1.3 1.1-4.5.8-6.7l-5.6 3.4c-.8 1-1.7-.1-2.7 0-.7 1-2.1.7-3.2 1.2-6.7 3-13 5.3-20 7.2-1-.4-1 0-1.5.8-2.1-.8-3 1-4.9 1.3-2.5 1-4 2.3-7 2.4-1.8.5-.4 1.6-2.8 2.4-2-.5-3 .9-4.8 1.1-2.4.4-4.4 2.4-7 3-1.6-1.4-3 .5-4.4-.2-.4.6-.6 1.6-1.7 1.1-6.3 2.5-7.8-.4-4.4 8l.8-.5Z"/><path fill="#F2A0AA" d="M275 147c-2.6-8.5-1-18.7-4.6-27.3.5-4.4.3-8.5-1.1-12.2.1-1.8.5-4.3-1-5.7-.4-1.6-.3-3.1-1.1-4.6 1.2-2.4-.7-4.7-.2-7.1.1-3.5.4-7.8-.4-11.8-.3-7.1-.7-3.9-6.8-4 .6 2.3 1.1 4 1.9 6.2.7 1-.5 1.6-.6 2.6.9.8 0 1.5.3 2.5 1.2 6 .9 10.7 2.4 16.7-.3 3.3.6 5.6 0 8.8 1.6.9 0 3 1.3 4-.3.9.1 1 .8 1.5-.7.7-.4 1.7-.4 2.6-.4 3.8 1.7 2 1.3 4 1.3 1.6-1 3.1.8 4.8-1 2.4 1 4.8 1.1 7.3.4 1.5-1.8 2.7-.4 4.1-1.1.9 0 1.2.5 1.9 0 2.3 0 4.8-.2 7.4.3-.6 8 .2 6.4-1.6Z"/><path fill="#F2A0AA" d="M284.6 221.3c-2.4-9.3-1.6-19.5-4.7-29.1 1.2-3.6-.2-7.4-1-10.5 1-3.8-2.2-7.3-1.9-11.1-1-6.5.2-12.9-2-19.7 2.4-4.8-4.3-2-6.4-2.2.8 2.4 1.4 4.4 2.4 6.9-1.1 1.4-.4 2.7-.3 4.3 1.2 6 1.2 10.6 2.7 16.6-.3 3.3.6 5.7 0 8.9 1.6.8 0 2.9 1.3 4-.3.8.1 1 .8 1.4-.7.8-.4 1.7-.4 2.6-.4 3.8 1.7 2 1.3 4.1 1.3 1.6-1 3 .8 4.7-1 2.5 1 4.9 1.1 7.3.4 1.5-1.8 2.7-.4 4.2-1.1.8 0 1.1.5 1.8 0 2.3 0 4.8-.2 7.5.3-.7 8 0 6.4-1.7Z"/><path fill="#F2A0AA" d="M294.2 295.5c-2.3-9.3-1.6-19.5-4.7-29.1 1.2-3.6-.2-7.4-1-10.5 1-3.8-2.2-7.3-1.9-11.1-1-6.5.2-12.9-2-19.7 2.4-4.8-4.3-2-6.4-2.2l2.1 6.2c.8.9-.4 1.5-.5 2.5 1 .8 0 1.5.5 2.5 1.2 6 1.2 10.7 2.7 16.6-.3 3.3.6 5.7 0 8.9 1.6.8 0 2.9 1.3 4-.3.8.1 1 .8 1.4-.7.8-.4 1.7-.4 2.6-.4 3.8 1.7 2 1.4 4.1 1.2 1.5-1.1 3 .7 4.7-1 2.5 1 4.8 1.1 7.3.4 1.5-1.8 2.7-.4 4.2-1.1.8 0 1 .5 1.8 0 2.3 0 4.8-.2 7.5.3-.7 8 0 6.4-1.8ZM519 210c.7-.4.8-1.1 1.3-1.6.3-.3.8-.3.6-.8v-1.1c.4-.6 1.1-1 1.4-1.8 1.9-2.8-5.8-.1-6.4-.5l3.1 5.8ZM499.4 6.1c-.2-1.4-1-2.6-1.3-4 0-1-.4-1.6-1.2-2-.4-.2-.7.2-1.1 0-8-.9-5.3 2-3 6.8l6.6-.8ZM356.1 64c-.7.3-1.4 0-2.2 0-.3 0-.7.4-1 0l-.8-1c-.7 0-1.6.1-2.3-.3-3.5-.9 4-4 4.2-5l2.1 6.4ZM344 44.4c-.5-.6-1.2-.7-1.8-1.1-.4-.1-.3-.8-.8-.7-2.5.6-1 0-3.1-.6-4-1.5.5 5.3.3 6.4l5.4-4ZM264.2 67.4c-.8.3-1 1-1.7 1.5-.2.3-.8 0-.9.5-.5 1.4.4 1.1-1 2.3-3.3 4.6 4 1.7 5.8 2l-2.2-6.3Z"/><path fill="#F2A0AA" d="M287.8 297.2c.2.9.6 1.6 1 2.4.3.6.3 1.4.5 2 .5.5 1 .8 1.8.6.5.2.8.6 1.4.6 6.1 1.6 2.4-3.8 2-6.5l-6.7.9Z"/><path fill="#EFE3F3" d="M306 75.8C376 56.4 438.4 42.4 493.4 16l-6.8 193.8c-55 26.5-118 51.5-188 71l7.2-205Z"/><path fill="#fff" d="M494.4 83c-.9-7.9 1.4-16.2-.1-24.5 1.3-1.6 1.3-3.6.6-5.4.8-1 .4-2.4 0-3.4.5-.5.7-.7.2-1.3.2-1 1-2 .2-2.7a8.6 8.6 0 0 1-.4-5.3c.5-2 .2-4 0-6 2-2.1 1-6.6 1.3-9.7-.6-1 .6-2 .4-3l-6.6-.3 1.3 6c-1.5.8-.5 1.7-1.1 2.7.3 6-.3 10 0 16-1.1.7.3 2.2-1 3.3 1.1.7 0 1.6-.2 2.7 1.4.8-.5 2.3.6 3.4-.5.7 0 .8.5 1.3-.4.4-.8.8-.6 1.5-1.3 4 1.3 2.4.5 4.1 1 1.5-1.5 2.3 0 4-1 1 0 1.6-.3 2.6-.7 1.1 1 2.5.3 3.5.1 1.3-2.2 2-1 3.4-1.4.5-.3.8.1 1.5l-1.3 6.1c.2-.5 7.8 1.3 6.6-.5Z"/><path fill="#fff" d="M492.2 145.1c-.9-7.9 1.5-16.2-.1-24.5 1.3-1.6 1.3-3.6.6-5.4.8-1 .4-2.4 0-3.4.5-.5.7-.7.2-1.3.2-1 1-2 .2-2.7a8.6 8.6 0 0 1-.4-5.3c.5-2 .2-4 0-6 2-2 1.1-6.6 1.3-9.7-.6-1 .6-2 .4-3l-6.6-.3 1.3 6c-1.4.8-.5 1.7-1.1 2.7.3 6-.2 10 0 16-1.1.7.3 2.3-1 3.3 1.2.7 0 1.6-.2 2.7 1.4.8-.5 2.3.6 3.4-.5.7 0 .9.5 1.3-.4.4-.8.8-.6 1.5-1.3 4 1.3 2.4.5 4.1 1 1.5-1.5 2.3 0 4-1 1 0 1.6-.3 2.6-.7 1.1 1 2.5.3 3.5.1 1.3-2.2 2-1 3.4-1.3.5-.3.8.2 1.6l-1.4 6c.3-.5 7.8 1.3 6.6-.5Z"/><path fill="#fff" d="M490 207.2c-.9-7.9 1.5-16.1 0-24.5 1.3-1.5 1.3-3.6.5-5.4.9-1 .4-2.3 0-3.3.5-.6.7-.8.2-1.4.2-1 1-2 .3-2.7a8.6 8.6 0 0 1-.5-5.2c.5-2 .2-4 0-6 2-2.2 1.1-6.7 1.3-9.8-.6-1 .6-2 .5-3l-6.7-.3 1.3 6c-1.4.8-.5 1.7-1 2.7.3 6-.3 10 0 16-1.2.7.2 2.3-1 3.3 1 .7 0 1.6-.3 2.7 1.5.8-.4 2.4.6 3.4-.4.8 0 .9.6 1.3-.4.4-.8.8-.7 1.5-1.2 4 1.3 2.4.6 4.2 1 1.4-1.6 2.2 0 4-1.1 1 0 1.5-.4 2.6-.7 1 1 2.4.4 3.4 0 1.3-2.3 2-1.1 3.4-1.3.6-.3.9.2 1.6-.4 1.8-.8 3.9-1.4 6 .3-.5 7.8 1.3 6.6-.4ZM427.6 239.8c7.1-4.2 16-5.8 23.1-11 2.1.5 4-.4 5.4-1.8 1.3.3 2.4-.8 3.2-1.5.7.1 1 .2 1.3-.5 1-.3 2.2 0 2.7-1 1-1.5 3.1-2.5 4.7-3 2-.4 3.8-1.6 5.5-2.7 3.3.7 6.6-2.2 9.7-3.5.5-.9 1.6-.5 2.4-.8 2 .4-2.4-5.9-2.2-6.3a66 66 0 0 0-4.8 4c-1.6-.7-2.4.3-3.7.8-4.7 2.7-8.3 3.7-13 6.6-3 .5-4.7 1.9-7.4 2-.2 1.8-2.4.8-3 2.2-.8 0-.8.4-1 1-.7-.4-1.4 0-2.3.3-3.5.6-1 2.1-3 2.2-.9 1.6-2.8-.4-3.7 1.8-2.2-.4-3.9 2-5.8 2.7-1.2.6-2.7-1.2-3.6.4-1-.8-1 .2-1.4 1l-6.3 1.3c.6 0 2 7.7 3.2 5.8Z"/><path fill="#fff" d="M366.8 262.9c7.4-3.8 16.3-4.9 23.7-9.6 2.1.6 4-.3 5.5-1.6 1.3.4 2.4-.6 3.3-1.3.6.2 1 .2 1.4-.5 1-.2 2.2.2 2.6-.9a9.4 9.4 0 0 1 4.9-2.5c2.1-.3 4-1.5 5.7-2.5 3.1.9 6.8-1.8 9.9-2.9.5-.9 1.6-.4 2.4-.7 2 .5-2-6-1.8-6.4a82.4 82.4 0 0 0-5.1 3.8c-1.5-.9-2.4 0-3.8.4-4.8 2.5-8.5 3.3-13.3 6-3 .3-4.6 1.6-7.5 1.6-.5 1.4-2.6 1.3-3.8 2 0 1.6-2.1.2-3.2 1.5-2.2-.9-1 2-2.6 1.6-1 1.5-2.7-.5-3.8 1.6-2.2-.6-4 1.8-6 2.3-1.1.6-2.6-1.3-3.6.3-1-1-.9 0-1.4.8l-6.4 1c.6 0 1.6 7.7 2.9 6Z"/><path fill="#fff" d="M304.8 282.4c7.6-3.4 16.5-3.9 24.2-8.2 2 .7 4 0 5.6-1.3 1.2.5 2.4-.4 3.3-1.1.7.2 1 .3 1.4-.4 1-.1 2.2.3 2.8-.7 1.1-1.3 3.3-2 5-2.3a16 16 0 0 0 5.8-2.1c3 1 6.8-1.4 10-2.4.6-.8 1.6-.3 2.4-.5 2 .6-1.7-6.2-1.4-6.5-1.9 1.1-3.3 2-5.3 3.4-1.4-.9-2.3 0-3.8.3-4.9 2.2-8.6 2.8-13.6 5.1-3 .2-4.7 1.4-7.6 1.3-.6 1.3-2.7 1.1-3.9 1.7-.2 1.6-2.1.1-3.3 1.4-2.1-1-1 2-2.6 1.4-1.1 1.4-2.8-.7-4 1.3-2-.6-4 1.6-6 2-1.2.5-2.6-1.4-3.6 0-1-1-1 .1-1.5.8-2 .2-4.2.5-6.5.6.6.1 1.2 7.9 2.6 6.2Z"/><path fill="#fff" d="M298 210.9c1.2 7.6-2 16.8.2 24.5-.4 2.3-1.8 4.2-1 6.5.2 1.4-.7 3 .1 4.3-.4 1.4-1.1 3.8.2 5 0 1.5-.3 2.8.3 4.2-1.5 2 0 4.1-.7 6.2.8 1.1-1 1.6-1 3 .8 2.3-.4 4.3-.2 6.7-.2 7.2-.3 4.1 6.4 5l-1.4-6.4c1.5-.9.5-1.8 1.2-2.9-.4-6.2.2-10.7 0-17 1-.8-.3-2.4 1-3.5-1.2-.7 0-1.7.2-2.8-1.4-1 .5-2.5-.6-3.6.4-.8 0-1-.5-1.4.4-.4.8-.9.6-1.6 1.3-4.1-1.2-2.6-.5-4.4-1-1.5 1.5-2.4 0-4.2 1.3-2-.2-4.3 0-6.5 0-1.4 2.2-2 1.1-3.6 1.3-.6.3-1-.2-1.6.4-2 .8-4.2 1.4-6.5-.3.5-7.9-1.3-6.6.5Z"/><path fill="#fff" d="M300.3 145c1.2 7.5-2 16.7.2 24.4-.4 2.4-1.8 4.3-1 6.5.3 1.4-.7 3 .2 4.3-.5 1.4-1.2 3.8.1 5 0 1.5-.3 2.9.3 4.2-1.5 2 0 4.2-.7 6.3.8 1-1 1.6-1 2.9.8 2.3-.4 4.4-.2 6.8-.2 7.2-.2 4 6.4 4.9-.4-2.2-.7-4-1.4-6.3 1.5-1 .6-1.9 1.2-3-.4-6.2.2-10.6 0-17 1-.7-.3-2.3 1-3.4-1.2-.8 0-1.7.2-2.9-1.4-.9.5-2.5-.6-3.6.5-.8 0-1-.5-1.4.4-.4.8-.8.6-1.5 1.3-4.2-1.2-2.6-.5-4.5-1-1.5 1.5-2.4 0-4.2 1.3-2-.2-4.3 0-6.5 0-1.3 2.3-2 1.1-3.5 1.3-.6.3-1-.2-1.7.4-2 .8-4.2 1.4-6.5-.3.6-7.9-1.2-6.6.6Z"/><path fill="#fff" d="M302.6 79c1.2 7.6-2 16.7.2 24.5-.4 2.3-1.8 4.2-1 6.5.3 1.3-.7 2.9.2 4.3-.5 1.4-1.2 3.7.1 5 0 1.5-.3 2.8.3 4.2-1.5 2 0 4.1-.7 6.2.8 1-1 1.6-1 3 .8 2.2-.4 4.3-.1 6.7-.2 7.2-.3 4 6.3 5-.4-2.3-.7-4-1.3-6.4 1.4-.9.5-1.8 1-3-.3-6.1.3-10.6 0-17 1.2-.7-.2-2.3 1-3.4-1-.8.1-1.7.3-2.8-1.4-1 .5-2.5-.6-3.7.5-.7 0-.9-.5-1.3.4-.5.8-1 .6-1.6 1.3-4.1-1.2-2.6-.5-4.4-1-1.5 1.5-2.5 0-4.2 1.3-2-.2-4.4 0-6.5 0-1.4 2.3-2 1.1-3.6 1.3-.6.3-1-.2-1.7l1.4-6.4c-.3.5-7.8-1.3-6.6.5Z"/><path fill="#fff" d="M367.6 55.8c-7.4 3.2-16 3.4-23.7 7.4-2-.8-4-.2-5.4 1-1.2-.5-2.4.3-3.3 1-.6-.3-1-.4-1.4.2-1 .1-2.1-.3-2.7.6a8.8 8.8 0 0 1-5 2c-2 .1-4 1-5.7 1.8-2.8-1.3-6.8 1-9.9 1.7-.5.8-1.6.1-2.4.4-1.9-.8 1.4 6.2 1 6.5l5.4-3c1.3 1 2.3.1 3.7 0 5-2 8.6-2.3 13.5-4.4 1.8.1 3-.8 4.8-.3.4-1.3 1.5-.4 2.7-.5.4-1.7 2.4-.3 3.1-1.6.9.2.8-.3 1-1 .8.6 1.6.3 2.4.2 3.5 0 1.3-2 3.2-1.7 1.1-1.4 2.7.8 3.8-1.2 1.4.8 1.6-.5 2.7-.4 1.3.3 2-1.7 3.3-1.4 1.2-.5 2.5 1.6 3.6 0 .9 1 .9 0 1.4-.6l6.3-.6c-.6 0-1-7.8-2.4-6Z"/><path fill="#fff" d="M428 38.2c-4 2.3-8.2 2.3-12.5 4.3-3.2 1-7.1 1.2-9.5 3.6-2.2.3-4.4-.4-6.2 1-.6.8-1.3 0-2 .3-.5 1-1.4.1-1.8 1.1-1-.6-1.2.5-2.1.3-1.2.1-1.9.1-2.5 1.4-1.3.4-2.6.5-3.6 1.5-2.3-.9-3.8 1.2-6 1.1-.7 1.1-1.7-.4-2.9 0-1.9 1.3-4.1.8-6.2 1.7-6.7 2-3.9.5-2.7 7.5a65 65 0 0 0 5.4-3.1c1.3 1 2.3.2 3.7 0 5-2 8.6-2.3 13.5-4.4 1.8 0 3-.9 4.8-.4.3-1.3 1.5-.5 2.7-.6.3-1.7 2.4-.4 3-1.7 1 .2.9-.3 1.1-.9.8.5 1.5.2 2.3 0 3.6 0 1.3-1.9 3.2-1.7 1-1.5 2.7.7 3.8-1.4 1.4.8 1.6-.4 2.7-.4 1.3.3 2-1.8 3.2-1.5 1.2-.6 2.6 1.4 3.6-.1 1 1 1-.1 1.4-.8l6.3-.8c-.6 0-1.5-7.7-2.7-6Z"/><path fill="#fff" d="M486.5 15.7c-3.7 2.8-7.9 3.3-12 5.6-3 1.4-6.9 2-9 4.5-2.2.6-4.4 0-6 1.5-.6 1-1.3.1-2 .6-.4 1-1.4.2-1.7 1.2-1-.5-1.1.6-2.1.4-1.2.3-1.8.3-2.3 1.6-1.3.6-2.6.8-3.6 1.8-2.3-.8-3.7 1.5-5.8 1.5-.7 1.1-1.8-.4-3 .1-1.7 1.5-4 1-6 2.1-6.5 2.4-3.9.6-2.3 7.6 1.9-1.1 3.3-2 5.2-3.4 1.4 1 1.9-.1 3 .1 5.4-2.4 9.2-3.4 14.6-5.7 1.4 0 2.4-1 4-.7.4-1.3 1.6-.6 2.7-.8.5-1.3 2.6-1.3 3.7-2 0-1.6 2.1-.2 3.1-1.5 2.3.9 1-2 2.5-1.7 1-1.5 2.7.5 3.7-1.6 1.4.6 1.5-.7 2.6-.8 1.3.2 1.8-2 3-1.8 1.2-.7 2.8 1.2 3.6-.5 1 .9 1-.2 1.3-.9l6.2-1.6c-.6 0-2.4-7.5-3.4-5.6ZM490.1 208c0 .7-.6 1-.9 1.6v.6c-.3.3-.8.5-1.1.5-.6 0-.2 1.7-1 2.3-1 2.8-3-5.1-3.7-5.3l6.7.3ZM304 282.7c-1.3.3-2.6 0-4 .2-.9.4-1.5.5-2.3-.1-3.7-8-3-6.8 4.5-6.5l1.8 6.4ZM302.5 78.2c0-.8.7-1.3.9-2 .2-.3-.2-.8.3-1 .3-.2.7-.4 1.1-.4.5-.5.5-1.5 1.2-2 2.2-3.2 2.5 5 3.2 5.6l-6.7-.2Z"/><path fill="#fff" d="M487.1 15.3c1.4-.7 3-.8 4.5-1.2.7-.1 1.2-.8 1.9-.7.4.2 1.3 0 1.4.6 2.5 7 3.4 8.3-5 7.4l-2.8-6.1Z"/><path fill="#fff" d="M299.5 92C525 16.6 482.7-18.8 484.8 214.7 271.4 319.2 296.5 318.5 299.5 92Z"/><path fill="#fff" d="M488 87.6c-1.1-7.9 1-16.2-1-24.5 1.4-1.6 1.3-3.7.5-5.4.8-1 .3-2.4 0-3.4.4-.5.5-.8 0-1.4.2-1 1-1.9.1-2.7a8.5 8.5 0 0 1-.6-5.2c.5-2 .1-4-.2-6 2-2.2.9-6.6 1-9.7-.7-1 .5-2 .3-3.1h-6.6c.4 2 .8 3.6 1.5 5.9-1.4.9-.4 1.7-1 2.8.5 5.8.1 10 .6 16-1.1.7.3 2.2-.9 3.3 1.2.6 0 1.5-.1 2.6 1.4.8-.4 2.4.7 3.4-.4.8 0 .9.6 1.3-.4.4-.8.8-.6 1.5-1.1 4 1.3 2.4.7 4.2 1 1.4-1.5 2.3.1 4-1 1 0 1.5-.3 2.6-.6 1 1 2.4.5 3.4.1 1.3-2.2 2-1 3.4-1.2.6-.2 1 .3 1.6l-1.2 6.1c.3-.5 7.9 1 6.6-.7Z"/><path fill="#fff" d="M488 149.7c-1.1-7.8 1-16.1-1-24.4 1.4-1.6 1.3-3.7.5-5.4.8-1 .3-2.4 0-3.4.4-.5.5-.8 0-1.4.2-1 1-2 .1-2.7a8.5 8.5 0 0 1-.6-5.2c.5-2 .1-4-.2-6 2-2.2.9-6.7 1-9.8-.7-1 .5-2 .3-3h-6.6c.4 2 .8 3.5 1.5 5.8-1.4 1-.4 1.8-1 2.8.5 5.9.1 10 .6 16-1.1.7.3 2.2-.9 3.3 1.2.7 0 1.6-.1 2.7 1.4.8-.4 2.4.7 3.4-.4.8 0 .8.6 1.3-.4.4-.8.8-.6 1.5-1.1 4 1.3 2.3.7 4.1 1 1.4-1.5 2.3.1 4-1 1 0 1.6-.3 2.6-.6 1.1 1 2.4.5 3.5.1 1.3-2.2 2-1 3.4-1.2.6-.2.8.3 1.5l-1.2 6.1c.3-.5 7.9 1 6.6-.7Z"/><path fill="#fff" d="M488 211.9c-1.1-7.8 1-16.2-1-24.5 1.4-1.6 1.3-3.7.5-5.4.8-1 .3-2.4 0-3.4.4-.5.5-.8 0-1.3.2-1 1-2 .1-2.8a8.5 8.5 0 0 1-.6-5.2c.5-2 .1-4-.2-6 2-2.2.9-6.6 1-9.7-.7-1 .5-2 .3-3.1h-6.6c.4 2 .8 3.6 1.5 5.9-1.4.9-.4 1.7-1 2.8.5 5.9.1 10 .6 16-1.1.7.3 2.2-.9 3.3 1.2.7 0 1.6-.1 2.7 1.4.7-.4 2.3.7 3.4-.4.7 0 .8.6 1.2-.4.4-.8.8-.6 1.5-1.1 4 1.3 2.4.7 4.2 1 1.4-1.5 2.3.1 3.9-1 1 0 1.6-.3 2.7-.6 1 1 2.3.5 3.4.1 1.3-2.2 2-1 3.4-1.2.6-.2.9.3 1.6l-1.2 6.1c.3-.5 7.9 1 6.6-.7ZM426.8 246.6c7-4.4 15.7-6.3 22.7-11.7 2.1.4 4-.6 5.3-2 1.3.2 2.4-.9 3.2-1.7.6.1 1 .2 1.3-.5 1-.4 2.2-.1 2.6-1.2 1-1.4 3-2.5 4.6-3 2-.5 3.8-1.8 5.4-3 3.3.6 6.5-2.3 9.6-3.8.4-.9 1.6-.5 2.3-.9 2.1.4-2.6-5.8-2.4-6.2-1.6 1.4-3 2.5-4.7 4.2-1.5-.7-2.3.3-3.7.8-4.5 3-8.1 4-12.7 7.1-3 .6-4.6 2.1-7.3 2.4-.1 1.7-2.4.7-2.9 2.2-.9 0-.8.4-.9 1-.8-.3-1.5.2-2.3.4-3.5.7-1 2.2-3 2.3-.8 1.6-2.8-.2-3.6 2-2.3-.4-3.8 2.1-5.7 2.8-1.2.7-2.8-1-3.6.6-1.1-.8-1 .2-1.4 1l-6.3 1.6c.6 0 2.4 7.5 3.4 5.6Z"/><path fill="#fff" d="M366.8 271.8c7.3-4 16.1-5.4 23.4-10.4 2.1.5 4-.4 5.4-1.8 1.3.3 2.4-.6 3.3-1.4.6.2 1 .2 1.3-.5 1-.2 2.2 0 2.7-1 1-1.3 3.2-2.3 4.7-2.7 2.1-.4 4-1.6 5.6-2.7 3.2.8 6.8-2 9.8-3.2.5-1 1.6-.5 2.4-.8 2 .4-2.3-6-2-6.4a80.8 80.8 0 0 0-5 4c-1.5-.8-2.3.2-3.7.6-4.7 2.7-8.4 3.5-13.1 6.3-3 .5-4.5 1.8-7.5 2-.4 1.4-2.5 1.4-3.7 2.1 0 1.6-2.1.3-3.1 1.6-2.3-.8-1 2.1-2.5 1.7-1 1.5-2.8-.4-3.8 1.7-2.2-.5-4 2-5.8 2.6-1.2.6-2.8-1.3-3.7.3-1-.9-1 .2-1.4 1-1.9.3-4 .8-6.4 1.1.7 0 2 7.7 3.1 5.9Z"/><path fill="#fff" d="M305.5 293.5c7.5-3.6 16.4-4.4 24-9 2 .6 4-.2 5.5-1.5 1.2.4 2.4-.5 3.3-1.2.6.2 1 .2 1.4-.4 1-.2 2.2.1 2.7-.9a9.3 9.3 0 0 1 4.9-2.4c2-.3 4-1.4 5.7-2.4 3.1 1 6.8-1.6 10-2.6.5-1 1.6-.4 2.4-.7 2 .6-2-6-1.7-6.4a84.4 84.4 0 0 0-5.1 3.6c-1.5-.9-2.4 0-3.8.4-4.8 2.4-8.6 3-13.4 5.6-3 .3-4.6 1.5-7.6 1.5-.5 1.3-2.6 1.2-3.8 1.9-.1 1.6-2.2.2-3.2 1.4-2.3-1-1 2-2.6 1.6-1 1.4-2.8-.6-3.9 1.4-2.2-.6-4 1.8-6 2.2-1.2.6-2.6-1.4-3.6.2-1-1-1 0-1.5.8l-6.4.9c.6 0 1.4 7.7 2.7 6Z"/><path fill="#fff" d="M296.2 224c1 4.5-.2 8.6.4 13.5 0 3.3-1 7.3.7 10.3-.3 2.3-1.7 4.2-.9 6.3.4 1.2-.5 3 .4 4.2-.8.8.2 1.3-.3 2.1-.2 1.3-.4 1.9.6 2.8.1 1.4-.1 2.8.5 4-1.5 2 .2 4.1-.5 6.2.8 1-1 1.6-.8 2.9.8 2.2-.4 4.2 0 6.6 0 7-.1 4 6.5 4.6l-1.6-6.1c1.5-1 .5-1.8 1-3-.5-6 0-10.3-.6-16.5 1.2-.8-.3-2.3 1-3.4-1.2-.7-.1-1.7 0-2.8-1.4-.8.5-2.5-.6-3.5.4-.8-.1-.9-.6-1.3.4-.4.7-.9.6-1.6 1-4.2-1.4-2.4-.7-4.3-1-1.4 1.4-2.4-.2-4 1.3-1.9-.3-4.4-.2-6.4 0-1.3 2.2-2 1-3.5 1.3-.6.2-1-.3-1.6l1.2-6.3c-.3.5-7.9-1-6.6.7Z"/><path fill="#fff" d="M296.2 159.6c1 4.6-.2 8.7.4 13.5 0 3.4-1 7.3.7 10.4-.3 2.3-1.7 4.2-.9 6.3.4 1.1-.5 3 .4 4.2-.8.7.2 1.3-.3 2.1-.2 1.2-.4 1.9.6 2.8.1 1.4-.1 2.7.5 4-1.5 2 .2 4.1-.5 6.2.8 1-1 1.6-.8 2.8.8 2.3-.4 4.3 0 6.7 0 7-.1 3.9 6.5 4.5l-1.6-6c1.5-1 .5-1.9 1-3-.5-6 0-10.3-.6-16.5 1.2-.8-.3-2.3 1-3.4-1.2-.8-.1-1.7 0-2.8-1.4-.8.5-2.5-.6-3.5.4-.8-.1-1-.6-1.3.4-.5.7-1 .6-1.6 1-4.2-1.4-2.4-.7-4.3-1-1.4 1.4-2.4-.2-4 1.3-1.9-.3-4.5-.2-6.4 0-1.3 2.2-2 1-3.5 1.3-.6.2-1-.3-1.6l1.2-6.4c-.3.6-7.9-1-6.6.8Z"/><path fill="#fff" d="M296.2 95.2c1 4.7-.2 8.8.4 13.6 0 3.4-1 7.3.7 10.4-.3 2.2-1.7 4.1-.9 6.3.4 1.1-.5 3 .4 4.2-.8.7.2 1.2-.3 2-.2 1.3-.4 2 .6 2.9.1 1.4-.1 2.7.5 4-1.5 2 .2 4-.5 6.1.8 1-1 1.6-.8 2.9.8 2.2-.4 4.3 0 6.6 0 7.1-.1 4 6.5 4.6-.5-2.1-.9-3.8-1.6-6 1.5-1 .5-2 1-3-.5-6 0-10.4-.6-16.6 1.2-.7-.3-2.3 1-3.4-1.2-.7-.1-1.6 0-2.8-1.4-.8.5-2.4-.6-3.5.4-.7-.1-.8-.6-1.3.4-.4.7-.8.6-1.5 1-4.2-1.4-2.5-.7-4.3-1-1.5 1.4-2.4-.2-4.1 1.3-1.8-.3-4.4-.2-6.3 0-1.4 2.2-2.1 1-3.5 1.3-.7.2-1-.3-1.7l1.2-6.3c-.3.5-7.9-1-6.6.8ZM360.5 68.7c-4 2.4-8.2 2.6-12.6 4.6-3.1 1-7 1.4-9.4 4-2.3.3-4.5-.4-6.3 1-.5 1-1.2.1-2 .5-.4 1-1.3.2-1.8 1.2-1-.6-1 .6-2 .3-1.3.2-2 .3-2.5 1.5-1.3.5-2.6.7-3.6 1.7-2.4-.8-3.8 1.4-6 1.3-.7 1.2-1.7-.3-2.9.1-1.9 1.4-4.1 1-6.2 2-6.6 2.3-4 .6-2.4 7.6 1.9-1 3.3-2 5.3-3.3 1.4 1 2.3 0 3.7-.2 4.9-2 8.6-2.6 13.5-5 1.8 0 2.9-.9 4.8-.5.3-1.3 1.5-.5 2.6-.7.3-1.6 2.5-.4 3.1-1.8.9.2.8-.3 1-1 .8.6 1.5.2 2.4 0 3.5-.2 1.2-2 3.1-1.8 1-1.5 2.8.6 3.8-1.5 1.4.7 1.6-.5 2.7-.5 1.3.2 2-1.8 3.2-1.6 1.2-.6 2.6 1.4 3.6-.2 1 1 1 0 1.4-.8l6.4-.9c-.6 0-1.6-7.7-2.9-6Z"/><path fill="#fff" d="M420 46.7c-3.8 2.6-8 3-12.3 5.2-3 1.2-7 1.8-9.2 4.3-2.3.5-4.5 0-6.2 1.4-.5 1-1.3.1-2 .6-.4 1-1.3.2-1.7 1.2-1-.5-1.1.6-2.1.4-1.2.2-1.9.3-2.4 1.6-1.3.5-2.6.7-3.6 1.7-2.3-.7-3.7 1.6-5.8 1.6-.7 1.1-1.8-.3-3 .2-1.8 1.4-4 1-6.2 2.1-6.5 2.5-3.8.8-2.1 7.7 1.8-1.2 3.2-2 5.2-3.5 1.4 1 2.3 0 3.7-.3 4.8-2.2 8.5-2.9 13.3-5.3 1.8-.1 2.9-1.1 4.8-.8.3-1.3 1.5-.6 2.6-.8.3-1.6 2.5-.5 3-1.9 1 .2.9-.3 1-1 .8.5 1.6.1 2.4 0 3.5-.5 1-2.1 3-2.1 1-1.5 2.8.5 3.8-1.6 1.4.6 1.5-.6 2.6-.7 1.3.2 2-1.8 3.2-1.7 1.2-.6 2.7 1.3 3.6-.4 1 1 .9-.1 1.4-.8l6.2-1.3c-.6 0-2-7.6-3.1-5.8Z"/><path fill="#fff" d="M477.8 20.6c-3.6 3-7.8 3.7-11.9 6.3-2.9 1.4-6.8 2.2-8.8 5-2.2.6-4.5.3-6 1.8-.5 1-1.3.2-2 .7-.3 1-1.4.3-1.7 1.4-1-.5-1 .6-2 .5-1.2.3-1.8.4-2.3 1.7-1.2.7-2.5 1-3.5 2-2.3-.5-3.6 1.8-5.7 2-.6 1.1-1.8-.3-3 .3-1.7 1.6-4 1.3-6 2.5-6.4 2.8-3.8 1-1.7 7.7 1.8-1.2 3.1-2.2 5-3.7 1.4 1 1.8-.3 3-.1 5.2-2.8 9-4 14.3-6.7 1.4-.2 2.4-1.2 4-1 .3-1.3 1.6-.6 2.7-.9.1-1.7 2.4-.7 2.9-2 .8 0 .7-.5.9-1.2.8.4 1.5 0 2.3-.3 3.5-.6 1-2 3-2.2.8-1.6 2.7.3 3.5-1.9 1.5.5 1.5-.7 2.6-.9 1.3.1 1.8-2 3-2 1.1-.7 2.8 1 3.6-.6 1 .8.9-.2 1.3-1l6.1-1.8c-.6 0-2.7-7.4-3.7-5.5ZM488.1 212.6c0 .7-.6 1.1-.8 1.7v.6c-.3.3-.7.5-1 .5-.7 0-.2 1.7-.9 2.3-1 2.9-3.3-5-4-5h6.8ZM304.8 293.8c-1.2.4-2.4.2-3.6.4-.7-.1-1.3.6-2 .3-1.8-.7-.4-1-1.8-2.2-3.4-6.3 1.3-4.7 5.4-4.8l2 6.3ZM296.1 94.5c0-.8.6-1.3.8-2 .2-.4-.2-.9.4-1 .3-.3.7-.4 1-.5.4-.7.6-1.6 1.3-2.1 1.9-3 2.5 5 3.2 5.6H296Z"/><path fill="#fff" d="M478.4 20.2c1.4-.7 3-.9 4.5-1.4.6-.1 1.1-.8 1.8-.8.4.2 1.3 0 1.4.6 2.8 7 3.7 8.2-4.6 7.6-1-1.7-2.2-4.3-3.1-6Z"/><path fill="#F4D3EB" d="M290.7 105.4A1132 1132 0 0 0 520.9 10l.3 195.9a1132.3 1132.3 0 0 1-227.7 94.6l-2.8-195.2Z"/><path fill="#F2A0AA" d="M524.3 77.8c-1-4.5.2-8.6-.4-13.3 0-3.2.9-7.1-.7-10 .3-2.3 1.6-4.1.8-6.3-.7-.7.4-1.1.2-2-.9-.7.2-1.3-.6-2 .9-.8-.2-1.3.3-2 .3-1.3.4-2-.6-2.8-.1-1.4.1-2.7-.5-4 1.5-1.9-.2-4 .5-6-.8-1 1-1.5.8-2.7-.8-2.2.4-4.2 0-6.5 0-7 .1-3.8-6.5-4.5.5 2.1.8 3.7 1.5 6-1.4.9-.4 1.8-1 2.8.6 6 .2 10.1.7 16.2-1.1.7.3 2.2-1 3.3 1.2.7.1 1.6 0 2.7 1.4.8-.4 2.4.7 3.5-.5.7 0 .8.5 1.2-.4.4-.7.9-.5 1.6-1.1 4 1.3 2.4.7 4.1 1 1.4-1.5 2.4.1 4-1 1.1 0 1.6-.3 2.7-.6 1.1 1 2.4.5 3.5.1 1.3-2.1 2-1 3.4-1.2.6-.2 1 .4 1.6l-1.2 6.2c.2-.6 7.8 1 6.6-.8Z"/><path fill="#F2A0AA" d="M524.4 140.5c-1-4.5.2-8.5-.4-13.2 0-3.3.9-7.1-.7-10.1.3-2.2 1.6-4 .8-6.2-.7-.8.3-1.2.2-2-.9-.7.2-1.3-.6-2 .9-.8-.2-1.3.3-2.1.2-1.2.4-1.9-.6-2.8-.1-1.3.1-2.6-.5-3.9 1.4-2-.2-4 .5-6-.9-1 1-1.5.8-2.8-.8-2.2.3-4.2 0-6.5 0-7 .1-3.8-6.5-4.4.4 2 .8 3.7 1.5 6-1.4.8-.4 1.7-1 2.8.6 6 .2 10 .7 16.2-1.2.7.3 2.2-1 3.3 1.2.7.1 1.6 0 2.7 1.4.8-.4 2.4.6 3.4-.4.8.1.9.6 1.3-.4.4-.7.8-.6 1.5-1 4 1.4 2.4.7 4.2 1.1 1.4-1.4 2.3.2 4-1 1 0 1.6-.3 2.6-.6 1.2 1 2.5.5 3.6.1 1.3-2.2 2-1 3.4-1.2.6-.2.9.3 1.6l-1.1 6.1c.2-.5 7.8 1 6.6-.7Z"/><path fill="#F2A0AA" d="M524.5 203.3c-1-4.5.2-8.5-.4-13.3 0-3.2.9-7-.7-10 .3-2.3 1.6-4.1.8-6.2-.7-.8.3-1.2.2-2-.9-.8.2-1.4-.6-2.1.9-.8-.2-1.2.3-2 .2-1.3.4-1.9-.6-2.8-.1-1.4.1-2.7-.5-4 1.5-1.9-.2-3.9.5-6-.9-1 1-1.5.8-2.7-.8-2.2.3-4.2 0-6.5 0-7 .1-3.8-6.5-4.4.5 2 .8 3.6 1.5 5.9-1.4 1-.4 1.8-1 2.8.6 6 .2 10.1.7 16.2-1.1.7.3 2.2-1 3.3 1.2.7.1 1.6 0 2.7 1.4.8-.4 2.5.6 3.5-.4.7.1.8.6 1.2-.4.5-.7.9-.6 1.6-1 4 1.4 2.4.8 4.2 1 1.4-1.5 2.3.1 4-1 1 0 1.6-.3 2.6-.6 1.1 1 2.4.5 3.5.1 1.3-2.2 2-1 3.4-1.2.6-.2 1 .3 1.6L518 204c.2-.6 7.8 1 6.6-.8ZM450 245.5c8.8-5.4 19.4-8.1 28.1-14.5 4-.1 7.4-2.8 10.4-4.8 4-.5 6.5-4.7 10.5-5.8 6.1-3.5 13-4.8 19-9.6 5.5.3.6-4.6-.1-6.8-2 1.5-3.4 2.7-5.3 4.4-2 .8-3.8 1-6 2.2-5.2 3.6-10 5.5-15.6 8.8-3 .8-5 2.5-8 3-.4 1.9-3 1-3.7 2.6-.9 0-1 .5-1.2 1.3-1-.4-1.8.2-2.8.6-3.7.8-1.6 2.3-3.7 2.7-1 1.7-3.4 0-4.5 2.4-2.8-.1-4.6 2.5-7 3.5-1.4.8-3.3-.8-4.4 1-1.1-.8-1.2.3-1.7 1.1l-7.6 2.3c.7 0 2.3 7.7 3.6 5.6Z"/><path fill="#F2A0AA" d="M375.8 276.5c9.1-4.7 20-6.7 29-12.4 4.1.1 7.6-2.3 10.7-4 4.1-.2 6.9-4.4 11-5.2 6.3-3 13.3-3.9 19.6-8.2 5.4.7.9-4.5.3-6.8l-5.6 4c-.8 1-1.8 0-2.8.3-.5 1.2-1.5.6-2.4 1.3-5.7 3-10.6 4.5-16.3 7.7-3.4.7-5.6 2.3-9 2.7-.5 1.8-3 .8-3.8 2.3-1 0-1 .4-1.3 1.2-.7-.2-1.4-.3-2 .2-1.2.5-2.2.7-3.4 1-.3.7 0 2-1.3 1.6-1.3 1.7-3.4-.2-4.7 2-2.8-.2-4.7 2.3-7.3 3.2-1.4.7-3.2-1.1-4.4.6-1-.9-1.2.2-1.7 1l-7.8 1.8c.7 0 1.7 7.8 3.2 5.8Z"/><path fill="#F2A0AA" d="M299.5 302.2c6.2-2.8 12.8-3.7 19.4-6.2 4.5-.3 8-4.5 12.5-4 4.9-1 8.3-3.8 13.2-4.1 2.4-3.5 7-2.7 10-4.8 2.7-1.3 5.2-1 8-1.8 3.6-1.4 7.5-3 11.4-4 2 .8-1.5-8.4-2.3-6a71 71 0 0 0-5.7 3.5c-2.2-.9-4 .8-6.3 1.2-5.8 3-13.6 5.4-20 7.3-5.1.7-9.3 4-15 4.7-.3 2.6-3 2-4.8 2.1-1 1-2 1.3-3.4 1-.4 1-1.4 1-2.4 1-2 2.2-4.3 1.7-6.9 1.4-.5.7-1 .6-1.7.2-.4 1.5-1.6.9-2.6 1.6-2 .7-4 .2-6.2.8.7.2 1.2 8 2.8 6ZM289.3 234.3c1 4.4-.1 8.5.5 13.2 0 3.2-.8 7.1.9 10-.3 2.3-1.6 4.1-.8 6.3.7.7-.3 1.1-.1 2 .8.7-.3 1.3.6 2-.9.8.2 1.2-.3 2-.2 1.3-.4 2 .7 2.8 0 1.4-.2 2.7.5 4-1.5 1.9.2 3.9-.5 6 1 1-.9 1.5-.7 2.7.8 2.2-.3 4.2 0 6.5.3 7 0 3.8 6.6 4.4a67 67 0 0 0-1.6-6c1.4-.9.4-1.7 1-2.8-.7-6-.3-10-.9-16.2 1.1-.7-.3-2.2.9-3.3-1.2-.7 0-1.6 0-2.7-1.4-.8.4-2.4-.7-3.4.4-.8 0-.9-.6-1.3.4-.4.8-.9.6-1.5 1-4-1.4-2.4-.8-4.2-1-1.4 1.5-2.4-.2-4 1.1-1.1 0-1.6.3-2.7.6-1.1-1.1-2.4-.6-3.5-.1-1.3 2.2-2 1-3.4 1.2-.6.2-1-.3-1.6l1-6.2c-.2.6-7.8-.8-6.5.8Z"/><path fill="#F2A0AA" d="M288.4 171.5c1 4.5-.1 8.5.5 13.2 0 3.3-.8 7.2.9 10-.3 2.3-1.6 4.2-.8 6.3.7.8-.3 1.2-.1 2 .9.7-.3 1.3.6 2-.9.8.2 1.3-.3 2.1-.2 1.2-.4 1.8.7 2.7 0 1.4-.2 2.7.5 4-1.4 2 .2 4-.4 6 .8 1-1 1.5-.8 2.8.8 2.1-.3 4.1 0 6.4.3 7 0 3.8 6.6 4.4a67 67 0 0 0-1.6-6c1.4-.8.4-1.7 1-2.8-.6-5.9-.3-10-.9-16.1 1.1-.8-.3-2.3.9-3.4-1.2-.6 0-1.6.1-2.7-1.5-.8.3-2.4-.8-3.4.4-.8 0-.9-.6-1.3.4-.4.8-.8.6-1.5 1-4-1.4-2.4-.8-4.2-1-1.4 1.5-2.3-.2-4 1.1-1 0-1.6.3-2.7.6-1-1-2.4-.5-3.5-.2-1.3 2.1-2 .9-3.4 1.2-.6.2-.9-.3-1.6l1-6.2c-.2.6-7.8-.8-6.5.9Z"/><path fill="#F2A0AA" d="M287.5 108.7c1 4.5-.1 8.5.5 13.2 0 3.3-.8 7.2.9 10.1-.3 2.2-1.6 4.1-.8 6.2.7.8-.3 1.2-.1 2 .9.7-.3 1.4.6 2-.9.8.2 1.3-.3 2.1-.2 1.3-.4 1.9.7 2.8 0 1.3-.2 2.6.5 3.9-1.4 2 .2 4-.4 6 .8 1-1 1.5-.8 2.8.8 2.1-.3 4.2 0 6.4.3 7 0 3.9 6.6 4.4a67 67 0 0 0-1.6-5.9c1.4-1 .4-1.8 1-2.8-.7-6-.3-10.1-.9-16.2 1.1-.8-.3-2.2.9-3.3-1.2-.7 0-1.6.1-2.8-1.5-.7.3-2.4-.8-3.4.4-.8 0-.8-.6-1.2.4-.5.8-.9.6-1.6 1-4-1.4-2.4-.8-4.2-1-1.4 1.5-2.3-.2-4 1.1-1 0-1.6.3-2.6.6-1.2-1-2.4-.5-3.5-.2-1.3 2.1-2 .9-3.5 1.2-.6.2-.9-.3-1.5l1-6.2c-.2.5-7.8-.9-6.5.8ZM367.5 76.7c-8.4 4.7-19.3 5.4-27.7 11-4.7.5-9 1.5-12.6 3.7-3.8.2-7 2.6-10.4 4.1-2.9-.6-4.8 1.7-7.5 1.8-3.7.8-8.3 1.4-12.4 3-7 1.8-4.1 1.1-2.8 7.6l6.1-3.2c.9-1 1.8.1 2.8 0 .7-1 1.6-.3 2.6-.9 6-2.3 11.1-3.3 17.2-6 3.5-.3 5.8-1.7 9.3-1.8.6-1.8 3-.6 4-2.1.9 0 1-.4 1.3-1 1 .4 2-.1 3-.3 3.9-.4 1.8-2.2 4-2.3 1.3-1.5 3.4.4 4.7-1.8 2.8.4 5-2 7.5-2.8 1.4-.7 3.2 1.1 4.4-.6 1.1 1 1.3-.2 1.8-1l8-1.6c-.8-.1-1.8-7.8-3.3-5.8Z"/><path fill="#F2A0AA" d="M441.7 46.1c-8 5.4-18.9 6.9-26.9 13-4.6.8-8.8 2.1-12.3 4.6-3.7.4-6.6 3-10 4.9-3-.5-4.7 2-7.3 2.3-3.7 1-8.2 2-12.1 3.9-7 2.3-4.1 1.4-2.4 7.7l6-3.6c.7-1 1.7 0 2.7-.2.6-1 1.6-.4 2.5-1 6-2.8 10.9-4.2 16.7-7.3 3.5-.6 5.7-2.1 9.2-2.5.5-1.9 3-.8 3.8-2.4 1 0 1-.4 1.3-1.2 1 .4 1.9-.1 2.9-.4 3.9-.7 1.6-2.3 3.8-2.5 1.2-1.7 3.4 0 4.6-2.2 2.9.2 4.8-2.4 7.3-3.3 1.4-.8 3.3.9 4.4-1 1.1.9 1.2-.2 1.7-1l7.7-2.2c-.7-.1-2.2-7.8-3.5-5.6Z"/><path fill="#F2A0AA" d="M513.6 10.4c-7.7 6-18.4 8.2-26 14.8a30.9 30.9 0 0 0-11.9 5.5c-3.6.6-6.4 3.5-9.7 5.6-2.9-.3-4.5 2.3-7 2.8-3.6 1.2-8.1 2.5-11.9 4.7-6.8 2.8-4 1.7-1.8 7.9l5.6-4c.8-1 1.8-.1 2.9-.4.5-1.1 1.5-.5 2.3-1.3 5.7-3.2 10.6-4.8 16.2-8.3 3.4-.9 5.5-2.6 9-3.2.3-1.9 2.9-1 3.6-2.6 1 0 1-.5 1.2-1.3 1 .3 1.8-.3 2.8-.7 3.9-1 1.5-2.3 3.7-2.7 1.1-1.8 3.4-.1 4.5-2.5 2.8 0 4.5-2.8 7-3.9 1.3-.8 3.3.7 4.3-1.1 1.2.7 1.2-.4 1.6-1.2l7.6-2.8c-.8 0-2.8-7.5-4-5.3ZM524.6 204c0 .7-.6 1-.9 1.7v.6l-1 .5c-.7 0-.2 1.7-.8 2.3-1 2.8-3.4-5-4-5h6.7ZM298.6 302.6c-1.3.3-2.5 0-3.8.2-1 .3-1.4.6-2.3-.1-4.3-7.8-3-6.3 4.2-6.5l1.9 6.4ZM287.4 108c0-.9.6-1.4.8-2.2.1-.2-.1-.5 0-.8.3-.3.7-.6 1.2-.6.3 0 .4-.4.5-.8.3-1 1.2-1.5 2-2 3 7.6 3.5 6.2-4.5 6.4Z"/><path fill="#F2A0AA" d="M514.4 9.8c1.4-.7 3-1 4.6-1.5 1-.5 2-1.1 3.1-.5 1 2.5 2.2 5 2.2 8-5.6.8-8-.7-9.9-6Z"/><path fill="#FFE4AE" d="M3.4 479.9c167-14.7 307.7-59 430.1-112.5l-.6-245.6c-117.9 50-270.4 91-429.4 105.6L3.4 480Z"/><path fill="#EF656C" d="M430 286.7c1.3 10.1-.7 20.7 1.1 31.2-1.7 3.7-.7 7.8-.3 11.3-1.4 3.8 1.3 7.9.4 11.9.3 7-1.7 13.5-.4 21-3 4.6 3.8 2.7 6 3-.3-2.3-.8-4.1-1.3-6.6.2-2 1-3.8.8-6.2-.6-7.5-.7-14.6-.2-22 .6-.9.3-1.2-.3-1.8 1.4-1.8 0-3.3.4-5.2 0-2.8-.9-4.8 0-7.8.2-1.9-1.3-1-1.4-3.6 1.2-1.8.3-3.2.6-5 .5-2.5-.8-5.2-.5-7.9 1.8-1.1.5-3.1 1.6-4.2-.5-.6-1.4-1.2-.5-2-1-2.4.8-4.6.6-7.1-.3.6-8-1.1-6.5 1Z"/><path fill="#EF656C" d="M429.9 207.2c1.2 10.1-.8 20.8 1 31.3-1.7 3.6-.7 7.7-.3 11.2-1.4 3.8 1.3 8 .4 11.9.3 7-1.7 13.6-.4 21-3 4.7 3.8 2.7 6 3.1-.3-2.4-.8-4.2-1.3-6.7.2-2 1-3.8.8-6.2-.6-7.5-.7-14.6-.2-22 .6-.8.3-1.1-.3-1.8 1.4-1.8 0-3.2.4-5.2 0-2.7-.9-4.8 0-7.8.1-1.8-1.3-.9-1.4-3.5 1.2-1.8.3-3.3.6-5.1.5-2.5-.8-5.1-.6-7.9 1.9-1 .6-3 1.7-4.2-.5-.6-1.4-1.2-.5-2-1-2.3.8-4.6.6-7-.3.6-8-1.2-6.5.9Z"/><path fill="#EF656C" d="M429.7 127.8c1.2 10-.8 20.7 1 31.2-1.6 3.6-.7 7.8-.3 11.3-1.4 3.8 1.3 7.9.5 11.8.2 7-1.8 13.6-.5 21-3 4.7 3.8 2.8 6 3.2-.3-2.4-.7-4.2-1.3-6.7.2-2.1 1-3.8.8-6.2-.6-7.5-.7-14.6-.2-22.1.6-.8.3-1-.3-1.7 1.4-1.8 0-3.3.4-5.2 0-2.8-.9-4.8 0-7.8.2-1.9-1.3-1-1.4-3.6 1.2-1.8.3-3.2.6-5 .5-2.5-.8-5.2-.5-8 1.8-1 .5-3 1.6-4.1-.5-.7-1.3-1.2-.5-2-1-2.4.8-4.6.7-7.1-.4.6-8-1.1-6.6 1Z"/><path fill="#EF656C" d="M362.4 152.5c8.3-4.2 18.1-5.6 26.5-10.7 3.6.4 7-1.9 9.8-3.4 3.7 0 6.3-3.8 10-4.3 5.9-2.5 12.5-3.2 18-6.8 5.2 1 .6-4.7.3-6.7-2 1.2-3.2 2.2-5.2 3.6-.7.9-1.6-.1-2.5 0-.5 1.2-1.4.5-2.2 1.1-5.3 2.8-9.6 3.8-15 6.7-3.2.4-5.1 1.8-8.3 2-.4 1.8-2.7.7-3.4 2.1-1 0-1 .4-1.2 1.1-.9-.4-1.7 0-2.6.3-3.8.4-1.4 2-3.5 2.1-1.2 1.6-3.1-.4-4.3 1.8-2.5-.5-4.4 2-6.7 2.6-1.3.6-3-1.2-4 .4-1-.9-1 .2-1.6 1l-7.1 1.2c.7.1 1.6 7.8 3 6Z"/><path fill="#EF656C" d="M293.1 175c8.2-3.9 18.2-4.4 26.3-9.1 4.6.4 7.9-2.5 11.7-2.9.9-1.3 2.8-.1 3.6-1.5a12 12 0 0 1 5.6-2.5c6-2.3 12.4-2.3 18.4-5.8 5.2 1.4 1-4.6.7-6.6-2 1-3.4 2-5.4 3.2-.7 1-1.6-.1-2.5 0-.6 1-1.5.3-2.3 1-5.5 2.3-9.8 3.2-15.3 5.7-3.2.3-5.2 1.6-8.4 1.6-.5 1.7-2.8.5-3.6 1.9-.9-.1-1 .3-1.2 1-.8-.5-1.7 0-2.6.1-3.8.3-1.5 2-3.6 2-1.2 1.5-3.1-.5-4.4 1.6-2.5-.6-4.4 1.7-6.8 2.2-1.3.5-2.9-1.4-4 .2-1-1-1.1.1-1.7.8l-7.2 1c.7.1 1.2 7.9 2.7 6Z"/><path fill="#EF656C" d="M222.8 193.8c8.8-3.2 18.7-3.7 27.5-8 3.6.9 7.2-1 10-2.2 3.8.5 6.7-3.2 10.5-3.3 2.3-.2 4.5-1.2 6.6-2.1 3.2 1 8.9-1.2 12-2.7 5.1 1.6 1.2-4.6 1-6.6l-5.5 3c-.8.8-1.6-.3-2.5-.2-.6 1-1.5.3-2.3.8-5.6 2.1-10 2.7-15.6 5-3.2.2-5.3 1.4-8.5 1.2-.6 1.7-2.8.3-3.6 1.7-1-.2-1 .3-1.3 1-.8-.6-1.7-.2-2.6-.1-3.8 0-1.7 2-3.8 1.8-1.3 1.4-3-.7-4.4 1.3-2.5-.6-4.5 1.6-6.9 2-1.3.5-2.8-1.5-4 0-1-1-1.1 0-1.7.7l-7.3.6c.7.2.9 8 2.4 6.2Z"/><path fill="#EF656C" d="M151.7 209.4c8.9-3 18.8-2.8 27.9-6.6 3.5 1 7.2-.8 10.1-1.9 3.7.6 6.8-2.8 10.6-2.8 6.1-1.5 12.5-1 18.8-3.9 5 1.9 1.4-4.5 1.4-6.5l-6.4 3c-1.4-1-2.6 0-4.2.1-5.6 2-10 2.2-15.7 4.2-3.3 0-5.4 1-8.6.8-.6 1.7-2.8.2-3.7 1.6-.9-.3-1 .2-1.3.9-.8-.6-1.7-.3-2.6-.2-3.8-.1-1.8 1.9-3.8 1.6-1.4 1.4-3-.8-4.5 1.1-2.5-.8-4.6 1.3-7 1.6-1.4.4-2.7-1.6-4-.2-1-1-1.1 0-1.8.7l-7.2.3c.6.2.4 8 2 6.3Z"/><path fill="#EF656C" d="M80 221.6c9-2.4 18.9-2 28.1-5.4 3.5 1.2 7.3-.4 10.2-1.3 3.7.9 7-2.5 10.7-2.3 6.3-1.4 12.6-.5 19-3 5 2.2 1.6-4.4 1.7-6.4l-6.5 2.7c-1.4-1-2.6-.3-4.2-.2-5.8 1.6-10.2 1.8-16 3.6-3.2-.2-5.4.7-8.5.3-1 1.3-3.2.8-4.7 1.3-.5 1.5-2.4-.2-3.8.9-2.2-1.3-1.6 1.8-3.2 1.1-1.4 1.3-3-1-4.5 1-2.4-1-4.7 1-7 1.3-1.5.3-2.7-1.8-4.1-.4-.8-1.2-1-.1-1.8.5l-7.2-.1c.6.2 0 8 1.8 6.4Z"/><path fill="#EF656C" d="M7.7 230.3c9-2.2 19-1 28.4-4 3.4 1.3 7.2 0 10.2-.9 3.7 1 7-2.1 10.8-1.7 6.3-1 12.5.1 19.1-2.1 4.8 2.3 1.8-4.4 2-6.4-2.3.8-4.2 1.4-6.6 2.5-1.4-1.2-2.6-.4-4.2-.4-6 1.3-10.6 1.6-16.9 2.7-2.7-.3-5 .5-7.8 0-1 1.2-3.2.6-4.7 1-.6 1.6-2.4-.2-3.8.8-2.1-1.4-1.7 1.8-3.3 1-1.5 1.2-2.9-1.2-4.5.6-2.4-1-4.7.8-7.2 1-1.4.2-2.5-2-4-.6-.8-1.2-1-.2-1.8.4l-7.2-.4c.7.3-.3 8 1.5 6.5Z"/><path fill="#EF656C" d="M6.7 311.4c-1.2-10.4.9-21.4-1-32.2 1.8-3.7.8-8 .4-11.6 1.5-4-1.2-8.2-.4-12.3-.2-7.1 1.8-14 .5-21.6 3-4.8-3.7-2.8-6-3.2l1.3 6.9c-.2 2.1-1 4-.8 6.4.5 7.7.6 15 .1 22.7-.6.8-.2 1.1.3 1.8-1.4 1.9 0 3.4-.4 5.4 0 2.8.9 5 0 8-.2 1.9 1.3 1 1.3 3.7-1.1 1.8-.2 3.3-.6 5.2-.4 2.5.8 5.3.6 8-1.9 1.2-.6 3.3-1.7 4.4.5.7 1.4 1.3.5 2.2 1 2.3-.8 4.6-.7 7.2.4-.6 8 1.2 6.6-1Z"/><path fill="#EF656C" d="M6.6 393.4c-1.1-10.5 1-21.4-1-32.3 1.8-3.7.9-8 .5-11.6 1.4-3.9-1.3-8.1-.4-12.2-.3-7.2 1.8-14 .5-21.7 2.9-4.7-3.7-2.8-6-3.2.3 2.4.7 4.4 1.2 7-.2 2-1 3.8-.8 6.3.6 7.7.7 15 .2 22.7-.7.8-.3 1.2.2 1.8-1.4 1.9 0 3.4-.4 5.4 0 2.8.9 5 0 8-.1 2 1.4 1 1.4 3.7-1.2 1.8-.3 3.3-.6 5.2-.5 2.6.7 5.3.5 8.1-1.8 1.2-.5 3.2-1.7 4.3.5.7 1.4 1.3.6 2.2.9 2.3-.9 4.7-.7 7.2.4-.6 8 1.2 6.5-1Z"/><path fill="#EF656C" d="M6.6 475.3c-1.2-10.5.9-21.4-1-32.3 1.8-3.7.8-8 .4-11.6 1.4-3.9-1.2-8.1-.4-12.2-.2-7.2 1.8-14 .5-21.7 3-4.7-3.7-2.8-6-3.2.3 2.4.8 4.4 1.3 7-.2 2-1 3.8-.8 6.3.5 7.7.6 15 .1 22.8-.6.8-.3 1 .3 1.7-1.4 1.9 0 3.4-.4 5.4 0 2.8.8 5 0 8-.2 2 1.3 1 1.3 3.7-1.2 1.8-.2 3.3-.6 5.2-.4 2.6.8 5.3.6 8.1-1.9 1.2-.6 3.2-1.7 4.4.5.6 1.4 1.2.5 2 1 2.5-.8 4.8-.7 7.3.4-.6 8 1.2 6.6-1Z"/><path fill="#EF656C" d="M78.6 467.7c-8.4 2.9-18.3 1.3-26.9 4.8-4.3-.6-8.3-.4-12 1-1.6-.2-4-.6-5.4 1-1.6.2-3.1.1-4.6 1-2.4-1.3-4.5.5-7 0-3.3 0-7.6-.3-11.6.6-7 .3-3.7.6-3.8 6.8 2.3-.7 4.3-1.3 6.8-2.3 1.3 1.3 2.6.5 4.2.5 6-1 10.5-.9 16.4-2.2 3.3.4 5.6-.5 8.7 0 .9-1.5 2.9 0 4-1.2.8.3 1-.1 1.4-.7.7.6 1.6.3 2.6.3 3.8.5 2-1.7 4-1.3 1.5-1.2 3 1.1 4.6-.7 2.4 1 4.8-.9 7.2-1.1 1.4-.3 2.7 1.8 4 .4 1 1 1.2 0 1.9-.6l7.3.1c-.6-.3 0-8-1.8-6.4Z"/><path fill="#EF656C" d="M150.8 455.1c-8.3 3.2-18.3 2.1-26.6 6.3-4.3-.3-8.3 0-11.9 1.6-1.7-.1-4.2-.4-5.4 1.2-1.6.4-3.1.4-4.5 1.2-2.5-1-4.5 1-7 .7-3.3.1-7.6 0-11.5 1-7 .7-3.7.9-3.5 7 2.2-.7 3.7-1.3 6-2.2.9-.8 1.5.4 2.5.5.8-1 1.5 0 2.4-.5 5.9-1.4 10.5-1.6 16.3-3.3 3.3.2 5.5-.8 8.7-.4 1-1.3 3.2-.8 4.7-1.3.5-1.5 2.5.2 3.9-1 2.2 1.3 1.6-1.8 3.2-1.2 1.4-1.3 3 .9 4.5-1 2.5.8 4.7-1.3 7.1-1.6 1.5-.4 2.8 1.7 4.1.2 1 1 1.1 0 1.8-.7l7.4-.2c-.7-.2-.6-8-2.2-6.3Z"/><path fill="#EF656C" d="M222.1 438.3c-8 3.8-18 3.3-26.1 7.7-4.4 0-8.3.6-11.8 2.4-1.7 0-4.2 0-5.4 1.6-1.5.4-3 .5-4.4 1.4-2.5-1-4.5 1.2-6.9 1-3.4.3-7.7.5-11.5 1.8-6.9 1.1-3.6 1-3 7.2l5.8-2.6c.8-.8 1.5.3 2.5.3.7-1 1.5-.2 2.4-.7 5.8-1.7 10.3-2 16-4 3.3 0 5.5-1.2 8.7-1 .7-1.6 2.8-.3 3.8-1.6.9.2 1-.3 1.3-1 .8.6 1.7.3 2.7.1 3.8 0 1.7-1.9 3.8-1.7 1.3-1.4 3 .8 4.5-1.3 2.5.7 4.6-1.4 7-1.9 1.4-.5 2.8 1.5 4 0 1 1 1.2-.1 1.8-.8l7.3-.8c-.7-.1-1-7.9-2.5-6Z"/><path fill="#EF656C" d="M292.4 417.7c-7.8 4.2-18 4-25.7 9.1-4.3.3-8.2 1-11.6 3-1.7.1-4.2.1-5.3 1.8-1.5.6-3 .7-4.3 1.8-2.6-.8-4.4 1.4-6.8 1.4-3.4.5-7.6.9-11.4 2.3-6.9 1.4-3.6 1.3-2.7 7.3l5.7-2.8c.8-.9 1.6.3 2.6.2.6-1 1.4-.2 2.3-.8 5.7-2 10.2-2.8 15.8-5 3.3-.3 5.4-1.5 8.6-1.4.9-1.4 3.1-1.2 4.5-1.9.4-1.6 2.5-.1 3.8-1.4 2.3 1 1.4-2 3-1.6 1.3-1.5 3.2.6 4.5-1.5 2.5.5 4.5-1.8 6.9-2.3 1.3-.6 2.9 1.4 4-.3 1 1 1.2 0 1.8-.8l7.2-1.2c-.7 0-1.4-7.8-2.9-6Z"/><path fill="#EF656C" d="M361.6 393.4c-7.7 4.4-17.7 5-25.2 10.4-4.3.4-8.2 1.4-11.5 3.6-1.7.2-4.2.3-5.2 2.1-1.5.6-3 .9-4.2 2-2.6-.6-4.3 1.6-6.7 1.7-3.4.7-7.6 1.3-11.3 3-6.8 1.8-3.5 1.4-2.3 7.5l5.5-3.2c.8-1 1.7.1 2.6 0 .6-1 1.5-.3 2.3-.9 5.6-2.3 10-3.2 15.5-5.9 3.3-.3 5.3-1.7 8.6-1.8.4-1.7 2.7-.6 3.5-2 1 .1 1-.4 1.2-1 .9.4 1.7 0 2.7-.3 3.8-.3 1.5-2 3.6-2.1 1.2-1.6 3.1.4 4.3-1.8 2.6.4 4.4-2 6.7-2.7 1.4-.6 3 1.2 4.1-.4 1 .8 1.1-.2 1.7-1 2.2-.4 4.6-1 7.2-1.4-.7-.1-1.8-7.8-3.2-5.8Z"/><path fill="#EF656C" d="M429.4 365.6c-7.4 4.8-17.4 6-24.6 11.6-4.4.7-8.2 1.9-11.3 4.2-1.4.2-3.5.6-4.6 1.6-1 1.7-3.3 1.4-4.6 3-2.6-.6-4.2 1.8-6.7 2-3.3.8-7.5 1.7-11 3.6-6.7 2.2-3.4 1.6-1.9 7.6 2-1.3 3.8-2.4 6-4 1.6.8 2.6-.2 4.2-.6 5.4-2.7 9.8-3.7 15.2-6.7 3.2-.5 5.1-2 8.4-2.2.3-1.8 2.7-.7 3.4-2.2 1 0 1-.4 1.2-1.1.9.4 1.7-.1 2.6-.3 3.8-.6 1.4-2.2 3.5-2.4 1.2-1.5 3.2.3 4.3-2 2.6.3 4.3-2.1 6.6-3 1.3-.6 3 1.1 4-.6 1.1.8 1.1-.3 1.6-1l7.1-1.8c-.7 0-2.1-7.7-3.4-5.7ZM436.3 126.8c0-2-1.1-3.7-.9-5.7-1.2-2.2-1.1-.7-2.5-1.3-7.6-.7-5.6 2.1-3.3 7h6.7ZM6.2 223.8c-.9.1-1.5.8-2.4 1-.3.3-.8 0-1 .3-.4.5-.7 1-.6 1.5-.1.3-.6.4-.8.7-4 5 3 2.8 5.4 3.2l-.6-6.7ZM0 476.3c0 .9.5 1.7.7 2.5.3.6 0 1.3.3 1.8.4.4.8.8 1.5.7a6 6 0 0 0 2.7 1.4c3.8 2 1-5.4 1.5-6.4H0Z"/><path fill="#EF656C" d="M432.8 371.3c.7-.3.9-1 1.4-1.5.5-.3.8-.2.7-1 0-.3-.2-.6 0-.9.6-.3 1.2-.8 1.6-1.5 2.2-2.5-5.8-.7-6.3-1.2l2.6 6Z"/><path fill="#BDE0FF" d="M3.4 479.9c167-14.7 307.7-59 430.1-112.5l-.6-213.7c-117.9 50-270.4 91-429.4 105.6L3.4 480Z"/><path fill="#EF656C" d="M430 297.2c1.3 8.7-.7 18 1.1 27a6.3 6.3 0 0 0-.4 6c-.8 1.2-.3 2.6 0 3.8-.3.6-.5.9 0 1.5-.1 1.1-.9 2.1-.1 3 .8 1.6.9 4 .6 5.8.1 6.2-1.3 10.9-.7 17.4-.9 5.9 2 2.7 6.4 3.5l-1.6-6.6c1.4-1 .4-2 1-3-.6-6.5-.2-11.2-.7-17.8 1.1-.8-.3-2.4 1-3.6-1.2-.8-.1-1.8 0-3-1.4-1 .4-2.6-.7-3.8.4-.8 0-1-.5-1.4.4-.4.7-1 .5-1.6 1.1-4.4-1.3-2.7-.7-4.6-1-1.6 1.5-2.7-.1-4.4 1.2-2.1-.4-4.5-.3-6.8 0-1.4 2.2-2.2 1-3.7 1.2-.7.2-1-.3-1.8l1.2-6.8c-.3.6-8-1-6.6.9Z"/><path fill="#EF656C" d="M429.9 228.3c1.2 8.8-.8 18 1 27.1a6.3 6.3 0 0 0-.4 6c-.8 1.2-.3 2.6 0 3.8-.3.6-.5.9 0 1.5-.1 1-.9 2.1-.1 3 .8 1.6.9 4 .6 5.8.1 6.2-1.3 10.9-.7 17.4-.9 5.9 2 2.7 6.3 3.4-.4-2.2-.8-4-1.5-6.5 1.4-1 .4-2 1-3-.6-6.5-.2-11.3-.7-17.8 1.1-.9-.3-2.5 1-3.7-1.2-.7-.1-1.8 0-3-1.4-.8.4-2.6-.7-3.7.4-.8 0-1-.6-1.4.5-.5.8-1 .6-1.7 1.1-4.3-1.3-2.7-.7-4.6-1-1.5 1.5-2.6-.1-4.3 1.2-2.2-.4-4.5-.3-6.8 0-1.4 2.2-2.2 1-3.8 1.2-.6.2-1-.3-1.7l1.2-6.8c-.3.6-8-1-6.6.8Z"/><path fill="#EF656C" d="M429.7 159.5c1.2 8.7-.8 18 1 27a6.3 6.3 0 0 0-.4 6c-.8 1.2-.3 2.7.1 3.8-.4.6-.6 1 0 1.6-.2 1-1 2-.2 3 .8 1.6.9 4 .7 5.7 0 6.2-1.3 11-.8 17.5-.9 5.8 2 2.7 6.4 3.4l-1.6-6.5c1.4-1 .4-2 1-3.1-.6-6.5-.2-11.2-.7-17.8 1.2-.8-.3-2.4 1-3.6-1.2-.8-.1-1.8 0-3-1.4-.9.5-2.6-.7-3.7.5-.8 0-1-.5-1.4.4-.5.7-1 .6-1.7 1-4.3-1.4-2.7-.8-4.6-1-1.5 1.5-2.6-.1-4.4 1.2-2-.4-4.5-.2-6.8-.2-1.3 2.1-2.2 1-3.7 1.2-.6.2-1-.4-1.7l1.2-6.8c-.3.6-8-1-6.6.8Z"/><path fill="#EF656C" d="M362.4 184.4c8.3-4.2 18.1-5.6 26.5-10.7 3.6.4 7-1.9 9.8-3.4 3.7 0 6.3-3.8 10-4.3 5.9-2.6 12.5-3.2 18-6.8 5.2 1 .6-4.7.3-6.7-2 1.2-3.2 2.2-5.2 3.5-.7 1-1.6 0-2.5.2-.5 1-1.4.4-2.2 1-5.3 2.8-9.6 3.8-15 6.7-3.2.4-5.1 1.8-8.3 2-.4 1.7-2.7.7-3.4 2.1-1 0-1 .4-1.2 1-.9-.4-1.7.1-2.6.4-3.8.4-1.4 2-3.5 2.1-1.2 1.6-3.1-.4-4.3 1.8-2.5-.5-4.4 1.9-6.7 2.6-1.3.6-3-1.3-4 .4-1-1-1 .2-1.6 1l-7.1 1.2c.7.1 1.6 7.8 3 6Z"/><path fill="#EF656C" d="M293.1 206.8c8.2-3.8 18.2-4.3 26.3-9 4.6.4 7.9-2.5 11.7-2.9.9-1.3 2.8-.1 3.6-1.5a12 12 0 0 1 5.6-2.5c6-2.3 12.4-2.3 18.4-5.8 5.2 1.4 1-4.6.7-6.6-2 1-3.4 2-5.4 3.2-.7 1-1.6-.1-2.5 0-.6 1-1.5.3-2.3 1-5.5 2.3-9.8 3.2-15.3 5.7-3.2.3-5.2 1.6-8.4 1.6-.5 1.7-2.8.5-3.6 1.9-.9-.1-1 .3-1.2 1-.8-.5-1.7 0-2.6.1-3.8.3-1.5 2-3.6 2-1.2 1.5-3.1-.5-4.4 1.6-2.5-.6-4.4 1.7-6.8 2.2-1.3.5-2.9-1.4-4 .2-1-1-1.1.1-1.7.8l-7.2 1c.7.1 1.2 7.9 2.7 6Z"/><path fill="#EF656C" d="M222.8 225.7c8.8-3.2 18.7-3.7 27.5-8 3.6.9 7.2-1 10-2.2 3.8.5 6.7-3.2 10.5-3.3 2.3-.2 4.5-1.2 6.6-2.1 3.2 1 8.9-1.2 12-2.7 5.1 1.6 1.2-4.6 1-6.6l-5.5 3c-.8.8-1.6-.3-2.5-.2-.6 1-1.5.3-2.3.8-5.6 2.1-10 2.7-15.6 5-3.2.2-5.3 1.3-8.5 1.2-.6 1.7-2.8.3-3.6 1.7-1-.2-1 .3-1.3 1-.8-.6-1.7-.2-2.6-.1-3.8 0-1.7 2-3.8 1.8-1.3 1.4-3-.7-4.4 1.3-2.5-.6-4.5 1.5-6.9 2-1.3.5-2.8-1.6-4 0-1-1-1.1 0-1.7.7l-7.3.6c.7.1.9 8 2.4 6.2Z"/><path fill="#EF656C" d="M151.7 241.3c8.9-3 18.8-2.9 27.9-6.6 3.5 1 7.2-.8 10.1-1.9 3.7.6 6.8-2.8 10.6-2.8 6.1-1.6 12.5-1 18.8-3.9 5 1.9 1.4-4.5 1.4-6.5l-6.4 3c-1.4-1-2.6 0-4.2.1-5.6 2-10 2.2-15.7 4.2-3.3 0-5.4 1-8.6.8-.6 1.7-2.8.2-3.7 1.6-.9-.3-1 .2-1.3.8-.8-.5-1.7-.2-2.6 0-3.8-.2-1.8 1.8-3.8 1.5-1.4 1.4-3-.9-4.5 1-2.5-.7-4.6 1.4-7 1.7-1.4.4-2.7-1.7-4-.2-1-1-1.1 0-1.8.7l-7.2.3c.6.2.4 8 2 6.2Z"/><path fill="#EF656C" d="M80 253.4c9-2.4 18.9-1.9 28.1-5.3 3.5 1.2 7.3-.4 10.2-1.3 3.7.9 7-2.5 10.7-2.3 6.3-1.4 12.6-.5 19-3 5 2.2 1.6-4.4 1.7-6.4l-6.5 2.7c-1.4-1-2.6-.3-4.2-.2-5.8 1.6-10.2 1.8-16 3.6-3.2-.2-5.4.7-8.5.3-1 1.3-3.2.8-4.7 1.3-.5 1.5-2.4-.2-3.8.9-2.2-1.3-1.6 1.8-3.2 1.1-1.4 1.3-3-1-4.5 1-2.4-1-4.7 1-7 1.3-1.5.3-2.7-1.8-4.1-.4-.8-1.2-1-.1-1.8.5l-7.2-.1c.6.2 0 8 1.8 6.3Z"/><path fill="#EF656C" d="M7.7 262.2c9-2.2 19-1 28.4-4 3.4 1.3 7.2 0 10.2-.9 3.7 1 7-2.1 10.8-1.7 6.3-1 12.5.1 19.1-2.1 4.8 2.3 1.8-4.4 2-6.4-2.3.8-4.2 1.4-6.6 2.5-1.4-1.2-2.6-.4-4.2-.4-6 1.3-10.6 1.6-16.9 2.7-2.7-.3-5 .5-7.8 0-1 1.2-3.2.6-4.7 1-.6 1.6-2.4-.2-3.8.8-2.1-1.4-1.7 1.8-3.3 1-1.5 1.2-2.9-1.2-4.5.6-2.4-1-4.7.8-7.2 1-1.4.2-2.5-2-4-.6-.8-1.2-1-.1-1.8.4l-7.2-.4c.7.3-.3 8 1.5 6.5Z"/><path fill="#EF656C" d="M6.7 332.8c-1.2-9 .9-18.6-1-28 1.7-3 .8-7.2.4-10.1 1.4-3.4-1.2-7.1-.4-10.7 0-6 1.3-11.4.8-18 1-6-2-2.9-6.3-3.6l1.3 6c.6 1-.7 1.4-.9 2.4.8.9 0 2 0 3.2.7 6.7.8 13 .2 19.8-.6.7-.2 1 .3 1.5-1.4 1.6 0 2.9-.4 4.7-.1 1 0 2.3.9 3-1.3 1-.2 2.7-1 4-.4 1 .9 1.1 1.4 1.6-.7.9.3 1.4 0 2.4-2 .9.4 2.5-.6 3.7-.4 2.2.8 4.6.6 7-1.8 1-.6 2.9-1.7 3.8.5.6 1.4 1 .6 1.9 0 7-2.9 6.5 5.9 6.3v-.9h-.1Z"/><path fill="#EF656C" d="M6.6 404.1c-1.1-9 1-18.6-1-28 1.8-3 .9-7.2.5-10.1 1.4-3.4-1.3-7.1-.4-10.7-.1-6 1.3-11.4.8-18 .9-6-2-2.9-6.4-3.6l1.3 6c.6 1-.6 1.4-.8 2.4.7.9-.1 2 0 3.1.6 6.8.7 13.1.2 19.8-.7.8-.3 1 .2 1.6-1.4 1.6 0 2.9-.4 4.7 0 1 0 2.3.9 3-1.2 1-.1 2.7-1 4-.4 1 1 1.1 1.4 1.6-.6.9.3 1.4 0 2.3-1.9 1 .4 2.6-.5 3.8-.5 2.2.8 4.6.5 7-1.8 1-.5 2.9-1.7 3.8.5.6 1.4 1 .6 1.9 0 7-2.8 6.4 6 6.3l-.2-.9Z"/><path fill="#EF656C" d="M6.6 475.4c-1.2-9 .9-18.6-1-28 1.7-3 .8-7.2.4-10.1 1.4-3.4-1.2-7.1-.4-10.7 0-6 1.3-11.5.8-18 1-6-2-3-6.3-3.7l1.3 6c.6 1-.7 1.5-.9 2.5.8.9 0 2 0 3.1.6 6.8.7 13.1.2 19.8-.6.8-.2 1 .3 1.6-1.4 1.6 0 2.9-.4 4.7-.1 1 0 2.3.8 2.9-1.2 1 0 2.8-.8 4-.5 1.1.8 1.2 1.3 1.7-.7.9.3 1.4 0 2.3-2 1 .4 2.6-.6 3.8-.4 2.2.8 4.6.6 7-1.8 1-.6 2.9-1.7 3.8.5.6 1.4 1 .5 1.8.1 7-2.8 6.5 6 6.4l-.1-.9ZM78.6 467.7c-8.4 2.9-18.3 1.3-26.9 4.8-4.3-.6-8.3-.4-12 1-1.6-.2-4-.6-5.4 1-1.6.2-3.1.1-4.6 1-2.4-1.3-4.5.5-7 0-3.3 0-7.6-.3-11.6.6-7 .3-3.7.6-3.8 6.8 2.3-.7 4.3-1.3 6.8-2.3 1.3 1.3 2.6.5 4.2.5 6-1 10.5-.9 16.4-2.2 3.3.4 5.6-.5 8.7 0 .9-1.5 2.9 0 4-1.2.8.3 1-.1 1.4-.7.7.6 1.6.3 2.6.3 3.8.5 2-1.7 4-1.3 1.5-1.2 3 1.1 4.6-.7 2.4 1 4.8-.9 7.2-1.1 1.4-.3 2.7 1.8 4 .4 1 1 1.2 0 1.9-.6l7.3.1c-.6-.3 0-8-1.8-6.4Z"/><path fill="#EF656C" d="M150.8 455.1c-8.3 3.2-18.3 2.1-26.6 6.3-4.3-.3-8.3 0-11.9 1.6-1.7-.1-4.2-.4-5.4 1.2-1.6.4-3.1.4-4.5 1.2-2.5-1-4.5 1-7 .7-3.3.1-7.6 0-11.5 1-7 .7-3.7.9-3.5 7 2.2-.7 3.7-1.3 6-2.2.9-.8 1.5.4 2.5.5.8-1 1.5 0 2.4-.5 5.9-1.4 10.5-1.6 16.3-3.3 3.3.2 5.5-.8 8.7-.4 1-1.3 3.2-.8 4.7-1.3.5-1.5 2.5.2 3.9-1 2.2 1.3 1.6-1.8 3.2-1.2 1.4-1.3 3 .9 4.5-1 2.5.8 4.7-1.3 7.1-1.6 1.5-.4 2.8 1.7 4.1.2 1 1 1.1 0 1.8-.7l7.4-.2c-.7-.2-.6-8-2.2-6.3Z"/><path fill="#EF656C" d="M222.1 438.3c-8 3.8-18 3.3-26.1 7.7-4.4 0-8.3.6-11.8 2.4-1.7 0-4.2 0-5.4 1.6-1.5.4-3 .5-4.4 1.4-2.5-1-4.5 1.2-6.9 1-3.4.3-7.7.5-11.5 1.8-6.9 1.1-3.6 1-3 7.2l5.8-2.6c.8-.8 1.5.3 2.5.3.7-1 1.5-.2 2.4-.7 5.8-1.7 10.3-2 16-4 3.3 0 5.5-1.2 8.7-1 .7-1.6 2.8-.3 3.8-1.6.9.2 1-.3 1.3-1 .8.6 1.7.3 2.7.1 3.8 0 1.7-1.9 3.8-1.7 1.3-1.4 3 .8 4.5-1.3 2.5.7 4.6-1.4 7-1.9 1.4-.5 2.8 1.5 4 0 1 1 1.2-.1 1.8-.8l7.3-.8c-.7-.1-1-7.9-2.5-6Z"/><path fill="#EF656C" d="M292.4 417.7c-7.8 4.2-18 4-25.7 9.1-4.3.3-8.2 1-11.6 3-1.7.1-4.2.1-5.3 1.8-1.5.6-3 .7-4.3 1.8-2.6-.8-4.4 1.4-6.8 1.4-3.4.5-7.6.9-11.4 2.3-6.9 1.4-3.6 1.3-2.7 7.3l5.7-2.8c.8-.9 1.6.3 2.6.2.6-1 1.4-.2 2.3-.8 5.7-2 10.2-2.8 15.8-5 3.3-.3 5.4-1.5 8.6-1.4.5-1.3 2-1 3.2-1.2 1.4-1.4 2.3-1.3 4.4-1.7 3.8-.2 1.6-2 3.7-2 1.3-1.5 3.1.6 4.5-1.5 2.5.5 4.5-1.8 6.8-2.3 1.4-.6 3 1.3 4.2-.3 1 1 1 0 1.6-.8l7.3-1.2c-.7 0-1.4-7.8-2.9-6Z"/><path fill="#EF656C" d="M361.6 393.4c-7.7 4.4-17.7 5-25.2 10.4-4.3.4-8.2 1.4-11.5 3.6-1.7.2-4.2.3-5.2 2.1-1.5.6-3 .9-4.2 2-2.6-.6-4.3 1.6-6.7 1.7-3.4.7-7.6 1.3-11.3 3-6.8 1.8-3.5 1.4-2.3 7.5l5.5-3.2c.8-1 1.7.1 2.6 0 .6-1 1.5-.3 2.3-.9 5.6-2.3 10-3.2 15.5-5.9 3.3-.3 5.3-1.7 8.6-1.8.4-1.7 2.7-.6 3.5-2 1 .1 1-.4 1.2-1 .9.4 1.7 0 2.7-.3 3.8-.3 1.5-2 3.6-2.1 1.2-1.6 3.1.4 4.3-1.8 2.6.4 4.4-2 6.7-2.7 1.4-.6 3 1.2 4.1-.4 1 .8 1.1-.2 1.7-1 2.2-.4 4.6-1 7.2-1.4-.7-.1-1.8-7.8-3.2-5.8Z"/><path fill="#EF656C" d="M429.4 365.6c-7.4 4.8-17.4 6-24.6 11.6-4.4.7-8.2 1.9-11.3 4.2-1.4.2-3.5.6-4.6 1.6-1 1.7-3.3 1.4-4.6 3-2.6-.6-4.2 1.8-6.7 2-3.3.8-7.5 1.7-11 3.6-6.7 2.2-3.4 1.6-1.9 7.6 2-1.3 3.8-2.4 6-4 1.6.8 2.6-.2 4.2-.6 5.4-2.7 9.8-3.7 15.2-6.7 3.2-.5 5.1-2 8.4-2.2.3-1.8 2.7-.7 3.4-2.2 1 0 1-.4 1.2-1.1.9.4 1.7-.1 2.6-.3 3.8-.6 1.4-2.2 3.5-2.4 1.2-1.5 3.2.3 4.3-2 2.6.3 4.3-2.1 6.6-3 1.3-.6 3 1.1 4-.6 1.1.8 1.1-.3 1.6-1l7.1-1.8c-.7 0-2.1-7.7-3.4-5.7ZM436.3 158.7c0-2-1.1-3.7-.9-5.7-1.2-2.2-1.1-.7-2.5-1.3-7.6-.7-5.6 2-3.3 7h6.7ZM6.2 255.7c-.9.1-1.5.8-2.3 1-.4.3-1 0-1.2.3-.3.5-.6.9-.5 1.5-.1.3-.6.4-.8.6-4 5 3 2.8 5.4 3.3l-.6-6.7ZM0 476.3c0 .9.5 1.7.7 2.5.3.6 0 1.3.3 1.8.4.4.8.8 1.5.7a6 6 0 0 0 2.7 1.4c3.8 2 1-5.4 1.5-6.4H0Z"/><path fill="#EF656C" d="M432.8 371.3c.7-.3.9-1 1.4-1.5.5-.3.8-.2.7-1 0-.3-.2-.6 0-.9.6-.3 1.2-.8 1.6-1.5 2.1-2.5-5.8-.7-6.3-1.2l2.6 6ZM380.4 157.1c1.4.6-1.2 2.2-.9.4.1-.5.6-.3.4-.8-.1-1.1 1.3 0 .5.4 8.7.4 2.6-6.5-2.6-4-8.3 17.8 18.2 1.8 2.6 4ZM396.4 151.1c1.4.6-1.2 2.2-.9.4.1-.5.6-.3.4-.8-.1-1.1 1.3 0 .5.4 8.7.4 2.6-6.5-2.6-4-8.3 17.8 18.2 1.8 2.6 4ZM413.4 145.1c1.4.6-1.2 2.2-.9.4.1-.5.6-.3.4-.8-.1-1.1 1.3 0 .5.4 8.7.4 2.6-6.5-2.6-4-8.3 17.8 18.2 1.8 2.6 4Z"/><path fill="#FFC83F" d="M40.2 447.5c-5.8-8.9 2 1.3 8.2-4 4.8-17.5-32.5-34.1 10.4-62.9-18.7 40.6 38.9 4.8 15.7-26.1 51.4 33.7-35 58.1 5.3 79.4 37.5 9.6 4.7-50.7 32.3-55-15.2 12.3 26.4 51 38.8 40.6 28.9-16.4-44.4-34.4-4-72 0 0-3.4 13 3.6 21 0 0-1-18.4 6-28.9 7-10.4 18.4-28.8 0-36.6 0 0 11.4-2.6 22.8 11.3 11.3 14-11.4 34 5.2 51.5s50.6-5.2 38.4-26.2c-37-34.4-40.2-62.7-11.4-91.6 0 0-8.7 23.6 6.1 43.7 29.5 33.1 18-10 13.1-16.6 47.6 25.2 17.2 49.5 22.7 79.4 11.1 7 18.8-38.7 28-35.8 0 0-8 12.2-3.6 27 5.8 30.5 38.5 24.3 28-5.2-8.8-16.6-11-40 22-64 0 0-20.3 21.3-3.7 44 16.5 22.6 13 28.8 13 28.8s18.4-10.5 4.4-29.7c24.3 1.3-5.3 60.3 28.8 38.4 25.6-23.5-34.8-44.2 0-79.4 0 0-5.2 14 3.5 28.8s21 4.3 8.7-12.2c20.3 3.5 23 53.5 14 69.8-60.9 29.2-274.6 119.8-356.4 82.5Z"/><path fill="#EF656C" d="M46.5 386c-4 5.7-9.1 11.2-10.2 18.7-1 2-.4 3.4-.4 5.4-.8 2.3-1.8 4.7-.3 7-.6 2.5 1.2 4.5 1.9 7-.4 1.2 1 1.4 1.8 1.8a8.5 8.5 0 0 0 3.1 3c.5 2.4 2.6 3.7 4 5.4-.9 2.6 2 4 .3 6.6 0 1-.8.4-1.3.6 1.4 2.6 1.2 9.3 5 4 1.8-3.8 3.5-7.5 1.3-11.6-2.3-2.8-3.8-5-5.7-7.6a10.3 10.3 0 0 1-4-5.7c-.3-.9.4-1.4-.8-1.7.4-.9.7-2-.4-2.4.2-1.4.3-3-.8-3.8 1.1-1 .5-2.7 1.3-4-1.4-.6-.8-1-1-2.2.7-1.1 1.8-1.5 1.1-3.1 1.4-.7.5-1.6 1.2-2.4 1-2 .2-4 3-4.5 1-.5.3-1.5 1.6-1.3-.5-1.5.8-3 2.4-3.5.5-.8 1.5-1 2.1-1.6-.5.2-4.9-6.4-5.2-4.1Z"/><path fill="#EF656C" d="M75.9 365c0 1 .5 1.2 1.1 1.9-.4.5-.7.6-.2 1.3.4 1.4-.7 2.3 0 3.3-.8 2.9-.6 7.1-2.6 9.7 1.3 3.2-3.2 3.6-3 6.4-1.4 0-.6 1.4-1.6 1.6 0 1-1 1.3-1.7 2-1 0-.6 1-.7 1.7-.9.8-1.7 1.2-2.2 2.3-1.3-.3-2 .3-2.7 1.3-.7-.3-1.4 0-1.9.5-.4-1.6-2.5-.5-2.2-2-.7-.5-1.2-1.4-.4-2.1 1.4-1.4-6.2-1.3-6.4-1.7-.3 2.9 2 4.9 2.3 7.7 2.3 4 7.7 2.8 11 1.5 2.2-1 4.4-2.8 6.4-5 1.2.3 1.2-1.7 2.8-1.7-.1-.8-.3-1 .6-1.1.7-.7 1.4-.8.9-1.8 1.2-.6 1.2-1.8 1.9-2.6-.5-.8-.6-.9.4-1.1.6-.8.6-1.8 1.5-2.3.8-.7-.5-1.2-.7-1.7.6-.4.6-.6.4-1.2.2-.9 1.4-.4 1.4-1.4-.8-1.5 1.3-2 .3-3.2 1.3-1.3-.2-2.9.5-4.4 1.8-.6.7-2.3 1.7-3.1-1.3-.7-.5-1.6-1-2.9 3-6.1-5.1-3.3-6-1.9Z"/><path fill="#EF656C" d="M73.6 425.4c-3.3-4.2-2-10.7 1-15.2 2.6-2.3 4.7-5 7.1-7.5 3.4-.3 4-3.8 6.4-5 1.7-2.4 2.6-4.8 4.7-7-.7-2.7 1-5.1.2-7.7 1.7-2.6-.4-5.3-.4-8a29 29 0 0 0-2.7-9c-1.1-2.8-3.5-4.8-4.8-7.5 0 .6-6.8 4.4-4.3 4.8 1.4 1.8 4.9 3.2 4.1 6.2 1.6 2.4 2.8 6.5 3.8 9 0 3 .3 6.5-1 9.8-1.3.2-.5 1.1-1.3 1.8-.6.9-1.5.8-1 2-2.3.5-2 3-4.1 3.8-.8 2.4-3.1 3.4-5.4 5 .5 1.6-1 3.4-2.9 3.3-1.2 1.2-1.4 2.8-3.1 3.4-.2 2.1-2 3.6-1.6 6-.5 1.8-3 3-1.9 5-1.2.7-.3 1.3.4 2.1-.4 1.8.3 4 .6 6-.6 5.3 6.6 0 6.2-1.3Z"/><path fill="#EF656C" d="M100.8 383c-4 6.8-6.3 14.4-5.3 22.5-.4 4 3.1 7.3 2 11 0 1.6 0 2.9.6 4.3-.9 1.1-.6 2.3-.6 3.5-1.6 1.8-1.9 3.9-3.5 5.9-2.7 1.6-5.7 1.9-8.8 2.4-1.8-2.2-5.2-.7-7.1-3-6.6-2.9-1.5-5.4-9.7 0 4.6 4 10 8 16.6 7.5 9.6.8 19.5-7.8 18.5-17.7-.1-3-1.3-5.4-1.2-9-1.7-.1-2.5-2.4-1.3-3.7-.2-1.5-1.3-2.5-.3-4-.9-.6-.5-1.4-.1-2.3a5.6 5.6 0 0 1-.3-4.2c1.9-.5 1.1-2.7 2.5-3.2-1-1.2.1-1.5.1-2.7.6-1.6 2.4-2.5 3.6-3.9-.7.2-5.4-6.1-5.7-3.4Z"/><path fill="#EF656C" d="M154.7 412.3c-.7.7-.5 1.3-.8 2.1-1-.1-2 1.2-2.8 1.9-1.9-.1-2.8 1.8-5 1.1-3.3 1-6.7-1.8-10-1.3-1.8-1.1-2.8-2.7-4.5-3.5-.8-.2-1.5-.1-1.7-1.1-.7-.6-1.5 0-1.8-1.1-2-.1-2.4-3.3-4.8-2.9-3.1-2.2-5-5.2-7.8-7.5.7-2-1-3-1.7-4.5.3-2.2-2.2-4.2-1.1-6.2 1.2-2-6.2-.7-6.7-1 .4 1.3.1 2.1 1 3.1 1.7 3 1.1 5.7 2.8 8.6 3 3.9 5.2 6.3 8.6 9.6 2.2 1 3 2.8 4.5 4 1 1.4 2.2 1.3 3.2 3.1 1.6-.7 2.1 1.9 3.7 1.5 1.7.8 3.4 1.8 5.4 3.2 1.1-1.2 3.3-1 4 .6 1 .7 2.2-.5 3.1.5 2.6 1.2 5.7-1.7 8.4-.4 1.5.2 2-1.3 3.3-.8.2-1.6 1.6-1.6 2.5-3 7.4-2.5 1.6-6-1.9-6Z"/><path fill="#EF656C" d="M136.7 355.2a46 46 0 0 0-4.4 20.3 6 6 0 0 1 .6 3.9c.9 1.3 2.2 2.7 1.8 4.5-.2 2.7 2.9 6.8 4.7 8.3 1 3.8 5.8 4.3 8.2 7 1.5 1.4 3.3 2.3 5 3.4.1 2.9 3 3.8 3.1 7.3.7.8-.6 1.2-.8 1.9l5.8 3c1.4-4.7 0-10-3-14l-9.5-7.1c-2.3-.7-2.9-2.6-4.1-4.2 0-1-.4-.7-1-.8 0-.8-.3-1.4-.4-2.1-1.5-.1-1.6-2.3-2.3-3.3-1 0-1.1-.1-.7-1-.1-1-1-1.8-.5-2.7.2-1.1-1.1-.8-1.6-1.2-.3-1.6-.3-1.7.3-3.3-.8-1-.8-1.7-.1-2.7-1-1.2.1-3-.7-4.6.2-1.4 2.7-1.7 2-3.4 1.3-.3.4-.8.2-1.6.9-1.6 2-3.3 3.5-5-.4.3-6.4-5-6.1-2.6Z"/><path fill="#EF656C" d="m149.7 359.3-.8.1.7-.1h-.5.4c.6-.2-.8 0 0-.1h-.2l.3-.1h-.1c.3 0 0 0 0 0h.2-.2.1c-.4 0-.4 0 0-.2l-.4.1h-.6c.2 0 .8 0 1.1-.2h-.4.3-.5.5-.5.3-.4.5-.4l.6-.2-1 .2c.3-.1-.7 0 0-.1h-.5.7-.5l.4-.1h-.5l1-.2h-.2s.8-.1.2-.1h-.3l.6-.1-6.6.8h.4-.3 1.5l-1.1.1h.4l-.4.1h.3c-.6.2.5 0 .6 0-.3 0-.8.1-.2 0l-.6.2h.2c.1 0 .2 0 0 0 .8 0 .2.1-.2.2h.4-.7.7l-.8.2c.5 0 1-.2.3 0l1-.1h-.6c0 .2.2 0-.3.2l1.3-.2c-.5.1 0 0 .1 0-.5.2-1.3.3-.2.1a20.7 20.7 0 0 0-.5.2c.2 0 1.2-.2.7 0l-1.7.3a40.5 40.5 0 0 0 .9 0c-3.5.8 5.4-1 5.6-1h-.1Z"/><path fill="#EF656C" d="M162 311.3c.3.8.8.8 1.4 1.3-.5.5 0 1.7.4 2.5-1 1.2.3 2.8-.8 4.4.4 1.4-.8 2.7-1.2 4 .4 1.6-1.6 2.6-.7 4.3-.5 1.3-2 1.3-2.6 2.4.1.6 0 .8-.5 1-.1.9 0 1.4-.8 1.6-.7 1.6-1 3.1-2.8 4.1.7 3.3-3 5-2.7 8.2-.8.5-1 1.5-.8 2.4-.7.2-1.3.7-1.6 1.5.1 2.6-1.8 4.9-1 7.6-3.4 3.3 4.7 2 5.8 2.7-.4-1 .2-1.4-.2-1.8-.7-1-.1-2.1-.7-3.3 1.6-.6 1-1.8 1.8-3.1-.3-1.5 1.2-3 .3-4 .4-.6 1-.9.7-1.6.5-.3 1-.2.8-1 1-1.3 1-4.4 3-4.5-.3-1 .6-1.6 1.4-1.9-.1-.7-.4-1 .5-1 1.2-1 .5-2.2 2-3.2-.3-1 .7-1.1-.1-2 .8 0 1-.7 1.5-1.3 2.2-2.6-.8-2 .6-3.2-.7-1.4 1.1-1 1.3-2 0-.8-.5-1.5.3-1.9.6-.4.4-.7.1-1.2.4-.7 1-1 .4-1.8-.3-1.8.2-2.6 1.3-3.9.5-1-.6-1.3.5-2-1.3-.7-.7-1.7-1.5-2.9 1.4-7-5-2.4-6-.4Z"/><path fill="#EF656C" d="M190 366.1c-8.2-3.8-10.4-15.7-8.1-24 2.3-4 1.7-8.4 3.1-12.3 1-3.4-1.1-7-.6-10.7a32 32 0 0 0-15.7-17.3c-1-1.9-5 7.2-1.8 6 .1.8 1.3.1 2 .4 1.5 1.2 3.2.9 3.4 3.1a34 34 0 0 1 6.5 6.5c.9 2.8 1.8 6.1 1.4 9.6-1.2.5-.2 1.2-.8 2.2-.2 1-1.2 1.3-.3 2.3-1.6 1.1-.7 2.6-1.3 3.9-.8 3.4-.7 5.7-2.1 9.3 2.8 1.6-.5 4 .5 6.2.4 2.9.1 5.7 2.5 8.1.5 1.2 0 2.3.3 3.5.1 1.2 1.4 1.2 1 2.5 5.4 1.8 6.8 13.5 10 .8Z"/><path fill="#EF656C" d="M210.4 328.9c5.6 4.5 14.6 16.4 11.8 23.9-1.3 1.2-1.6 2.9-2 4.6-1.2.5-1.6 1.9-2 3-1.4.3-1.5 2-3.2 2a4.1 4.1 0 0 1-1.6 2.7c-2.3 2-5.4 2.6-8 3.9-1.4.3-2 .4-3.3-.2-1.8 0-3.4.7-5.2 0-2.3-.7-4.6-.4-6.3-2.4.3.3-4.6 6.4-2.8 6 2.4.8 4.8 1.4 7.6 1.1 2.7 2.4 9.3 1.4 11.9-.7 8.3-1.4 16.9-9 19.6-16.6-1-2 3.5-6.1 0-7.7.7-1.3-.9-2.4.5-3.6-.4-1.7-1.7-2.6-1.4-4.4-1.2-.3-1.1-1.4-1.4-2.4-1-.6-2.2-1.5-2.5-2.6-1-1.2.2-3.3-1.8-4 .5-1.3-.5-1-1.5-1.3-1.2-2.1-2.8-4.4-4.3-6.6 0 .7-6.3 4.8-4 5.3Z"/><path fill="#EF656C" d="M199.3 258.3c-3.4 6.7-7.2 13-9.3 20.7-.5 4.3-.4 8-1.8 12.2.3 3 .8 6 1 9 .9 2.4 1.2 4.3 3 6.4 1.8 2.2 2 5.5 4.8 7 2.7 4.5 6.3 9.2 11.2 12.3.3.9.9 1.8 1.6 2.4-.2-.7 6.6-5 3.8-5.2-1.3-1.6-5.2-2-5.6-4.6-2.4-3.1-6.2-5.9-8.7-8.7-1.1-3.8-5.4-7.2-4.2-11.5-1.2-.6-.3-1.8-.2-3-1.1-.6-.5-1.3-.6-2.3.1-1.1 0-2.3-.8-3 1.3-1 .3-2.9 1.3-4-2.3-5.7 1-2.9.3-7.3 1.9-1.8 1.2-4.7 2.3-7 .4-1.4 3-1.2 2.6-3.2 1.4 0 .6-.9.6-1.8 1.3-1.8 2.8-3.7 4.7-5.6-.6.3-6.1-5.4-6-2.8Z"/><path fill="#EF656C" d="M231.1 285.3c1.7 3.6 5.3 10.6 3.6 14.1-.7.8-2 2-3.2.7-1.2.3-2.4.2-3.3-.7-.8-3-3.9-3.3-4.9-5.8a8 8 0 0 1-3.6-5c-2.5-.5-2.7-3-4.4-4.4.3-2.6-2-4-2-6.4-1-.8 0-1.5 0-2.5 0-1.4-.8-2.5-1-3.8.6-3.2-1-6 0-9.1-.2.5-8.3-1.5-6.4.7 0 2.7 2.3 5.5.7 8.3.7 3.3 1.5 7.4 3 10.2.8 3.6 3 6.9 5.5 10.1-.5 1.3.7 1.2 1 2.3.7.9.4 1.9 1.8 1.8.4 2.8 3.4 3.8 5.1 6 1.8 0 3.3 2.8 5.5 3.7 2.5-2.2 6 2.3 8.3-1.4 3.8-1.3 3.2-6 2.6-9.2 1.4-1.7-.3-3.1.4-4.5-1.6-.4-1-1.4-1.8-2.4-.6-1.8-.3-3.9-1-5.8-.3.5-7.7 1.9-5.9 3.1Z"/><path fill="#EF656C" d="M258.1 335c1.1-6.1 3-11.9 3.5-18.4-.9-1.7.3-3.4-.5-5-1.6-1.5.5-3.4 0-5.2-.6-1.4-1-2.8-1-4.3-.7-.8-1.2-1.9-1-2.9-.8-.6-1-1.8-.9-2.8-1-.5-1.7-1-2.3-2-1.8-1.7-1.9-4.4-4.3-5.6-.8-1.7-2-2.2-2.7-4.5-2.6-2-5-4.3-7.7-6.3-1-3.2-4.1 4.2-4.9 4.5 2 1.2 5.5 1 5.9 4 1.5.7 3 2.6 4.6 3.9.2.8.6.5 1.3.6.2 1.2 1.5 1.4 1.1 2.6 3.5 2.6 4.4 6.7 5 10-.4.8.1.8.7 1-.4 1.3.4 2.2.3 3.3 1.2 0 .3 3.2.3 4.5 3.2.9-.4 3.2 1.1 5.2-1.2 1 0 1.6-.5 2.5-.8 1 .7 2.5 0 3.5-.1 1.3-2.5 1.5-1.6 3-1.4.4-.4.8 0 1.6-.9 1.7-1.7 3.6-2.8 5.4.3-.4 7.2 3.4 6.4 1.3Z"/><path fill="#EF656C" d="M272.1 322c-2.6 5-5.8 9.3-7.4 15.1-1.3 2.4-1.4 5.4-1.8 7.8-1 1.5-2.5 2.3-2.8 4 .1 1.1-1.5.5-1.2 1.9-.6 0-.6.1-.7.7-.8-.4-1.1 1-2 .1-.7 2-1.8.5-3.1.4 0-.6.3-1.3-.5-1.7.1-4 3.7-7.7 4-12.4 4.2-2.5-4.5-4.3-5-3.8-.4 2.1.6 5.2-2 6.6-.6 2.8-1.8 6.3-1.4 9.1-.8 9 11.5 9 15.9 4.2-.5-1.7 2-2.1 1.7-3.7a40 40 0 0 1 2.7-5.4c-1.2-1-1.3-3 .4-3.6.6-.9-.6-2 .5-2.6 1-1.5.6-3.9 1.7-5.8 1.9.1 1.6-2 3-2-.3-.7-1-1.4.2-1.6 0-2 2.4-2.4 3.4-3.8-.5.2-5.4-5.8-5.6-3.5Z"/><path fill="#EF656C" d="M302 358.9c-.9.6-.8 1-1.2 2-.6-.2-1-.3-1.2.4-1.2.4-1.6 1-2.8.7-.2 1-.7.2-1.2.8-3.4.6-5.6-1.6-8.1-3.4-2 0-1-2.5-1.9-3.7-1-.3-.5-1.4-1.7-1.8.3-1.1-.7-2-1.3-2.7.4-1-1-1.8-.5-3-1.2-.6-1.4-1.5-2.2-2.6 0-1.3-.7-1.9-.4-3.5-.8-1.4-.2-2.7-1-4 1.6-1.1 1-3 1-4.4 1.3-2 0-4.5 1.6-6.2 1.5-.6-7.5-3.6-6.2-1.8-.5 2.1 1.2 5-1 6.7.7 1.2-1 3 .1 4.4-.4 2.1.8 3.1.4 5 .3 2.4 1.2 5.3 2.5 8-.8 1.1 1 2 .3 3.5.8.3 1 .3.7 1.1 1 2.9 4 5.4 5.7 9 2.3-1 2.7 1.3 3.8 2.6 2.6.5 4.4 2.7 7.2 1.4 1.7-1.1 3.6 1.6 5-.3 1 .8 1-.1 1.3-1 .6.2 1 0 1.4-.5 1.5-1 3.4-1.1 4.8-2.6-.5 0-5-5.7-5.2-4.1Z"/><path fill="#EF656C" d="M300.3 303.5A80.3 80.3 0 0 0 297 320c.5 2.6.5 5.1 1.7 7.4 0 2-.6 3.9.7 5.5.9.6 0 1.3.4 2 .7.3.8.6.7 1.3.8.9 1.3 2.3 1.3 3.8 2.6 1.2 3.3 3.7 3.6 6.2 1.1.6.5 1.7.8 2.7 1 .8-.8 1.2-.7 2.3.6 1.6-.5 2.6-1 4-.3 1.6-1 2.3-2.2 3.1 1.9 1 5 7.4 6 2.5.4-3.3 2.7-5 3-7.8 0-1.8.4-5-1-6 0-1.4 0-2.8-.6-3.8-.1-2.2-3.3-4.2-2.5-6.3-1-.3-1-1.4-.7-2.3-1.3-.1-.6-1.3-.7-2.3-1.2-.2-1-1.3-1-2.3-.6-.3-.7-.5-.6-1-.9-.3-1-.3-.4-1.1-.4-1.2-.4-2-.3-3.2-3.1-.6-.3-2.6-1.2-4.1-.7-.7 0-1.2.3-1.8-.4-.4-.7-.7-.3-1.3.5-1.2-.9-2.4 0-3.8 1.8-.3.9-2.2 2.2-2.5-.8-.9-.4-2.5.3-3.4.8-.6 1.3-1.6 1.8-2.5-.3.4-6.8-4-6.3-2ZM337.4 335.8c-.3-.8-.7-.6-1.3-.9.5-.6.1-.5-.2-1.2-.3-.7-.5-.7-.3-1.5-1 .1-.2-.5-.8-.6-1-1.8-1.2-3-2.6-4.2-.2-1.6-1.3-.8-2-2 1.2-2-1.2-2-1-3.1 0-.4-.3-.2-.6-.3 0-.5 0-.5-.5-.5.5-.9-.5-.3-.4-1-.2-.9-.3-.9-1.3-.7 0-.8-1-.3-.7-1.1-.4-.3-1 0-.6-.7.5-1.1-1.5-.7-.8-1.6-1-.6-.7-.7-.3-1.7-.2-.9-1.2-1.2-.8-2.4-.5-.8-1.5-1.1-.9-2 .6-1.3-6.2 1.8-6.4 1.6.2.4 1 .5.4 1 1.2-.1 1.1 1 2.2 1.4-1 1-.4 1 0 2.1 0 1 1.3 1.2 1.1 2.3.5.1 1-.4.8.4.3 1.1 1 2.2 2.4 3.2.3.6.4.7 0 1.2.7-.1.8.7.5 1.2 1.1-.3.5.4.6 1.2 1-.3.9.2 1 1 .5 0 .7-.1.6.4 1.4-.6.2.3.8 1 .6 1 .2 1.1 1.7.5-.2.8 1 .6 0 1.5.5.7 1.3.3.8 1.5 1.2-.2 0 .8 2 1.3.3.7-1.4 2-.1 2.2-1 1 0 .3.6.5-.6.6.2.5.4 1-2.4 4.5 5.9-.6 5.7-1ZM342 326.7c0 .6 1.6-.3.4.6.7 0 0 .5.6.4l-.5.5c.4 0 .9-.1.3.2.4 0 .3.6.1.8.6 0 .5.2.2.5.4.1.1.1 0 .3 1.2.6-.2 1 .7 1 1 .3.6.6-.2.9-.6.5.7.2-.1.6.8.3.3 0 0 .5 1 .1-.2.2.6.4-1 .2.3.2-.3.4 0 .5-.7.1.1.5.6 0 .3.3.8.6-.2 0-.6 0-.2.3.8.3-.5 0-.4.4-.3.4 1.1.5 0 .6.1.2.3.2 0 .3.8.5-.2.1-.4.2-1.1.2.1.6-.8 1-.7.1.6 1.2-.3 1-1.7-.3 7.3 4 5.5 2.4.8.2-.3-.4-.4-.8.6 0-.1-.5-.2-.8 1.8.2.4-.4 1.2-.4 0-.3.2-.4.3-.6-.1-.2-.4-.3-.2-.5.1-.7.4-.6-.4-.9.3-.2.8-.2.3-.5.9-.1.3-.1.5-.6 0-.6-.8-1.8.4-1.8-1.4-.5 1.3-.7-.4-1 .6-.2 1-.6 0-.7.7-.7.2-1-.6-1 1-.3.2-.9.8-1.2.4-.7-2.2.3-1.1-.4-1.4-.2 1.2-.6 0-1h-.4c1.2-.9-.5-.3.3-1-1.8-.4-.6-.8.1-1.7-.9 0 0-.2.2-.5-1.5.3-.3 0-1.2-.4 3.3-3.8-5.7 1.5-5.3 1.4Z"/><path fill="#EF656C" d="M370 353.4c-1.2.7-.5 2.3-1.6 2.7-.6 0-.5 0-.6.5-1 .7-1.4 1.1-2.6 1-.1.5-.2 1-.8.6-3.7 2.1-7 .9-10-.4-.7-1.8.5-3.5-.6-5.1 1.2-.7-.1-1.6.8-2.2-.3-1.1.6-2 .8-3.4 1.1-1-.4-2.3 0-3.6 0-1.8.2-3.3.6-5-1.3-5.1.1-10.8-4-15.6-1.3-.6-1.2-2.3-2.4-3.1 0 .8-6.5 5.3-3.4 5.5-.3.6 1 .3 1.4.7.7 1.5 2 1.6 1.1 3.4 1 1 1 3.3 1.8 4.8 0 1-.3 1.5.7 1.9-.1.7-.6 1.3 0 2-1 1.4 0 3.9-.3 5.8-.8 1.5-.6 2.8-2 4.1.9 1-.5 1.8-.9 3 .9.8.2 1.5.2 2.6.2 2.8 1.5 4.6 2.3 7.5.4 1.2 1.5.6 2.3.5.3.7.6 1 1.3.9 1.4 2.3 3.3 1.1 5.3 2.2.7-.8 1.4-.4 2.3-.3 1.4-.8 3.1-2.2 4.6-1 1.5.2 1.9-1.2 3.2-.7.4-1.4 1.8-2.6 3.1-3.5 1-.4 2-1.3 2.9-2.1-.5 0-5.4-5.6-5.5-3.7Z"/><path fill="#EF656C" d="M356.7 298.8c-.6 6.2-.3 11.9 1.7 18.2 1.3 1.3 1.7 3.7 3 4.9 1.8 1 2 2.6 2.5 4.5 1.1 1.5 2.5 2.2 3.2 3.9 1.6.8 2.9 2.2 3.4 4 2 .3 3.4 2.3 3.8 4-.2 1.1.5 1.7 1.1 2.6-.4.7 0 1.6.3 2.3-1.5.8-.8 2.3-1.3 3.3-.4 1.6-2 3.2-2.2 5-4.6.6 4 6.7 3.7 4.8a18 18 0 0 0 2-5.5c1.7-.4 1.2-1.7 2-2.7 1.1-4.2 0-8.2-1.1-11.5-1.4-3.5-4.5-5.6-5.5-9-1.3.4-1-1-1.6-2-1.7.5-1.2-2-2.7-2 0-.9-.6-.6-1.2-.7.6-1.3-1.3-2-1.1-3.2-.1-1.5-2.2.4-2-1.3-1.5-.4 0-1.6-.6-2.4-1-.6-1.2-1.2-.9-2.4-.5-.2-1-.3-.8-1-.9-3-2.1-2.2-.2-5.7-.6-.6-.2-.8.3-1.2-1.8-1.2-.3-3.6.5-5.3 2-1.4-7.3-3-6.3-1.6ZM384.3 306.1c-.1.9 1.6.7.3 1.3.4.3.4 1.2 0 1.3-.5.4 0 .2.2.5-.3.1-.4 0-.2.4-.6.5 0 1.2-.8 1.1.1.4 0 .2-.3.1 0 .2.3.4 0 .2.2.5-.2.7-.4.2-.3 1.9-.7.7-1.2-.2-.3.3-.3.3-.4-.1-.5.2-.7.5-.6-.3-.3-.3-.7.7-.6-.3-1 .6.1-.6-.8-.2-.3-.5 0-1.1-.7-.8-1 .4-1.3-.8-1.7-.8-.8 0 .1-1-.5-1.4-1.2.2-.3-1.3-1.4-1.3.3-.4 1-1.3.4-1.7-1-.2-.3-1.5-.9-2-.8-1-.8-1.1-.7-2.3 0 .5-8.3 2-5.7 2.9-.7.4.6.3 1 .6-.2.7.6.7 1 1-1.2 1.3 0 1-.3 1.9l1 1.5c.6.7.2 1.3 1.3 1 0 .4-.2 1 .4 1-.5.8.2 1 .7 1.4.4 1.1 2.5 1.3 1.8 2.6 1.3-.4.5 2 1.8 1 0 .8.5 1.8 1.3 1 .6 1 2 1.4 2.6.4.4 1.3 2 .8 3 1.1.4-.3-.2-2 .8-1.3.3-1.3 1.2.3 1.9-.4.3-1 .5-1.1 1.5-1.3-.4-.8 0-.9.6-1.3 0-.5-.4-1.6 0-1.9 2.9-1.6.6-1.4 2.1-2.1-2.9-3.3 4.6-6.3-6.5-2.8Z"/><path fill="#EF656C" d="M394.2 371.5c7.2-5.8 10.7-18.2 9-27.2 1.5-4 .9-7.7 1-11.5a7.6 7.6 0 0 1 0-4.7 6 6 0 0 1-1.4-3.1c-1.5-7.7.3-17.4-7-23.5-1-5.5-4.5 1-6.3 2.2a31 31 0 0 1 5.1 4c-.3 3.2 2.5 7 2.8 10.2.2 5.8 2 11.9.5 17.3 1.1 1.1.3 3.3.5 4.7 1.1 1-.3 3.7-.4 5.5 1.5.7 1.8 3 .3 3.9-.2 1.4.6 2.6-.6 3.8.8.8.2 1.4-.3 2.2.5 1.3.3 2.8-.3 4-2 .3-1.4 2.5-2.8 2.8.8 1 0 1.3-.2 2.2-1 1.1-3 1.3-4.3 2.2.6 0 3.5 7.4 4.4 5Z"/><path fill="#EF656C" d="M326 400c8.5-4.1 18.4-5.5 26.9-10.7 3.7.4 7-1.9 9.8-3.4 3.8 0 6.3-4 10-4.6 5.8-2.8 12.4-3.5 17.9-8.1 5.5 0 0-4.7-.8-6.7l-5 4.7c-1.7-.6-2.6.5-4 1-5.2 3-9.4 4.2-14.7 7.1-3.2.6-5.2 2-8.4 2.2-.3 1.7-2.7.7-3.4 2.1-1 0-1 .4-1.2 1-.9-.4-1.7.1-2.6.3-3.8.5-1.5 2.2-3.6 2.3-1.1 1.5-3-.4-4.3 1.7-2.5-.4-4.3 2-6.7 2.7-1.3.6-3-1.3-4 .4-1-1-1.1.1-1.7.9l-7.1 1.2c.6.1 1.6 7.9 3 6Z"/><path fill="#EF656C" d="M256.5 422.9c8.6-3.8 18.5-4.9 27.2-9.6 3.7.6 7-1.5 10-3 3.7.3 6.5-3.4 10.2-3.8 6-2.2 12.4-2.2 18.5-5.7 5.2 1.3 1-4.6.7-6.7a92.8 92.8 0 0 0-6 3.8c-1.6-1-2.7 0-4.2.4-5.5 2.4-10 3.2-15.4 5.8-3.2.3-5.3 1.6-8.5 1.6-.5 1.7-2.8.5-3.6 2-.9-.2-1 .3-1.2 1-.9-.5-1.7 0-2.6 0-3.8.4-1.6 2.1-3.7 2.1-1.2 1.5-3.1-.5-4.4 1.6-2.5-.5-4.4 1.8-6.8 2.4-1.3.5-2.9-1.4-4 .2-1-1-1.1.1-1.7.8l-7.2 1c.6.2 1.2 8 2.7 6Z"/><path fill="#EF656C" d="M185.8 442.1c8.8-3.4 18.7-3.8 27.6-8.1 3.7.8 7.2-1.1 10.1-2.4 3.8.5 6.7-3.1 10.5-3.3 6.1-2 12.5-1.7 18.7-4.9 5.2 1.6 1.2-4.5 1-6.6l-5.5 3c-.8.9-1.6-.2-2.5-.1-.6 1-1.5.2-2.4.8-5.5 2.1-10 2.7-15.6 5-3.2.2-5.4 1.4-8.6 1.3-.5 1.6-2.7.3-3.6 1.7-1-.2-1 .3-1.3 1-.8-.6-1.7-.2-2.6 0-3.8 0-1.7 1.9-3.8 1.8-1.3 1.4-3-.7-4.5 1.3-2.5-.7-4.5 1.5-6.9 2-1.4.4-2.8-1.6-4 0-1-1-1.2 0-1.8.7-2.2.2-4.7.5-7.2.6.6.2.8 8 2.4 6.2Z"/><path fill="#EF656C" d="M114.1 457.7c9-2.8 19-2.7 28.2-6.5 3.6 1 7.2-.8 10.2-1.9 3.7.6 6.8-2.8 10.6-2.8 6.2-1.7 12.5-1 19-4 5 1.8 1.3-4.5 1.3-6.6-2.3 1-4 2-6.4 3.2-1.5-1-2.6-.1-4.2 0-5.7 1.9-10.1 2.3-15.9 4.3-3.2 0-5.4 1.1-8.6.8-.6 1.7-2.8.3-3.7 1.6-.9-.2-1 .2-1.3.9-.9-.6-1.7-.3-2.7-.2-3.8-.1-1.7 1.9-3.8 1.6-1.4 1.4-3-.8-4.5 1.1-2.5-.8-4.7 1.3-7 1.6-1.5.4-2.8-1.7-4.1-.2-1-1-1.1 0-1.8.6l-7.3.2c.7.2.3 8 2 6.3Z"/><path fill="#EF656C" d="M41 453.6c7 5.7 15.9 10.9 25.5 9.8 2.7-1.3 5.5.2 8.3-.2 1.5-.7 3.1-.6 4.7-.6a7 7 0 0 1 4.7-.3c2.7-2.8 6.8-1 9.9-2.5 5.2-.7 10.9.3 16.4-2 .8.2 2 .3 2.8 0-.5 0-.5-7.5-1.7-6.3-1.9.9-3.8 1.4-6 2.5-.9-.4-1.8-1.2-2.6-.2-3.6-.4-7.2 1.3-10.4 1.9-2.4-1-5.4 1-8.1 1-1.6-.3-3 .4-4.7-.4-.7 1.3-1.2.3-2.3.4-3.8.3-6.9 1.8-11 1-1.2 3.2-3.6-.5-6 .7-1.8-1.5-4.5-.6-6.6-1.7-1.3-.4-1-2.8-2.9-2.5.1-1.4-.7-.6-1.6-.7-1.5-1.4-3-3-4.2-5 .2.6-6.7 4.6-4.2 5.1ZM47 385.3c2.6-2.5 11.8-8.5 15.2-8.1-1.5 4.7-3.4 9.9-4.2 15l-6.6-1c1-2-3.3-4.3-4.4-6ZM75.6 364.4c-.6-2.4-1.1-5-2.3-7.3-1-1.5-2.2-3-2.3-5 5.4-.4 10.4 2.1 14 6.3l-5 4.4h2l-6.4 1.6ZM101.4 382c3-3.3 7.4-4.7 11.5-6 .6.2 3.2-.1 2.1 1a27.7 27.7 0 0 0-2.3 11.3s-6.7 0-6.6-.1l.4-1.8-5-4.3ZM137 354.4a30 30 0 0 1 6.7-7.2c1.6-1.4 3.2-3.6 5.6-3.6-.4 4.6-.3 9.8.3 14.6l-6.6.8c-.2-2.4-4.3-3.2-6-4.6ZM143.3 360.6c.5 3.4 5 11 8.6 11.5.4-6.9 6.4-14.4-4.4-13.4 6.4 1.1-3 1.2-4.2 1.9ZM161.7 311c-3.4-5.8-5.5-4.4-8.9-7.7-1-.6-.1-.8.6-1 .6 0 1-.5 1.5-.9 3-1.9 7-1.6 10.3-.9 4.8-.4.4 5.1 0 7 5.5-1-2.7 2.5-3.5 3.5ZM199.7 257.4c3.7-4.7 9.5-12.1 15-14.3-3.8 12.2 2.7 27.7-15 14.3ZM230.7 284.5c-.9-2.4-1.2-5-1.9-7.4-.6-1.5-1.2-3-.8-4.6.3-.5.9.2 1.2.2 2.8.3 5.5 1 8 2.6 6.5 1.5-2 6.3-.2 6.9l-6.3 2.3ZM272.6 321.2c2-2.4 8.6-6.8 11.5-4.4-3 6.6.5 12.5-9 8 6.6 2.3-1.7-2.2-2.5-3.6ZM300.6 302.6a65.1 65.1 0 0 1 19.6-23.4c4.5-2.6 5.4-7.1 9.3-1.2a44.5 44.5 0 0 0-6.4 11.6 29 29 0 0 0-.9 20.2s-6.4 2.3-6.3 2c-.7-1-12-8.5-15.3-9.2ZM331.6 339c1.2 3 3.5 5.9 3.3 9.2l.1-.2c-1 1.3-1.4 3-1.5 4.5.4.5 1.3-.6 1.8-.6 5.6-.8 10-5 12.7-9.7 1.4-.8-5.8-3-5.8-3.3-7.2-4.7-4.7-1.8-10.6 0ZM341.8 326.6c-.7-1.6-1-3.3-1.8-4.8-.2-.7-1.1-1.2-1.2-2 0-1-.4-1.7 1-1.6a6.3 6.3 0 0 1 4.3-1c2 .3 4 1.3 5.5 2.6l-4.5 5 2.8-1-6.1 2.8ZM356.8 297.9c3-10.3 9.8-20.5 17.9-27.2-8.9 23.4 6 28.8-7 31.3-7.5-4.6-4.6-2.3-10.9-4.1ZM384.1 305.8c-.5-2.4-1-5-2.3-7.2-1-2-2.7-3.5-3-5.7l.1-.5c3.2.8 6.6.6 9.5 2.4 6.3 3.4 6.5 4.2 1.2 8.9 3.3 1.4-4.5 1.5-5.5 2.1Z"/><path fill="#EF656C" d="M40.3 453c-1.7-1.9-6.6-10.3-4.8-12.2.8.5 1.7.5 2.7.5 2.3.3 4.7 1 7 .3.5 1.5 4.1 7.2 0 6.8l-5 4.6Z"/><path fill="#FFC83F" d="M119.1 353.8c-19.4-15.4 27.6-44.3-11.2-62.4 23.3 22.3-49.7 44.4 11.2 62.4Z"/><path fill="#EF656C" d="M126.8 309c-.8-.3-.2-.4.2-.8 0-.1-1.2-.2-1.1-.3.7-.5-.2-.7-.3-1.2.5-.8.3-1.7.1-2.7l-2 1 2-1c-4.7-8.9-14.5-14.3-23.5-17.7-2-.6 2.4 3.2 2.4 4.1 10.3 14.8 1.2 16 5.1 19.4l-1.7-1c.1 1.2-.6.6-.3 1.2.2 1-.6 1.4-.7 2.5-1.8-.5-2.7 1.5-4 3-.7.4-1 .5-.6 1.3-.5.2-1.2.2-1.1 1-1.7-.1-2.2 2.6-3.5 3.7-.3.9-1.3-.2-1 1-.7.8-1.8.6-1.2 1.6-.9.2-1.9.8-1.2 1.7-1.1.5-.9 1.6-1.4 2.2 1 1.1-.4.6-.5 1.6-.5 1.4-1.6 2.2.2 3-.7.5.2.9-.2 1.6-1.2.3-.7 1.4 0 2-.5.8-.9 1.4.1 1.7 0 .7-.4 1.3.5 1.5.6 1 1.8 1.6.9 2.8-.1 1.3 1.1 1.2.6 2.3 3.3.5 3.3 4.4 4.6 3.5l-.3.4c8 5 17.8 8 27.2 9 .3 0 .2-.2 0-.3-2.4-1.6-4.2-3.8-6.2-5.7a14 14 0 0 1-3.1-7.5c-.2-2.4.6-4.8 1.6-7l-2.4-1c1.3.5 2.3.8 2.4 1 .1-.4-.4-.9.3-.7-.7-.6-.5-1-.3-1.7-.2-.8 0-.9.7-.8.6-.1.5-.1.3-.7 1 0 .9-1.1 1.2-1.8 1.2-1.3-.3-1.3.6-1.7.6-.4 0-1 1-.8-.1-.6.2-1.3.6-1.8-.2-1.6 1-1.7 1.3-2.6 1.5-1-.7-.6 1.4-1.8-.8-.6-.2-1 .3-1.6-.5-.6.3-.9-.7-1.3.7 0 1.1-.7 1-1.4 1.3-.7-.2-1-.7-1.4.3-1.8 1.8-1 .5-2.5.5-.5 1-.8.1-1.2.7-.7.2-1-.2-1.7-.8-1 1-1.3 1-2.3Zm-6.6 10c-.7.1-.3.5-.1 1-.6 0-1 .3-.4.9-.5.2-.5.2-.1.6-.9.1-.3.6-.9 1.1-1 .2.8.9-.4 2.7.5.8-.8.4-.9 1-.4.4.2.7 0 1.1-.4.1-.7 0-.5.6-.4 1-.7.4-1.7 1 0 1.7-2.1 2.3-1.8 4.2-1.3.4-1.2.8-.5 1.3l-.6-.2-9.6 8.7-2.1 3 1.6-3.2c-.6-.6-1-.3-1.7-.4.3-.7-.8-1.4-1.4-1.7 0-.7.1-1-.7-1-.1-.6-.6-1.8-1-2.3-.4-1 0-1.8-.5-3 .2-.9.5-1.4-.3-2.3.9-1.3 2.6-1.7 2.2-3.5.6 0 1-.3.7-1 1-.2 0-1 1-1-.2-.6.7-1 1.3-1.1-.3-1 0-1.6.4-2.6.7.1.7-.5.8-1 .4-.2 1-.1 1.3-.6.5-1.3 1.6-1.4 2-2.7 1.5.8 1.8-.7 2.7-1.3 1-1 2.7-2 3-3.7 1.7-.4 1.7-1 1-1.6.3 0 .5.2.7.3 7.8-7 6-5.8 7.8-6.4-1.2.6-2 1-1.6 1.2.2.7.6.4 1.1.8-.2.4-.8.4 0 .7 0 .4-.2.7.3.9-.5.5-.7.7 0 1-.2.1-.2 1.6 0 2 .4.4-.6.6 0 1.1-.6.4 0 1 0 1.5-.2.8-.6.7-.2 1.5 1.6 1.2-2 1.3-1 2.4Z"/><path fill="#FFC83F" d="M285.7 298.6c48.7-42.2-12.1-39.5 2.6-70.7-25.5 5 2.9 50-21 28-.6 13.6 29.7 19.9 18.4 42.7Z"/><path fill="#EF656C" d="M279.4 264.1c1.9-1 .5-2.6 2-3.3-.1-1-.2-2.2.2-2.8.2-.7-.4-1.1-.4-2.1.2-1.2-.8-1.7-.4-2.8-.1-1-1.4-1.9-1-3-.7-.4-1.8-.9-1-1.8.8-.7.3-1.6-.3-2.1 1.1-.6-.5-.7.3-1.2-.7-.3-.4-.3 0-.6-.7-.3-.1-.4-.2-.9 1-.3-.3-.6-.5-1 .5-.4-.6-.8.3-1-.8-1 .4-.8.6-1.7-.6-.7.2-.8.4-1.4-.5-.9 1 0 1.4-.6 0-1 .5-1.4 1.3-1.7.5-.9.5-1.6 1.6-1.6 1 .1-4.2-5-4-5.2-.4.3-.2 1.1-.8.7.4 1-.1 1.3-.5 2 .1 1.2-.7.6-1.5.8.3.8-.6.7-1 1.4s-.3 1.8-1.2 2.3c1.2 1-.6.8 0 1.7-.5.3-1.2 0-.7.8-.9 1.2.5 3.4-1.1 4 .6.5.2 1.3-.3 1.7 1.2.4.1.8 0 1.7 1.4.2-.2 1.5 1 1.9-.7 1 1.5 0 .1 1.1.5 3.9.3.8 2 2.7-1.4 2 .9 1-.2 2.5.8 0 .7.3.4 1 .3.2 1.3.7 1 1.1.3.6-1 .6-1 1-.4.7.7.6-.5.9.2.1 1.7.3.5.5.7.4.2.6-.3.4.4-3.3 2.5 7.7 3.9 4.7ZM290.5 284.2c0-1-1.6-.6-.5-1.5-.7-.5-.7-1.2-.4-1.9-.7 0-.9-1.1-1-2-.7 0-.5-.5-.5-1-.3-.2-.4-.7-.5-1.1-.7 0-1-.7-.8-1.3-1.6 0-1.6-.6-1.4-2-.1-.6-.8 0-.6-.7-.5-.1-1 0-.6-.7-.2-.5-.9.3-.7-.6-.6.2-.5 0-.3-.4-1.1.3-.2-1.4-1.3-.9-.9.5-1.2-.6-1.7-.6-.8.2-.1-1-.9-1.2-1 .6-.4-.6-1.1-.4-.9-.6-.4-.2-.6-1.4-.1-.7-1 0-1.1-.6-.8 0-.7-1.2-1.5-1-.7.1-.5-.1-.6-.6.2-.8-5.6 5.7-4 5 .7-.1 0 .7.7.2.8-.3 1.2.4 2.1 0 .1.4-.3 1.7.5 1-.2 1.1 1.5.3 1.6 1.4.6-.4.7-.6.8.2.8-.3.1.3.2.6.8 0 1.5.8 2.3 1.2-.7 1 .8.3.2 1.5 1-.6.4 0 .5.8.8-.4.7 0 .9.6.6-.2.4.4 1.2 0-.6.7.2 1 0 1.7 1.2-.6 2.5-.3 1.3.7 0 .6 1.3 0 .7.8-.4.6 0 .2.4.3-.4.8.4.7 1 1 0 .6-.6.8-.8 1.4-.3.6.7.2-.3.8.2.2 1.7-.4.7.4.8.1.3.6 0 1-2 2.2 6.9-.5 6.1-.7Z"/><path fill="#EF656C" d="M282.9 235.5c-.2 6.2-.3 13.8 6.3 17.4 1.5 2.2 7.3 2.1 7.8 4.5-.1 2 2.5 2.4 2.2 4.1.5 1 1.7 1.7 1.2 2.8 1.3.7 0 2.3 1 2.9 1.5.9.4 2.7 1.2 4-1.3 1.8-1.1 4-1.7 6-2 .3-2.1 2.3-2.9 3.7-2.1 1.4-2.2 4.3-4.4 5.5-2 .4 4.6 4.4 4.5 4.8.5-.5.4-1.7 1.2-1.6.2-4.6 5-5.8 5.7-10.7 1.5-4 2.8-8.4 1.3-13.4.9-1.1-1-2.2-.2-3.8-.8-.3-1.1-.4-.8-1.3-.6-1.6-2.3-5.5-4.3-5.5 0-1.8-2.1-2.7-3.2-4-1.2 1-1.5.2-2.7.1-1-.8-1.1-2-3-1.7-.2-1.5-1.6-.6-1.8-2.1-2.5-.4-2.1-2.3-1.4-4-.7-.5-.4-.7.1-1.1-1.4-.5-.5-1-1-2 0-1.5 1.2-2.7 1.4-4.3-.3.5-7.6-2.4-6.6-.4ZM275.9 258.7h.2c-2.3-.5-4.3-1.6-5.9-3.2-1.1-1.6-2-3.3-3.8-4.3-.7-.1-.2 1.3-.4 1.8a14.1 14.1 0 0 0-.6 8.5c.8 2.8 2.2 5.5 4.3 7.4.1 1 4.4-5 4.5-4.8 5.4.8 3.2.8 4.2.5l-2.5-5.9Z"/><path fill="#EF656C" d="M284.2 285.9c2 7.9-1 9.8-2.2 16.6 0 .1.1.5.3.4 3.3-2.2 7.2-3.4 10.2-6.2 5.2-4.3 6.8-5.8.5-9.8-3-3-1.5-1.7-2.4-2.3l-6.4 1.3ZM289.5 235.8c.3-2 .3-4 .8-6.1a5 5 0 0 0 .6-3.7c-.2-.5-.8 0-1.2 0-2.1-.4-4.3 0-6.2 1-6.1 2-1.9 4.2.5 7.3l-1 .3 6.5 1.2ZM357 256.7c13.2-12.4-4.2-28-17.4-29.9-.1 0-.6 0-.3.2 2.9 2 5 4.9 7.6 7.3 4 6.8-7.3 13.1-9.6 19-.4.3-.4.5-.4.7-4.8 8.4.6 17.3 7.3 22.7 6 4.4 2 .4 1.2-5.1 0-5 4.4-9.3 8.3-12.2a94.3 94.3 0 0 1-.1-.4l-.5-1 .7.8c-.4-.7-.1-.2.1-.1 0-.1-.3-.6.2-.3-.3-.3-.7-.8-.1-.3-.5-.8.2.3.3.3-.2-.4-.2-.5-.1-.8l.4.5c0-.2-.3-.5 0-.2.7.8 0-.1 0-.3.4.5.7.8.1 0 .4.3.5.3.2-.1.5.5-.3-.5-.3-.5.1.1.7.7.5.3 1.1 1-1.2-1.6-.3-.6-.7-1.1.9.9.3 0-.4-.7.2 0 .4.2l-.4-.5c.7.6 0-.2 0-.6.8.9.8.8 1.4 1.3l-.6-.8c.4.3.2.3.1 0 2.1 1.7-.2-.8-2-2.6l.1-.1 3 3.2Z"/><path fill="#fff" d="M210.9 287.4c-7.2 139.3 9.1 65.4 81 19l-81-19Z"/><path fill="#fff" d="M283.8 309c-8.3 8.3-19 14.5-27 23.6-4.4 1.3-7.4 5-10.3 8-4.3 1.6-6.2 6.7-10.2 9-6 5.3-13.3 8.6-19 15-5.6 1-.4 4.6 1.1 6.9 1.9-2 3.3-3.7 5.1-6 2-1.3 4-2 6-3.8 6.3-6 12.6-11.3 19.5-16.3 4.8-2.8 7.9-7.9 13.1-10.7 1.6-1.1.2-2 2.3-3.6 2.3-.4 3-2.3 4.9-3.3 2.2-1.3 3.7-4 5.8-5.6.8-1 2-.3 3-1 1.2-.3 1.1-1.7 2.5-1.3 0-1.7 1.4-1.7 2.1-2.9 1.8-1.5 4.2-2 6-3.7-.8 0-4-7-5-4.4Z"/><path fill="#fff" d="M215 291.8c9.3 1 18.2 5.1 28 5.5 2.6 2.3 6.8 2.4 9.8 2.7 3 2.2 7.3.4 10.6 2 6 1.4 11 4 17.7 5 5.7 2.3 3.3-1.2 5-5.3-2.2-.2-3.9-.1-6.3-.1-1.1.3-1.2-1-2.1-1.4-1.1.4-2-.6-3.2-.8-6.8-1-13-2.3-19.5-4.3-.6-.8-1-.5-1.6-.2-1.3-1.7-2.9-.6-4.6-1.4-1-.4-2.2-.6-3 .1-.8-1.4-2.8-.8-3.8-1.8-1-.7-1.4.6-2 1-.7-1-1.4-.1-2.3-.7-.5-2-2.6-.1-3.6-1.3-2-1-4.7-.3-7-1.1-.6-2-2.7-1.2-3.4-2.5-.6.3-1.3 1-2 0-6.8-1.4-5.7-4.3-7.5 4.4l.9.1ZM214 365.5c-1-9.6 1-19.5-.9-29.4 1.7-3.4.8-7.4.4-10.6 1.4-3.6-1.3-7.4-.4-11.2-.1-6.3 1.3-12 .8-18.9.9-6.1-1.9-3-6.4-3.7l1.3 6.3c.6 1-.6 1.5-.8 2.4.7 1-.1 2.2 0 3.4.6 7 .7 13.7.2 20.7-.6.8-.3 1 .3 1.6-1.4 1.8 0 3-.4 5 0 2.2.9 4.3 0 7.3-.6 1 .7 1.2 1.2 1.7-.6.9.3 1.5 0 2.4-1.9 1 .4 2.7-.5 4-.5 2.3.8 4.8.5 7.4-1.8 1-.5 3-1.7 4 .5.5 1.4 1 .6 1.9.3 6.9-3.2 6.9 6 6.5l-.1-.8Z"/><path fill="#fff" d="M288.8 313.3c1.5-1.2 2.5-2.9 3.8-4.2 1-.9 2-1.6 2.2-3 0-.5-.6-.4-1-.6-2-2-4.8-2.9-7.5-3.8-2.6 3.8-1.2 8.6 2.5 11.6ZM215.7 285.2c-1.6-.3-3.3.2-5-.3-1.7.7-.7 1.1-1.6 2-4 6.3.8 4.6 5 4.8l1.6-6.6ZM207.5 366.4c0 2 .6 4 .8 6 0 1.3 0 2.5.9 3.6.3.5.7-.1 1-.3 3-.5 5.6-2.3 8-4-1.3-4.3-6.1-6.2-10.7-5.3Z"/></g><defs><clipPath id="a"><path fill="#fff" d="M0 0h529.6v487H0z"/></clipPath></defs></svg>