<svg xmlns="http://www.w3.org/2000/svg" width="5458" height="522" fill="none"><g clip-path="url(#a)"><path fill="#EFE3F3" d="m0 519.3 5455.7 2-2.2-20.1c-62-1.6-427-80-477.4-48-170.7 60.2-209.7-174.3-470.6-111L4389 369.8c-44.7 19.2-291.2-58.5-339.4-65a145.2 145.2 0 0 0-92.2 8.3 145.2 145.2 0 0 1-130.7-7L3566.4 157c-132-78.7-291-35.3-394.5 69.6-53.8 44.4-133 46-185-.3-107.9-96-234.5-167.6-404.9-200-192.8-36.6-449-20-605.4-23.3L0 3.3v516Z"/><path fill="#F2A0AA" d="m1605.6 0-7 1.5c-2.4-2-6-.4-9.1-.8-1.2-.3-1 0-1.6.6-1.3-.7-2.5.2-3.5-.8-4 .6-8.3 1-12-.3-.9 1.2-2 0-3.2-.1-.8 1-2.1.4-3.3.3-.7.8-5.4.6-6.4.1-1.2-.5-1.1.8-1.7 1.3-1.7.2-3-1-4.7-.5-1.3 1-2.1-1.1-3.1.3-2-1-3.7.8-5.8.2-1-1.8-2.8-.4-3.9-1.6-.2 0-.8 1-1.1 1l-7.3-1.2c.2.1.2.7.1 1.6V0c-5.5 1.8-10.2.3-16.2.8-4 .4-8.4-.2-13.2.4-1.3-1.5-.8.1-2.3-.4-1.6 0-1.1-1.2-2.4.1-2.3-1.4-4.7.2-7.2-.3-.9 1-.4 1-1.5.2-1.5-.2-2.4.3-3.4-.3-1.1-.5-1.1.8-1.7 1.3-1.7.2-3-1-4.7-.5-1.2 1-2.1-1.1-3.1.3-2-1-3.7.7-5.7.2-1-1.8-2.9-.4-4-1.7-.2 0-.8 1.1-1.1 1l-7.3-1.1c.2 0 .2.7.1 1.6V0c-5.5 1.8-10.1.3-16.2.7-4 .5-8.4 0-13.2.4-1.2-1.4-.8.2-2.3-.3-1.5 0-1.1-1.2-2.4.1-2.3-1.4-4.7.2-7.2-.3-.9 1-.4 1-1.5.2-1.5-.2-2.4.2-3.3-.3-1.2-.5-1.2.8-1.8 1.3-1.7.2-3-1-4.7-.5-1.2 1-2-1.1-3.1.3-2-1-3.6.7-5.7.2-1-1.9-2.9-.5-4-1.7-.2 0-.8 1.1-1 1l-7.4-1.1c.2 0 .2.7.2 1.6l-.2-1.6c-5.4 1.8-10 .3-16 .7-4 .4-8.5-.1-13.3.4-1.2-1.4-.8.2-2.3-.4-1.5 0-1-1.1-2.4.2-2.3-1.4-4.6.2-7.2-.3-.8 1-.4 1-1.5.2-1.5-.2-2.4.2-3.3-.3-1.2-.5-1.2.8-1.7 1.3-1.8.2-3-1-4.8-.5-1.2.9-2-1.1-3 .3-2-1-3.7.7-5.8.2-1-1.9-2.9-.5-4-1.7-.2 0-.8 1-1 1l-7.3-1.1c.1 0 .1.7 0 1.6V0c-5.4 1.8-10 .3-16.1.7-3.8.4-8 0-12.4.3a2 2 0 0 1-1.4-.4c-.6-.4-.5.6-1.8.1-1.2 0-1.2-.7-1.8-.3-.4.3-1 .3-1.4.1-1.7-.5-3.5.2-5.3.2-.7 0-1.2.2-1.7.6h-.3a2 2 0 0 0-1.3-.6c-1 0-1.8.2-2.6-.2-.6-.2-.9 0-1.1.3-.5.8-1.5 1-2.4.8-1-.3-1.8-.6-3-.3-1.2 1-2-1.1-3 .3-1.7-.8-3 .2-4.7.3-.5 0-1-.2-1.5-.6-.8-.8-1.8-.5-2.7-.7a2 2 0 0 0-1.8.5h-.2l-4.7-.7c-1.2-.2-2.4.7-2.5 2-.2 2.2-.4 5 .9 4.2 9-1.2 18.6.7 28.1-.9.5 0 1 0 1.4.2 2.8 1.4 5.9 0 8.6.4h1a7 7 0 0 1 3.4 0c.5.2 1 .1 1.5-.1 1.5-.9 3.3-.4 5-.8h1.2c1.9.8 3.8 0 5.6.1 1.7.6 1-1 2.5.5 2.5 1 5-.3 7.5.6 4.4-.5 6.3.3 6.9-1.2 0 1 .3 1.6 1 1.2 9.3-1.2 19.1.8 29-1 3 2 6.5 0 9.6.8 1.4-.5 3.1-.4 4.7.3 1.8-1.7 4.2-.7 6.3-1.5 2 1.2 4.2.2 6.2.3 1.7.6 1-1 2.5.5 2.5 1 5-.3 7.5.6 4.4-.5 6.3.3 6.9-1.2 0 1 .3 1.6 1 1.2 9.3-1.2 19.1.8 29-1 3 2 6.5 0 9.6.8 1.4-.5 3.1-.4 4.7.3 1.8-1.7 4.2-.7 6.3-1.5 2 1.2 4.2.2 6.2.3 1.7.6 1-1 2.5.5 2.5 1 5-.3 7.5.6 4.4-.5 6.3.3 6.9-1.2 0 1 .3 1.6 1 1.2 9.3-1.2 19.1.8 29-1 3 2 6.5 0 9.6.8 1.4-.5 3.1-.4 4.7.3 1.8-1.7 4.2-.7 6.3-1.5 2 1.2 4.2.2 6.2.3 1.6.6 1-1 2.5.5 2.4 1 5-.3 7.5.6 4.4-.5 6.2.3 6.8-1.2.1 1 .3 1.6 1 1.2 9.4-1.2 19.2.8 29-1 3.2 2 6.6 0 9.7.8 1.4-.5 3.1-.4 4.7.3 1.8-1.7 4.1-.7 6.3-1.5 2.3 1.4 4.6-.2 7 .5 3.8.4 8.9 1.4 13.4.4 4.3 3 2.3-4.2 2.8-6h-.1Z"/><path fill="#F2A0AA" d="m1236.6 0-7 1.5c-2.4-2-6-.4-9.1-.8-1.2-.3-1 0-1.6.6-1.3-.7-2.5.2-3.5-.8-4 .6-8.3 1-12-.3-.9 1.2-2 0-3.2-.1-.8 1-2.1.4-3.3.3-.7.8-5.4.6-6.4.1-1.2-.5-1.1.8-1.7 1.3-1.7.2-3-1-4.7-.5-1.3 1-2.1-1.1-3.1.3-2-1-3.7.8-5.8.2-1-1.8-2.8-.4-3.9-1.6-.2 0-.8 1-1.1 1l-7.3-1.2c.2.1.2.7.1 1.6V0c-5.5 1.8-10.2.3-16.2.8-4 .4-8.4-.2-13.2.4-1.3-1.5-.8.1-2.3-.4-1.6 0-1.1-1.2-2.4.1-2.3-1.4-4.7.2-7.2-.3-.9 1-.4 1-1.5.2-1.5-.2-2.4.3-3.4-.3-1.1-.5-1.1.8-1.7 1.3-1.7.2-3-1-4.7-.5-1.2 1-2.1-1.1-3.1.3-2-1-3.7.7-5.7.2-1-1.8-2.9-.4-4-1.7-.2 0-.8 1.1-1.1 1l-7.3-1.1c.2 0 .2.7.1 1.6V0c-5.5 1.8-10.1.3-16.2.7-4 .5-8.4 0-13.2.4-1.2-1.4-.8.2-2.3-.3-1.5 0-1.1-1.2-2.4.1-2.3-1.4-4.7.2-7.2-.3-.9 1-.4 1-1.5.2-1.5-.2-2.4.2-3.3-.3-1.2-.5-1.2.8-1.8 1.3-1.7.2-3-1-4.7-.5-1.2 1-2-1.1-3.1.3-2-1-3.6.7-5.7.2-1-1.9-2.9-.5-4-1.7-.2 0-.8 1.1-1 1l-7.4-1.1c.2 0 .2.7.1 1.6V0c-5.5 1.8-10.1.3-16.2.7-4 .4-8.4-.1-13.2.4-1.2-1.4-.8.2-2.3-.4-1.5 0-1-1.1-2.4.2-2.3-1.4-4.6.2-7.2-.3-.8 1-.4 1-1.5.2-1.4-.2-2.4.2-3.3-.3-1.2-.5-1.2.8-1.7 1.3-1.8.2-3-1-4.8-.5-1.2.9-2-1.1-3 .3-2-1-3.7.7-5.8.2-1-1.9-2.9-.5-4-1.7-.2 0-.8 1-1 1L941.8 0c.1 0 .1.7 0 1.6V0c-5.4 1.8-10 .3-16.1.7-3.8.4-8 0-12.4.3a2 2 0 0 1-1.4-.4c-.6-.4-.5.6-1.8.1-1.2 0-1.2-.7-1.8-.3-.4.3-1 .3-1.4.1-1.7-.5-3.5.2-5.4.2-.6 0-1 .2-1.6.6h-.3a2 2 0 0 0-1.3-.6c-1 0-1.8.2-2.6-.2-.6-.2-.9 0-1.1.3-.5.8-1.5 1-2.4.8-1-.3-1.8-.6-3-.3-1.2 1-2-1.1-3 .3-1.7-.8-3 .2-4.7.3-.6 0-1-.2-1.5-.6-.8-.8-1.8-.5-2.7-.7a2 2 0 0 0-1.8.5h-.2l-4.7-.7c-1.2-.2-2.4.7-2.5 2-.2 2.2-.4 5 .9 4.2 9-1.2 18.6.7 28.1-.9.5 0 1 0 1.4.2 2.8 1.4 5.9 0 8.6.4h1a7 7 0 0 1 3.4 0c.5.2 1 .1 1.5-.1 1.5-.9 3.3-.4 5-.8h1.2c1.9.8 3.8 0 5.6.1 1.7.6 1-1 2.5.5 2.5 1 5-.3 7.5.6 4.4-.5 6.3.3 6.9-1.2 0 1 .3 1.6 1 1.2 9.3-1.2 19.1.8 29-1 3 2 6.5 0 9.6.8 1.4-.5 3.1-.4 4.7.3 1.8-1.7 4.2-.7 6.3-1.5 2 1.2 4.2.2 6.2.3 1.6.6 1-1 2.5.5 2.4 1 5-.3 7.5.6 4.4-.5 6.3.3 6.9-1.2 0 1 .3 1.6 1 1.2 9.3-1.2 19.1.8 29-1 3 2 6.5 0 9.6.8 1.4-.5 3.1-.4 4.7.3 1.8-1.7 4.2-.7 6.3-1.5 2 1.2 4.2.2 6.2.3 1.7.6 1-1 2.5.5 2.5 1 5-.3 7.5.6 4.4-.5 6.3.3 6.9-1.2 0 1 .3 1.6 1 1.2 9.3-1.2 19.1.8 29-1 3 2 6.5 0 9.6.8 1.4-.5 3.1-.4 4.7.3 1.8-1.7 4.2-.7 6.3-1.5 2 1.2 4.2.2 6.2.3 1.6.6 1-1 2.5.5 2.4 1 5-.3 7.5.6 4.4-.5 6.2.3 6.8-1.2.1 1 .3 1.6 1 1.2 9.4-1.2 19.2.8 29-1 3.2 2 6.6 0 9.7.8 1.4-.5 3.1-.4 4.7.3 1.8-1.7 4.1-.7 6.3-1.5 2.3 1.4 4.6-.2 7 .5 3.8.4 8.9 1.4 13.4.4 4.3 3 2.3-4.2 2.8-6h-.1Z"/><path fill="#F2A0AA" d="m867.6 0-7 1.5c-2.4-2-6-.4-9.1-.8-1.1-.3-1 0-1.6.6-1.3-.7-2.5.2-3.5-.8-4 .6-8.3 1-12-.3-.9 1.2-2 0-3.2-.1-.8 1-2.1.4-3.3.3-.7.8-5.4.6-6.4.1-1.2-.5-1.1.8-1.7 1.3-1.7.2-3-1-4.7-.5-1.3 1-2.1-1.1-3.1.3-2-1-3.7.8-5.8.2-1-1.8-2.8-.4-3.9-1.6-.2 0-.8 1-1.1 1L793.9 0c.2.1.2.7.1 1.6V0c-5.5 1.8-10.1.3-16.2.8-4 .4-8.4-.2-13.2.4-1.3-1.5-.8.1-2.3-.4-1.6 0-1.1-1.2-2.4.1-2.3-1.4-4.7.2-7.2-.3-.9 1-.4 1-1.5.2-1.5-.2-2.4.3-3.4-.3-1.1-.5-1.1.8-1.7 1.3-1.7.2-3-1-4.7-.5-1.2 1-2.1-1.1-3.1.3-2-1-3.7.7-5.7.2-1-1.8-2.9-.4-4-1.7-.2 0-.8 1.1-1.1 1L720.2 0c.2 0 .2.7.1 1.6V0c-5.5 1.8-10.1.3-16.2.7-4 .5-8.4 0-13.2.4-1.2-1.4-.8.2-2.3-.3-1.6 0-1.1-1.2-2.4.1-2.3-1.4-4.7.2-7.2-.3-.9 1-.4 1-1.5.2-1.5-.2-2.4.2-3.3-.3-1.2-.5-1.2.8-1.8 1.3-1.7.2-3-1-4.7-.5-1.2 1-2-1.1-3.1.3-2-1-3.6.7-5.7.2-1-1.9-2.9-.5-4-1.7-.2 0-.8 1.1-1 1L646.4 0c.2 0 .2.7.1 1.6V0c-5.5 1.8-10.1.3-16.2.7-4 .4-8.4-.1-13.2.4-1.2-1.4-.8.2-2.3-.4-1.5 0-1-1.1-2.4.2-2.3-1.4-4.6.2-7.2-.3-.8 1-.4 1-1.5.2-1.4-.2-2.4.2-3.3-.3-1.2-.5-1.2.8-1.7 1.3-1.8.2-3-1-4.8-.5-1.2.9-2-1.1-3 .3-2-1-3.7.7-5.8.2-1-1.9-2.9-.5-4-1.7-.2 0-.8 1-1 1L572.8 0c.1 0 .1.7 0 1.6V0c-5.4 1.8-10 .3-16.1.7-3.8.4-8 0-12.4.3a2 2 0 0 1-1.4-.4c-.6-.4-.5.6-1.8.1-1.2 0-1.2-.7-1.8-.3-.4.3-1 .3-1.4.1-1.7-.5-3.5.2-5.4.2-.6 0-1 .2-1.6.6h-.3a2 2 0 0 0-1.3-.6c-1 0-1.8.2-2.6-.2-.6-.2-.9 0-1.1.3-.5.8-1.5 1-2.4.8-1-.3-1.8-.6-3-.3-1.2 1-2-1.1-3 .3-1.7-.8-3 .2-4.7.3-.6 0-1-.2-1.5-.6-.8-.8-1.8-.5-2.7-.7a2 2 0 0 0-1.8.5h-.2l-4.7-.7c-1.2-.2-2.4.7-2.5 2-.2 2.2-.4 5 .9 4.2 9-1.2 18.6.7 28.1-.9.5 0 1 0 1.4.2 2.8 1.4 5.9 0 8.6.4h1a7 7 0 0 1 3.4 0c.5.2 1 .1 1.5-.1 1.5-.9 3.3-.4 5-.8h1.2c1.9.8 3.8 0 5.6.1 1.7.6 1-1 2.5.5 2.5 1 5-.3 7.5.6 4.4-.5 6.3.3 6.9-1.2 0 1 .3 1.6 1 1.2 9.3-1.2 19.1.8 29-1 3 2 6.5 0 9.6.8 1.4-.5 3.1-.4 4.7.3 1.8-1.7 4.2-.7 6.3-1.5 2 1.2 4.2.2 6.2.3 1.6.6 1-1 2.5.5 2.4 1 5-.3 7.5.6 4.4-.5 6.3.3 6.9-1.2 0 1 .3 1.6 1 1.2 9.3-1.2 19.1.8 29-1 3 2 6.5 0 9.6.8 1.4-.5 3.1-.4 4.7.3 1.8-1.7 4.2-.7 6.3-1.5 2 1.2 4.2.2 6.2.3 1.7.6 1-1 2.5.5 2.5 1 5-.3 7.5.6 4.4-.5 6.3.3 6.9-1.2 0 1 .3 1.6 1 1.2 9.3-1.2 19.1.8 29-1 3 2 6.5 0 9.6.8 1.4-.5 3.1-.4 4.7.3 1.8-1.7 4.1-.7 6.3-1.5 2 1.2 4.2.2 6.2.3 1.6.6 1-1 2.5.5 2.4 1 5-.3 7.5.6 4.4-.5 6.2.3 6.9-1.2 0 1 .2 1.6 1 1.2 9.3-1.2 19.1.8 29-1 3 2 6.5 0 9.6.8 1.4-.5 3.1-.4 4.7.3 1.8-1.7 4.1-.7 6.3-1.5 2.3 1.4 4.6-.2 7 .5 3.8.4 8.9 1.4 13.4.4 4.3 3 2.3-4.2 2.8-6h-.1Z"/><path fill="#F2A0AA" d="m498.6 0-7 1.5c-2.4-2-6-.4-9.1-.8-1.1-.3-1 0-1.6.6-1.3-.7-2.5.2-3.5-.8-4 .6-8.3 1-12-.3-.8 1.2-2 0-3.2-.1-.8 1-2.1.4-3.3.3-.7.8-5.4.6-6.4.1-1.2-.5-1.1.8-1.7 1.3-1.7.2-3-1-4.7-.5-1.3 1-2.1-1.1-3.1.3-2-1-3.7.8-5.8.2-1-1.8-2.8-.4-3.9-1.6-.2 0-.8 1-1.1 1L424.9 0c.2.1.2.7.1 1.6V0c-5.5 1.8-10.1.3-16.2.8-4 .4-8.4-.2-13.2.4-1.3-1.5-.8.1-2.3-.4-1.6 0-1.1-1.2-2.4.1-2.3-1.4-4.7.2-7.2-.3-.9 1-.4 1-1.5.2-1.5-.2-2.4.3-3.4-.3-1.1-.5-1.1.8-1.7 1.3-1.7.2-3-1-4.7-.5-1.2 1-2.1-1.1-3.1.3-2-1-3.7.7-5.7.2-1-1.8-2.9-.4-4-1.7-.2 0-.8 1.1-1.1 1L351.2 0c.2 0 .2.7.1 1.6V0c-5.5 1.8-10.1.3-16.2.7-4 .5-8.4 0-13.2.4-1.2-1.4-.8.2-2.3-.3-1.6 0-1.1-1.2-2.4.1-2.3-1.4-4.7.2-7.2-.3-.9 1-.4 1-1.5.2-1.5-.2-2.4.2-3.3-.3-1.2-.5-1.2.8-1.8 1.3-1.7.2-3-1-4.7-.5-1.2 1-2-1.1-3.1.3-2-1-3.6.7-5.7.2-1-1.9-2.9-.5-4-1.7-.2 0-.8 1.1-1 1L277.5 0c.1 0 .1.7 0 1.6V0c-5.5 1.8-10.1.3-16.2.7-4 .4-8.4-.1-13.2.4-1.2-1.4-.8.2-2.3-.4-1.5 0-1-1.1-2.4.2-2.3-1.4-4.6.2-7.2-.3-.8 1-.4 1-1.5.2-1.5-.2-2.4.2-3.3-.3-1.2-.5-1.2.8-1.7 1.3-1.8.2-3-1-4.8-.5-1.2.9-2-1.1-3 .3-2-1-3.7.7-5.8.2-1-1.9-2.8-.5-4-1.7-.1 0-.8 1-1 1L203.8 0c.1 0 .1.7 0 1.6V0c-5.4 1.8-10 .3-16.1.7-3.8.4-8 0-12.4.3a2 2 0 0 1-1.3-.4c-.7-.4-.6.6-1.9.1-1.2 0-1.2-.7-1.8-.3-.4.3-1 .3-1.4.1-1.7-.5-3.5.2-5.3.2-.7 0-1.2.2-1.7.6h-.3a2 2 0 0 0-1.3-.6c-1 0-1.8.2-2.6-.2-.6-.2-.9 0-1.1.3-.5.8-1.5 1-2.4.8-1-.3-1.8-.6-3-.3-1.2 1-2-1.1-3 .3-1.7-.8-3 .2-4.7.3-.5 0-1-.2-1.5-.6-.8-.8-1.8-.5-2.7-.7a2 2 0 0 0-1.8.5h-.2l-4.7-.7c-1.2-.2-2.4.7-2.5 2-.2 2.2-.4 5 .9 4.2 9-1.2 18.6.7 28.1-.9.5 0 1 0 1.4.2 2.8 1.4 5.9 0 8.6.4h1a7 7 0 0 1 3.4 0c.5.2 1 .1 1.5-.1 1.5-.9 3.3-.4 5-.8h1.2c1.9.8 3.8 0 5.6.1 1.7.6 1-1 2.5.5 2.5 1 5-.3 7.5.6 4.4-.5 6.3.3 6.9-1.2 0 1 .3 1.6 1 1.2 9.3-1.2 19.1.8 29-1 3 2 6.5 0 9.6.8 1.4-.5 3.1-.4 4.7.3 1.8-1.7 4.2-.7 6.3-1.5 2 1.2 4.2.2 6.2.3 1.6.6 1-1 2.5.5 2.4 1 5-.3 7.5.6 4.4-.5 6.3.3 6.9-1.2 0 1 .3 1.6 1 1.2 9.3-1.2 19.1.8 29-1 3 2 6.5 0 9.6.8 1.4-.5 3.1-.4 4.7.3 1.8-1.7 4.2-.7 6.3-1.5 2 1.2 4.2.2 6.2.3 1.6.6 1-1 2.5.5 2.4 1 5-.3 7.5.6 4.4-.5 6.3.3 6.9-1.2 0 1 .3 1.6 1 1.2 9.3-1.2 19.1.8 29-1 3 2 6.5 0 9.6.8 1.4-.5 3.1-.4 4.7.3 1.8-1.7 4.1-.7 6.3-1.5 2 1.2 4.2.2 6.2.3 1.6.6 1-1 2.5.5 2.4 1 5-.3 7.5.6 4.4-.5 6.2.3 6.9-1.2 0 1 .2 1.6 1 1.2 9.3-1.2 19.1.8 29-1 3 2 6.5 0 9.6.8 1.4-.5 3.1-.4 4.7.3 1.8-1.7 4.2-.7 6.3-1.5 2.3 1.4 4.6-.2 7 .5 3.8.4 8.9 1.4 13.4.4 4.3 3 2.3-4.2 2.8-6h-.1Z"/><path fill="#F2A0AA" d="M113.7.8c-3.8.3-7.9-.1-12.3.3a2 2 0 0 1-1.4-.4c-.7-.5-.5.6-1.8 0C96.9.9 97 0 96.4.5c-.5.3-1 .3-1.5.1-1.7-.5-3.5.2-5.3.2-.6 0-1.1.3-1.6.6-.1.1-.2 0-.4 0-.3-.4-.8-.5-1.3-.5-1 0-1.8.2-2.6-.3-.6-.2-.8 0-1 .3-.6.8-1.6 1-2.5.8-.9-.3-1.8-.6-2.9-.3-1.2 1-2.1-1.1-3.1.3-1.6-.8-3 .2-4.6.3-.6 0-1.1-.2-1.6-.6-.7-.8-1.8-.4-2.6-.7a2 2 0 0 0-1.8.5h-.2L58.7.5c-1.3-.2-2.4.7-2.5 2-.2 2.2-.5 5 .8 4.2 9.1-1.2 18.7.7 28.2-.8.4-.1 1 0 1.3.1 2.9 1.5 6 0 8.7.4h1a7 7 0 0 1 3.4.1c.5.2 1 0 1.5-.2 1.5-.8 3.2-.4 4.9-.8l1.3.1c1.8.7 3.8 0 5.5 0 1.7.6 1.1-1 2.5.5 2.5 1 5-.3 7.6.7 6.9-.9 7.5 1.5 7-6.7-5.5 1.8-10.2.3-16.2.8Z"/><path fill="#F2A0AA" d="M39.7.7c-3.8.4-7.9 0-12.3.4A2 2 0 0 1 26 .7c-.7-.5-.5.5-1.8 0C22.9.9 23 0 22.4.5c-.5.3-1 .3-1.5.1-1.7-.5-3.5.2-5.3.2-.6 0-1.1.3-1.6.6-.1.1-.2 0-.4 0-.3-.4-.8-.5-1.3-.5-1 0-1.8.2-2.6-.3-.6-.2-.8 0-1 .3-.6.8-1.6 1-2.5.8-.9-.3-1.8-.6-2.9-.3-1.2 1-2.1-1.1-3.1.3L2 6.3l9.2-.6c.4 0 1 0 1.3.2 2.9 1.5 6 0 8.7.4h1a7 7 0 0 1 3.4.1c.5.1 1 0 1.5-.2 1.5-.8 3.2-.4 4.9-.8h1.3c1.8.8 3.8 0 5.5.1 1.7.6 1.1-1 2.5.5 2.5 1 5-.3 7.6.7 6.9-.9 7.5 1.5 7-6.7-5.5 1.8-10.2.3-16.2.7Zm5411.7 496.8c-5.6 1-10-1-16-1.5-4-.2-8.3-1.3-13.2-1.5-1-1.6-.8.1-2.2-.7-1.5-.2-1-1.3-2.4-.2-2-1.7-4.6-.5-7-1.3-1 .8-.6 1-1.6 0-1.4-.4-2.4 0-3.3-.8-1-.6-1.2.6-1.8 1-1.8 0-2.8-1.4-4.6-1-1.4.6-2-1.5-3.2-.3-1.8-1.2-3.7.3-5.7-.5-.7-2-2.7-.9-3.6-2.2-.2-.1-1 .9-1.3.8l-7-2.2c.1.1 0 .8-.1 1.6v-1.6c-5.5 1-10-1-16-1.5-4-.2-8.3-1.3-13.1-1.5-1-1.6-.8.1-2.3-.7-1.5-.1-.9-1.3-2.3-.1-2.1-1.8-4.7-.6-7.1-1.4-1 .9-.6 1-1.5 0-1.5-.3-2.5 0-3.3-.8-1.1-.6-1.3.7-1.9 1.1-1.8 0-2.8-1.5-4.6-1.1-1.4.7-2-1.5-3.1-.2-1.8-1.3-3.8.2-5.7-.6-.8-2-2.8-.9-3.7-2.2-.2 0-1 1-1.3.8l-7-2.1c.2 0 0 .7-.1 1.5l.1-1.6c-5.6 1-10-1-16-1.5-4-.1-8.3-1.3-13.2-1.4-1-1.6-.8 0-2.2-.7-1.5-.2-1-1.4-2.4-.2-2-1.7-4.6-.5-7-1.4-1 .9-.6 1-1.6 0-1.4-.3-2.4 0-3.3-.7-1-.7-1.2.6-1.9 1-1.7 0-2.7-1.4-4.5-1.1-1.4.7-2-1.4-3.2-.2-1.8-1.2-3.7.2-5.7-.6-.7-2-2.7-.8-3.6-2.2-.2 0-1 1-1.3.9l-7-2.2-.2 1.6.2-1.6c-5.6 1-10-1.1-16-1.5-4.1-.2-8.4-1.4-13.2-1.5-1-1.6-.8 0-2.3-.7-1.5-.2-.9-1.3-2.3-.2-2.1-1.7-4.7-.5-7.1-1.3-1 .8-.6.9-1.6 0-1.4-.4-2.4-.1-3.2-.8-1.1-.6-1.3.6-2 1-1.7 0-2.7-1.4-4.5-1.1-1.4.7-2-1.4-3.1-.2-1.9-1.2-3.8.3-5.7-.5-.8-2-2.8-1-3.7-2.3-.2 0-1 1-1.3.9l-7-2.2c.2.1 0 .7-.1 1.6l.1-1.6c-5.6 1-10-1.1-16-1.5-4-.2-8.3-1.3-13.2-1.5-1-1.6-.8.1-2.2-.7-1.6-.2-1-1.3-2.4-.2-2-1.7-4.7-.5-7-1.3-1 .8-.6 1-1.6 0-1.4-.4-2.4-.1-3.3-.8-1-.6-1.2.6-1.9 1-1.7 0-2.8-1.4-4.6-1-1.3.6-1.9-1.5-3-.3-2-1.2-3.8.3-5.8-.5-.7-2-2.7-.9-3.6-2.2-.3-.1-1 .9-1.3.8l-7-2.2-7.2.6c-.7-.8-1.3-1.7-2.4-1-6.5-1.6-12.1-1.5-18.8-2.5-1.7.2-.6-1.4-2.3-.5-1.3-.2-2.1-1.5-3.1-.4-2.2-1.8-4.8-.5-7.3-1.2-1 .9-.5 1-1.5 0-1.3-.2-2.5.1-3.4-.5-1.3-.5-1.2.7-1.8 1.2-.9-.7-1.5.3-2.5-.1-.7-1.3-2-.7-3-.2-2-.9-4-.4-6.2.2-1.8.8-2.8-1-4.5-1.1-1 .6-.7.4-1.6-.3-4 3-8.1-1.4-8.4 2.2a6 6 0 0 1-.2-1.5c-2.3.7-4.3 1.5-6.8 2.6-1.8-1.3-3.7 0-6 0-3.4 1.6-6.4 2-9.8 2.7-3.5 1.4-6.7 2.8-10.2 2.8-.4 1.4-1.8.7-3.1 1-.3 1.1-1.2 1-2.2 1.3-1.1.2-2.2.6-2.5 1.7-1-.5-2.3 0-3.3.6-3.2-.5-.5 3-6 2-2.6 1.6-5.2 1-7.9 3-1.4.2-2.3-.8-3.8-.8-1.3 1.2-1.3-.9-2.4 1.2h-7.3c.2 0 .3.5.3 1.2-.2-1.1-.7-1.7-1.9-.6-.5-.4-.4-.3-.8.2-1.2 1-2.8.7-4.2 1.5-.9-.5-1.7-1.3-2.5-.4-6.7-.1-12 .9-18.8.6-1.6.4-.7-1.3-2.3-.3-2.1-.7-3.3 0-5.3-1.2-1.5 1.4-4.2-1-5.6.8-.7-.9-2-1-3.1-1-2.3-1.6-2.5 1.4-5 .2-.5-1-1.1-1.1-2.2-.9-1.4.7-1.8-1.5-3-.4-3.2-1.4-4.9.5-7.6-2.8-1 .3-.8.2-1.4-.7-2.5 1.3-5.1-1.5-7.8-2.5 0 .1 0 .6-.3 1.3.2-1.2-.1-2-2.2-1.7-1.6.3-2.9-.6-4.5-.4-.6-.8-1-2-2.1-1.5-5.7-2.9-10.5-4.6-16.5-7.2-2.4-2.3-4.8-3-6.8-5.2-2.1.7-3.1-2.8-5.3-1.8-.9-1.3-3.4-4.5-4.9-2.7l-.3-.8c-2-.4-1-3-3.5-3.2-.4-1-.4-1.9-1.6-1.7-.6-.7-.6-1.7-1.7-1.7-1.2-1-3-1.3-2.7-3.2-.3-1.6-1.9-1.2-1.7-2.8-4.6-.8-4.5-6.1-6.8-4.9l.5-.8c-2-1.2-4-2.3-6.3-3.4-.6-2.8-3.8-4-6-5.8-1.4-1.7-3.9-1.7-4.6-4-3.6-2-7.2-4.2-9.6-7.3-1.3.4-1.6-1.1-2.5-2-1.3.4-2-1-3-1.7-.7 0-.9 0-1.3-.7-1.3.3-.9.6-1.4-.6-1.1-1-2.2-1.1-2.6-2.1-.8-1-1.4 0-2.2.1-1.6-.8-2-2.5-3.7-3-1.6.2-1.2-2-2.8-1.4-1.2-1.8-3.6-1.2-5-2.8 0-2.1-2.3-1.8-2.6-3.4-.2-.1-1.3.5-1.6.3a583 583 0 0 0-5.8-4.6c.2.2-.5 1.2-1.2 2.3.4-1 .9-1.9 1.2-2.3l-7-2c-1-2.6-4.5-3-7-4.3-1.8-1.3-4.1-.8-5.3-2.9-4-1-8-2.5-11-5.1-1.2.7-1.8-.7-2.9-1.4-1.2.7-2-.4-3.2-1-.7.2-1 .1-1.5-.4-1.2.6-.7.8-1.5-.4-1.3-.6-2.3-.6-3-1.4-1-.9-1.4.3-2.1.6-1.7-.4-2.4-2-4.3-2.1-2.8-1.2-5.4-1.5-8.6-2.4-.3-2.1-2.5-1.4-3.2-2.9-.2 0-1.1.8-1.4.7l-6.7-3.3c.1.1 0 .6-.2 1.2l.2-1.2-7.2-.4c-1.1-1.9-3.3-1.6-5.3-2.5-3-.3-6.1-.2-8.3-1.9-3.3.1-6.9-1.1-9.6-1.6-1.3-.2-2-1.6-3.1-.6-1-.8-2.2-1.6-3.2-.6-1.5-.7-3.6-1.3-4.8-.3-.6-.9-2-1.1-3.2-1-1.8-1.1-1.5-.7-2.7.6-2-.1-3.3-1.9-5.4-1-2.4-1.6-5.3 0-8.1-.6-.8-2-2.8-.8-3.8-2.1-.2-.1-1 1-1.2.9l-7.2-1.7v1.2-1.2c-2.4.2-4.6.5-7.1 1.1-2.4-2-6-.7-9.2-1-1.1-.5-.9-.1-1.6.5-1.6-.3-2.8-.8-4.3-.6-4-.2-7.8 1-11.3-.4-.9 1.2-2 0-3.2 0-.7 1-1.5.5-2.5.5-1.2 0-2.4 0-3 1-1-.7-2.3-.6-3.4-.3-3.9-1.2.9 1.7-7.3 1-1.1 1-2.2-.9-3 .6-2.1-.8-3.6 1.1-5.8.9-1.2-1.8-2.9-.2-4-1.3-.3 0-.8 1.2-1.1 1.2l-7.4-.1c.2 0 .3 1.2.4 2.5-.2-1-.5-2-.4-2.5-2.3.8-4.3 1.5-6.7 2.6-2.3-1.3-5 0-7.5.6-4.8 1.2-9.3 1.8-14.6 3.5-1.6-1-.7.4-2.4.2-1.4.4-1.3-.9-2.2.7-2.6-.9-4.5 1.2-7.1 1.3-.7 1.2-.2 1-1.4.6-1.5.2-2.3.8-3.4.4-1.2-.1-.9 1-1.3 1.7-1.7.6-3.2-.3-4.7.6-1 1.2-2.4-.6-3 1-2.2-.5-3.4 1.6-5.5 1.6-1.4-1.6-3 .1-4.2-.8-.3 0-.6 1.2-1 1.3l-7.3.5c.2 0 .4.7.5 1.5l-.4-1.5c-5.1 3.1-9.6 2.6-15.6 4.5-3.8 1.3-8.2 1.8-12.7 3.4-1.6-1.1-.7.3-2.4.1-1.5.4-1.3-.8-2.2.8-2.6-1-4.6 1.2-7.1 1.3-.7 1.1-.2 1-1.5.5-1.4.2-2.2.8-3.3.5-1.2-.2-1 1-1.4 1.7-1.6.6-3-.4-4.6.6-1 1.1-2.4-.7-3 1-2.2-.5-3.4 1.5-5.6 1.5-1.4-1.6-2.8.2-4.1-.7-.3 0-.6 1.2-1 1.2l-7.3.6c.2 0 .3.5.4 1.2-.3-1.1-.9-1.7-2-.5-.5-.3-.4-.3-.7.2-1.2 1.1-2.8 1-4 2-1-.5-1.9-1.2-2.6-.2-6.8.5-12.3 1.9-19.4 2.2-1-1.1-2.5.4-3.8-.8-.8 1.2-1.9 0-3.1-.2-1.4 1.6-4.3-.8-5.5 1.1-.8-.8-2.1-.9-3.2-.7-2.4-1.4-2.4 1.5-5 .5-.5-1.4-2-.8-3-.5-2-1.2-4.3-1-6.7-.7-1.4-.4-1.9-1.7-3.2-2.2-1.1.3-.8.3-1.4-.6-4.5 1.6-6.8-3.4-8.3-1l.2-1c-6 .4-9.7-2-15.9-3-4-.6-8.1-2.2-13-2.8-.8-1.6-.7 0-2.1-.9-1.5-.3-.8-1.4-2.4-.4-1.8-1.9-4.5-1-6.9-2-1 .8-.6 1-1.5-.1-1.4-.5-2.4-.3-3.2-1-1-.8-1.3.4-2 .8-1.7-.2-2.6-1.7-4.4-1.6-1.4.6-1.8-1.6-3.1-.4-1.7-1.4-3.8-.2-5.7-1.1-.5-2-2.6-1.2-3.4-2.6-.2 0-1 .8-1.3.7l-6.8-2.8c-6 .5-9.7-2-15.9-3-4-.5-8.1-2-13-2.6-.8-1.7-.7 0-2-1-1.6-.3-.9-1.4-2.4-.3-2-2-4.6-1-7-2-1 .7-.6.8-1.5-.2-1.4-.5-2.4-.3-3.2-1-1-.8-1.3.4-2 .8-1.7-.2-2.6-1.7-4.4-1.6-1.4.6-1.8-1.6-3.1-.4-1.7-1.4-3.8-.1-5.7-1.1-.5-2-2.6-1.1-3.4-2.6-.2 0-1 .9-1.3.8-2.1-1-4.5-1.8-6.8-2.9-6 .5-9.7-2-15.9-3-4-.5-8.1-2-12.9-2.6-.9-1.7-.8 0-2.2-1-1.5-.3-.8-1.4-2.3-.3-2-2-4.6-1-7-2-1 .7-.6.8-1.5-.2-1.4-.5-2.4-.3-3.2-1-1-.8-1.3.4-2 .8-1.7-.2-2.6-1.7-4.4-1.6-1.4.6-1.8-1.6-3.1-.4-1.7-1.4-3.7-.1-5.6-1.1-.6-2-2.7-1.1-3.5-2.6-.2 0-1 .9-1.3.8l-6.8-2.9c.2.2-.2 1.3-.6 2.6.2-1 .3-2 .6-2.6-2.4 0-4.5-.2-7.2 0-1.8-2.6-5.7-1.9-8.7-3-1-.6-.8-.2-1.7.2-1-1-2.4-.4-3.1-1.6-4.1-.3-8.3-.9-11.7-3-1 .9-1.9-.4-3-1-1 1-2.2 0-3.4-.4-.6.3-.9.3-1.5-.1-1 .7-.6.8-1.5-.2-1.4-.5-2.4-.3-3.2-1-1-.8-1.3.4-2 .8-1.7-.2-2.6-1.7-4.4-1.6-3-.8-5.6-.9-8.9-1.3-.7-2-2.8-1-3.6-2.3-.3 0-1 1-1.3.8l-7.3-2c.2.1.2.6 0 1.3v-1.3c-2.4.2-4.5.5-7.1 1-.8-.6-1.6-1.5-2.6-.7-4.8-1-9.1.7-13.5 0-5 1-9.3 1.2-13.8 1-1 1.2-3.3.8-4.8 1.3-.7 1.2-.2 1-1.5.5-1.2 0-2.2.8-3.4.4-1.3-.1-1 1-1.4 1.7-1-.4-1.3.7-2.4.6-1.6-1.5-2.8 1.4-4.7.5-.4 1-1.3.8-2.3.8-1.3 1.1-3.2 2.6-4.8 1.4-1.5-.4-2 1.1-3.2.3-.3 0-.5 1.3-.8 1.4-2.3.4-4.7 1.1-7.3 1.7.2 0 .4.5.7 1.1-.6-1-1.2-1.5-2-.1-.7-.3-.6-.3-.8.3-1 1.3-2.6 1.4-3.7 2.7-.9-.3-1.9-.8-2.5.3-6.4 1.4-11.3 4-17.9 5.3-1.5.8-1-1-2.3.4-2.3-.3-3.2.8-5.4.2-1.3 1.8-4.1-.2-5.2 2-1.5-.9-3.3 0-5-.4-.6.6-.2 2-1.6 1.2-1.1 1.3-1.9-.4-3-.2-2.6 1.1-4.9-.3-7.6 1-1.8.8-2.7-1.1-4.3-1.4-1 .5-.7.5-1.5-.3-4 2.4-7-2-8.2.3 0-1-.4-1.5-1.7-.8-.4-.5-.4-.4-.8 0-1.5.7-3 0-4.5.5-1.1-1.7-2.9-1-4.7-1.8-5.6 0-9.5-2.1-15.2-2.8-2.8-1.6-5.1-1.8-7.8-3.6-1.7 1-3.7-2.2-5.5-.8-.4-1-1.7-1.5-2.8-1.7-1.7-2.1-2.6.7-4.8-1.2-.1-1.5-1.6-1.4-2.8-1.4-1.4-1.8-3.7-2.3-6.1-2.8-1.2-.8-1.2-2.2-2.4-3.1-1.1 0-.8 0-1.1-1-4.8.1-5.6-5.2-7.8-3.4l.5-1-6.8-2.1c-1-3-5-3.4-7.5-5.2-3.7-1.7-7.2-4.3-11.7-6.2-.4-2-.8-.3-1.8-1.5-1.3-.8-.4-1.6-2.1-1-1.3-2.4-4.2-2.3-6.1-4-1.3.4-.9.7-1.4-.5-1.2-.9-2.2-1-2.8-2-.8-1-1.4.2-2.1.3-1.6-.7-2-2.4-3.9-2.7-1.5.1-1.2-2-2.8-1.4-1.3-1.8-3.6-1.1-5.1-2.6 0-2.1-2.2-1.8-2.6-3.4-.2-.2-1.2.5-1.5.3l-5.7-4.6c-2.3-.8-4.3-1.5-6.8-2.2-1.1-3-5-3.3-7.5-5.2-3.7-1.6-7.3-4.3-11.7-6.2-.4-1.9-.8-.2-1.8-1.5-1.4-.7-.4-1.6-2.2-1-1.2-2.4-4-2.2-6-4-1.3.5-.9.8-1.4-.5-1.3-.9-2.3-1-2.8-2-.8-.9-1.4.2-2.1.4-1.7-.7-2-2.4-3.9-2.8-1.5.2-1.3-2-2.8-1.3-1.3-1.8-3.6-1.2-5.1-2.7 0-2-2.3-1.8-2.6-3.4-.2-.1-1.3.5-1.5.3l-5.7-4.6-6.8-2.1c-1.1-3-5-3.4-7.6-5.3-3.7-1.6-7.2-4.3-11.6-6.2-.4-1.8-.8-.2-1.8-1.5-1.4-.7-.4-1.5-2.2-1-1.3-2.4-4.1-2.2-6-3.9-1.3.4-.9.7-1.5-.6-1.2-.8-2.2-1-2.7-1.9-.8-1-1.4.2-2.2.3-1.6-.7-2-2.4-3.8-2.8-1.5.2-1.3-2-2.9-1.3-1.2-1.8-3.5-1.2-5-2.6 0-2.2-2.3-1.9-2.6-3.4-.2-.2-1.3.4-1.5.3l-5.7-4.6c.1.2-.6 1.1-1.3 2.2.5-1 .9-1.8 1.3-2.2-2.3-.8-4.3-1.5-6.8-2.2-1.1-3-5-3.3-7.6-5.2-.8-.9-.7-.5-1.6-.3-.8-1.3-2.3-1-2.6-2.4a25.4 25.4 0 0 1-10.3-6.2c-1.3.5-1.7-1-2.7-1.8-1.3.6-2-.7-3-1.4-.8.2-1 0-1.5-.5-1.2.4-.8.7-1.4-.6-1.2-.8-2.2-1-2.7-2-.8-.9-1.4.2-2.2.4-1.6-.7-2-2.4-3.8-2.8-1.6.2-1.3-2-2.9-1.3-1.2-1.8-3.5-1.2-5-2.7 0-2-2.3-1.8-2.6-3.4-.2-.1-1.3.5-1.5.3l-5.9-4.5c-2.3-.8-4.3-1.5-6.9-2-1.1-2.6-4.5-3-7.1-4.3-1.7-1.4-4.1-.8-5.3-2.9-4-1-8-2.5-11-5-1.2.7-1.8-.8-3-1.4-1.1.7-2-.5-3.2-1-.7.2-.9.1-1.4-.4-1.2.6-.8.8-1.5-.3-1.3-.6-2.4-.6-3.1-1.4-1-.9-1.4.3-2 .6-1.8-.4-2.5-2-4.4-2-1.4.4-1.7-1.8-3-.8-1.7-1.5-3.8-.4-5.6-1.5-.4-2.1-2.6-1.3-3.3-2.8-.2 0-1.1.8-1.4.7l-6.8-3c.2 0 0 .5-.2 1.2l.2-1.3c-2.4-.2-4.5-.3-7.2-.2-1.9-2.5-5.7-1.9-8.8-2.8-1-.6-.8-.2-1.7.3-1.5-.6-2.6-1.4-4-1.4-4-1-7.9-.4-11.2-2.4-1 1-1.9-.3-3.1-.7-.8.9-1.5.3-2.6.2-1.1-.3-2.3-.5-3.1.4-.8-.9-2.1-1-3.3-.9-3.6-1.9.6 1.8-7.3-.2-3.4-.5-5.3-.2-9-.2-.9-1.9-2.8-.6-3.8-1.8-.2-.1-1 1-1.2.9l-7.3-1.4c.2.2.1 1.2 0 2.5v-2.5c-2.4.5-4.5.8-7 1.5-2.3-1.8-5.5-.6-8.4-.5-2.1-.4-4 1.2-6-.1a28 28 0 0 1-12 .6c-.8 1.3-2 .3-3.3.2-.7 1.2-2 .6-3.3.6-.6.5-.8.6-1.5.4-.8 1.1-.3 1-1.5.4-1.4 0-2.4.6-3.4.2-1.2-.3-1 1-1.5 1.5-1.7.5-3.1-.6-4.8.2-3 .3-5.4 1.3-8.7 2-1.3-1.6-2.9 0-4.2-1-.2 0-.6 1.3-1 1.3l-7.3.5c.1 0 .3.5.4 1.1l-.4-1.1a48 48 0 0 0-6.5 3.1c-2.6-1.2-5.5.6-8.3 1.5-2 .1-3.5 2.2-5.7 1.3a28.2 28.2 0 0 1-11.7 3.5c-.4 1.4-1.8.7-3 1-.4 1-1.3.8-2.3 1.2-1.1.4-2.3.8-2.5 2-1.1-.5-2.4 0-3.4.6-4.1 0 1.5 1.2-6.6 3.2-2.8 1-5 2.4-8 4-1.7-1.3-2.7.8-4.2.2-.3 0-.4 1.3-.6 1.4l-7.1 2.1c.2 0 .7 1.1 1.2 2.4-.6-1-1.1-1.8-1.2-2.4-2 1.5-3.6 2.9-5.6 4.7-2.8-.7-5.1 2-7.6 3.4-2 .6-3 2.9-5.3 2.6a26.6 26.6 0 0 1-10.5 6.2c0 1.5-1.6 1.2-2.8 1.7 0 1.4-1.5 1.5-2.6 2.1-.2.7-.4.9-1.1 1-.2 1.4.2 1-1.2 1-1 .6-1.7 1.6-2.9 1.8-1.2.3-.5 1.3-.6 2-1.3 1.3-3 1-4.2 2.5-2.5 1.6-4.2 3.6-6.7 5.8-2-.8-2.6 1.4-4.1 1.1-.3.2 0 1.4-.3 1.5l-6.4 3.8c.2 0 .5.3 1 .9-.9-.9-1.6-1.1-2 .5-.7 0-.6-.1-.7.5-.5 1.5-2 2.2-2.7 3.7-3.1 0-4.9 3.5-7.5 5.2-1.1.4-.7.5-.9 1.4-1.4.3-1.8 1.8-3.2 1.6-2.7 3-5.7 6-9.4 7.5 0 1.4-1.5 1.2-2.6 1.9 0 1.3-1.4 1.6-2.4 2.3-.1.7-.3 1-1 1.1 0 1.3.3 1-1 1.2-1.3.8-1.7 1.7-2.8 1.9-1.2.3-.4 1.3-.5 2-1.2 1.3-3 1.1-4 2.7-.3 1.5-2.3.5-2.2 2.2-2.1.5-2.4 2.8-4.3 3.7-1.9-.8-2.5 1.4-4 1-.3.1-.1 1.4-.4 1.5-2 1-4.1 2.1-6.5 3 .2 0 .5.5.8 1.1-.7-1-1.4-1.3-2 .3-.7-.2-.5-.2-.6.4-.8 1.5-2.3 1.8-3.2 3.2-1-.1-2.1-.5-2.5.7-6 2.6-10.5 5.8-16.7 8.3-1.4 1-1.2-.9-2.3.7-1.2.4-2.5-.3-2.8 1-2.6-.5-4.4 1.7-6.9 2-.5 1.2 0 1-1.3.6-1.5.3-2.2.9-3.3.6-1.2-.1-.9 1-1.3 1.7-1-.4-1.3.6-2.3.5-1-1-2 0-3 .6-2-.4-3.9.3-5.9 1.3-1.6 1-2.8-.7-4.4-.7-1 .7-.7.6-1.6 0-3.6 2.8-7.2-1-8 1.6-.2-1-.7-1.5-1.9-.5-.5-.5-.3-.4-.7 0-1.4 1-3 .6-4.4 1.3-1.5-1.5-3.5-.5-5.7-1-5.3 1-9.7-.4-15.4-.5-1.7.3-.6-1.3-2.3-.5-.8-.2-1.6-.4-2.2-1-1 1-1.8-.2-3-.6-1.3.8-3.2-.4-4.8-.4-1 .8-.6.8-1.4-.2-1.4-.5-2.4-.3-3.2-1-1-.8-1.3.5-2 .9-.6-.9-1.4-.1-2.2-.7-.4-1.1-1-1.2-2-1.1-1.5.5-1.8-1.7-3.1-.7-3.2-1.8-4.6 0-7.2-3.7-1 .2-.8.2-1.2-.8-2.7 1.1-5-2.2-7.5-3.4l-.4 1.2c.3-1.1 0-1.9-2-1.9-4 0-5.6-3-9-4.7-5-1.8-8.3-5-13.2-8-1.6-.5.1-1.4-1.8-1.4-1-.8-1-2.3-2.4-2-.9-2.4-3.6-2.7-5.2-4.8-1.3.2-1 .5-1.2-.8-1-1.1-2-1.4-2.3-2.5-.6-1.1-1.4-.1-2.2-.1-.2-1-1.3-.8-1.8-1.7.4-1.4-1-1.8-2.2-2.1-.9-2-2.7-2.9-4.7-3.9-1.8-.6-1.3-2.6-2.4-3.9-1.1-.2-.9-.1-1-1.2-4.9-.8-4.5-6.7-7.3-4.5.3-.5.7-.9 1-1a84 84 0 0 0-6.4-3.4c-.5-2.8-3.7-4-6-5.8-1.3-1.7-3.8-1.7-4.3-4a27.3 27.3 0 0 1-9.4-7.7c-1.3.4-1.5-1.1-2.4-2-1.3.3-2-1-2.8-1.9-.8 0-1-.1-1.4-.7-1.3.3-.9.5-1.3-.8-1-1-2-1.2-2.5-2.2-.7-1-1.4 0-2.2 0-1.5-.9-1.7-2.6-3.5-3.2-2.5-2.1-4.4-3-7.4-4.8.3-2.2-2-2-2.2-3.7-.2-.1-1.3.4-1.5.2l-5.3-5.2c0 .3-.7 1.2-1.5 2.2a7 7 0 0 1 1.5-2.2c-2.2-1-4.2-1.9-6.7-2.7-.8-3-4.7-3.7-7.1-5.8-.7-1-.7-.5-1.7-.4-.6-1.3-2.1-1.2-2.4-2.6a26 26 0 0 1-10-6.8c-1.3.5-1.6-1-2.6-1.8-1.3.5-2-.8-3-1.6-.7 0-1 0-1.4-.6-1.2.4-.8.7-1.4-.6-1.2-.9-2.2-1-2.7-2-.8-1-1.4 0-2.2.2-1.5-.7-2-2.4-3.7-2.9-1.6.2-1.3-2-2.8-1.4-1.2-1.8-3.6-1.2-5.1-2.7 0-2.1-2.2-1.8-2.6-3.4-.2-.1-1.3.5-1.5.3l-5.7-4.6c.1.2-.5 1.1-1.3 2.3.5-1 .9-2 1.3-2.3-2.3-.9-4.3-1.5-6.9-2.1-1.2-3-5-3.2-7.7-5-.8-1-.7-.5-1.6-.3-.8-1.3-2.3-1-2.7-2.4-4-1.4-7.9-2.9-10.6-5.8-1.3.7-1.8-.8-2.8-1.6-1.2.6-2-.6-3.1-1.2-.7.1-1 0-1.5-.5-1.2.4-.8.7-1.4-.5-1.3-.8-2.3-.8-2.9-1.7-.9-1-1.4.2-2.1.4-1.7-.6-2.3-2.2-4-2.5-1.6.3-1.5-2-3-1.1-1.4-1.7-3.6-.9-5.3-2.3-.1-2-2.4-1.6-2.9-3-.2-.2-1.2.5-1.4.3l-6.2-4-.4 1.2.4-1.2c-2.4-.6-4.4-1-7-1.4-1.3-2.6-4.7-2.8-7.4-4-1.8-1.1-4.1-.5-5.3-2.5-4-1-8-2.3-11.1-4.8-1.2.7-1.8-.7-3-1.3-1.1.7-2-.4-3.2-1-.7.3-1 .2-1.5-.3-1.1.6-.7.8-1.4-.3-1.4-.7-2.4-.7-3-1.5-1-.9-1.4.3-2.2.6-1.6-.5-2.4-2.1-4.2-2.1-3-1.3-5.1-1.5-8.5-2.5-.3-2.2-2.6-1.5-3.1-3-.3 0-1.2.7-1.5.6l-6.5-3.5c.1.1 0 .6-.2 1.2l.2-1.2c-2.4-.3-4.5-.6-7.1-.7-1.7-2.7-5.6-2.3-8.4-3.6-1-.8-.9-.4-1.8 0-1-1-2.3-.6-3-1.9a26 26 0 0 1-11.5-3.7c-1.1.9-1.8-.5-3-1-1.1.8-2.1-.3-3.3-.8-.6.3-1 .3-1.5-.2-1.1.7-.6.9-1.5-.2-1-.5-2.3-.4-3.1-1.2-1-.8-1.4.4-2 .8-1.8-.3-2.7-1.8-4.5-1.7-1.4.5-1.7-1.7-3-.6-1.8-1.4-3.8-.2-5.7-1.3-.5-2-2.6-1.2-3.3-2.6-.3-.1-1.2.8-1.4.6-2-1-4.4-1.8-6.8-2.8.2.1-.2 1.2-.6 2.5.2-1 .3-2 .6-2.6-2.4 0-4.5-.2-7.2-.1-1.1-2-3.3-1.5-5.4-2.5-1.7.7-3.6-1.6-5-.3-1-1-2.4-.4-3.1-1.6-3.4.2-6.8-1.1-9.6-1.6-3.1-1.6-5.6-1.3-8.6-2.5-.6.4-1 .3-1.5 0-1 .7-.6.8-1.5-.2-1.3-.4-2.4-.2-3.3-1-1-.6-1.3.6-2 1-1.7-.1-2.6-1.6-4.4-1.4-3.3-.8-5.4-.7-8.9-1.1-.6-2-2.7-1-3.5-2.4-.2-.1-1 .8-1.3.7l-7-2.4c.2.2 0 1.3-.4 2.6.1-1 .2-2 .4-2.6-2.4 0-4.5.1-7.1.4-1.3-1.9-3.5-1.3-5.6-2-1.7.8-3.7-1.4-5 0-1.1-1-2.5-.3-3.3-1.4-3.3.4-6.9-.7-9.7-1-3.1-1.3-5.6-.9-8.7-1.8-1.6.7-4.5 0-6.3-.8-1.1-.6-1.2.6-1.9 1-1.7 0-2.8-1.3-4.6-1-1.3.8-2-1.4-3.1-.1-1.9-1.2-3.8.3-5.8-.4-.7-2-2.7-.9-3.7-2.2-.2 0-1 1-1.2.9l-7.1-2c.2.1 0 1.3-.3 2.6 0-1.1 0-2.1.3-2.6-2.4.1-4.5.3-7.1.8-2.3-2.3-6-1-9-1.7-1.1-.5-1-.1-1.7.4-1.6-.4-2.7-1-4.2-.9-4-.5-7.8.1-11.2-1.6-1 1-1.9-.1-3.2-.4-.7 1-1.4.3-2.5.3-1.1-.2-2.3-.3-3 .6-.8-.9-2.2-1-3.4-.8-3.7-1.7.7 1.9-7.3 0-3.2-.5-5.3-.2-8.8-.2-1-2-2.8-.6-3.8-1.9-.3 0-1 1-1.3 1l-7.2-1.6c.3.2.1 1.3 0 2.6V2.1c-2.4.3-4.4.6-7 1.2-1.5-1.7-3.6-.8-5.8-1.4-1.6 1-3.8-.9-5 .6-1.2-.7-2.4.1-3.3-.9-3.3.8-7 .1-9.8.1-3.3-1-5.7-.2-8.8-.8-1 .8-5.2.4-6.4 0-1.2-.6-1.2.7-1.8 1.2-1.7.1-3-1.1-4.7-.6-1.2 1-2-1.1-3.1.2-2-1-3.7.8-5.7.2-1-1.8-2.9-.5-4-1.7-.2 0-.8 1-1.1 1l-7.3-1.2c.3.1.2 1.3 0 2.6V0l-7 1.4c-2.4-2-6-.4-9-.7-1.2-.4-1 0-1.7.5-1.3-.7-2.4.2-3.4-.8-4.1.6-8.3 1-12-.3-1 1.2-2 0-3.3-.1-.8 1.1-2 .4-3.3.3-.7.8-5.4.6-6.3.1-1.2-.4-1.2.8-1.8 1.3-1.7.2-3-1-4.7-.5-1.2 1-2-1.1-3.1.3-2-1-3.6.8-5.7.3-1-2-2.9-.5-4-1.7-.2 0-.8 1-1 1l-7.3-1.2c.1.1.1.8 0 1.6V0c-5.5 1.8-10.1.3-16.2.8-4 .4-8.4-.2-13.2.4-1.2-1.5-.8.2-2.3-.4-1.5 0-1-1.2-2.4.1-2.3-1.4-4.6.2-7.2-.3-.8 1-.4 1-1.5.2-1.4-.1-2.4.3-3.3-.3-1.2-.5-1.2.8-1.7 1.3-1.8.2-3-1-4.8-.5-1.2 1-2-1.1-3 .3-2-1-3.7.8-5.8.2-1-1.8-2.8-.4-4-1.6-.2 0-.8 1-1 1l-7.3-1.2c.1.1.1.7 0 1.6V-.1c-5.4 1.8-10 .3-16.1.8-4 .4-8.4-.2-13.2.4-1.3-1.5-.8.1-2.4-.4-1.5 0-1-1.2-2.3.1-2.3-1.4-4.7.2-7.3-.3-.8 1-.3 1-1.5.2-1.4-.2-2.3.3-3.3-.3-1.2-.5-1.2.8-1.7 1.3-1.8.2-3-1-4.7-.5-1.3 1-2.1-1.1-3.2.3-2-1-3.6.7-5.7.2-1-1.8-2.8-.4-3.9-1.7-.2 0-.9 1.1-1.2 1l-7.2-1.1c.2 0 .1.7 0 1.6V-.1c-5.4 1.8-10 .3-16.1.7-4 .5-8.4 0-13.2.4-1.3-1.4-.8.2-2.3-.3-1.6 0-1.1-1.2-2.4.1-2.3-1.4-4.7.2-7.2-.3-.9 1-.4 1-1.5.2-1.5-.2-2.4.2-3.4-.3-1.2-.5-1.1.8-1.7 1.3-1.7.2-3-1-4.7-.5-1.3 1-2.1-1.1-3.1.3-2-1-3.7.7-5.8.2-1-1.9-2.8-.5-3.9-1.7-.2 0-.8 1.1-1.1 1l-7.3-1.1c.2 0 .2.7.1 1.6V-.1c-5.5 1.8-10.2.3-16.2.7-3.8.4-7.9 0-12.4.4a2 2 0 0 1-1.3-.4c-.7-.5-.5.5-1.8 0-1.3 0-1.2-.7-1.9-.3-.4.3-.9.3-1.4.1-1.7-.5-3.5.2-5.3.2-.6 0-1.1.2-1.6.6-.1.1-.2 0-.4 0-.3-.4-.8-.6-1.3-.5-1 0-1.8.2-2.6-.3-.6-.2-.9 0-1 .3-.6.8-1.6 1-2.5.8-1-.3-1.8-.6-2.9-.3-1.2 1-2.1-1.1-3.1.3-1.6-.8-3 .2-4.6.3-.6 0-1.1-.2-1.6-.6-.8-.8-1.8-.4-2.6-.7a2 2 0 0 0-1.8.5h-.2l-4.7-.7c-.4 0-.8 0-1.2.2l.1-.5-7 1.4c-2.4-2-6-.4-9.1-.8-1.2-.3-1 0-1.6.6-1.3-.7-2.5.2-3.5-.8-4 .6-8.3 1-12-.3-.9 1.2-2 0-3.2-.1-.8 1-2.1.4-3.3.3-.7.8-5.4.6-6.4.1-1.2-.5-1.1.8-1.7 1.3-1.7.2-3-1-4.7-.5-1.3 1-2.1-1.1-3.1.3-2-1-3.7.8-5.8.2-1-1.8-2.8-.4-3.9-1.6-.2 0-.8 1-1.1 1l-7.3-1.2c.2.1.2.7.1 1.6V-.1c-5.5 1.8-10.2.3-16.2.8-4 .4-8.4-.2-13.2.4-1.3-1.5-.8.1-2.3-.4-1.6 0-1.1-1.2-2.4.1-2.3-1.4-4.7.2-7.2-.3-.9 1-.4 1-1.5.2-1.5-.2-2.4.3-3.4-.3-1.1-.5-1.1.8-1.7 1.3-1.7.2-3-1-4.7-.5-1.2 1-2.1-1.1-3.1.3-2-1-3.7.7-5.7.2-1-1.8-2.9-.4-4-1.7-.2 0-.8 1.1-1.1 1l-7.3-1.1c.2 0 .2.7.1 1.6V-.1c-5.5 1.8-10.1.3-16.2.7-4 .5-8.4 0-13.2.4-1.2-1.4-.8.2-2.3-.3-1.5 0-1.1-1.2-2.4.1-2.3-1.4-4.7.2-7.2-.3-.9 1-.4 1-1.5.2-1.5-.2-2.4.2-3.3-.3-1.2-.5-1.2.8-1.8 1.3-1.7.2-3-1-4.7-.5-1.2 1-2-1.1-3.1.3-2-1-3.6.7-5.7.2-1-1.9-2.9-.5-4-1.7-.2 0-.8 1.1-1 1l-7.4-1.1c.2 0 .2.7.2 1.6l-.2-1.6c-5.4 1.8-10 .3-16 .7-4 .4-8.5-.1-13.3.4-1.2-1.4-.8.2-2.3-.4-1.5 0-1-1.1-2.4.2-2.3-1.4-4.6.2-7.2-.3-.8 1-.4 1-1.5.2-1.5-.2-2.4.2-3.3-.3-1.2-.5-1.2.8-1.7 1.3-1.8.2-3-1-4.8-.5-1.2.9-2-1.1-3 .3-2-1-3.7.7-5.8.2-1-1.9-2.9-.5-4-1.7-.2 0-.8 1-1 1l-7.3-1.1c.1 0 .1.7 0 1.6V-.1c-5.4 1.8-10 .3-16.1.7-3.8.4-8 0-12.4.3a2 2 0 0 1-1.4-.4c-.6-.4-.5.6-1.8.1-1.2 0-1.2-.7-1.8-.3-.4.3-1 .3-1.4.1-1.7-.5-3.5.2-5.3.2-.7 0-1.2.2-1.7.6h-.3a2 2 0 0 0-1.3-.6c-1 0-1.8.2-2.6-.2-.6-.2-.9 0-1.1.3-.5.8-1.5 1-2.4.8-1-.3-1.8-.6-3-.3-1.2 1-2-1.1-3 .3-1.7-.8-3 .2-4.7.3-.5 0-1-.2-1.5-.6-.8-.8-1.8-.5-2.7-.7a2 2 0 0 0-1.8.5h-.2l-4.7-.7c-1.2-.2-2.4.7-2.5 2-.2 2.2-.4 5 .9 4.2 9-1.2 18.6.7 28.1-.9.5 0 1 0 1.4.2 2.8 1.4 5.9 0 8.6.4h1a7 7 0 0 1 3.4 0c.5.2 1 .1 1.5-.1 1.5-.9 3.3-.4 5-.8h1.2c1.9.8 3.8 0 5.6.1 1.7.6 1-1 2.5.5 2.5 1 5-.3 7.5.6 4.4-.5 6.3.3 6.9-1.2 0 1 .3 1.6 1 1.2 9.3-1.2 19.1.8 29-1 3 2 6.5 0 9.6.8 1.4-.5 3.1-.4 4.7.3 1.8-1.7 4.2-.7 6.3-1.5 2 1.2 4.2.2 6.2.3 1.7.6 1-1 2.5.5 2.5 1 5-.3 7.5.6 4.4-.5 6.3.3 6.9-1.2 0 1 .3 1.6 1 1.2 9.3-1.2 19.1.8 29-1 3 2 6.5 0 9.6.8 1.4-.5 3.1-.4 4.7.3 1.8-1.7 4.2-.7 6.3-1.5 2 1.2 4.2.2 6.2.3 1.6.6 1-1 2.5.5 2.4 1 5-.3 7.5.6 4.4-.5 6.2.3 6.9-1.2 0 1 .2 1.6 1 1.2 9.3-1.2 19.1.8 28.9-1 3.2 2 6.6 0 9.7.8 1.4-.5 3.1-.4 4.7.3 1.8-1.7 4.1-.7 6.3-1.5 2 1.2 4.2.2 6.2.3 1.6.6 1-1 2.5.5 2.4 1 5-.3 7.5.6 4.4-.5 6.2.3 6.8-1.2 0 1 .3 1.6 1 1.2 9.4-1.2 19.2.8 29-1 3.2 2 6.6 0 9.7.8 1.4-.5 3.1-.4 4.7.3 1.8-1.7 4.1-.7 6.3-1.5 2.3 1.4 4.6-.2 7 .5 3.8.4 8.9 1.4 13.3.4 1.3.9 2 .9 2.4.4 9-1 18.6.8 28-.8.5 0 1 0 1.4.2 2.8 1.4 5.9 0 8.6.4h1a7 7 0 0 1 3.4 0c.5.2 1 .1 1.5-.1 1.5-.9 3.3-.4 5-.8h1.2c1.9.8 3.8 0 5.6.1 1.6.6 1-1 2.5.5 2.4 1 5-.3 7.5.6 4.4-.5 6.3.3 6.9-1.2 0 1 .3 1.6 1 1.2 9.3-1.2 19.1.8 29-1 3 2 6.5 0 9.6.8 1.4-.5 3.1-.4 4.7.3 1.8-1.7 4.2-.7 6.3-1.5 2 1.2 4.2.2 6.2.3 1.6.6 1-1 2.5.5 2.4 1 5-.3 7.5.6 4.4-.5 6.2.3 6.8-1.2.1 1 .3 1.6 1 1.2 9.4-1.2 19.2.8 29-1 3.2 2 6.6 0 9.7.8 1.4-.5 3.1-.4 4.7.3 1.8-1.7 4.1-.7 6.3-1.5 2 1.2 4.2.2 6.2.3 1.6.6 1-1 2.5.5 2.4 1 5-.3 7.5.6 4.4-.5 6.2.3 6.8-1.2 0 1 .3 1.6 1 1.2 9.4-1.2 19.2.8 29-1 3.1 2 6.6 0 9.7.8 1.4-.5 3.1-.4 4.7.3 1.8-1.7 4.1-.7 6.3-1.5 2 1.2 4.2.2 6.1.3 1.7.6 1.1-1 2.5.5 2.5 1 5-.3 7.6.6 4.4-.5 6.2.3 6.8-1.2 0 1 .3 1.6 1 1.2 9.4-1.2 19.2.8 29-1 3.1 2 6.6 0 9.7.8 1.4-.5 3.1-.4 4.7.3 1.8-1.7 4.1-.7 6.3-1.5 2.3 1.4 4.6-.2 7 .5 3.8.4 8.9 1.4 13.3.4 1.7 1.2 2.5.8 2.8-.2 0 .7.3 1.1.9.7 9.3-1 19.1 1 29-.5 3 2.1 6.5.2 9.6 1a7 7 0 0 1 4.6.5c2-1.6 4.2-.5 6.4-1.3 2.3 1.5 4.6 0 7 .7 3.7.7 8.8 2 13.3 1.1 1.6 1.2 2.4 1 2.7 0 0 .7.3 1 .9.7 8.6-.8 17.4 1.6 26.4 1.2 2-1.4 3.5 1 5.6 1 1.9-.8 3.8.6 5.6-.2 1.8.8 3.7-.2 5.5 1 1.4-.6 3.3-1.2 4.8-.4 7.3-.4 14 3.2 21.8 2.4 1.6 1.4 2.3 1 2.7.1 0 .8.2 1.2.8.9 9.4 0 19 3 28.9 2.6 2.8 2.4 6.5 1 9.4 2.1a7 7 0 0 1 4.6 1c1.3-.8 2.6-.6 4.1-.8 7.5 1 14.1 4.2 22.3 4.4 1.4 1.4 2.2 1.2 2.7.2 0 .8.1 1.2.8.9 8.8 0 17.7 4.8 27 4 3.6 2.1 7.3 2.3 10.8 3.3 1.5-.2 3.2.3 4.5 1.2 1.4-.6 2.6-.3 4.2-.4 7.3 1.5 13.8 5 21.9 6 1.3 1.5 2.2 1.3 2.7.4-.1.7 0 1.1.7.9 8.8.5 17.3 6.1 26.6 6 3.5 2.4 7.1 2.9 10.6 4 1.4 0 3 .6 4.4 1.7 1.4-.6 2.6-.2 4.1-.1 2.8 1.4 6 1.8 8.8 3.1 1.9.5 3.6 2.5 6.2 2.5 5.1 1.8 7.5 4 9.2 2-.4 1.1-.4 1.9.5 1.6 8.7 1.5 16.9 7.5 26 8.3 3.2 2.7 6.8 3.4 10.1 5 1.5 0 3.1.7 4.3 1.9 1.5-.5 2.6 0 4.1.3 2.7 1.7 5.8 2.4 8.5 3.9 1.8.7 3.4 2.8 6 3 4.9 2.2 7 4.8 8.9 3-.4 1-.5 1.7.3 1.5 8.7 2.1 16 9 25.2 10.6 3 3 6.5 4 9.7 5.9 1.4.2 3 1 4 2.3 1.5-.3 2.6.3 4.1.6 6.7 3.4 12 8.5 19.6 11.4 1 1.9 1.7 1.9 2.5 1.2-.3.7-.3 1.1.4 1 8.7 3.6 16.1 10.4 25.4 14 1.6 3.3 5.5 3.5 7.7 5.8 1.4.3 2.8 1.3 3.8 2.7 1.5-.2 2.6.6 4 1 6.4 4 11.1 9.6 18.4 13.3.8 1.9 1.6 2 2.4 1.3-.4.7-.4 1.1.3 1.2 8 3.7 14 11.8 22.7 15.1 3.3 5.1 8.5 6.3 12 10.7 1.5.1 3.4.6 4.3 2.1 6.2 3.8 9.8 10.3 16.7 14.2.5 1.9 1.3 2.1 2.2 1.6l-.5.6.7.5c7.3 4.6 13 11.8 20.4 17 2.7 0 2.1 4 4.7 4.5.2 1 1 1 1.9 1.4.3.9.8 1.6 1.9 1.5.4.8.4.9 1.4 1 .4 1 0 1 1.2 1.1 1 1.3 1.9 2.3 3.5 2 1.4 1 2.5 2.1 4.1 2.4 5.6 5.4 12.7 8.9 19.8 13 0-.5.3-1 .6-1.6-.5 1.1-.7 2 .2 1.8 6.8 2.2 13 5.3 20.2 7.5 1.3-.2 2.7.3 3.8 1 2.5-.7 4.4.2 6.4 1.7 2.6.4 5 .4 7.3 1.2 2.2-.8 4.5 1.8 6.6.1 4.3.1 8.4 1.4 12.6.7 4.4 2.7 10.6.1 15.6 1-.2-.2-.2-.8-.2-1.5l.2 1.5 1-.1c7.9-1.6 16-1.7 24.2-4.3 1.2.3 2.2-.8 3-1.5 1.8-.8 4.2.8 5.7-1 1.5.5 1.7-1.4 3.3-.7 1.4-.4 2.2-1.8 3.8-1.4.9-1.4 3-.3 3.7-1.7 1-1.8 3.4-1.5 4.6-3.1 3.4.4 5.2-3.4 8.3-3 4.7-1.4 8.6-5 13-7-.2-.1-.6-.7-1-1.5.7 1.2 1.4 1.8 1.8 1 6.5-6.1 15.8-10.2 21.2-17.9 4-1.8 7.1-4 9.6-7.3 1-.2.9.1 1.3-1 1-.6 2.3-.6 2.6-1.9.3-1.6 2.1-2.2 3.1-3.5 6.1-4.6 12.6-9.2 19.2-14.3-.3 0-.8-.6-1.3-1.3.9 1 1.6 1.7 2 .7 5.7-6.8 15-10.3 20.8-17.5 4-1.2 6.5-3.6 9.7-5.5.9-1.2 2.4-2 4-2.3.6-1.4 1.7-2 2.7-3.2 6.3-4 13.4-5.8 20-10.4 2 .2 2.5-.4 2.3-1.5.4.7.8.9 1.1.3 7.1-5.3 17.1-6.5 24.4-12 4.2-.2 7.2-2.1 10.8-3a6.8 6.8 0 0 1 4.5-1.3c.8-1.3 2-1.7 3.3-2.5 3.1-.3 5.9-1.8 9-2.4.7-1 1.5.1 2.5 0 1.7 0 3-1.4 4.8-1.2 4.8-1.5 7.6-.9 8-3.1.3 1 .6 1.7 1.2 1 7.9-3 17.2-2.9 25.8-5.1 2.5-1.9 6 1 8.7-1.1 1.4.6 2.7 0 4-.5 1 .4.7.6 1.6 0 2.2.7 3.3-.5 5.3-1 7-1 13.4.3 21 .3 3.4 0 4.6 0 5-1 0 1 .3 1.5 1 1 8.5-1 17.3 1.4 26.2 1.2 2.1-1.3 3.4 1.1 5.5 1.3 1.7-.3 3.2-.1 4.8.5 2-.4 4.2 0 6.1 1 1.4-.7 2.6-.4 4.1-.6 3 1.1 6 1.2 9 2.1 2 .3 4 2.1 6.4 1.9 5.4 1.3 7.8 3.4 9.3 1.3-.3 1-.2 1.8.6 1.5 9.3 1.3 18 6.2 27.6 7.9 2.3 2.9 6.1 2.4 8.7 4.2 1.4.1 3 .8 4.2 2 1.4-.4 2.5.2 4 .4 2.6 1.8 5.7 2.5 8.4 4.2 1.7.8 3.2 3 5.7 3.3 4.8 2.5 6.7 5.3 8.6 3.6-.5 1-.6 1.7.2 1.6 8.3 2.7 15.4 10.4 24.3 12.6 4 4.6 9.3 5 13.3 9 1.6 0 3.5 0 4.6 1.5 6.8 2.7 11.4 8.6 18.8 11.2 1 1.8 1.8 1.9 2.5 1.1-.3.7-.2 1.2.5 1.1 8.3 3 15.2 10.5 24.2 12.7 2.8 3.2 6.3 4.4 9.4 6.4a7 7 0 0 1 4 2.6c2.4-.5 3.8 1.5 6.1 1.8 1.2 2.1 3.6 2.3 5.2 3.4 1.2 1.3 1.5-.3 2 1.7 1.6 2 4.4 2.2 6.2 4.3 4 1.8 5.3 3.3 6.5 2.3-.4 1-.5 1.6.3 1.5 8.3 3 15.3 10.4 24.3 12.7 2.8 3.2 6.2 4.4 9.3 6.4a7 7 0 0 1 4 2.6c2.4-.5 3.9 1.5 6.2 1.8 1.1 2.1 3.5 2.3 5.2 3.4 1.1 1.3 1.4-.3 1.9 1.7 1.7 2 4.5 2.1 6.2 4.3 4.1 1.7 5.3 3.3 6.6 2.3-.5.9-.6 1.5.2 1.5 8.4 3 15.3 10.4 24.3 12.7 2.8 3.1 6.3 4.4 9.4 6.4a7 7 0 0 1 4 2.6c2.3-.6 3.8 1.5 6.1 1.8 1.1 2 3.6 2.3 5.2 3.3 1.2 1.4 1.4-.3 2 1.8 1.6 2 4.4 2.1 6.2 4.3 4 1.7 5.2 3.2 6.5 2.3l-.5 1 .8.4c6.3 2.5 11.6 6.9 18 9.8 2.8 1.8 6.5 1.6 9 3.6 2.3 2.4 5.8 2 8.3 3.5 2.3-.4 4.1 2.6 6.5 1.3 4.3.7 8 2.7 12.3 2.6 3.9 3.5 10.5 2 15.3 3.6-.2-.2-.1-.8 0-1.5v1.5h.8c8.4 0 16.7.5 25.5 0 2.6-2.5 5.6.2 8.2-1.2 1.3.6 2.1-1.1 3.3-.3 1.5-.2 2.6-1.3 4-.7 1.1-1.3 3 .1 4-1.1 2-1.6 4.8-2 7.5-2.3 5.4-2.5 12-1.8 17.4-5.8 1 0 2-.1 2.8-.5l-.8-1.6c.5 1.2 1 2 1.6 1.2 7.4-4.9 17.3-5 25.2-9.3 4.2.5 7.4-.8 11-1.1 1.3-.7 3-.8 4.7-.3 1-1 2.2-1.2 3.7-1.7 3 .4 6.1-.4 9.2-.1 1.8-.2 4.1 1.3 6.5.4 5.5.4 8.2 2 9.3-.3 0 1.1 0 1.9.8 1.4 8.8-.7 17.7 4.3 26.7 4 3.6 2.2 7.2 2.4 10.8 3.5 1.5-.2 3.2.3 4.5 1.3 2.2-1.2 4.2.4 6.5 0 6.3 2.2 12.4 4.8 19.6 5.6 1.4 1.5 2.2 1.3 2.7.4 0 .8 0 1.2.7 1 8.9.5 17.6 5.6 27 5.3 3.5 2.2 7.2 2.4 10.7 3.5a7 7 0 0 1 4.5 1.3c2.2-1.2 4.2.4 6.5 0 1.7 1.7 4 1.2 6 1.8 1.4 1 1.2-.7 2.2 1 2.2 1.5 5 .9 7.2 2.4 4.4.5 6 1.7 7 .4-.2 1-.1 1.6.6 1.3 8.9.6 17.6 5.7 26.9 5.4 3.6 2.2 7.2 2.4 10.8 3.5a7 7 0 0 1 4.5 1.3c2.2-1.2 4.2.4 6.5 0 1.6 1.7 4 1.2 5.9 1.8 1.5 1 1.3-.7 2.3 1 2.2 1.5 4.9.9 7.2 2.4 4.4.5 6 1.7 7 .4-.3 1-.2 1.6.6 1.3 8.9.6 17.6 5.7 26.9 5.4 3.6 2.2 7.2 2.4 10.8 3.4a7 7 0 0 1 4.5 1.4c2.2-1.2 4.2.4 6.4 0 1.7 1.7 4 1.2 6 1.8 1.4 1 1.3-.7 2.3 1 2.2 1.5 4.9.9 7.2 2.4 4.3.5 6 1.7 6.9.4l-.2 1.2.9.1c7 1 13.6 3 21 4 2.2-.7 4.4 1.1 6.5-.4 2 0 3.7 2.2 5.7 1.1 1.2 1 2.3-.7 3.4.4 1.4 0 2.7-.9 4 0 1.3-1.1 3 .7 4-.5 1.6-1.2 3.8-.2 5.5-1.3 2.5 1.3 4.6-.6 7.1-.2 1.5-.8 3.4 1.4 5.1-.3 3.9.3 7.4-1.6 11.3-1.7-.3-.2-.4-.8-.6-1.7.3 1.3.8 2.2 1.4 1.5 8.8-3.3 18.9-3.6 28-7.6 3.5 1.2 6.4-1.5 9.6-1.5a7 7 0 0 1 4.6-.8c1.4-2 4-1.6 5.8-3 2.3.8 4.1-.7 6-1 1.8.2 1-1.2 2.6 0 2.7.2 4.8-1.6 7.5-1.2 4.2-1.5 6.2-1.2 6.4-2.8.3 1 .6 1.5 1.2 1 8.2-3.6 18.2-3 26.4-7.4 6 .7 10.2-2.7 15.8-2.6 1.1-1 2.7-2.2 4.4-2 6.8-2.5 14-1 21.5-3.7 1.8.9 2.5.4 2.6-.6.2.7.5 1 1 .6 8.4-2.9 18.2-1 26.9-4 4 1.1 7.6.2 11.2.3a7 7 0 0 1 4.7.2c1.1-1 2.4-1 3.9-1.5 3 .6 6.2.1 9.3.4 1-.8 1.4.6 2.4.7 1.7.5 3.3-.4 5 .3 5 0 7.5 1.4 8.5-.7 0 1 .2 1.8.9 1.4 8.8-1 18 3 27.1 1.9 3.7 1.9 7.4 1.9 10.9 2.7 1.4-.2 3.1.2 4.5 1.2 1.4-.8 2.6-.5 4.1-.6 2.7 1 5.6 1.7 8.3 2 2.4.8 4 2.4 7 2.5 5.2 1.5 7.7 3.6 9.3 1.5-.3 1.1-.3 1.9.5 1.6 9.3 1.5 17.9 6.6 27.5 8.3 2.2 3 6 2.6 8.6 4.4 1.5 0 3 .8 4.2 2 1.5-.3 2.6.2 4.1.5 6.9 3 12.4 7.7 20 10.6.9 1.8 1.7 1.8 2.4 1-.2.7-.2 1.1.5 1 8.7 3.6 16 10.3 25 14.1 1.6 3.4 5.5 3.8 7.6 6.1a7 7 0 0 1 3.6 3c1.6-.2 2.5.7 4 1.2 2 2.4 4.9 3.7 7.1 6 1.5 1 2.5 3.6 4.9 4.4 4 3.5 5.4 6.5 7.6 5.3l-.8 1.2.7.5c10 7 18.1 19 29.8 23.9 1.3 1.5 3.4 1.4 4.6 3.3 1.6 0 3.6.1 4.7 1.4 2.8.9 5.2 2.6 7.9 3.7 1.7 0 2.2 2.9 4.5 2.3 3.2 2.4 7.2 2.5 10.5 4.5 0-.5.2-1 .4-1.6-.4 1.2-.4 2 .5 1.8 8.3 1.4 16.6 5.2 25.6 5.5 3-.8 5.3 1.5 8.1 1.5 3.3 0 6.3-.2 9.7.8 3.5-1.9 8.1-.7 11.9-.8 1.5-.1 2-1 3.3.2 4.8.6 9.9-1 14.7-.9-.2-.2-.3-.9-.3-1.7.2 1.3.5 2.2 1.2 1.5 8.5-2.7 19-2.1 26.8-7.3 5.5 0 9.4-2.8 14-4 2.3 0 3.2-2.8 5.7-2.5 6.5-3 13.7-1.7 21-4.3 1.8 1 2.5.5 2.7-.5l.1.8.9-.2c9-2.3 18.8-.5 28.4-1.6 2.9 2.3 6.4.7 9.3 1.8a7 7 0 0 1 4.6 1c1.3-.8 2.6-.6 4.1-.8 7.5 1 14.3 3.9 22.4 3.9 1.6 1.4 2.3 1.1 2.8.1 0 .8.1 1.2.8.9 8.8-.3 18 4 27.2 2.8 3.8 2 7.5 1.8 11 2.5a7 7 0 0 1 4.7 1c2-1.5 4.2-.1 6.4-.7 1.9 1.6 4.2.8 6.1 1.2 1.5.8 1.2-.8 2.4.9 2.3 1.2 5 .4 7.4 1.7 4.4 0 6.1 1 7-.3-.2 1 0 1.7.7 1.3 9.4.1 19 3.6 28.9 3.1 2.8 2.5 6.5 1 9.4 2.2a7 7 0 0 1 4.6.9c2.1-1.4 4.3 0 6.5-.6 1.8 1.5 4.1.8 6 1.2 1.6.8 1.3-.8 2.5.9 2.3 1.2 5 .3 7.4 1.7 4.4 0 6 1 6.9-.3-.1 1 0 1.6.8 1.3 8.8-.3 18 4 27.2 2.8 3.8 1.9 7.5 1.7 11 2.4a7 7 0 0 1 4.7 1c2-1.4 4.2 0 6.4-.6 1.9 1.5 4.2.8 6.1 1.2 1.5.8 1.2-.8 2.4.9 2.3 1.2 5 .3 7.4 1.6 4.4.1 6.1 1.1 7-.3-.2 1 0 1.7.7 1.3 9.4.2 19 3.6 28.9 3.2 2.8 2.4 6.5 1 9.4 2.1a7 7 0 0 1 4.6 1c2.1-1.4 4.3 0 6.5-.6 1.8 1.5 4.1.8 6 1.1 1.6.9 1.3-.7 2.5 1 2.3 1.2 5 .3 7.4 1.6 4.4.1 6 1.1 6.9-.3 0 1 0 1.7.8 1.3 8.9-.3 18 4 27.2 2.8 3.8 2 7.5 1.8 11 2.5a7 7 0 0 1 4.7 1c2-1.5 4.2-.1 6.5-.7 1.8 1.6 4 .8 6 1.2 1.6.9 1.2-.8 2.4.9 2.3 1.2 5 .4 7.4 1.7 4.7 0 6.3 1.2 7-.5 0 1.9 1.5 1.4 6.5.8a10 10 0 0 0-5.7-6Zm-365.1-49.3c0-1 .1-2 .3-2.6.3.2 0 1.3-.3 2.6Z"/><path fill="#fff" d="M5233.5 355.3c9.8-18.5 40-17 55.8-22l16.2 100.7c-42.6 7.2-37.8-.5-70-23.5-2.6-14.9-6.8-46.8-2-55.3Z"/><path fill="#FFC83F" d="M5295.8 365.6c-3.4-13.8-2.5-9.8 9.5-10l-9.5 10Zm15.9 11.8-14.6-4.1c1.6 12.5 4.1 5.7 14.6 4Z"/><path fill="#E91315" d="M5274.3 359c4.5-.6 3.4-7.7-1.1-7-4.6.7-3.5 7.8 1 7Z"/><path fill="#E91315" d="M5273.4 352.6c2.4-.5 3.8 2.2 3.2 4.3-.5.7-1.4 1.5-2.4 1.5.2.4-.1 1.6.6 1 2.5-.8 3.7-3.8 2.4-6l-2.4-1.8c-1 0-2.3-.6-1.4 1Z"/><path fill="#E91315" d="M5274 358.5c-2.2.5-3.6-2-3.3-4 .4-1 1.4-1.8 2.6-1.9-.2-.3 0-1.6-.6-1-2.3.8-3.8 3.5-2.6 5.7.3 1.2 5.3 3.9 4 1.2Zm-42.9-18.4c15.7-5.6 32.9-9.3 47.8-16-3-9-29-28-32-9.8-9-9.5-35.6-8.8-26.5 9.2-20.5-3-9.6 24.1 10.7 16.6Z"/><path fill="#E91315" d="M5234.3 309c2.6.2 5.1 1.6 7.6 2.5 1.5.2 3.4 3.7 4.4 1.6-2.4-1.1-5-3.6-7.6-3.8-1.1-.3-5.1-2.8-4.4-.4Z"/><path fill="#E91315" d="M5222.4 311c3.3-2.6 7.7-3.2 11.8-2.1.3-1.2 0-1.3-1.1-1.1a11 11 0 0 0-5.4-.1c-1 .2-8 2.1-5.3 3.2Z"/><path fill="#E91315" d="M5220.2 321.8c-4.3-8.8 3.6-10 1.4-11.7-2.2 2-4.4 5.3-3.4 8.2.1 1 .7 5.6 2 3.5Z"/><path fill="#E91315" d="M5210.1 329.8c0-4.5 4.6-7.4 8.8-6 1.1-2.5-5.6-1-6.6 0-1.4.4-5 7-2.1 6Z"/><path fill="#E91315" d="M5217.3 339.2c-9.8-4.2-5.6-9.8-8.4-9.3.2 2.7 1.2 5.6 3.3 7.3 1 .5 5.6 4.8 5 2Z"/><path fill="#E91315" d="M5230 339.9c-2.8 1-5.9.8-8.8.8-1.4 0-3.8-2.4-4.2-.3 2.5.7 5.3 1.6 8 1.4 1-.5 7-.2 5-2Z"/><path fill="#E91315" d="M5242.7 335.8c-2.8 1.1-6 1.6-8.5 3-1.3.5-4.8.2-3.8 2.1 2.8-1.3 6.4-2 9-3 1-.8 5-.4 3.3-2Z"/><path fill="#E91315" d="M5255.4 331.7c-3 1.2-6.3 2-9.2 3.2-1.1.5-4.1.1-3 2 2.9-1.4 6.3-2 9-3.2 1-.7 5-.3 3.2-2Z"/><path fill="#E91315" d="M5268.2 327.7c-2.8 1.1-6 1.6-8.5 3-1.3.5-4.9.2-3.8 2.1 2.9-1.3 6.4-2 9-3.1 1-.8 5-.3 3.3-2Z"/><path fill="#E91315" d="M5278.1 322.8c1.7 2.5-4.5 2.6-5.9 3.8-1.2.6-4.6.2-3.5 2.2 2.9-1.5 6.4-2 9.1-3.3 2.3.1 1.9-5.4.3-2.7Z"/><path fill="#E91315" d="M5268.7 313.5c2.5 1.7 4.4 4.2 6.8 6 1 .8 2.1 4.2 3.5 2.5-2.3-2.1-4.5-5-6.9-6.7-1.1-.5-2.9-4-3.4-1.7Z"/><path fill="#E91315" d="M5257.3 307.5c3 .3 5.4 2.1 8 3.3 1.3.6 3 3.7 4 1.7-2.2-1-4.1-3.3-6.6-4-.9-.8-2-1-3.3-1.3-.5-.7-1.3-.4-2.2-.9.1.1-.4 1.5 0 1.2Z"/><path fill="#E91315" d="M5247.6 313c.5-4.4 5.5-6.6 9.5-5.6 1-2.5-6.2-.6-7.4.4-1 .5-5 6-2 5.2Zm-27.3 9c.1.6.7 1.3.6 1.9-1.2 0-2.6.1-1.7-1.4l1-.6Z"/><path fill="#E91315" d="M5247.6 313.2c-.2.5-.1 1.1-.4 1.5-1.2-.2-2-.7-.8-1.7l1.2.2Zm86.6 162.8c-1.1-2.3-5.4 1.2-6.9 1.5 5-4.3 1.7-9.4-2.1-2.8 2.1-11-4.4-4-4 2.6l-28.3-39.8c3-1.3 13.4-.1 13.3-4l-7.6-49.1c20.8-10.5 18.6-9.2-2.2-14.6 6.4-13.5 28-22.6-2.5-16.7-1.5-3.9-1.5-22.7-5.2-22.5-60.2 3.2-68.7 25.9-55.4 81.2 11.2 10 24.6 18.2 36.6 27.5-36.6 45.6-24-15.2-53.5 1.6-3 3.3 2.3 3.7 4.3 1.8-5 4.8 1.1 6.3 3.4 1.1-2.2 11.4 4.2 5.5 3.7-2 30.1 30 14.7 26 45.8-1.3 24.8-9.4 32 27.3 47 41.6.8 3.1 15-3.5 13.6-6Zm-27-100c-6.5 3.6-10.2 7-10.2-2.6l10.1 2.7Zm-12.5-19.5 9.1-1.5-8.2 9.3c.1-.1-1.7-8.3-1-7.8Zm-23.8-8.7c13.3-4.1 15 17.8 1.2 15.8-8-1.3-8.8-13.2-1.2-15.8Zm-2.3 86.4-29.4-21.6c28.5-6 27.8-5.9 30.7 22.6l-1.3-1Zm5 2.8c-8-41.8 5-32.5-37.2-27.4-3-23.4-15.4-56 13.1-68.4-15.5 12.3-3.8 40.5 16 37 6.3.3 10.4-7.4 16.3-4.1a5.4 5.4 0 0 1 .8 8.2c-11 11.7 12 21.6 13 5 2.6 30.8 20 49.9-22 49.7Z"/><path fill="#E91315" d="M5233.5 395.1c.6 3.3 1 6.7 1.7 10 .6 1.2-.5 4.6 1.7 3.8-1-3.2-1-7-1.9-10-.5-1.2.3-5.5-1.5-3.8Z"/><path fill="#E91315" d="M5231.3 381c.8 3 .8 6.5 1.8 9.4.3 1.4-.5 5.1 1.6 4.3-1-3.1-1.1-6.9-1.8-9.9-.7-1.1.4-5.5-1.6-3.8Z"/><path fill="#E91315" d="M5230.3 366.6c-.2 3.3-.2 6.7.5 9.9.5 1.3-.4 4.9 1.7 4.1-1-3-1-6.7-1.6-9.6l.2-3.1c.5-1 0-2-.8-1.3Z"/><path fill="#E91315" d="M5235 353c-1 1-6.9 15.7-3.6 13.2 0-2.9 1.6-6 2.3-8.6.3-1 1.2-2.2 1.6-3 .8-.7.9-1.8-.2-1.7Z"/><path fill="#E91315" d="M5245.3 342.8c-1.4.3-13.3 11.3-9 10.3 1.4-2.7 4.1-5.2 6.1-7 .7-1.4 5.2-2.1 3-3.3Zm-2.4 13.6c-.1-2.7.9-5.4 1.6-7.8.1-1.7 3.7-3.6 1.6-4.7-1 2.2-3 4.4-3.2 6.9-.5 1-.6 2-.6 3.2-.5.9-1 3.2.6 2.3Z"/><path fill="#E91315" d="M5246 368.5a20 20 0 0 1-3-8.2c-.7-1.3 1-4.2-1.3-3.8.3 2.4.2 5 1 7.4.8.8 2.1 7.2 3.3 4.6Z"/><path fill="#E91315" d="M5255.7 376.5c-2.6-.7-4.8-2.8-7-4.3-1.3-.8-2-4.5-3.6-2.9 1.6 1.7 3 4 5.1 5.3a20 20 0 0 0 2.9 1.6c1 .5 2.8 2.4 2.6.3Z"/><path fill="#E91315" d="M5268.2 377c-3 1-6.3 1-9.2.7-1.3-.1-3.3-2.1-3.6 0 2.3.4 4.8 1.4 7.2 1.2 1.2-.2 7.7 0 5.6-1.8Z"/><path fill="#E91315" d="M5280.5 372.8c-3-1-5.8 1-8 2.8-1 .8-5.7 1.2-3.6 2.4 2.8-.8 5.7-2.6 7.8-4 .8-.7 1.8-.4 2.5-.5.4.1.7.2 1 .5 0-.1.8-1.5.3-1.2Z"/><path fill="#E91315" d="M5281.8 384.3c7.4-6.9-2.3-13.8-1.3-10.3 2.7.7 3.4 4 3 6.2-.2 1.5-4.3 3.7-1.7 4.1Z"/><path fill="#E91315" d="M5284 394.7c-2.5-1.2-4-4.5-3.8-7.1-.4-1.6 2.5-3 .5-3.9-1.6 2.4-2 6.5-.2 8.7.5.9 3.4 5 3.5 2.3Z"/><path fill="#E91315" d="M5294.1 391.3c-1.2 3.8-6.4 5.9-10 3.5-1.7 2.2 5 2.2 6.3 1.4 1.4-.1 6.8-5.1 3.7-4.9Zm4.9 13.4c-.7-3.2-1-6.3-1.6-9.4-.6-1.2.5-4.6-1.7-3.8.9 3 1 6.7 1.7 9.5.7 1.1-.4 5.2 1.5 3.7Z"/><path fill="#E91315" d="m5301 418.2-1.5-9.3c-.6-1.3.5-4.6-1.7-3.8.8 3.1 1.2 6.9 1.7 10 .8 1-.4 4.7 1.5 3.1Z"/><path fill="#E91315" d="M5303 431.7c-.6-3-.6-6.1-1.6-9-.2-1.3.5-5-1.5-4.1.9 3 1 6.6 1.7 9.6.5 1-.4 5.1 1.5 3.5Zm-14.6 3.6c3-.7 6.3-.7 9.3-1.7 1.3-.3 5 .5 4.2-1.6-3.2 1-7 1-10 1.9-1 .3-5-.3-3.5 1.4Z"/><path fill="#E91315" d="M5274.5 437.5c3-.8 6.3-.8 9.3-1.7 1.3-.3 5 .5 4.2-1.6-3 .9-6.7 1-9.7 1.7-1.1.8-5.2-.4-3.8 1.6ZM5271 424c.8 2.9.7 5.8 1.6 8.5.3 1.3-.5 4.6 1.5 3.8-.8-2.8-1-6.1-1.5-8.8-.7-1 .4-4.7-1.6-3.4Z"/><path fill="#E91315" d="M5269.1 411.5c.7 2.8.6 5.8 1.5 8.4.3 1.3-.5 4.6 1.6 3.9-1-2.7-.7-6-1.6-8.5-.3-1.1.2-5.3-1.5-3.8Z"/><path fill="#E91315" d="M5262.3 406.2c3-.4 6.6-2.4 6.5 2.1.1 1.2 0 4.4 1.4 2.5-.9-2-.2-8-4-6-1-.1-2.2.2-3.1.2-1.3-.1-1.3.6-.8 1.2Z"/><path fill="#E91315" d="M5249.7 408.1c3-.7 6.3-.8 9.2-1.6 1.2-.2 3.8.4 3-1.5-2.8 1-6.3.8-9 1.7-1 .3-4.5-.3-3.1 1.4Z"/><path fill="#E91315" d="M5237.2 410c2.8-.7 5.7-.6 8.4-1.5 1.3-.3 4.6.5 3.8-1.5-2.8.9-6.3.9-8.9 1.6-1 .5-4.7-.4-3.3 1.5Zm8.3-67.3c1.7-1 3.6-2 5.5-2.4-2.1 1.4-4 6.5-5.5 2.4Zm48.7 48.4c.8-1.7.8-3.6 1.5-5.3.4 2.3 2.7 7.3-1.5 5.3Zm8.9 40.8c-.2 2.8-2.5 0 0 0Zm-28.8 5.6h-.7c-.2-.3-.6-.7-.6-1 1.1-.3 1.3 0 1.3 1Z"/><path fill="#E91315" d="M5237 410c-.7.1-1.1-.2-1.3-1 1-.2 1.4 0 1.3 1Zm15.7-.1c-2.7.7-5.7.6-8.3 1.5-1.2.3-4.5-.5-3.7 1.5 2.8-.8 6.2-.8 8.9-1.6 1.1-.3 4.4.4 3-1.4Z"/><path fill="#E91315" d="M5265 408c-2.7.7-5.7.6-8.3 1.5-1.2.3-4.5-.5-3.7 1.5 2.9-.9 6.2-.7 8.9-1.6l2.3-.2c1.1 0 1.4-.4.8-1.2Zm3.4 13.2c-.7-2.7-.7-5.7-1.6-8.3-.2-1.3.6-4.5-1.5-3.8.9 2.9.9 6.2 1.6 8.8.6 1-.5 4.6 1.5 3.3Z"/><path fill="#E91315" d="M5270.3 433.5c-.7-2.7-.7-5.7-1.6-8.3-.3-1.2.6-4.5-1.5-3.7 1 2.6.7 5.9 1.6 8.3.3 1.1-.3 5.1 1.4 3.7ZM5259 428c2.3 1.3 4.2 3.3 6.6 4.4 1 .6 2.7 3.4 3.5 1.4-2.4-1.3-4.7-3.5-6.9-4.8-1-.3-2.7-3.4-3.1-1Z"/><path fill="#E91315" d="M5249.6 421c2.4 1.5 4.6 3.4 7 4.8 1 .6 2.3 3 3 1-2.4-1.2-4.6-3.5-6.8-4.7-1.2-.4-2.8-3.5-3.2-1.2Z"/><path fill="#E91315" d="M5240.1 414c2.3 1.3 4.2 3.4 6.6 4.4 1 .7 2.7 3.4 3.5 1.5-2.4-1.3-4.7-3.5-6.9-4.8-1.1-.4-2.7-3.4-3.2-1.1Zm25-6c.8-.1 1.2.3 1.4 1-1 .3-1.4 0-1.4-1Zm5.2 25.7c0 .6.2 1.5 0 2-2.2-.3-2.2-2 0-2Z"/><path fill="#E91315" d="M5240 414c-3.7-2.3 2.8-3.2 0 0Zm41.9-61.7c-1-2.3-3-4.2-5.3-5-1.1-.4-7.8-1-5.3 1 2.5-1.3 5.5 0 7.6 1.3.6.6 1.2 1.5 1.6 2.1 0 1.2.9 1.5 1.4.6Z"/><path fill="#E91315" d="M5277 363.7c2.2-1 4.3-3 5-5.4.5-1.2.7-7.6-1-5.2 1.1 2.5 0 6-1.6 7.8-.5 1-1.6 1-2.3 1.7-1.1-.4-.7 1.1-.2 1.1Z"/><path fill="#E91315" d="M5265.6 358.8c1 2.4 3.3 4.7 6 5.2 1.3-.1 6 1.1 4.8-1.3-2.5 1.4-6.2.3-7.9-1.3a4.7 4.7 0 0 1-1.6-2.2c-.3-1-.7-1.2-1.4-.4Z"/><path fill="#E91315" d="M5270.5 347.3c-6.8 2.2-6 14-4 10.5-1.4-2.4.2-5.4 1.1-7.4.8-.4 1.2-1.5 2.2-1.5.6-.8 2-.3.7-1.6Zm26.5 16.3c1.1-1.7 3-3 4-4.9.7-.8 3-1.9 1.2-2.8-.7 1.5-2.4 2.6-3.3 4-.5.3-.6 1-1.2 1.3 0 .7-1 .6-1 1.1-1 .4-.5 1.1.2 1.3Zm-3.1-6.3c.1.3.2.6.1.8.2.5 0 1 .4 1.4-.2.3-.1.7 0 1 0 .2 0 .3.3.5l.1.8c-.4.3.1.9 0 1.2-.2.2 1.1-.1 1.1 0-.2-.4-.3-.5-.3-.8.2-.6-.3-1.1-.1-1.7-.3 0 .1-.2-.1-.3.1-.1 0-.4-.1-.5l-.1-.1c.1-.2.1-.5-.2-.5 0-.4.2-.6-.2-1 .4-.3.2-.4.2-.6.3-1-1-.4-1.1-.2Z"/><path fill="#E91315" d="M5302 354.7c-1.6.5-3.3.5-4.7 1-1 .3-3-.6-2.2 1.3.4-.3.7-.3 1.2-.3.5-.1 1.1-.3 1.7-.2 0-.2.2-.1.3 0 .4-.3 1.2-.1 1.5-.6.6.3 1.1-.4 1.6 0 .6-.4 1.3.6.6-1.2Zm-5.2 9c-2.4 3-2.5-2.9 0 0Z"/><path fill="#E91315" d="M5293.9 357.2c.2-2.9 2.5 0 0 0Zm8.1-2.5c.8 0 1.8-.3 2.4 0-.6 2-2.2 2.4-2.3 0Zm-5.5 19.8c.3 1 .5 2.2.5 3 .4.8.3 1.6.4 2.6.4-.2 1.6 0 .9-.6.1-.6-.3-1.3-.2-1.9-.1 0 0-.2 0-.2-.3 0 .2-.3-.1-.3 0-.4-.3-.3 0-.8-.5 0-.3-.3-.3-.5 0-.3-.3-.6 0-.9-.3 0 0-.3 0-.6 0 0-1.5.1-1.2.2Z"/><path fill="#E91315" d="M5305.7 375c-1.3 0-2.9-.7-4.2-.9-.5-.3-1.3 0-1.8-.4-.4-.3-1.2-.4-1.7-.6 0 .2-.6 1.5 0 1l4.7 1.3c.3-.5.8.3 1.3.1.4 0 .4.6.7.3.9.8 1-.2 1-.8Zm-6.5 6 4.8-2.7c.8-.6 3.1-.9 1.3-2 0 .7-1.1.4-1.4 1-.7.4-1.8.6-2.2 1.3-.4-.2-.5.3-.6.3l-1 .5c-.4.3-.7 0-1 .4-1-.3 0 1.1.1 1.1Z"/><path fill="#E91315" d="m5296.5 374.4.1-1.3c1.9-.8 1.5 1.5-.1 1.3Zm9.3.6c.5.4 1.8.5 2 1-1.3 1.8-2.8 1.2-2-1Zm-6.7 6c-2.8 1.1-1.1-3 0 0Zm28.1 92c.1-.5.4-.5.5-.8.7-.3 1.5-.3 1.7.4.2 0 .1.4.3.6.1.3-.3.5-.3.9-1 .4-1.5 1.4-.3 1.9l.5-1c1-.7 1.5-3 0-3.4-.2-.7-1.7-.6-2.2 0-.7-.3-.6.5-1.2.7 0 0 1 1 1 .6Z"/><path fill="#E91315" d="m5322.1 475.9 1.1-6.1c.6-.7 2.3-.9 2 .4.3.5 0 1.3-.2 1.9.4 0 1.5.6 1.2-.3 1.5-3.4-4.2-5-4-1.3-.4 1-.3 1.9-.5 3-.3 1-1.4 3 .4 2.4ZM5311 464c2.4 2.7 4 5.9 6.4 8.4 1 1 2 5 3.6 3.4-2.3-2.6-4.4-6.2-6.5-8.8-1.3-.7-2.2-5.3-3.4-3Z"/><path fill="#E91315" d="M5302 451.4c2 1.4 8.9 14.3 10 11.8-2.4-2.7-4.4-6.2-6.5-8.8-1.3-.8-2.2-5.3-3.4-3Z"/><path fill="#E91315" d="M5293 438.8c1.6 1 9.8 15.2 9.7 11.5-2.2-2.7-4.2-6-6.3-8.6-1.1-.8-2.2-5.3-3.3-3Z"/><path fill="#E91315" d="M5305.4 434.6c-1.8 1.5-5.4.7-7.7 1.8-1.2.3-4.5-.5-3.8 1.5 1-.8 16-1.5 11.6-3.4Z"/><path fill="#E91315" d="m5303.9 422.5 1.6 9.6c.2 1.2-.4 2.6 1 3 .4-3-.7-6.4-1-9-.7-1 .3-5.1-1.6-3.6Z"/><path fill="#E91315" d="M5302 410c.7 2.8.6 5.7 1.5 8.4.3 1.3-.5 4.6 1.6 3.8-.9-2.8-1-6.1-1.6-8.7-.7-1.1.5-4.8-1.5-3.4Z"/><path fill="#E91315" d="M5300 397.5c.8 2.8.7 5.8 1.6 8.4.3 1.3-.5 4.6 1.5 3.8-.9-2.9-.8-6.4-1.6-9-.4-1 .3-4.6-1.4-3.2Z"/><path fill="#E91315" d="M5298.1 385c.8 2.8.7 5.7 1.6 8.4.3 1.3-.5 4.6 1.5 3.8-.8-2.7-1-6.2-1.5-8.7-.7-1.2.4-4.8-1.5-3.5Zm10.9-6.8-7.2 4c-.8.7-4.6 1.4-2.2 2.3 2-1.6 5.2-2.5 7-4 .5 0 .8-.5 1.2-.6.3 0 .6 0 .8-.3 1 0 1.2-1 .4-1.4Z"/><path fill="#E91315" d="M5308.1 373.5c1.5.5 4.5.3 4.8 2-.1 1.5-1.8 1.5-3 2.3-.3.3-.4.2-.8.3.2.1.5 1.5.8.9 1.7-1 6-3 3-5.3-1-.5-2-.2-3-.9-1-.2-2.2-1-1.8.6Z"/><path fill="#E91315" d="m5296.8 370.5 7.9 2c1.2 0 3.5 2 3.6-.2-2.7-.3-5.7-1.6-8.2-2-1.1.2-3.9-2-3.3.2Zm-1.1-1.5h.1s-.1 0 0 0c0 0-.1 0 0 0-.1 0 0 0 0 0-.1 0 0 0 0 0h.1l-.2.1h.1c0 .1 0 0 0 0v.1h.1v.1h-.1v.1l1-.1c.2 0 0 0 0 0h-.2l.2-.1s-.1 0 0 0h-.2.2v-.1h-.1.1-.1.1v-.1h-.2s.2 0 0 0h.2-.3.2-.2l.2-.1h-.2.2l.1-.1h-.1.1l-1.2.1Zm8.5-10.2c-2 2.4-4.2 4.5-6 7-.8.7-3.2 2.4-1.3 2.8 1.7-2.4 4.2-4.5 5.7-6.7.5-1 4-2.6 1.6-3.1Z"/><path fill="#E91315" d="M5307 351.7c1.2-.6 2.6 0 2.4 1.5-1.5 1.2-2.4 3-4 4.3-1 .5-1.2 1.8-.1 1.8.5-1 1.4-1.9 2.2-2.6 1-1.4 2-2 2.9-3.4.5-3.1-5-3.8-3.4-1.6Z"/><path fill="#E91315" d="M5294.7 353.6c2.7-.7 5.7-.6 8.2-1.5 1.3-.3 4.6.5 3.8-1.5-2.9.9-6.3.8-8.9 1.6l-2.3.2c-1.1 0-1.4.4-.8 1.2Zm-3.6-14.4c.7 3 .8 6.3 1.7 9.1.3 1.3-.5 5 1.6 4.2-.9-3.3-1.2-7-1.8-10.1-.7-1 .6-4.7-1.5-3.2Z"/><path fill="#E91315" d="M5284.9 331.8c1.5 0 4.2-1.5 5.1 0 .6 2.3.9 4.7 1 7.2 2 0 .6-1 .8-2.3-.6-1.8-.2-3.8-1-5.4-.7-1.4-2.4-1.2-3.7-.7-1-.2-3.5-.2-2.2 1.2Z"/><path fill="#E91315" d="m5271.3 333.9 9.4-1.6c1.3-.6 4.6.5 3.9-1.7-3.2 1-6.9 1-9.8 1.8-1.2.4-5-.3-3.5 1.5Z"/><path fill="#E91315" d="M5257.8 336c3-.7 6.2-.7 9-1.7 1.4-.3 5 .5 4.2-1.6-3.1 1-6.7 1-9.6 1.8-1.1.6-5-.5-3.6 1.5Z"/><path fill="#E91315" d="M5245 340.4c2.5-1.7 5.5-2.6 8.1-3.6 1.3-.9 5.1.3 4.3-2-2.6 1-6.3 1-8.5 2.7-1 .6-6 1.6-3.8 2.8Z"/><path fill="#E91315" d="M5235 349.2c1.6-2.5 4-4.4 6-6.4.9-1.3 4.9-1.6 3.3-3.4-2.1 1.9-5.5 3.4-7 5.8-.7.8-4.8 3.8-2.3 4Z"/><path fill="#E91315" d="M5229 361.3c.6-3 2.3-5.8 3.3-8.5.6-1.3 3.6-3.2 1.6-4.2-1.2 2.6-3.8 5.2-4.2 8-.3 1.1-3 5.4-.6 4.7Z"/><path fill="#E91315" d="M5228.2 374.7c-.7-3-.2-6-.3-9.1 0-1.4 2.1-4.3 0-4.5-.3 2.9-1.6 6.3-1 9 .2 1.2-.7 6.3 1.3 4.6Z"/><path fill="#E91315" d="M5230.2 388.3c-.7-3-.7-6.2-1.6-9.1-.3-1.3.5-5-1.6-4.2.9 3 1 6.7 1.6 9.6.8 1.1-.4 5.1 1.6 3.7Z"/><path fill="#E91315" d="M5232.3 402c-.7-3-.7-6.3-1.6-9.2-.3-1.3.5-5-1.6-4.1 1 3.1.9 6.8 1.8 9.8.3 1.1-.3 5 1.4 3.4Z"/><path fill="#E91315" d="M5236.3 414c-2.2-1-3-3-3-5.3-.6-2-.7-4.3-1-6.6-1.8 0-.6.8-.7 2 .3 2.3.8 4.6 1 6.8.6.3 0 1.4.6 1.7.8.8 2.9 3.5 3 1.3h.1Z"/><path fill="#E91315" d="m5247.4 422-7.8-5.5c-1-.5-3.8-3.9-3.5-1.4 2.5 1.6 5.2 3.9 7.5 5.5 1.4.2 3.3 4 3.8 1.5Z"/><path fill="#E91315" d="m5258.5 430.2-7.8-5.5c-1.3-.5-3-3.7-3.9-1.6 2.7 1.5 5.5 4 7.9 5.6 1.3.3 3.3 4 3.7 1.5Z"/><path fill="#E91315" d="M5269.5 438.4c-2.6-1.7-4.9-4-7.6-5.3-1.1-.7-3-3.9-4-1.8 2.8 1.5 5.4 4 7.8 5.5 1.4.3 3.4 4 3.8 1.6Zm-9.3 11.2c2-2.3 4.6-4.1 6.3-6.5 1-1 4.3-2.4 2.4-3.7-1.9 2.6-5 4.7-6.8 7.1-.7.7-1.5 1.2-2 2-1.3 0-.4 1.3 0 1.1Z"/><path fill="#E91315" d="M5250.5 459.1c2.2-2.5 4.9-4.6 7-7.1.8-.8 3.5-2 1.7-3-2 2.5-4.8 4.5-6.7 6.9-.6 1-4.3 2.6-2 3.2Zm-10.2-8.5c2 1.8 3.8 4.1 6 5.7.8.9 2 4 3.3 2.1-2.4-1.8-4.2-4.5-6.4-6.1-.8-.7-2.2-3.8-2.8-1.7Z"/><path fill="#E91315" d="m5231.9 441.9 6 6c1 .6 2 3.7 3.2 1.8-2.3-1.8-4.2-4.5-6.3-6.1-1-.8-2.3-3.8-2.9-1.7Z"/><path fill="#E91315" d="M5222.8 438.7c5.3-3.4 5-.7 8.7 2.7.1.9 1.6-.6.8-.7-1.7-1.3-2.9-3.3-4.6-4.5-1.1-.6-2.3.2-3.4.9-.6-.1-.9 0-1.3.4-1.1-.3-.6 1.1-.2 1.2Z"/><path fill="#E91315" d="M5218 443.3c-1.1.9-2.4-.6-1.7-1.7 1.8-.8 3.5-1.9 5.6-2.5 1-.3.7-1.2.2-1.3-.6.7-1.8.6-2.4 1.3-1.8.8-5.1 1.3-4.4 3.8-.1 1.9 4.7 2.4 2.6.5v-.1Z"/><path fill="#E91315" d="M5222.2 445.2c-.2.1 0 .4-.2.3-.4.6-.9 1-1.3 1.4 0 .3-.3 0-.4 0-.2 0-.6 0-.6-.2-.6.2-.5-.4-.7-.7.2-.2.2-.4.3-.8.5 0-.9-1.1-.9-.7 0 .8-.5 1.4-.1 2.1.3.8 1.5 1.8 2.2 1.2.2.1.8.2.6-.2.8-.1.8-1.1 1.5-1.1.3-.9 1-.5-.4-1.4Z"/><path fill="#E91315" d="M5227 443c-.5 1.8 0 8.2-2.8 6.5-.9-.7.1-2.3.1-3.4-1.2-.3-1.2 0-1 1.2-2.2 2.8 3.7 5.3 3.8 1.6.4-1.2.2-2.3.4-3.6.6-.4.3-.9.4-1.4.8-.8-.5-1.2-.9-.8v-.1Zm11 8.4-6.4-6.4c-1.2-.7-2.1-4-3.4-2 2.4 1.9 4.5 4.7 6.6 6.5 1.1.6 2.5 4.2 3.2 2Z"/><path fill="#E91315" d="m5247.1 460.8-6.4-6.4c-1.2-.7-2.1-4-3.4-2 2.4 2 4.7 4.7 6.9 6.8 1.1.4 2 3.9 2.9 1.6Z"/><path fill="#E91315" d="M5256 456.7a78.7 78.7 0 0 1-4.6 4.6c-.6.6-1.2 1.9-2.1 1.6-1.2-.2-1.8-3-3-1.1 3.3 3.4 4.3 1.8 7.1-1 .2-1.3 5.2-3.3 2.7-4Z"/><path fill="#E91315" d="M5265.4 447.6c-1.9 2.2-4.4 4-6.1 6.3-.9 1-4.3 2.7-2.2 3.5 1.8-2.2 4.5-4.4 6.3-6.4.5-1.3 4.3-2.6 2-3.4Z"/><path fill="#E91315" d="M5275.7 439.5c-2.7 0-4.2 2.4-6 4-.6 1.4-5.8 4.2-3.2 4.6 2.1-2.4 4.9-4.5 6.7-6.8.7-1.2 3.8.4 2.5-1.8Z"/><path fill="#E91315" d="M5288.6 437.6c-3.2.6-6.4.8-9.5 1.6-1.1.2-3.9-.4-3 1.5 2.8-.9 6.3-1 9.1-1.7 1-.5 4.9.4 3.4-1.4Z"/><path fill="#E91315" d="M5297.2 448.3c-2-2.5-3.6-5.2-5.5-7.5-.8-.9-1.4-3.7-2.8-2.1 2 2.1 3.7 5.1 5.4 7.1 1.1.7 1.7 4.5 2.9 2.4Z"/><path fill="#E91315" d="M5304.6 458.6c-1.8-2.1-3.3-5-5.2-6.8-.8-1-1.6-4.4-3.1-2.8 2 2.2 3.7 5.1 5.3 7.2 1.2.7 1.8 4.5 3 2.4Z"/><path fill="#E91315" d="m5312 469-5.4-7.4c-1-.7-1.4-3.9-3-2.2 2.2 2.3 4 5.3 5.7 7.6 1.1.6 1.5 4 2.6 2Z"/><path fill="#E91315" d="M5319.3 479.3c-1.9-2.4-3.6-5.1-5.5-7.4-.8-1-1.3-3.8-2.7-2.1 2 2.1 3.7 5 5.3 7.1 1.2.7 1.8 4.6 3 2.4Z"/><path fill="#E91315" d="M5328.9 479.8a69.7 69.7 0 0 1-6.9 3.1c-1.3-.3-1.5-2.4-2.6-3.4-1 .5-1 .8 0 1.5.4 1.4 2.1 3.6 3.8 2.5 1.5-.3 2.3-1.3 3.7-1.7.7-.8 3.9-.5 2-2Z"/><path fill="#E91315" d="M5329.8 477c1.5-1.1 5.3-2.2 3.7.7-.8 1.2-2.8 1-4 2-.9-.2 0 .9 0 1.2 1-.7 2.2-1.3 3.3-1.6 2.8-.7 2.7-4.6 0-4.4-.6-.2-1 .3-1.4.5-.4 0-.8-.1-1 .3-1.1 0-1.4.8-.6 1.3Zm-2.6-4c-.8.9-1.5 2-2.4 2.7-.2-1.9 0-5 2.4-2.7Zm-5.1 3c-.2.6-.2 1.5-.7 1.9-1.9-1-1.3-2.6.7-1.9Zm-29.1-37.4c-.2-.4-.6-.9-.5-1.3 1.5-1.4 2 .7.5 1.3Zm5.1-53.7c0-.5.3-.9.6-1.2.6 1 .5 1.1-.6 1.2Zm-1.5-14.4-.3-.3-.1-.3c-1-.5.4-.5.8-.6 0 0-.3 1.3-.4 1.2Zm-.9-1.5c0-.3 0-.5.3-.6-.4-1.2.6.3.8.3l-1.2.2Zm-1.2-15.3h-.7c-1-1-.4-1.2.6-1.2l.1 1.2Zm-24.8 84.7c.6.5.7 1.3.1 1.9-.8-.6-.9-1.2-.1-1.9Zm-19.3 20.9-.5.2c-2.1.5-.5-2.1.5-.2Zm-32.4-16.1c1.2-.4 2.4-1 3.5-1.2-1 1.8-2.4 4.4-3.4 1.2Zm4.2 1.9c3.5-5.3 3 3.6 0 0Zm4.8-2.3c.3-3.8 3.8 1 0 0Zm61.7-5.3c.3 0 .5 0 .6.3h.4c.5.1-.8.8-.8.9l-.2-1.2Z"/><path fill="#E91315" d="M5329.7 477c-1 .4-2 1-3.1 1 .8-1.9 2-3.9 3-1Z"/></g><defs><clipPath id="a"><path fill="#fff" d="M0 0h5457.1v521.3H0z"/></clipPath></defs></svg>