<svg xmlns="http://www.w3.org/2000/svg" width="1510" height="773" fill="none"><g clip-path="url(#a)"><path fill="#E91315" d="M729.8 691.2s38.6 49.7 88-29.8c18.4-29.5 21.8-31 21.8-31-18 29.6-30.1 140.9-109.8 60.8Z"/><path fill="#E91315" d="M802.5 711.8c6.2-8 14.4-16.1 16.5-26.5 1.5-2.5 3.8-4.2 4.1-7 .3-1.6 2-3.3 1.8-5.1 1-1.5 2.8-4 2.1-5.9.7-1.6 1.6-3 1.6-4.9 2.4-1.8 1.8-4.8 3.5-7 1.9-3.3 4.2-7.4 5.5-11.7.1-1.8 1.4-2.9 2-4.5-.3.5-6.7-3.7-6.3-1.9-.3 2.4-1 4.5-1.2 7.2-2 .9-1.9 3-3 4.7-1.8 6.2-4.4 10.8-6.5 17.1-1.1 1.4-1.3 3.2-2.8 4.4.7 1.4-.9 2-1.6 3.2 1 1.6-1.6 2.6-1.1 4.4-.7.6-.5 1-.2 1.7-1 .4-1.2 1.4-1.8 2.3-2.6 3.4.4 2.7-1.2 4.4.1 2-2.7 2.1-2.2 4.6-2.3 1.5-2.4 4.8-4 6.9-.8 1.3-3.2.8-3.3 2.9-1.4-.2-.8.8-1 1.7a47.3 47.3 0 0 1-6 4.8c.7-.2 4.6 6.8 5.2 4.1Z"/><path fill="#E91315" d="M728 694c6.4 5.2 11.4 12 18.6 16.5 3 2.6 6.7 2.8 9 6.2 3.3 1.7 6.7 2.3 9.7 4 3 .5 5 1.2 8.4.5.8.7 1.8.4 2.7 0 1.4.7 3.2 1.2 4.5.1 6.7-.3 13.5-2.3 18.7-7.4 1-.3 1.5-.8 2.3-1.4-.6.1-4.5-6-5-4.5-1.2 1.3-3.3 5.5-5.5 5-3.8 1.5-8 3.5-11.9 4.2-2.4-1.1-5.7.4-8.5-.7-1.5-.6-3.2-.6-4.5-2-1.2.9-1.9-.7-3-1.3-1.6 1-2.5-1.6-4.1-1.2-.6-.7-1-.4-1.7-.2-.7-1.8-3-2-4.1-3.6-1.4 1-3.7 0-3.9-1.9-1.3-1-2.8-1-3.4-2.7-1.1.3-1.5-.7-2-1.5a7.7 7.7 0 0 1-3.9-2.4c.5-2.1-1.9-2.6-2-4.2-.7 0-1.8.2-1.8-1-5.2-4.6-2.6-8-9.3-1l.8.6Z"/><path fill="#E91315" d="M789.5 691c-1.5.8-1 2.7-2.8 2.4a6 6 0 0 1-3.2 2.3c-2.1 1.4-4.8 3.5-7.6 4.2-1.9.7-3.7 2.3-6 2-1 1-2.4 2.3-4 1.5-2-1.2-4 1-5.8 0-2 .1-4.2.5-6-1-2 1-4.7.3-6.4-.7-1.3-1.3-3-1.2-4.4-2.1-.6-.8-1.7-.3-1.7-1.6-.8-1.5-2.4-1.8-3.5-2.7-1.5-2.6-4.6-3.3-5.7-6.1-1.7 2.1-8.2 3.6-2.9 5.9 1.4.5 2.2 1.8 3.8 2.2 0 1.8 1.5 2.3 2.6 3.4 5.1 3 9.3 5.8 15.3 6.7 3 1.6 5.5 1.3 8.7 2.3 1.5-1.4 4.6.6 5.6-1.5 1.5.9 3.4-.2 5.2 0 .2-1.7 1.3-1.7 2.8-2.3 1.5 1.4 2.3-1.2 3.8-.9a11 11 0 0 0 5-3.4c1-.5 2 0 3-.3 1.2-.1 1-1.4 2.3-.8.6-2.9 4.5-3 6.8-5-.7 0-4.4-6.6-5-4.5Z"/><path fill="#E91315" d="M831.2 635.3c-2.2 4.7-5.8 7.9-8.2 12.6-2 3.1-5.1 6.3-5.5 10-1.6 2-3.9 3-4.5 5.4.1 1-1 1-1.4 1.8.3 1.1-1 1.1-.7 2.2-1.3.4-1.2 2.2-2.8 2.6.2 2-1.1 3.4-2.1 5 0 1.2-1.6 1-2 2-.9 1.4-1.4 2.5-2.8 3.5 0 1.4-1.8.7-2.6 1.8-1.1 2.5-3.9 3.3-5.3 5.7-4.9 4.2-3.2 1.7 1 7.6 1.4-1.8 2.4-3.1 3.6-5.2.3-1.1 1.5-.5 2.3-1 .3-1.4 2-1.8 2.8-3 .2-1.9 3-2.4 2.5-4.2 1.6-1 2.4-2.2 3.6-3.5 1.5-1.7 2.2-5 4.4-5.6 0-1 1-1.9 2-2.3-.5-1.3 1-1.6 1.8-2.5-.7-1.6 1.8-2.1 1.5-3.7.8-.5.6-.8.3-1.5 1-.2 1.4-1 2-1.7.5-1.4 2-1.7.7-3.3 1-.4.4-1.3 1.3-2 .6 0 1.1 0 1.3-.7.1-1.3.6-2 1.7-2.6 0-1.6 1.8-2.7 1.9-4.7.9-1.3 3.3-1 3.3-2.9 1.4.2.8-.7.8-1.6l4.9-5c-.6.4-5.7-5.5-5.8-3.2Z"/><path fill="#E91315" d="M831.7 634.5c1.5-2 3.4-3.5 5.3-5 1.2-1.4 3-2.2 4.8-1.7.4.3-.2.8-.2 1.2.2 2.4-.1 4.8-1 7 .2 5.3-4.5 1.3-7 .7l3.4 1.8-5.3-4Z"/><path fill="#E91315" d="M1509.1 462.7v-.3c.4-.5.1-.7-.5-.9.6 0 .8-.4.5-.9-1.2-9.6.9-19.8-1-29.8 1.3-2 1.2-4.5.5-6.6.7-1.3.3-2.9-.1-4.1.8-1-.2-1.6.3-2.5-.1-1 .7-1.7-.1-2.5-.9-1.9-.9-4.5-.6-6.4.4-2.4 0-4.9-.3-7.2 1.8-2 1.3-10 .8-12.8 1-1.8.7-2.6-.3-3 .8 0 1.2-.3.8-.9-1.2-9.7.9-19.8-1-29.8 1.3-2 1.2-4.5.5-6.6.7-1.3.3-2.9-.1-4.1.8-1-.2-1.6.3-2.5-.1-1 .7-1.7-.1-2.5-.9-1.9-.9-4.5-.6-6.4.4-2.4 0-4.9-.3-7.3 1.8-1.9 1.3-10 .8-12.7 1-1.9.7-2.6-.3-3 .8 0 1.2-.3.8-.9-1.2-9.7.9-19.8-1-29.8 1.3-2 1.2-4.5.5-6.6.7-1.3.3-2.9-.1-4.2.8-.8-.2-1.5.3-2.4-.1-1 .7-1.7-.1-2.5-.9-1.9-.9-4.5-.6-6.4.4-2.4 0-5-.3-7.3 1.8-1.9 1.3-10 .8-12.7 1-1.9.7-2.6-.3-3 .8 0 1.2-.3.8-1-1.2-9.6.9-19.7-1-29.7 1.3-2 1.2-4.5.5-6.6.7-1.3.3-2.9-.1-4.2.8-.8-.2-1.5.3-2.5-.1-1 .7-1.6-.1-2.4-.9-1.9-.9-4.5-.6-6.4.4-2.5 0-5-.3-7.3 1.8-2 1.3-10 .8-12.8 1-1.8.7-2.5-.3-2.9.8 0 1.2-.3.8-1-1.2-9.6.9-19.7-1-29.7 1.3-2 1.2-4.5.5-6.6.7-1.3.3-3-.1-4.2.8-.8-.2-1.5.3-2.5-.1-1 .7-1.6-.1-2.5-.9-1.8-.9-4.4-.6-6.3.4-2.5 0-5-.3-7.3 1.8-2 1.3-10 .8-12.8 1-1.8.7-2.6-.3-2.9.8 0 1.2-.3.8-1-1.2-9.6.9-19.7-1-29.8 1.3-2 1.2-4.5.5-6.6.7-1.2.3-2.8-.1-4 .8-1-.2-1.6.3-2.6-.1-1 .7-1.6-.1-2.5-.9-1.8-.9-4.4-.6-6.3.4-2.5 0-5-.3-7.3 1.8-2 1.3-10 .8-12.8 1-1.8.7-2.6-.3-2.9.8 0 1.2-.3.8-.8-.3-1.3-.7-2.5-1.8-3.2-.2-.2-.1-.5-.2-.8 0-.2-.3-.4-.4-.6-.2-.6-.8-.2-1.3-.4-1-.2-1.7-.8-2.7-.9v.6c-.1-.6-.4-.8-.9-.5-6.2 1-12.2 0-18.8.7-2-.6-4.1 1.1-6.3.2-2 1.5-4 1.2-6.4.4-2 .1-3.7 1-5.7.5-1.8.8-4 1-6.3.5a10 10 0 0 1-7.7 1.7c-6 1.8-12.3-.3-18.6 2.4-2-.8-2.7-.4-2.8.6-.2-.7-.5-1-1-.6-6 2-12 2-18.4 3.6-2.2.2-4.9 1-7 1.6-2 1.7-4 .7-6.4.9-1.4.8-3 1.1-4.7 1.1-1.7 1-3.9 1.6-6.2 1.4a10 10 0 0 1-7.3 2.7c-5.8 2.7-12.2 1.4-18.2 5-2-.6-2.6 0-2.7.9-.3-.7-.6-1-1-.4-5.7 2.7-11.7 3.5-17.8 6-2.1.5-4.7 1.6-6.6 2.5-1.8 2-4 1.2-6.3 1.8a9.7 9.7 0 0 1-4.4 1.8c-1.7 1.2-3.8 2-6 2.1a9.8 9.8 0 0 1-7 3.8c-5.3 3.2-11.9 3.1-17.3 7.3-2-.3-2.6.3-2.5 1.3-.4-.6-.8-.9-1.1-.2-5 3.2-10.4 5.3-16.1 8-2 1.4-4.9 2.4-6.8 3.9-1.4 1.8-3.1 1.9-5.3 2.3-1.8 1-2.9 2.3-4.8 2.8a10.4 10.4 0 0 1-5.7 3 10.3 10.3 0 0 1-6.3 4.7c-4.8 4-11.3 4.7-16 9.8-2 0-2.5.7-2.3 1.7-.5-.6-1-.8-1.2-.1-5 4-10.3 7.6-16 11-1.6 2-4 2.8-5.4 4.7-.6 2.3-3.4 1.7-5 3a9.8 9.8 0 0 1-3.7 3c-1.2 1.6-3 3-5.1 3.8a10 10 0 0 1-5.5 5.7c-4.1 4.8-10.6 6.7-14.3 12.3-2 .4-2.3 1.2-2 2-.5-.4-1-.5-1 .2-4 5-9 8.4-13.2 13.4a35.2 35.2 0 0 0-4.8 5.3c-.6 2.5-2.9 2.9-4.7 4.4a10 10 0 0 1-3.1 3.7c-.9 1.9-2.3 3.6-4.3 4.7a10 10 0 0 1-4.4 6.6c-3.2 5.4-9 8.3-12 14.6a7 7 0 0 0-2 1.9c0-.1.5.2 1 .7-.8-.6-1.5-.8-1.5 0-4.7 8.2-12.1 15-16.2 24.1a7 7 0 0 0-4 5.1c-1.3.6-1.8 2.1-2.2 3.3-1.2.3-.7 1.4-1.6 1.9-.5.9-1.4.9-1.3 2-.2 2-1.6 4.1-2.9 5.5-1.7 1.7-2.7 4-3.7 6-2.4.4-6.5 7.4-7.5 9.8-2.1 1-2 2-1.2 2.8-.8-.4-1.4-.5-1.3 0-1.5 2.8-2.7 5.4-5.2 7.4-1.1 2.9-3.9 6-6 8.3-1.7 2.8-3.5 5.3-5 8-3.1.8-3.5 4-5.8 5.4a9.2 9.2 0 0 1-4.3 4.4c-.1 2.5-2.5 3.3-3.4 5.3-2.7.4-3.3 3.1-5.6 4-.3 1.2-1.4.4-2.3.8-1.8.9-2.8 2.4-4.8 2.8-2.3.9-4 2.7-6.6 2.7l.5 1.4c-.3-1-.7-1.7-1.2-1.1-1.7 0-2 2.1-3.5 1-1 .6-2.9 1-3.8.4-2.4.2-5.5.3-8-.5-2.3-1-5-.5-7-2.2-1.5 0-3.5.2-4.4-1.4-1-2.2-4.1-1.6-5.2-3.4-2.1-1-4.2-1.7-5.6-4-2.5.4-3.7-1.8-5.8-2.4-.5-1.2-1.4-2.5-2.8-2.6-1.1-.7-1.6-2.1-3-2.4a3.7 3.7 0 0 0-1.8-3c-2.1-.9-3-3.3-5-4.5-1.6-.9-2.4-2.3-3.6-3.7l-.6.8c.5-.7.7-1.2 0-1.3-5.2-3.6-8.7-8.5-13.6-12.8a34.5 34.5 0 0 0-5.3-4.7c-2.1-.7-2.8-2.3-3.8-4.3-1.5-1.4-3.1-2-4.2-3.8a10 10 0 0 1-4.6-4.3 9.9 9.9 0 0 1-6.6-4.4c-5.5-3.2-8.6-9.1-15.2-11.4-1-2-1.8-2-2.5-1.4.3-.7.3-1.2-.5-1.1-6.6-3-12.8-6.5-20.2-8.4-2 .4-3.8-1-5.8-.5-2 1.3-3.8-1-6-.9-1.7.4-3.3.7-5.1.4-.7 1-1.7 0-2.4 1-1-.7-1.5.4-2.6.2-2.2 0-3.3 1.5-5.3 2.5-1-.3-1.5.4-2.2 1-1.8-.4-3.1.6-4.3 1.8-2 .1-2.8 1.9-5 1.6-3 2-6.7 3.5-9 6.6-.9.2-2 .7-2.6 1.3l1 1c-.8-.8-1.4-1.2-1.6-.4-4.2 4.8-9.2 8.3-13.6 13.3a32.1 32.1 0 0 0-4.6 5.4c-.6 2.6-3 3-4.7 4.5a10 10 0 0 1-3 3.8 11 11 0 0 1-4.3 4.8c-.3 3-2.6 5.2-4.8 7.1-1.4 2.2-2.4 4.4-4.9 5.3-1.9 2.9-4.9 4.8-6.6 7.9-.9.3-1.8.6-2.5 1.2.2 0 .5.4 1 1.1-.7-.8-1.3-1.3-1.5-.5-1.1.5-1.3 1.3-1.9 2.2-1-.4-2.5.9-3.5 1.4-1-.1-1.6-.3-2.2.6-1.4 0-3.3 0-4.8.3-3.5 0-7-2.2-10.6-2-1.6-.6-2.2-2.2-3.7-3-1.6-.3-3-1-4.1-2.1a4 4 0 0 1-2.9-1.5c-1.6.2-2-2.1-3.5-1.8-2.6-.2-4.8-2-6.8-3.6-2.4-1-4.8-1.7-6.1-4-4-2.3-8.4-4-12.5-6.3l-.2.7c.2-.7 0-1-.6-1-1.2-.5-2-.4-3.2-.3-.4-1-1.5-.8-2.4-1.2-1.4-.6-2.1-.6-3.2-1.6-.6.2-1.1.4-1.5-.3-5-1.2-9.6-2-14.5-3-2.7 1.4-4.8-.1-7.5-.8-1.6.5-3.2.3-5 0-1.2 1-2.7-.2-4 .6-2.5-.8-4 .5-6.4 1.1-1.4-.5-2.5.9-4 0l-4.6 1.2a6 6 0 0 1-3.5-.1c-1.5 0-2.7 1-4 1.3-3.1-.4-5.4 2.4-8.2 2.4-.9-.1-1.1.3-1 1-.4-.5-.7-.7-1 0-6.3 3.5-12.6 6.6-18.7 11.2-.5 1.8-2.9 1.9-3.4 3.4-.9 2.1-2.6 2.8-4.6 3.7-1.4 1-1.8 3-3.4 3.7-1 1-1.2 2.7-2.6 3.1-.2 1.1-1.2 1.9-2.2 2.4 0 1.5-.8 2.5-1.4 4-1.4.7-1 2.4-2.6 3-1 1.4-1.5 2.7-2.3 4-1.5 2.2-3.6 3.4-4.4 6.3-2.4 1.9-2 5.4-4 7.3-.8.5-.7 1-.1 1.4-.6-.1-1 0-.9.7-1.1 5.4-3.4 9.9-4.2 15.5-.8 3.7-2.7 7.8-1.8 11.7-.9 2.4-2.7 4.3-2.5 6.8.5 1-.6 1.3-.7 2.3.6 1-.6 1.4 0 2.4-1 .9-.3 2.6-1.7 3.6 1 2 0 3.7-.3 5.6.3 1.4-1.3 2-1.4 3.5.7 1.8-1.3 2.9-.9 4.7-2 .6-1.7 2.8-2.5 4.3-.4 1.8-2 3.3-2 5.3-1.3 2.7-1.9 3.6-1.6 4-.5 0-.8.1-.7.7-1.8 6.3-5.8 11.6-9.4 17.2-1.8 2.4-2.8 4.9-4.4 7.3-3.1.6-3.5 3.8-6 5-.6 1.9-2.3 2.5-3.7 4-1.2-.1-1 1.1-1.4 1.9-.8.3-1 1-1.5 1.6-1 0-1.3.8-1.8 1.5-1.7 0-2.8 1.1-3.7 2.4-1 0-2 .8-2.7 1.6a3.7 3.7 0 0 0-3.3.7c-1.6 1.5-4 1.4-6 2.7-1.4 1.2-3 1.4-4.7 1.8l.7 1.4c-.5-1-1-1.7-1.4-1-5.7 3.3-12.3 4-18.8 5.6-2.9.3-5.4 1.2-8.3 1.8-2.3-1.9-4.9.1-7-.8a17 17 0 0 1-6-.2c-.8-.9-1.6.1-2.4.4-.8-.4-1.5-.1-2.3 0-.6-.7-1.4-.4-2.3-.3-.8-.7-1.7-1-2.8-1.3-1.3.6-2.4-.4-3.7-.7-1.3.5-1.5-1.4-2.8-1.7-2.6 0-4.4-1.8-7-2.4-1.8-.2-3-1.2-4.6-2.1 0 .5-.4 1.1-.7 1.8.4-1.3.4-2.3-.1-2.1-7.4-2-13.4-7.1-21-10-2.3-1.8-5-.9-7-3.9-1.5-1-3.5-.6-4.6-2-1.3-.6-3-.1-3.9-1.4-1.6.5-2.5-1.7-4-1-3 .4-5.7-1-8.6-1.8-1.2.8-2-.4-3.2 0a6 6 0 0 1-3.3-1.3c-3.4-.1-6.8-.8-10.3-.3-.6.4-1.2.3-1.9.1l.3-.3c.3.6.4-.1.7.4 0-.3 0-.4.3-.2 0-.2 0-.4.3-.5.6.7.5-.2.7-.7.6 0 .5.8 1.1 1 .1-1 .3.3.4-.4.2-1 .2.3.5 0 0-.9.3.3.4-.6.4 1 .2-.3.5.3.5 0 .3.7.5-.2 0-.6.3-.4.5-.9.2.6.3.1.4-.2.8 1.7.7-.6 1.2.5 0-.5.3 0 .4-.5 0 .2.2.8.4 1 .4.5.4-.6.6 0 .2-.4.5.1.7.2l.8-.6c.4.8.5.6.6 0v.6c6.8-.2 13.9-.3 20.6.6-2.5-5.5-12.6-10.2-18.2-12.3l-.3.7c.2-.7 0-1.1-.6-1-7.5-1.3-14.7-3.6-22.9-3.7-1-.5-2.2.2-3 .7-1.8 0-2.9-1.3-4.6-1.3a9 9 0 0 1-4.6.2c-1.7.8-3.3.3-5.3.6-1-.8-1.5.3-2.2.8-1.6.2-3 0-4.4.9-2.2-.9-5.3.4-7.4 1.2-1.8-1.4-3.8 0-5.5.6-3-.3-5.2 2.3-8 2.3-.5-.2-.6.3-.4 1-.4-.6-.8-.9-1.2-.3-6.3 3.9-13.4 6.1-19.2 11.6-2.5 1.2-3 4-6.3 4.5-1.4 1.3-2.2 2.8-3.9 3.7-.7 1.8-2.2 2.5-3.5 4-1.6.2-.4 2.2-1.6 2.7-.3 1.4-1.8 1.7-1.9 3.3-2.2 1-3.4 4-4.3 6-2.3.4-2.6 2.8-3.5 4.5-2.3 2-1.9 5.4-3.7 7.5-.5.3-.2.7.4 1-.7-.1-1.2 0-1 .7-1.2 6-2.4 10.9-2.8 17.4 0 2.3 1 4.5.5 7 .8 1.2 2 2.7 1.2 4.3-.7 1.6-.3 3.3.3 4.8-.5.7-.8 1.4-.1 2-.4.6-.5 1 0 1.5-1 .8 0 2.3-1.3 3.2.8 1.2.4 2.3.4 3.6-1 1-.1 2.4-1.6 3.1-.7 1.7-.7 3.1-1.9 4.5.2 1.3-1.6 1-2.1 2-.6 2.4-2.7 3.5-3.8 5.6-.7 1.6-1.9 2.4-3.2 3.5.4.1.7.4 1 .8-.7-.7-1.3-1-1.4-.2-1.4.9-.6 2.7-2.4 2.7-.5 1-1.7 2.3-2.7 2.6-2 1.7-4.1 4.2-6.8 5.4-1 1-2.3 1.5-3.3 2.7-.7.7-1.9.1-2.3 1.2-1.3 2.1-3.3 1.4-5.5 2-.6 1-1.8.6-2.4 1.8-.8-.2-1.6-.1-2 .8-.7 0-1 0-1.4.7-1-.6-1.1.6-2.1.5-1.3.2-2 .3-2.6 1.6-2 .4-3.3 2.1-5.4 1.7-1.9 1-3.7 1.1-5.4 2.2-1.8-1.2-3.6.2-5.3.7-3.1-.2-5.5 2-8.6 1.7.3.5.4 1.2.5 2-.4-1.6-1.2-2.6-3.1-.8l-.7.1a7.7 7.7 0 0 0-2.3 2.2h-.3.3c-1.1 1.8.2 3.3 3.3 4.4 0-.3 0-.7.2-1.1-.2.9-.1 1.5.5 1.2 1.1.5 1.7.3 2.8 0 .4.6.6 1 1.5.9 1.7.3 2.6 1.7 4.2 1.3 3.7 2.1 8.3 2.4 12.1 4.7 2.7-.9 3.9 1 5.9 2.4 1-.3 1.6.8 2.8.4.4.7 1 1.3 1.8.8 1.2 1.2 3.1.8 4.2 2.6 2.2-.9 3.5.9 5.6 1 1 2.1 3.6 1.7 5 3.3 1.3-.3.8 1 1.5 1.6 1.3 1.1 3 1.3 4 2.8 1.6 1.6 3.5 2.2 4.4 4.4l.4-.5c-.3.5-.4.8.1 1 .7 1.3 2.5.7 2.1 2.4 1.3.9 1.9 2.3 2.1 3.7 1.9 1.7 3.2 5.2 4 7.8.8 1.3 2 2.6 2 4.3 1 .8 1.9 1.6 2.2 2.9-.8 2.9 1.8 4.4 2 6.9.7.3.8.6.7 1.3.8.3.7.6.6 1.3.8.5 1 1.7 1 2.6 2.2.7 2.2 3 3.9 4.4-.3 2.5 2.1 3.5 2.7 5.6 1.3.5 0 2 1 3 1.8 1.5 2.2 3.9 4 5.6 1.5 1 2 2.4 3 3.8-.1-.1.3-.5.9-1-.8.8-1.1 1.3-.3 1.5 4.8 4.1 9 8.8 14.8 12.4 1.7-.2 2.5 2 4 1.8 2.1 0 3.1 1.2 4.6 2.6 1.4.8 3.3.2 4.3 1.4 1.3.5 2.7-.2 3.6 1 1-.5 2 .1 2.8.8a5 5 0 0 1 3-.8c2.5-.2 4.6 1.3 7.1.3.9.5 2 .2 3-.2.6.6 1.4 1 2.3 1a12 12 0 0 1 5.5-.6c1.6-.4 3-1.5 4.7-1.3 1.2.6 1.4-.4 1.1-1.7 1.3 1.8 3.3.9 7.5-1.3 6.5-2.4 11-7.4 16.2-11.5.2-.2-.2-.3-.4-.3-9.8.8-13.7 3.1-23.8-1.8 0 .3-.2.6-.4 1 .3-.8.3-1.3-.3-1.2-6.7-2.3-10.4-9.3-13.9-15.7-4.1-5.8-.4-3.1-2.2-7.4.4-.8-.1-1.3-.4-2 .4-.6.7-1.3 0-2 .4-.5.5-.7 0-1.3 1-.5.1-1.2.9-1.8.1-1 1-1 .6-1.9-.3-1.7 1.4-4.4 3-4.9 1.3-1.7 2.8-2.4 4.1-3.9 2 .8 3.5-1 5-1.8 3.1-.2 5.3-2.6 8.4-2.5v-.4c.2.4.5.5.8.1 2.6-1.1 5.1-2 8.1-1.4 2.5-1 6.6-.5 9.3.3 2.5-.6 4.8 1.4 7.2.5 2 .4 2.5 3 4.6 2.6 1 1 2.2.5 3.1 1.9.8-.2 1 0 1.4.6.8-.2 1 .1 1.2.8 1 0 1.9.9 2.3 1.8 2.4 0 5 1.7 6.2 3.8.7 1.2 2.5 1 2.7 2.4 2.2.8 1.5 3 3.2 4.4 1.9 1 2.2 3.5 4 5 1.4 1 1.9 2.4 2.7 4l.8-.7c-.7.6-1 1-.3 1.3 2 2.3 3.8 4.3 4.4 7.3 1 .5 1.4 2.2 2 3.4.8 1.6 2.1 2.4 2.6 4.2 2 3 4.6 5.7 7.4 8.2.2 3 3.3 3.8 4.4 6 1 .5 1.6 1.4 2.6 1.7.2.7.4 1 1.2 1.1.8 1.4 1.7 2.4 3.4 2.2 1.3 1 2.3 2.2 4 2.4.5 1.1 1.5 2.4 3 2.3 1.2.7 1.9 2 3.5 2a3.6 3.6 0 0 0 2.4 2.5c2.3.2 3.8 2.3 6.2 2.8 1.5.2 2.8.6 4 1.6.4.6.8 0 1.3-.8-.1.9 0 1.5.5 1.3 1.2.4 2 .2 3.2 0 .4.6.8 1 1.7.9 2 .1 3.2 1.5 5 1 4.6 1.7 9.8 1 14.7 2 2.7-2 5.3.8 8-.2.9.6 1.6 0 2.4-.3.8.5 1.6.7 2.3 0 1.8.5 3.5-.8 5.5.1 3-2.8 7.1-.8 10.5-2.7 1 .4 2.3 0 3.2-.5a4 4 0 0 0 2.6.7c3-1.5 6.6-.6 9.5-2.7.9 0 2 0 2.9-.2-.2 0-.4-.8-.6-1.8.5 1.2 1 2 1.4 1.5 7.2-3.2 14.8-4.9 22.1-9 1.2 0 2-1.3 2.5-2.1 1.5-1 3.2-.4 4.8-1.3 1.1-1.2 2.5-2 4-2.5 1.2-1.6 3-2 4.6-3.2 1.5 0 1.4-2.1 2.7-2.7 1.6-1.6 3.3-2.3 5.2-3.4.2-1.5 1.6-1.2 2.1-2.3 1.1-.8 1.6-1.2 3-1.4 1.7-1.1 2.7-2.8 4.5-3.8 2.2-1.6 3.3-4 5.6-5.3-.1 0-.8-.6-1.6-1.5 1.5 1.2 2.8 1.2 4.6-2.3.7-1.4 1.7-2.9 2-4.5-.1-.6.2-1.2.6-1.7.2-.2 0-.4-.2-.5-1.3-.7-2.6-.5-4-.2-2.2 0-4.3-.5-6.5-.5v1.1c0-.9-.3-1.4-.9-1-4.5.7-8.4-.5-12.6-2.3-2.2-1-3.5-2.7-4.9-4.7-.1-1.6-1.3-2.8-1.4-4.4 0-1.4 1.3-2.3 1.2-3.8-.3-.6-.2-1 .2-1.6-.1-.9-.6-1.6.3-2.2.4-2.3.5-4.4 2.3-6.2-.4-2.5 1-5.5 3-6.8 1.1-2 2.7-3 3.7-4.9 2.3.3 3.4-1.8 5-2.9 3-.9 4.9-3.5 8.1-3.8l-.4-.8c.4.7.7 1 1.1.5 1.7-.2 2-2.2 3.6-1.2 1-.7 2.9-1.1 4-.7 2.7-.4 6.2-.7 9.3.2 2.2.2 4.7-.5 7 .8 1.5-.4 3.4-1.1 4.8.2 2.5 2.1 6 1 8.5 2.6 2.1-.3 3.9 2.5 6.3 1.3 4.1 1.3 7.4 3.7 11.5 5 .6 2.1 3 2.6 4.7 3.5 2.2 2.5 5.6 3 7.7 5.6l.7-1c-.6.8-.8 1.4 0 1.5 6 3.2 10.5 8.3 15.7 13 2 2.3 4.5 3.8 6.7 5.8.3 3.3 3.6 4.2 4.6 6.8a9.9 9.9 0 0 1 4 5c2.4.6 3 3 5 4.3.1 2.8 2.8 3.8 3.7 6.2 1.3.4.5 1.5 1.1 2.5.8 1.7 2.7 2.4 3.4 4.1 1.9 2.6 4.6 4 6.4 6.7l1.2-1.5-1.2 1.5.8.5c6 4.3 11.7 8.9 18.6 12.5 1.9-.2 3 1.9 4.8 1.7 2.3-.1 3.7 1.2 5.5 2.5 1.8.8 3.8.2 5.2 1.3 1.5.4 3-.3 4.3.7 1-.4 2.3 0 3.3.6 1.4-.9 2.8-.8 4.3-1.2 1.5.7 2.7-.8 4.3.2 1.8-.3 3.3-.8 4.9-1.2 2.7-.5 5.5-.1 8-2.1 3.2-.3 5-3.5 7.9-4.5.9 0 1-.6.6-1.4.6.5 1 .6 1.2 0 3.6-4.3 7-7.8 10.2-12.5 1.6-4 5.4-7.8 5.1-12.4.7-2 3.4-2.4 3.3-4.6.9-.5.8-1.4 1-2.2.8-.5 1.4-1 1.2-2 1.2-1.3 1.5-2.7 2.7-4.2 1.6-.4.1-2.2 1.3-3 .8-1.7 1.5-3.5 3.1-4.5 1-1.4 1.6-2.7 2.5-4a5.2 5.2 0 0 1 2.7-2.2c1.6-1.7 2.4-3.8 4.5-5 2.5-4.4 4.7-4.6 4-5.9.5.5 1 .6 1.1-.1 1.9-2.6 3.5-5 6.5-6.5 1.6-2.7 5-5.2 7.8-6.9 2.3-2.4 4.7-4.3 7-6.5 3.3.2 4.7-2.7 7.4-3.4a9.1 9.1 0 0 1 5.7-2.6c1-2 2.9-2.5 4.6-3.3.8-1 2 0 3-.7 1.5-.7 2.8-1.3 4.5-1.4.8-1.2 1.5.1 2.5 0 1.3.3 2-1 3.2-.7 3.4-.2 6.8-1.2 10.2-.7l-.2-1.2c.1 1 .4 1.6 1 1 6.6-1 13.1.9 19.8 2.3 2.9.9 5.7 1.2 8.5 1.9 1.3 2.7 4.6 2 6.2 3.9 2.2.6 3.5 1.6 5.4 3 .3 1 1.5.6 2.3.8.5.7 1.3.8 2 1.1 1.4 1.3 2.5 2.2 3.8 3.9 1.6-.1 1.4 1.4 2.6 1.8 1 1 1.4 1.4 1.8 3 3 3.3 6.4 6.5 8.8 10.5.3-.5.8-.9 1.4-1.3-.9 1-1.4 1.8-.8 1.9 4.2 3.6 6.2 8.3 10 12.4 2.4 3.1 4.5 7.3 8.1 9.2 1.4 2.3 1.9 4.9 4.2 6.3 1 .3.7 1.4 1.5 2 1.2.1.9 1.4 2 1.5 0 1.3 1.2 1 1.5 2.1.8 1.2 1.2 2 2.8 2 1.2 1.2 2 2.5 3.6 3.2.7 2.7 3.6 3.3 5 5.4 2.4 3 5.6 6.5 9.5 8.9 1.4.2 1.7 1.9 2.9 2.6-.1-.2.4-.8 1-1.6-.6 1.2-.9 2.1-.2 2 4.6 2.6 8.4 5.4 12.9 8.5 4 1.4 7.5 5.4 12 5.5 2.3 1.4 3.8 3.7 6.5 4 1.1-.3 1.3 1 2.2 1.2 1.2-.5 1.4.8 2.5.4.8 1.3 2.7.9 3.6 2.3 2.1-.7 3.9.4 5.8 1 1.4-.1 2 1.5 3.6 1.7 1.9-.6 3 1.4 4.9 1 1.6 2.7 9 4.1 12.2 4.6.7.6 1.7 1.1 2.6 1.3-.1 0 0-.6.3-1.4-.3 1.1-.3 1.9.6 1.6 9.7 1.4 19.3 5.5 29.6 5.4a7.6 7.6 0 0 0 6.5 1.4c1.2 1 2.8.7 4.2.5.7 1 1.5 0 2.4.6 1 0 1.6.9 2.5.2 2-.7 4.6-.4 6.5 0 2.4.6 5 .4 7.3.2 2 2 10 1.7 12.9 1.2.9.4 2 .7 3 .6-.2 0-.2-.6-.1-1.4 0 1.1.2 1.8 1 1.3 5-.9 9.3-.1 14.5-.7 4.4-.4 9.7.1 13.8-2 2.7 0 5.2.9 7.6-.3.8-.8 1.6.2 2.5-.1.7-1 1.6 0 2.4-1 1 .7 1.4-.4 2.5-.1 1.4-.1 2.3 0 3.1-1.3 1.6-.4 3.2-.5 4.6-1.4 2.7 1 4.7-1.4 7.2-1.3 4-.4 9.3-1 13.4-3.4 1 0 2.1 0 3-.4-.2 0-.4-.8-.6-1.7.5 1.2 1.2 1.9 1.5 1.3 4.7-2.4 9.1-3.7 14.3-5.6 3.5-2.5 8.7-3 11.5-6.6 2.3-.7 4.5-1 6.5-2.2.7-1.7 2.6-.9 3.2-2.5 2-.4 3.1-2.2 5.4-2.5.5-1.5 1.6-2.2 2.7-3.3 1.5-.2 1.9-2 3.6-1.9 1.8-1 2.7-2.6 4.6-3.4 3.5-2 8.3-4.3 11-8.3 1-.3 2-.8 2.8-1.4-.2 0-.6-.4-1-1 .7.8 1.4 1.2 1.6.3 3.6-4.6 8.4-7.2 12-12.1 2.8-2.4 6.2-5.4 7.3-9 1.9-1.8 4.4-2.8 5.4-5.3 0-1.1 1.3-1 1.7-1.8 0-1.1 1.2-1.1 1-2.3 1.5-.5 1.4-2.4 3-3 0-2.1 1.5-3.6 2.5-5.3.3-1.4 2-1.7 2.5-3 0-2 2.1-2.6 2.2-4.5 3.3-1.4 6-7.5 7.3-10.9a8 8 0 0 0 2-2.2c-.3.1-1-.3-1.8-.8 1.3.4 2.2.6 2 0 2.3-6.1 6-11.3 8.4-17.6 1.3-2.3 2.2-5.1 3-7.6-.7-2.3 2.2-3.2 2.8-5.3.1-1.7.7-3.2 1.6-4.7a11 11 0 0 1 2.4-6.1c-.8-3.5.8-6.5 2.2-9.6-.7-1.3.7-2 .6-3.1.4-1.4.7-2 1.8-3.1.8-3.5 2.7-6.7 3-10.4.7-.7 1.4-1.5 1.7-2.4 0 0-.6-.1-1.4-.5 1 .4 1.8.5 1.7-.4 1.7-6.4 6-11.7 10-17.3 1.9-2.3 3.2-4.8 5-7 3.2-.5 4-3.7 6.5-4.8 1-1.6 3-3 5-3.6.5-1.6 1.6-2.2 2.6-3.3 1 0 1.4-.7 2-1.4 1 0 2-.3 3-.9.7-1.3 2.2-1.3 3.4-1.9.7-1.3 2.1 0 3.4-.6 2-1.7 4.6-1.5 7-2.7 1.6-1.1 3.2-1 5-1.4l-.4-1.2c.3 1 .7 1.5 1.3 1a64.2 64.2 0 0 1 20.7-3.5c1.2-.6 2.6-.6 3.9-.1 1.5-.7 3.2-1.7 4.8-.6 3 1.4 6.1-.2 8.9.8 1.4-.3 3.2 0 4.6.8a9.1 9.1 0 0 1 7.9.5c2.7.6 5.5.3 7.4 2.6 2.7.7 4.8 2.6 7 4v.3c-1 0-.5 0 0 0h2.6c1.1.1 2.3.2 3 0h.5l.1-.3.1-.4ZM391.2 410l.1.8c0-.2 0-.5-.2-.7h.1Zm-.6.1c0-.2 0-.3.2-.1l-.2.1Zm-.5.7-.7-2.4.9 2.3c-.1.1 0 0-.2 0Zm192.1-25ZM405.7 400v-.2.2Zm-45.4 236.2.2-.4-.2.4Zm1142.5-172.7h.5-.5Z"/><path fill="#FFC83F" d="m176.7 511.8 44.3 10.5c-50 29.2-45.9 19 2.4 44.4l-40.8 13.8"/><path fill="#E91315" d="M178 515c-.2-.2 2.6-7.1.7-6-2.7-.2-3 7.6-.6 6Zm7.9 68c-2.8 1-4.6-4-2.5-6.1.5-1.4 2.3 6.1 2.5 6Zm-.9-43.4c-1.6.9-2.7 2.2-4 3.3-1.3.7-2 1-2.5 2.5 0 .4.7.4 1 .8 1.2 2.4 3.6 3.7 5.8 5 3.3-4.9 3.2-7-.4-11.6Z"/><path fill="#fff" d="M47.2 770.5S142 730 171.5 646.9c29.5-83.2-9-193.6-9-193.6L90 471.4a94.5 94.5 0 0 0-71.2 85 86.7 86.7 0 0 1-2.6 17.7l-8.8 66.8-.3 2.6 40.2 127Z"/><path fill="#FFC83F" d="M643.8 537.9c76.2-7.2 46.6 143.4 112 175.4 46.4 23.8 63.7-33.6 63.7-33.6s-52 48.4-85.5-56.7c-33.5-105-90.2-85.1-90.2-85.1Z"/><path fill="#E91315" d="M745.3 658.8c5 6.6 8.2 14.5 15 20.2 1.7 2.5 5 2.9 6.2 6.2 3.5 2.3 6.7 3.9 10.2 5.6 2 1.4 3.8.7 6.1 1 1.3 1 2.9 0 4.2 1.3 1.8.2 3.4-.1 5.2 0 2.2-.5 4.2 1.4 6.5-.2 3.6.2 6.8-1.8 10.1-2.8 4 .5-1-5.4-1.1-6.6-2.4 1.3-4.6 4.7-7.7 3.4-.8.9-2 .4-3.2.6-1.5.4-3 1.1-4.7.6-.8 1.4-2-.2-3.2.5-.6-.5-.8-1-1.7-.5-2.2-.8-6.1 0-7.4-2.3-1 .3-2.1-.5-2.7-1.4-1.2.6-1.6-1-2.6-1.6-1.6.8-2-1.9-3.7-1.6-.4-.8-.8-.6-1.5-.5-.3-1.8-2.4-2.3-3.1-4-1.5.8-3.7-.7-3.3-2.3-.6-1.1-2.2-1-2.3-2.3 0-1.3-1.4-.6-1.6-1.8-.6-1.6-2.7-2-3.4-3.8 1-1.8-1.2-2.8-.8-4.3-.7-.2-1.8-.1-1.5-1.3-3.9-5.8-.2-7.7-8.5-3l.5.9Z"/><path fill="#E91315" d="M716 587.7c3.5 4.3 4.4 9.3 7.1 14.3 1.7 3.6 2.3 8.2 5.2 11 .7 2.6 0 5.3 1.6 7.5 1 .6.2 1.5.6 2.4 1.1.5.3 1.6 1.4 2.1-.5 1.1.7 1.5.5 2.6.3 1.3.4 2.2 1.7 3 .6 1.5.9 3.1 2 4.4-.4 2.8 2 4.5 2.3 7 1 3.8 2.3 8.5 4.9 12.3 2.3 5.9 1.4 3 7.4.5l-4.6-5.7c.6-1.7-.5-2.7-1-4.3-3-5.4-4-10-6.8-15.7-.1-2-1.2-3.4-.9-5.6-1.4-.5-.7-2-1-3.2-1.4-.9-1.3-3.3-2-4.7-1.7-.4-.3-2.7-1.7-3.9.8-2.4-2.1-1.4-1.8-3.1-1.6-1.2.3-3.3-2-4.6.6-1.5-.8-1.9-1-3.1 0-1.6-2-2.3-2-3.8-.8-1.4.8-3.2-1-4.3.8-1.1-.3-1.1-1-1.6l-2.5-7.4c0 .7-7.5 2.8-5.4 3.9Z"/><path fill="#E91315" d="M662.6 540.3c3.1.1 6 .4 8.7 2.3a20 20 0 0 1 9.2 4.3c2.4.6 4 2.5 6.2 3.4 2.4-.1 2.5 2.8 4 4 1.2.7 2.8 1.4 3.2 2.7.6.8 1.6.4 1.8 1.6 1.8.4 2.1 3.3 4 4 4.1 2 5.5 7.2 9 10.2-.7 2.3 1.4 3.7 2.4 5.4.8 3.3 3.8 5.3 4.4 8.7 2.2-1.8 8.3-2.2 4-5.4-1.2-1-1.7-2.5-3-3.4.5-2-1.2-3.2-2-5-1.6-1.4-2.1-4.3-4-4.7-1-2-1.7-3.8-3.5-5.2l-7.6-9.3c-.7-.8-.9-1.8-2.1-1.6-1-1.5-2.5-3.1-4.2-2.9-.3-1.9-2.6-2.5-3.6-4-1.6 1-1.6 0-3-.3-1.3-2.5-2.4-1.7-4-3.2-.8-1-2.1-.4-3-1.8-1.1 0-2.6-.1-3.5-.8-1.2-.1-1-1.5-2-2-.8-.8-1.8 0-2.2-1.3-1.4.8-2.5-.3-4-.2a12.2 12.2 0 0 0-5-2.1c.5.4-2.3 7.6-.2 6.6Z"/><path fill="#E91315" d="M706.1 592.9c-2.5-6.2-4.2-12.6-7.3-19-1.6-.8-1.1-3-2.5-3.8-1.9-1.2-2-2.9-2.5-4.9-.8-1.6-2.6-2.2-2.9-3.9-.8-1-2.3-1.5-2.4-3-1-.2-1.6-1.4-1.9-2.4-1.5-.2-2.3-1.1-3.6-1.8-.4-1.4-2.2-1.3-2.4-3-1.3-1-2.5-1.6-3.7-2.5-.6-1-1.7-.6-1.7-1.9-.8-1.6-2.6-1.9-4-2.7-1.8-2.5-5.2-2.3-7.3-4.3-.7-2-4.4 7-2.5 5.9l5.4 1.2c.4.9.5 2 1.7 1.7 2.2 3 7.1 3.1 8.2 6.4 2.2 1 4 3 5.8 4.7-.4 1.2.8.8 1.1 1.8.6.9.2 1.7 1.5 1.5 0 2.3 2.2 2.4 2.7 4.5 1 .2.7 1.3 2 1-.5 1.5 1.2 2.4 1.2 3.8 0 1.1 1.3.4 2 .6-.3 1 .8 1 1 2-1 1.2.3 2 1.1 2.6-.5 1.5.8 1.6 1 2.8-.1 1.3 2 2 1.9 3.3.6 1.2-1.2 2.8.4 3.8-1 1 0 1 .8 1.5l.8 6.6c.1-.6 8-1 6.1-2.5Z"/><path fill="#E91315" d="M719 660.6c-2.3-4.3-2.1-9-3.7-13.8-.7-3.5-.5-7.7-2.6-10.7-.1-2.4.9-4.6-.2-6.8-.8-.7.1-1.4-.2-2.2-1-.6 0-1.5-.8-2.1.7-1-.4-1.4 0-2.3 0-1.3 0-2-1.1-3-.3-1.4-.3-2.9-1.1-4.2 1.1-2.3-.9-4.3-.6-6.5-1-1 .6-2 .3-3.3-1.3-2.4-.5-5.2-1.8-7.8-1.4-6.5-.1-3.7-7.2-2.5l3 5.9c-1 1.4-.2 2.4-.1 4-.2 1.1.6 1.9.7 3 .5 1-.3 2.4 1 2.8-.3 3.2.4 6 1.4 9.3-.3 2 .5 3.3-.3 5.2 1.3.6.3 1.8.3 3 1.6.7 0 2.7 1.3 3.6-.3.9.2 1 .8 1.3-.6.8-.4 1.6-.3 2.5-.3 4 1.8 1.6 1.4 3.8 1.3 1.3-1 2.8 1 4.3-1 1.3.3 1.8.2 3-.4 1.3 1.5 2.4 1.3 3.7.4 1.3-1.7 2.7-.1 3.9-1 .9 0 1 .7 1.6.1 2.1.4 4.6.7 7 .1-.6 7.8-1.3 6-2.6Z"/><path fill="#E91315" d="M758.8 711.1c-1.2-1-2.8.3-3.2-1.5a6 6 0 0 1-3.9-2.5 19 19 0 0 1-7.5-5.4c-1.9-.6-3-2.7-4.5-3.4-2.4-.7-2.4-2.7-3.6-4.6-1-.4-1-1.6-2.3-1.8 0-.9-.3-1.6-1.3-1.8 0-.6-.2-1-1-1 .3-1.2-.8-1-.9-2-.5-1.2-.8-1.9-2.1-2.2-.8-1.8-2.7-2.8-2.6-5-1.3-1.6-1.7-3.4-3-5 1-1.8-.5-3.5-1.2-5.1-.1-3.1-2.4-5.3-2.3-8.4-2.2 1.4-8.8.4-5 4.3.9 1 1 2.4 2.1 3.5-1 1.7.5 3 .7 4.8 1.3 1.4 1.3 4.2 3 4.7.4 2.4 1.3 3.9 2.6 6 .6 1.6 3 2.9 2.5 4.8 1.7.4.7 3 2.5 3 .1 1 .5 2.5 1.8 2.5.6 1.5 1.8 3.2 3.3 3 0 1.8 2 2.6 2.7 4.3 1.8-.8 1.3 0 2.7.5.7 2.8 1.8 1.7 3 3.4.5 1.1 1.9.6 2.3 2 1 .3 2.5.5 3 1.3 1 .4.6 1.6 1.4 2.2.5 1 1.6.3 1.5 1.7 1.5-.6 2.1.6 3.6.9.8 1.4 2.3 2.2 3.6 3-.3-.4 4.3-6.6 2.1-6.2Z"/><path fill="#E91315" d="M811.4 690.3c-1 1.3.2 2.9-1.6 3.3-.2 1.1-1 2.7-2 3.2-1.3 2-2.8 4.6-4.8 6.3-1.9 1.3-2.6 4-5 4.7-.5 1.4-1.3 3-3 3-2.3-.3-3.2 2.5-5.1 2.4-.8.6-1.7.6-2.3 1.5-1.1-.5-2 1-3.4.2-1.3 1.7-4 2.2-5.9 2-1.6-.7-3.2.1-4.7-.2-1.5-.2-1.6-.2-2.8-1.3-1.2-.5-2.4-.2-3.6-.6-2.4-1.8-5.5-1.3-7.6-3.4-.7 2.7-5.3 7 .2 6.6 1.3 0 2.4.8 3.9.5.8 1.9 2.7 1.5 4.4 2.4 5.6.2 10.1 1.6 15.7-.3 1.3-.5 2.3.6 3.1-.4 1.2-.4 2.6.4 3-1 1.2.1 2.8.2 3-1.2 1.6 0 2.4-1.2 3.6-1.8-.1-1.6 1.2-.5 2-1.5 1.3-1.1 3.4-1.1 2.5-3.3 1.1 0 1-1 1.8-1.5 1.4.5 1.9-.9 2.2-2 .9-.3 1.9-.4 1.6-1.6 1.3-.6 1.7-1.7 2.1-3 .4-2 3.7-1.2 3.7-3.4 1.4 0 .8-.8.7-1.7 1.4-1.2 2.2-3.1 3.8-4.5 2.7-1-6-4.9-5.5-3.4ZM662.7 533.6c-8.7-.9-18.5.2-26 5 5.5 1.7 15.2 2.7 21.6 5.9 3 3 3.7-3.9 4.8-5.2-1.6 1-1 .7-1.4 1l1-6.6Z"/><path fill="#E91315" d="M817.6 692.6c1.7-3 2.5-6.5 3.5-9.8.6-2.3 1.8-4.7 1.1-7.2a154 154 0 0 1-14.5 7.9c2 6.1 4.7 6.5 10 9.1Z"/><path fill="#FFC83F" d="M615.9 291.3c-37.5-2.3-72 42.7-71.4 69.6 5.1-62.2 124.8-45.6 143.3-26.6 0 0-27.6-51-72-43Z"/><path fill="#E91315" d="M600.5 312c-9.2 2.3-19 4.2-27.4 9.8-1.6 2.3-5.1 1.7-7.2 3.6-.7.9-1 1.7-2.2 1.7-1 .4-.8 1.5-2 1.5a8.9 8.9 0 0 1-4.2 3.2c-1.5 4.7-6.3 7-8.2 11.3-1 2-3.8 2.6-3.8 5.3-2.4 3-2.7 6.7-3.9 10.2-2.6 3.1 6 2.6 6.2 2.1-.3-1.2.2-1.9-.4-3.3 1-1.2-.4-3.2 1.5-3.6 2.4-3.2 3.4-9.6 7-11.3 1.4-2.2 3.5-6 6.2-6.5.3-1.1 1.5-1.7 2.6-1.9-.1-1.5 1.5-1.2 2.7-1.8.3-1.5 2.6-2.2 3.8-3.1 0-1 .2-1.1 1.2-1a12 12 0 0 1 4-1.7c-.2-1.6 1.8-3.2 3.3-2.4 1.4-.7 2-2 3.9-1.6.3-1 1.3-1 2.2-1 1-1.1 2.3-1.9 3.8-2.1 1.5 1.4 3-.4 4.3.5.5-1.4 1.5-.8 2.5-1.5 1.9-.4 3.9.3 5.9 0-.7-.2.1-8-1.8-6.3Z"/><path fill="#E91315" d="M678.3 326.4c-7.1-2.1-13.9-5.3-21.3-7.8-1.8.5-3.3-1.3-5-1-2.3.4-3.8-.7-5.7-2-1.8-.7-3.8 0-5.2-1.1-1.5-.3-3 .3-4.2-.8-1.6.8-2.9-1.3-4.4-.5-1.8 1-4-.5-5.9.2-2-1.5-4.4-.7-6.6-.9-2 .2-3.2-1.4-5.4-1.1-4.3 0-8.7.3-13.1.4.6.3-.1 8.4 1.7 6.3l6.2-1.8c1.3 1.3 2.6.7 4.3.9 1.2.4 2.2-.3 3.4-.1 1.3-.2 2.6.8 3.4-.4 2.9 1 5.5 1.2 8.7 1.3 3-.4 5.6 2.2 8.1 1.4 2 1.9 5 1 7.3 2 .8-.7 1-.7 1.6.2 1.5.3 2.8.8 4.1 1.5 1.1-1.4 2.3-.8 3.7-.4.4 1.5 2 1.2 3.1 1.1 2 1.6 4.4 1.7 7 2 1.6.6 2 3 4 2.7.2 1.4 1 .6 1.9.4 1.6 1.1 3.7 1.7 5.4 3.3 1.3 2.6 4.7-6.4 3-5.8Z"/><path fill="#E91315" d="M632 294.1c1.5.7 2.4-1.1 3.2.4a5 5 0 0 1 4 1.2c2.3 0 5.6 1.6 7.7 3 1.7 0 3.2 1.6 4.7 1.9 2.4-.1 2.7 1.8 4.2 3.2.6 0 .9.1 1.1.7.8.2 1.5.1 1.7 1.1.6.6 1.4 0 1.6 1 1.1-.2.6 1.2 1.7 1 .7.8.9 2 2 1.8.9 0 2.3.8 2.6 1.8.7.4 1.5.3 1.5 1.2.7 1.6 2.3 2 3.2 3.2.2.5.5.8 1 .9 0 .5-.1 1.2.2 1.7.6 1 1.7 1.5 2.4 2.4.9 2.7 3.6 3.8 4.4 6.5 1.3-1.8 8.2-3.4 3.5-5.5-1.5-1.1-3.2-2-3-4-1.1-.2-1.2-1.5-2-2.2-1-1-2.4-1.7-2.9-3.2-1.2.3-1.2-.4-1.7-1.3-.9-.1-.7-.7-.8-1.3-1.7-.8-2.8-2.6-4.6-3.5-1.1-.6-.7-2-2-2-.8-.7-.8-2.1-2-1.6-.4-1-1-2.3-2.2-1.8-.7-1.3-2-1.4-2.8-2.2-.9.4-1 .4-1.2-.6-.8-.7-1.9-.8-2.3-1.8-1-1.2-1.8 1.4-2.5-.2-1.7.3-1.4-2.4-3.7-1.7-.5-1.4-1.5-.6-2.4-1.4-.8-1-2.6.1-3.5-.8-1 0-.8-1.4-1.6-1.7-.8-.8-1.6.1-1.9-1.1-1 1-1.9 0-3.3.1-1-1-2.6-1.3-4-1.8.4.4-2 7.6-.2 6.7Z"/><path fill="#E91315" d="M575.3 309.1c1.4-.5.9-2.4 2.6-2a5 5 0 0 1 3.6-2c1.9-2.2 5.8-3.2 8.6-4.3.7-.9 1.9-1.4 3-1.2 1-1.4 2.5-2.5 4.3-1.6 1.4-.3 2.6-.5 3.7-1.4 1.2.8 1.6-.7 2.7-.3.4-.7.6-.6 1.3-.2.5-.7 1.7-.6 2.5-.3a6.6 6.6 0 0 1 6.3-1.8c1 0 1.5-.4 2.3-.7 1 0 2 .2 2.9-.5 2 2 4.5-.3 6.8 1 2-.5 3.6-.4 5.5.3-.4 0 1.6-7.4.3-6.6-.5.2-1.1.4-1.4-.1-.6.5-1.5 1-2.3.6-1.6.7-2.3.6-3.6-.5-1.1 1-3-.5-4.4.6-1 0-2 .4-3 .2-.3.8-.6.9-1.6.6h.2c-2.7-.2-5.7.7-8.9 1.4-.8-1-1 .3-2 0-1 .2-1.6-.6-2 .6-1-.4-2.4-.7-2.8.6-.9 0-2.1-.2-2.6.7-1-.2-.9.3-1.1 1-.9-.6-2.1-.3-3 .3-1.4-.5-1.6.5-1.7 1.6-1.2-.2-1.6 1.4-2.8.3-1.3.5-1.7 1.7-3.2 1.3-.2 1-1 1-1.9 1-.5.7-1.3 1.9-2.2 2-.7.7-1.5-.4-2.3 0-1.1 0-1 1.2-2 .5-.5 2.7-4.1 2.5-6.3 4 .5 0 4 6.8 4.5 5Z"/><path fill="#E91315" d="M547.8 360.7c.6-1.4-1-2.4.5-3.2-.3-1.6.3-3 1.1-4.1-.1-2.4 1.2-5.9 2.4-8.2.2-1.4.1-3.2 1.3-4.3-.1-1.3-.3-2.4.3-3.5 2.5-1 1.7-4 3.2-5.2.2-1 .8-1.6.7-2.5 1-.4.7-1.4 1.5-2.2 1-.2.4-1.3.4-2 .5-.5.5-1.2.7-1.8.8-.2.8-1 .9-1.7.9-.3 1.4-1 2-1.6-.1-1.4 1.1-1.8 1.8-2.7 0-1.3 1.6-.4 2.3-1.3.7-2 2.7-2.3 4-3.8a9.2 9.2 0 0 1 3.9-3c-1.7-1.2-3.6-7.8-5.5-3.6-.4 1.4-1.8 2-2.3 3.4-1.8-.3-2.4 1.3-3.9 2.2-.9 1.1-1.5 2.6-3 3.4.2.7.5 1-.4 1.4-1.9 1.8-3.3 4-4.4 6.8-.4 1.2-1.8 1-1.5 2.3-.6 1-2 1.3-1.3 2.4-.9.5-2 1.4-1.3 2.5-1.1.9-1 2.2-1.6 3 1.1 1.2-.4 1-.6 2.1-.5 1.6-2 2.4-.3 3.7-.8.5 0 1.2-.7 2-.5.1-1 .2-1.1 1 .3 1 0 1.7-1 2.5.4.6.6 1 0 1.4-1 1.4.8 4.1-1.6 4.7-1 .8-.2 2-1.5 2.4 1 1 0 1.8.2 3.2-1 1-1.4 2.5-1.8 4 .3-.5 7.4 2 6.6.3Zm128.8-27.9c2.8 1.2 5.7 1.9 8.5 3 1.8.9 3.5 1.9 5.5 1.9.2 0 .5-.2.3-.4-1.2-2.8-1.4-5.9-3-8.6-2.7-6-4.1-5.5-8.7-1.5v-.5l-2.6 6.2Zm-257.1 57.3c8.6 3.5 17.7 7.6 26 11a64.3 64.3 0 0 0-20-21.3l-1.4 2.3a10 10 0 0 0 1-2.3c-.5-.5-1.2 1-.8-.4-.5.5-.5-.3-1 0 0-.5.1-.8-.4-.3 0-.6-.1 0-.5-.4-.3-.2-.3-.6-.7-.3-.4.3 0-.8-.6-.3 0-.9-1.2.3-1.3-.8-2.2 2.2-.2-1.7-2.5-.3 0-1.5-.5.4-.6-.6-.6 1 0-.7-.7.2-.3-.3-.3-1-.7-.3-.2.7-.5.3-.9.7 0-.6-.3-.2-.5 0-.2-.7-.5-1-1-.2-.2-.2-.1-.7-.4-.2-.3-.4-.3 0-.4.1-.1-.3-.2-1-.6-1.2-.5.5-.8.2-1.4-.2-.6.2-1 1-1.3.3-.3-.3-.4 0-.4.5v-.7c-2.3.3-4.4 1.1-6.4 2-1.5 1-3 2.3-3.9 4-.2.7-.5 1.4-1 2-1.2.7 1 1 1.5 1.2 1 .3 2.2-.2 3.3 0 2.3.3 4.4 1.3 6.6 1.8l.5-2-.3 2c.5.2.7-1.5.7 0 .2-.6.3.2.6-.3 0 .6 0 .8.3.2 0 .3 0 .5.2.2.5.3.3.5.8 0 0 .3 0 .8.3.4 0 .2 0 .5.2.1 0 .4.1 0 .3 0 .3-.1.3.1.3.4.3-.3.6-1 1-.7 0 .4-.2 1.7.3.8 0 .7.2.2.5 0 0-.1-.1.5 0 .4.1.2.2-.2.3-.3v.4c.4-.6.3-.4.2 0 .2 0 .3-.5.3 0 .3 0 0 .3.1.5.3-.5.6-.9.8-.9.4-.3.2 0 .2.2.4-.2.5-.7.5 0s.3.3.6 0c0 .2-.2.7.2.2 0 .5.1 0 .3 0 0 .2-.4 1.3.1 1.2.2-.2.2-.4.3 0 .4-.2 0 .7 1 .4.4-.6 0 .4.4.5l1.2-3-1.2 3Z"/><path fill="#EF656C" d="M66 618.5c-3-1.5-56.6 38.2-55.2 23.8L66 618.5Z"/><path fill="#EF656C" d="M64.2 615.8c-1 .3-1.3.8-1.9 1.6-.8-.5-1.2.2-2 .5-1 .4-1.4.7-2.6.6-.2.5-.2 1-1 .6-4.3 2.3-8.7 3.3-12.6 6.4-1.8-.6-3.5.2-4.6 1.5-.8-.2-1.5-.2-1.7.7-.7-.1-.9 0-1.1.6-1-.5-1 .6-1.9.4-.7.5-1.3-.2-1.6.9-.5.8-1.6 1.7-2.6 1.6-.5.4-.7 1.2-1.5.8-1.2-.2-1.9.7-2.6 1.4-.9-.3-1.8.3-2.3 1-1.5-1.2-2.6.3-4 .6-1.4.7-3.2.8-4.6 2-.6 1-1.9.2-2.7.8l2.6 6.1a51 51 0 0 0 4.3-3.5c1.5 1 1.6-.3 2.8 0 1.6-.6 2.8-2 4.6-2.1.2-.7 0-1.1 1-1 2.5-.4 4.8-2 7.5-3.3 1 .8 1.7-1.1 3-.4.2-1.3 1.4-.6 2.4-.8 0-1.6 2.1-.5 2.6-1.9 1.2.2.2-1.5 1.6-.7 1-.5 2-.8 3-1 .3-.5-.4-1.9.9-1.4.7-1.5 2.4.5 3.2-1.6 1.4.6 1.3-.6 2.3-.7 1.2.2 1.6-1.8 2.7-1.7 1-.5 2.5 1.3 3.2-.3 1 1 .8 0 1.2-.8.8.6 1.1-.5 1.8-.7 1.3.3 2.5-.1 3.8-.4-.5 0-2.3-7.5-3.2-5.8Z"/><path fill="#EF656C" d="M18.5 648c1-.4 1.2-.9 1.7-1.7 1 .5 1.2-.3 2-.7 1-.5 1.3-.8 2.5-.8.2-.5.2-1 .9-.7 4.1-2.7 8.5-4.2 12-7.5 1.9.4 3.6-.6 4.5-2 .8.1 1.5 0 1.7-.9.6 0 .8 0 1-.7 1 .5.9-.6 1.8-.5.7-.5 1.4 0 1.6-1 .3-.9 1.4-2 2.4-1.9.5-.4.6-1.2 1.5-1 1.2.2 1.7-.8 2.4-1.6.9.2 1.7-.5 2.2-1.2 1.6 1 2.6-.5 3.8-1 1.4-.8 3.2-1 4.5-2.3.5-1 1.8-.5 2.7-1.1l-3.2-5.9a52 52 0 0 0-4 4c-1.5-1-1.5.4-2.7.3-1.6.7-2.7 2.2-4.5 2.5-.1.6 0 1-.8 1-2.5.7-4.7 2.5-7.2 4-1.1-.7-1.6 1.3-3 .7 0 1.3-1.3.7-2.3 1 .1 1.6-2.1.7-2.4 2.1-1.2 0 0 1.6-1.5.8-1 .7-2 1-3 1.3-.2.5.6 1.9-.7 1.5-.6 1.6-2.5-.3-3 1.9-1.5-.5-1.3.7-2.3.9-1.2-.1-1.4 2-2.6 2-1 .6-2.5-1.1-3.1.5-1.1-.8-.8.2-1.1 1-.9-.5-1 .5-1.7.8-1.3-.1-2.5.4-3.8.8.6 0 3 7.3 3.8 5.5Z"/><path fill="#EF656C" d="M9.6 647.1c-.3-.7-.5-1.4-.5-2.2-.1-.7-.5-1.3-.8-2l.5-1.1c.4-.3.8-.5.8-1 3.9-6.1 4.2 0 5.9 3l-5.9 3.3Z"/><path fill="#EF656C" d="M18 648.5c-.9.5-1.8.3-2.6.6-.5 0-.8.5-1.3.5l-1-.5c-.3-.5-.6-.7-1.2-.7-6.2-2.9.4-3.9 2.9-5.7l3.2 5.8Z"/><path fill="#fff" d="M67.8 618.7 16 574.1l-8.7 66.8 60.5-22.2Z"/><path fill="#E91315" d="M11.3 635.2c.3-1 0-1.5-.5-2.4 1-.4.5-1 .6-1.9.3-1.1.2-1.6.8-2.5-.2-.5-.6-.7 0-1.1 0-2.8.7-5.3 1.2-7.9a3 3 0 0 1 .3-2.9c-.4-1-.8-2-.5-3.1a4.3 4.3 0 0 0 1-4.8c.6-.5 1-1.1.3-1.8.4-.5.5-.7 0-1.2 1-.6 0-1 .6-1.8 0-.8.9-1 .2-1.8-.5-.8-.7-2.2-.1-3 0-.7-.7-1.2 0-1.7.8-1 .4-1.9.2-3 .6-.5.6-1.5.3-2.3 1.8-.7 1.1-2.4 1.5-3.6.1-1.6 1-3.2.6-5-.5-1 .8-1.7.7-2.7l-6.6-.9.2 1.4c-.4.3-.4.2 0 .6.7 1 0 2.2.7 3.4-1.7.7-.6 1.5-1.4 2.4-.4 1.7.3 3.4-.6 5 .5.5 1 .6.4 1.2-1 2.4-.8 5.2-1 8.1-1.2.5 0 2-1.3 2.8 1 .8-.1 1.4-.5 2.4 1.4.8-.6 2 .4 3-.9 1 1.2 1-.3 1.8a9 9 0 0 1-.8 3.1c.4.5 2 .6 1 1.4.8 1.4-1.8 1.9-.4 3.6-1.2.8-.1 1.4-.6 2.3-.8.9.8 2.3.1 3.1 0 1.2-2.4 1.5-1.4 2.9-1.3.4-.3.7.1 1.4-.8.4-.1 1.2-.3 1.9-.8 1-1.1 2.2-1.5 3.4.2-.5 7.6 2 6.6.2ZM160.6 441l.1-.2v.2Zm-2.4-9.6c-.6-2.8-3.8-3.8-4.5-6.3 0-.7-.6-.7-1.4-.3.5-.6.7-1 0-1.2-4-3-6.1-7.2-10.3-10.4-2.6-2.5-5.4-6-9-6.7-1.6-1.6-2.7-3.3-4.6-4.4-1.7.2-2-1.8-3.6-1.4-.4-.6-.8-.8-1.5-.6-.4-.6-.6-1-1.5-.7-1.2-1-2.3-1.8-3.8-1-2-.8-4.2 0-6-1.2-2.3.2-4.4 0-6.4.8-2-1.5-4.2.1-6 1.1-3.3.4-4.5 3.7-6.6 5.7-.5.3-.8 1-1.1 1.5.1-.1.7.2 1.5.7l-1.5-.7a8 8 0 0 0-2.1 1.4c.3-.6.2-1-.4-1-6.5-3.3-12.6-8.3-20.2-9.8-3.5-1.4-6.6 0-9.8-2-1.9-.5-3.6.7-5.3 0-1.5.1-2.8 1.2-4.2.7-1.2 1.2-3.2 0-4.1 1.4l-1 .9-2.3-.3c-1.4.1-2.4 1.7-3.6 1.4-.9.2-.7 1.1-1.7.9-.2.8-.5.7-1.1.6-.4.8-1.4 1-2.3 1.1-.2 1.3-1 2-1.6 3-1.3.3-1 1.9-2.5 2-1 1.4-1.1 2.8-2.1 4-.5 2-2.2.8-2 5.1-1.3 2.5.3 5.2-.1 7.8.1-.2.9-.3 1.9-.4-1.2.3-2 .7-2.6 1.2-1.6.3-3.1.8-4.6 1.4-11.7 1.7-18.7 14.5-14.6 26A36.3 36.3 0 0 0 30 470c3.2 1.7 6.2.7 9.6.3 3 0 6.4.6 9.2-.7l1.5-.3c2.2-.2 4.3-.4 6.4-1 4.4-.6 8.8-1.3 13.3-2.7 2-1 4.2-.8 6.4-1.2-.2 0-.3-.4-.4-.9h.4c.8.9 2 .8 4.6-1 .3-.2.6-.4 1-.2 1.4-.1 2-.1 2.8-1.3 1.4-.5 2.9-.5 4-1.5 2.4 1 4.2-1.1 6.5-1 .8-1 1.9.5 3.1.1 2.1-1.3 4.5-.7 6.8-1.6 3.2-1 4.4-1 4.7-1.4.2.5.5.6.9.2 5.3-2.2 10.9-2.5 16.7-4.2 1.9.3 3.5-1.7 5.6-1.1 1.5-1.3 3.2-2.3 5.1-1.3 1.6-.2 3-.5 4.2-1.4 1.3.5 2.6-.3 3.6-1 1.2.6 2.3-.8 3.7 0 .8-1 1.5-1.5 2.6-1.8 3.8-1.5 5.7.2 8.3-4.3 1.3-3.2.2-7.2-2.5-9.4Zm-49 21.6.1.1v-.1Z"/><path fill="#E91315" d="M185.8 565.5c-1.5-1 .2-2.8-1-4 .4-.9 0-1-.6-1.5.4-.5.8-1 .6-1.8-.1-1.2 0-2.1.1-3.3-1.7-.6-1-1.1-1.6-2.4 1.3-2.3-.4-3.4.5-5.6-1-.6-.5-1.5-.3-2.4a6.9 6.9 0 0 1-1.1-4c1.7-1.2.2-3 1.2-4.1-1.2-1-1.3-2.8-1-4.4.2-1.3.2-2.7.2-4.1-.2.3-1.8.3-3.4.4l3.4-.4c-.7-2.2-1.4-3.8-2.2-6-.8-1 .4-1.6.5-2.6-1-.8-.1-1.5-.6-2.5-1.4-5.9-1.6-10.6-3.5-16.4.2-2-.7-3.5-.2-5.6-1.3-.6-.4-1.9-.5-3.2-1.7-.6-.2-2.8-1.6-3.8.2-.9-.2-1-.9-1.3.6-.8.2-1.7.1-2.7 0-4.2-2-1.6-1.8-3.9-1.4-1.3.8-3-1.3-4.5.8-1.5-.5-1.9-.5-3.1.3-1.5-1.7-2.5-1.6-4-.5-1.3 1.5-2.9-.1-4 1-1-.1-1.2-.8-1.8l-1-7.4c-.1.3-1.6.6-3.1 1l3-1c-.3-.9-1-1.4-1.6-2.2-.3-.3 0-1-.7-1l-.7-.3c-.2 0-.5.2-.8.1-1-1-2.4-1-3.7-1-.4-.2-.3.5 0 1.5-.2-.6-.4-1-.4-1.5l-6.3 3c-1 .9-1.8-.3-2.9-.2-.7 1-1.6.3-2.6.8-6.3 2-11.4 2.8-17.7 5-2.2 0-3.8 1-6 .6-.7 1.3-2.2.5-3.5.7-.8 1.7-3.1.4-4.2 1.8-1-.2-1 .3-1.4 1-.7-.3-1.4-.5-2.1-.1-1.2.3-2.3.4-3.6.4-.4.8-.2 2-1.5 1.6-1.5 1.4-3.5-.7-5 1.4-2.8-.6-5.1 1.6-7.8 2-1.5.6-3.1-1.4-4.5.2-1-1-1.3.2-2 .9l-4.5.6c-1-.2-1.8 0-2.4.5l-1.3.3c-.4 0-1 .2-1.6.7l-1.4 1.1c-2.8 2-5.6 1.6-8.8 3.3-4.4 2.8-8.5 4.6-12.3 7.3-1.9 1-3.2 3.5-5.4 3.4-.5 1.2-1.8 1.8-3 2-.2 1-.3 1.4-1.3 1.4-1 .7-2 .8-1.8 2.1-1.6 1-3.5 2.4-3.5 4.1-2 .4-2.8 2.6-4.6 3.6.8 1.8-.3 1.6-.7 3-2.4 1-2.4 3.3-4.6 4.5.3 1.1-.6 1.6-1.4 2.3-.2 1.2-.5 2.8-1.4 3.6-.4 1.1-1.8.8-2.4 1.7-1 .8-.3 1.9-1.8 2 .4 1.7-.7 3.4-1.7 4.8-1 1.1-1.8 2.6-2.6 4 .2-.2 1.2.3 2.4 1l-2.4-1c-.7 2.4-.9 4.4-1.3 7 .2 1.3-1.3 1.4-1.7 2.4.5 1.2-.7 1.7-.7 2.8-1.3 6.3-2.5 11.4-2.7 17.8-.3 2.5-.4 4.6-1.5 6.9 1 1-.2 2.1-.6 3.4 1.4 1.8-1.3 4.4.3 6-1.7 1.3-1.2 3.8-2 5.6 1.4 1 1 2.2.8 3.8-1.4.7-.9 2.2-.6 3.4-1.2 2.3-.9 4.9-.6 7.6-.2 1.8-2.6 2.8-1.8 4.8-1.3.5-.4 1.2 0 2-.7 2-.8 4.3-1.8 6.5-.7.6-.3 1.1.6 1.5-1 .1-1.4.8-.9 2.8 1.1 4-.8 6.7-1.3 10.4.4 2.2-1.1 4.8 0 6.5-.8 2.2-1.4 4-1.3 6.5-.4 4-.6 7.4-2.1 11.2 1.5 1.2 1 2.4 1.1 4 2 1.1.8 4.7 3.1 5.5-.6 1.9.8 3.7.8 5.6 1.9.2 1.2 1 2.2 2.2-.6 2.5.8 3 1 5.2-.1 1.3 1.3 1.8.9 3.4.7 1 1.8 2.1 1.8 3.3.7 1-.5 1.8-.3 2.9-.1 1.2 1.2 1.5.3 2.6 1.5.6 1.2 2.2 2 3.5-.2 1.9.3 3.7.7 5.5 1 2.2 2 3.9 3.3 6.2 1 .9-.1 1.8 0 2.9 1 .8.6 2.2 1.2 3.5 2.8 7.2 5.2 14.1 7 21.7-.6 1.3 1.3 1.2.6 2.5 0 1.9 1.3 2.5 1.5 4.3.2 1.2.6 2.6 1.8 3-.8 1.6.8 3.1.5 4.7.5 2.1 1.4 0 2.5 3-.6 2.6.8 3.2 1 5.3.3 2.6 2.3 4.8 3 7.6-1.5 1.6.4 3.2-.3 4.6.6.5 1.6.8 1.1 1.9 1.6 2 .6 4.7 1.5 7.1.1-.3 1-.5 2.3-.7-2 .8-3 2 .3 4.3 1.1 1.2 2.5.5 3.8.5.2.7.3.9 1.4 1.2.7-.3 1-.1 1.6.2 3.4.4 4-.4 3.7-1.6.8 1 1.8 1 3.6-1.6 1.9-.6 2.4-2.3 4.6-1.7.7-1.1 2.5-1.1 3.7-2 .9-1.6 3.7-1.2 4-3.1 5.1-1.1 8.7-6.2 14-7.1 0-1.5 1.6-1.1 2.8-1.7 0-1.2 1-1.1 1.8-1.7 1-.5 2-1.3 2-2.4 1.7.4 2.6-1.6 4-1.7 1.9-1-.4-1.1 2-3 2.8-.2 2.2-1.6 4.2-2.4 1.3-.2 1.1-1.6 2.7-1.7.5-1 1.2-2.3 2.2-2.6 1.1-1 3.3.2 3.8-1.8 1.3.5 1-.5 1.3-1.4 2-1 4.1-2.5 6.4-3.8-.3 0-.7-.5-1.3-1.3 1.1 1.1 2.1 1.4 3.2-1.3 1.1-1.6 2.1-3.4 4.4-3.6 1.3-1.7 3.5-3.5 5.3-5.4 1.2-.4.2-1.6 1.5-2l3.3-2.7c2.3-3 4.4-5.8 7.5-7.5-.3-1.4 1.3-1.5 2.3-2.3-.3-1.2.6-1.4 1.3-2.2.8-.8 1.6-1.9 1.3-3 1.1-.1 2-1.3 2.5-2.3 3.2-1.4-1.4-2.3 3.8-5.3.2-1.3.8-2 2-2.6 0-1.8 2-2.9 2.1-5 1-1.3 3.5-1 3.5-3.1 1.4 0 .8-.8.7-1.8 1.6-1.6 3.2-3.7 4.8-5.7l-1.6-.8c1.4.7 2.4.5 2.6-2.3 0-1.4 1-2.5 1-4 2-.5 2-2.5 3.2-4 1.5-5.4 4-8.8 5.3-14.3.9-2.2 1.4-4 2.9-5.8-.9-1.2.6-2 1.1-3-1-1.9 1.8-4.2.3-5.9 1.4-1 1.2-3.2 2.1-4.7-1.3-1-.9-2-.6-3.5 2-.6.2-2.7 1.3-3.8.5-1.8.7-3.9.4-6.1.3-1.6 2.6-2.4 1.8-4.3 1.3-.5.4-1 0-2 .7-1.6.8-3.8 1.7-5.8.8-.6.2-1.1-.9-1.4 1.3-.2 1.8-1 .5-3.9.6-1 0-2.1-.2-3.2 1.5-1 .6-2 1.3-3.3 0-4.3-.2-8.1.1-11.8.6-2.6-1.2-6 .4-8.2-.7-1-.3-2.2.2-3.2-1.1-.8 0-2 .1-3.2ZM11.9 626.4c1.3-2 .2-4.3 1.3-6.3.8-3.2.2-6.4 1.4-9.5h-1.2c1 0 1.7-.1 1.3-1 0-6.9 1.8-13.4 2.4-20.5.9-2.9.5-6 .7-9 .6 0 1.2-.3 1.7-.7-.7.9-1 1.6-.3 1.6.7.8 1.3.8 2.3 1-.2 1 .6 1 1.2 1.5.9.8 1.3 1 1.7 2.1.6 0 1-.2 1 .6 4 3 6.8 6.4 11.2 8.6.3 1.9 1.8 3 3.5 3.5 0 .8.4 1.4 1.3 1.2.2.6.4.8 1 .8 0 1 1 .5 1.2 1.4.7.5.5 1.3 1.5 1.1.9 0 2.2.7 2.6 1.6.6.4 1.4.2 1.4 1 .3 1.2 1.4 1.4 2.4 1.8.1.9 1 1.4 1.9 1.6-.4 1.9 1.4 2.3 2.2 3.3 1.3 1 2.2 2.5 3.8 3.3 1.1 0 1 1.6 2 2.1l1.2-1.5c-.5 1-.7 1.9-.6 3-.4-1.1-.8-1.7-1.2-1.1-1 .2-1.2.7-1.8 1.5-.8-.7-1 0-1.9.3-1 .3-1.4.5-2.5.4-.2 1-.8.2-1.3.9-2.8 1-5.3 1.4-7.7 2.8-2 .2-2.4 1.6-4.1 2.2-1.7-.7-3.4 0-4.5 1.2-.7-.3-1.4-.3-1.6.5-.6-.1-.9 0-1.1.5-1-.6-1 .5-1.8.3-.7.4-1.3-.2-1.6.8-.4.7-1.5 1.6-2.4 1.4-.6.3-.8 1.1-1.6.7-1-.3-1.7.5-2.5 1.1-.8-.3-1.6.3-2.2.9-1.3-1.3-2.5 0-3.7.3-1.4.6-3.1.6-4.5 1.6-.6.9-1.8.1-2.6.6l.6 1.8c-.4-.8-1-1.4-1.8-1.7l.7-2.6c.2-2.1-.3-5.4 1-7Zm1.7 62.3c0-.4 1.6-.6 3.2-1-.9.3-1.9.7-3.2 1Zm7 .9v-.2l.9-.2-.9.4Zm24.6 77.6.6-.2-.6.2Zm135.2-184.5c.1 1.4-.8 2.6 0 4-1 .8-1.5 2-1.3 3.2.6 2.2-.8 4.4-.5 6.7.4 1.9-.3 3.4-.7 5.2l1.5.1c-1 0-1.8.3-1.5.7.1 3.2.2 6-1.2 9 .4 3-.8 7-1.7 10-.3 3.3-.9 6.3-1.1 9.5-2.6 2-1.5 5-3 7.4 0 2-.7 4.1-2 5.9 1 2.3-1 4-.8 6.3-2.2 1.6-1.6 4.4-3.2 6.2.4 1.3-1 1.1-1.6 2-1 1.8-1.3 3.6-2.6 5.1-1.5 2.3-1.8 4.9-3.8 6.7l.9.4c-.8-.3-1.3-.3-1.2.4-2.4 6.2-7 11.2-10.8 16.9-2 2.3-3 4.9-4.6 7.3-3.1.8-3.4 4.1-5.8 5.6a9.5 9.5 0 0 1-4.3 4.6c0 2.5-2.3 3.4-3.2 5.6-2.6.5-3 3.4-5.3 4.5-.1 1.3-1.3.6-2.2 1.3-1.6 1.2-2.5 2.8-4.3 3.8-2.2 1.5-3.4 3.9-6 5l.7.6c-.6-.5-1-.7-1.3 0-1 .8-1.3 1.5-1.8 2.6-.7 0-1.3 0-1.6 1-1.4 1.3-3.2 1.4-4 3-4.3 2.4-7.6 6.4-12.1 8.6-1 2.8-3.5 3-6 4-.6 1-1.9 1-2.3 2.3-1 0-1.8.2-2 1.2-1.9.5-2.8 2.4-5 2.5-.7 2.4-3.3 2.6-4.6 4.5-2.8-.1-4 2.5-6.4 3-.6 1.3-2 .1-3.2.9-1.9 1.9-4.5 2-6.7 3.5-1.4 1.3-3 1.5-4.7 2v.2h-.4c.5-.2.7-.6.1-1-4.2-9.6-5.6-20.6-10.6-30.3.6-2.5-.3-5-1.7-6.9.3-1.5-.6-3-1.4-4.2.5-1.1-.7-1.5-.5-2.6-.5-1 .1-2-1-2.6a14.4 14.4 0 0 1-2.6-6.3c-.4-2.6-1.5-5-2.6-7.4 1-4-1.8-8.5-2.9-12.5-.5-2.6-.9-3.6-1.5-3.8.6-.3.7-.7.2-1.1-3.4-7.2-4.4-15.4-7.6-23-.7-3.8-3.5-6.1-2.9-10.2-.3-1.8-2-3.3-1.7-5.1-.4-1.5-1.7-2.6-1.3-4.2-1-.7-.6-1.2-.5-1.9l3.4-.8c.5-.1.7-.6 1-.8.6.2.5.3.6-.2.7-1.1 1.9-1.1 2.7-2.2 1.4 1.2 1.4-.1 2.6.2 1.6-.5 2.7-1.8 4.5-1.7.2-.6 0-1.1.9-.9 2.3-.2 4.6-1.7 7.2-2.8 1 .9 1.7-1 3 0 .1-1.4 1.2-.6 2.2-.7 0-1.6 2-.4 2.5-1.7 1.2.3.2-1.6 1.6-.6 1-.4 1.8-.6 3-.7.2-.5-.5-2 .7-1.4.8-1.4 2.3.7 3.1-1.3 1.5.7 1.2-.5 2.3-.5 1 .3 1.6-1.7 2.6-1.5 1-.5 2.3 1.5 3 0 1 1 .8-.1 1.2-.8.8.6 1-.4 1.7-.6 1.2.4 2.4 0 3.7-.1 1.5-.6 2.7-1.7 4.2-2.5.5-.3 1.3-.3 1.8-.8.2-.4.6-.8.7-1.2 0-.4-.6-.6-.7-1-.4-2.4-2.4-4.2-4-5.9v.1a58 58 0 0 0-5-2.4c.3-1.8-1-1.3-1.3-2.4-1.2-1.3-3-1.7-3.9-3.3-.7 0-1 .4-1.2-.4-1.5-2.1-4-3.5-6.4-5.4.3-1.2-1.7-1-1.6-2.6-1.2.5-1.1-.9-1.8-1.7-1.4.7-1.4-1.7-2.8-1.5-.4-1.2-1.5.5-1.3-1.1a9 9 0 0 1-2.2-2.4c-.6 0-1.6 1.3-1.7 0-1.7 0-.6-2.5-2.8-2.3 0-1.5-1.1-.9-1.6-1.8-.4-1.1-2.4-.6-2.7-1.7-1-.6 0-2.8-1.7-2.7.4-1.3-.5-.7-1.3-.7l-3.5-4.5c.1.1-.2.5-.7 1l.7-1c-1-1-2.2-1.5-3.4-2.2 0-1.2.2-2.4.8-3.4.4-1-.5-1.8.3-2.6-.6-2 1.3-4.4.6-6.4-1.3-4.1.8-8.5.7-12.6 1.5-4.6 3.5-9.5 4.2-14.8.6-.7 1.3-1.6 1.6-2.6 0 .2-.6 0-1.3-.3 1 .3 1.7.3 1.5-.6 1.7-7 6-12.9 10-19.2 2-2.5 3.2-5.3 5-7.9 3.4-.8 4-4.3 6.7-5.6a10 10 0 0 1 5.1-4.4c.5-2.6 3-3.4 4.5-5.4 2.5-.1 3.7-2.4 5.7-3.4 1.8-1.3 4.2-.5 5.7-2.6 4-1 7.2-3.6 11.2-4.2v-.1h.1c.2 0 .5 0 .8-.3l.3-.2c.5.2 1.2-.1 2.1-1 8.3-3.3 18.3-3 26.3-7.5 3-.5 6.2.4 8.7-1.7 1.5.8 2.2-.8 3.6-.5.7-1.1 1.7 0 2.5-1 3.6.2 6.3-3 10-3 2.6-.2 5-1.2 7.5-2.1 3 1.1 10.4-1.3 13.5-2.6 2.4.6 3-.2 3-1.4l.2 1.2.4-.2c-.4.3-.5.6 0 1 2.5 4.6 2.6 9.6 4.6 14.7 1 3.7 1.2 8.2 3.6 11.3.3 2.5-.5 5 .8 7.2.8.8 0 1.5.3 2.4 1 .6.1 1.6 1 2.2-.6 1 .6 1.4.3 2.4 0 1.4 0 2.2 1.2 3 .4 1.6.5 3.1 1.4 4.5-1 2.5 1 4.5.7 7 1 1-.6 2-.3 3.4 1.2 2.4.5 4.9 1.2 7.4.8 3.6.5 4.9 1 5.2-.4.2-.6.4-.2.9 2.1 8 1.4 16.9 2.8 25.5 1.5 2.2 0 4-.2 6.4.7 1 0 2.1.8 3.2-.7 1.2-.3 2.8.1 4-.8 1.1.4 2.6-.6 3.9a5 5 0 0 1 1 3.1c.8 2.3-.8 4.7 0 7Z"/><path fill="#FFC83F" d="M606.5 533c1.2-2.4 19.2-46.6 10.4-33a74 74 0 0 1-25.8 20.2l.2.4c-.3-.3-.6-.4-.8.2-1.4 1-2.7 2.2-4.3 3.5-1.5-.8-2.4.1-3.8.5-1.1 0-1.7 1-2.7 1.2-1 .6-2.3 0-2.5 1.4a23 23 0 0 0-7.3 1.8c-1.5 1-3.2 0-4.1 1-1.2.1-2.3-.9-2.8.4-1-.4-2.4-.8-2.9.4-1.3-.5-2.3.4-3.5.4-.4.9-.5 1-1.3.3-1.4.2-2.4.2-3.8 0-.4 1.6-1.3 1.5-2.8 1.6-.7-1.2-1.8-.3-2.7.2-.9-.4-1.5-1-2.1 0-1.5-.7-2.7 0-4 .5-1.5 0-2.5-2.2-4-1-.7-1.3-1-.3-1.7.2-1.6-.6-3.5-.4-5.3-1.2-.6-.7-1 0-1.3 1 0-.8-.2-1.3-.4-1.2-1.8.5-3.6.7-5.9 1.2-.6-.7-1.2-1.6-2.1-.9-2-1.3-4.5 0-6.6-1.1-1 1.4-1.7-.5-3 .1-1.6-1.6-4.8-.6-7.1-1.6-1.4-.8-2.7-.7-3.8-2-.7.4-1 .8-1.4-.1-.9-.5-1.2-1.1-2-.4-1-1-2.4-.8-3.3-1.5-.8.5-.9.6-1.3-.4a8 8 0 0 1-3-1.9c-1.5 1.3-1.2.4-2.6.3-1-.7-.5-2-2-2-1 .1-1.1-.8-1.6-1.4-1 .3-1.3-.4-1.7-1.2-1 0-1.7-.6-2.6-.8-1-1-.2-3.2-2-3.6.5-1.3-.5-.8-1.3-1-1-1.6-2.2-3.4-3.2-5.5 0 .2-.6.6-1.5 1.2 1.3-1.1 1.7-2.2-1.3-3.3-.2-1-1.3-1.4-2-2 .7-1.6-.6-1.9-.6-3.1-1.4-2.3-3.1-4.4-4.2-6.2-.8-2.7-2.8-5-4.4-7.9-.3-1.5-1.4-2.4-1.3-4.2-.8-.2-1.2-.2-1-1.1-.3-1-.2-1.7-1.4-1.8 0-1.5-1.3-2.1-1.7-3.3-1 0-1.1 0-.9-1-.4-1-1.4-1.7-1.4-2.8-.2-1.2-1.4-.5-2-.6 0-1-1-.9-1.3-1.8.2-.6.4-1.1-.1-1.6-1.2-.5-1.6-1.2-1.8-2.4-1.5-.5-1.8-2.5-3.9-3.1-.9-1.2.1-3.4-1.8-3.9.4-1.3-.5-.9-1.4-1a72.7 72.7 0 0 0-4.1-5.6l-.6.8c.5-.8.3-1.6-1.6-2.1-1.6-.1-2.6-1.4-4.3-1.5-.3-1.7-1.9-2-3.2-2.6-5.3-1.7-10-2.4-15.5-1-2 .8-5.5-.2-6.7 1.6-2.5-.5-4.2 2-6.4 2.6 0 1.6-1 .4-2 1.3-1.3 1-3.3.8-2.6 3-1 0-1 1-1.9 1.2-1.3-.6-1.9.7-2.4 1.7-.8.2-1.8.1-1.7 1.3-1.3.3-1.8 1.3-2.4 2.4-.8 2-3.8.4-4.2 2.6-1.3-.4-.9.6-1 1.4-1-.1-1 1.1-1.6 1.6-.8.3-1.6.5-2 1.2-.7.4-1.4.9-1.9 1.4.3 0 1 .7 1.8 1.5-.9-.8-1.7-1.4-1.9-1.2h-1.3c.9 0 1.5-.1 1.3-.2-.3-.3-.5-.4 0-.6-.4 0-.8-.3-1-.5.4-1.1-1.5-.8.5-1.7-.7-.3.1-.7 0-1.4-.9-.6.6-1.6-.7-1.8.9-.5-.2-.9 1-1.1-.6-.5-.1-1.3-.4-2-.1-.6.1-1 .8-1-.7-.4-.1-.8.4-1-1-.5 0-.4.4-1-.6-.4-.6-.3-.2-.9.4-.2.1-.3 0-.6.6-.3-.4-.4-.5-.6 1 .1.6-1 1.3-1 .6-.4-1-.9-1-1 .5-.2.4-.3.2-.6.3-.5 1.5.3 1-.8-.5-.6.3-.3.6-.5-.5-.5-.3-.6.3-.8-.5-.9-.2-2 1-1.3 1.1 0 0-.9 1.2-.3 0-.3-1.2-1.2 0-.8-.3-1.2 1.3-.5 1.9-1.1l-2.4-2.4 2.4 2.4c6.4-6.7 7.1-4.6 13.9-7.6.1-.1.2-.4 0-.4-4.6-2.6-8.7-5.5-14-6.3-2-1.2-2.9-.6-3.3.6 0-1.2-.8-1.8-3.2-1-1.6.6-3.3.2-4.9 1-1.3-1.5-2.5-.3-4-.8-4.8.8-9 2.4-13 3.8-3 .6-5.4 4-8.4 4-.6 1.1-2 1.6-3.2 1.8-.3 1-.4 1.3-1.4 1.3-2 .9-2.4 2.6-4.5 3.6-.2 1.1-1.4 1.1-1 2.4-1.2 0-1.8 1-2.6 1.6-3.8 2.7-.5 2.8-2.6 4.1 0 1.8-1.8 1.3-2.5 2.5-.4.9-.3 2-1.4 2.3-1.1.8-.6 2.2-2 3-.4 1.8-.8 4.4-3 4.8-2.8 2.5-1.5 5.7-4.2 8.6-.3 1.2-1.2 2.2-1.5 3.4.1 0 .7 0 1.5.3-1-.2-1.9-.3-1.6.4-.7 3 1 6.7-1.2 9.3 0 2.5-.5 6-1.6 8.6 1.2 1.8-1.5 3.4-1.4 5.1-1.8 5.3-4 9.7-7.8 13 .2 1.7-1.9 3-2.7 4.3.2 1 .1 1.2-1 1.3-1 1.3-2 2.1-3.3 3 .7 1.7-.4 1.4-1 2.7-1 .9-2.4 0-3 1.7-.4 1.5-2.4.4-2.6 2.1-2 0-2.7 2.4-4.4 2.8-1.4.8-3.3-.8-4.4 1-1.1-.9-1.2.3-1.7 1-2.4.7-5 1.4-7.8 2 .2 0 .5 1 .9 2l-1-2c-3.6 1.4-7 3.2-10.7 4.6-2.4.9-5 1.5-7 3.3 5.3 2.3 12.4 4.4 18.4 6.4l7 .5c.8 2 3 1.8 4.8 3 1.8-.5 3.2 2 4.7 1 2.6 2 5.4 3 8.8 4 1.3.5 1.3 1.9 2.6 1.7 1 .6 1.4 2 2.6 1.4.6 1 1.5 2.2 2.7 1.6.8 1.3 2.3 1.3 3.2 2.1 1.4-.9 1 .7 2.2 1 1.5.8 2.2 2.8 4 1.3.4 1 1.3.4 2 1.2 0 .6.2 1.2.9 1.4 1.3 0 2 .5 2.7 1.6.6-.2 1.1-.2 1.6.4 3.8 1.9 3-.1 6.2 4 1.6-.2.8 1.5 2.8.4 1.5 1.1 3.7 1.7 5.5 2.8.7.8 1.2.4 1.6-.6 0 1 .3 1.5.8 1 2 0 4.4-.2 6.6-1 2 1.6 9.5-1 10.7-3.1 4-.8 6.8-4 9.7-7 1.4.3 1-1 2-1.4.7-.8 1.7-.6 1.4-2 1.2-.3 2.5-1 2.2-2.4 1.3-1 2.7-2.6 2.3-4.1 1.1-.2 1.9-1.4 2.3-2.4 1.5-.6 1.3-1.5.6-2.6 1-.3.6-1.3 1.4-1.9.6 0 1.2 0 1.5-.7.1-1.3.7-2 1.9-2.4-.1-.6-.1-1 .6-1.4 1.7-1.7 1.3-4 4.6-3.7.6-.1.8-.4 1-1 1.2.7.8-.3 1.2-1 1.6-.4 2.7-1.1 4.8-.6.5.5.9-.2 1-1.3.2.9.3 1.5.4 1.3 1.8-.6 3.5-.5 5.8-.6.5.8.9 1.8 2 1.3 1.6 1.7 4.5 1.2 6 3 1.1-.6 1.4.2 2.1 1 1 0 .9.5 1.2 1.2 2.2.9 4.2 2.8 6 4.4-.3 1.3.9.9 1.2 1.9.6.8.3 1.7 1.6 1.6 0 2.3 2.2 2.4 2.8 4.6 1 .3.7 1.4 2 1.2-.5 1.5 1.4 2.4 1.4 3.8 5.9 3.3.6 2.8 4.5 5.4-.3 1.6 1 1.7 1.3 2.9 0 1.4 2.3 1.9 2.4 3.2.8 1.2-.7 3.2 1.1 4-.7 1.1.4 1 1.2 1.3l3 6.8c0-.2.3-.4.8-.7-.8.7-.8 1.5 1 2.5 1.8 1.3 3.7 2.6 3.7 5 1.8 1.8 4 4 5.8 6.1 1.2-.3 1.3.6 2 1.5 1 .1.8.7 1 1.5 2.1.9 3.6 2.7 5.8 3.5 1.2.6 1.2 2.1 2.5 2 1 .7 1.4 2.3 2.8 1.6 1.3 2.4 4.3 2.1 6.4 3.5.8-.6.9-.4 1.4.4 1 .6 2.3.7 3 1.6 1.3 1 1.8-1.6 2.8-.1 2-.6 2.4 2.2 4.6 1 1 1.4 2 .5 3 1 1.2 1 3-.5 4.2.3 1.1-.1 1.2 1.2 2.2 1.4 1 .6 1.7-.4 2.3.8 1-1.2 2.2-.3 3.7-.7 1.4.8 3.2 1 4.8 1.2l-.1-1.2c.2 1.1.9 1.5 3 .5 1.3-.7 2.7-.5 4-1.4 1.6 1.4 3.3.3 5.2.4 1.6-.3 3.2-1.2 5-1 .4-1.3 1.2-.9 2.3-.9.6-.7 1-.3 1.8-.1 2.5-1 5.8-3.3 8.5-3 .6-.9 2-1 3-.9.4-.7.4-1.1 1.4-.8 1.9-.4 2.5-1.9 4.5-2.1.4-1 1.5-.8 1.5-2 .6.1 1.3.1 1.8-.4 1-.6 2-.8 3-1.3-.3-1.8.5-1.4 1.3-2.6 2.5 0 2.7-1.9 5-2.3 0-1.1 1-1.2 1.8-1.6a6.6 6.6 0 0 1 2.8-3c2 .8 2.6-1.5 4-1.3 0-1.6 1.4-1.8 2.1-3 1.7-.4 3-1.6 4.2-2.6-.1 0-.6-.4-1.2-1.1 1.1 1 2.1 1 3-1.5.4-1.3 1.7-2 2-3.5 2.2 0 2.9-2.2 4.6-3.5 2.8-5 6.7-8 9.5-13.4 1.5-.1 1.3-2.3 3-2.7-.5-1.3 1.1-1.5 1.9-2.5-.7-1.6 1.8-2.1 1.5-3.8 1.2-.6-.4-1.7 1.3-1.9.7-1.3 1.5-2.3 2.5-3.3-.2-.8-1.4-1.5-.1-2-.1-2 2.6-1.7 2.1-4.1 1.5-.5 1-1.7 1.8-2.6 1.2-.8.5-2.9 1.5-3.8.6-1.3 3-1 2.7-3 1.4 0 .6-.9.5-1.8l4.3-6c-.3.3-1.6-.6-3-1.4l3 1.4Z"/><path fill="#FFC83F" d="M630.2 415.9c.2-.9.3-2 .3-3-.1-4.3-1-8.5-1.6-12.8-.4-2.7-.2-6-2-8.2-3.1 8-10.7 16-7.9 19.4-1.1-.5-2-.6-1.7.4-.5 1.9-.8 3.8-1.2 6-2 .9-2 3.1-3.4 4.9.3 1.9-2.2 3.2-1.3 4.8-1 1.2-2.1 2.4-2.4 3.6-1.6 2-1.5 5.9-4 7 .1 1.1-.8 2-1.8 2.6.6 1.3-.9 1.7-1.7 2.7.8 1.6-1.7 2.2-1.4 3.8-.8.5-.5.9-.3 1.6-1 .2-1.3 1-1.9 1.8-.6 1.4-2.1 1.7-.8 3.4-1.1.6-.6 2.3-2.4 2.1-.6.7-.6 1.6-.8 2.4-.8.4-1.8.7-1.4 1.8-1.8.8-1.4 3.1-2.7 4.1-.8 1.3-3.2.6-3.2 2.6-1.4-.3-.9.6-1 1.6a73 73 0 0 1-5.6 4.5c.3 0 1 .8 1.9 1.7-1-.7-1.8-1.4-1.9-1.7-.5.5-.5 1.7-1.4 1.6 0 .9-.2 2-1.1 2.3-.8 1.7-1.4 2.2-3.2 2.3-.2 1.2-1.6 1.3-2.4 2-1.2 1.2-2.2 2.6-4 3 .3 1.7-1.7 1-2.2 2.3-.8 0-1.3-.2-1.6.7-2.4 1-4.5 4.2-7 3.8-.5 1-1.8 1.3-2.9 1.2-.2 1.4-1.7.9-2.9 1.2-.5 1.5-2.8 1.7-4 2.4-.3 1-.4 1.1-1.4.8-1.3.5-2.5 1-4 1.1 0 1.9-.7 1.2-1.7 2.1-1.2.4-2.2-.9-3.2.5-.6.8-1.5.3-2.3.2-1.2 1.3-3.3.9-4.8 2.3-1.6.3-3-1.7-4.5-.4-.9-1-1.1 0-1.8.6-2.2 0-4.6-.1-7.2-.4.3 0 .2 1.7.2 3.3l-.2-3.3c-4.5.2-9 .7-13.5.4-4.4 0-8.6-2.1-13-1.6 5.2 5 11.7 10 19 12.5 3.2 1.9 4.7 1.7 5.6.3-.3 1.4.2 2.3 3 2 4-.5 6.7 1.5 10.3 1.9 5.5.4 10.1.5 15.4.3 2 .2 3.9-.9 6-.8 1.1-.5 1.8.8 2.8-.3 1.5-.3 3 .7 3.9-.7.2 0 .5.4.8.4 2.8-.2 5.1-1.5 7.9-2 .6-1.8 3.1-.5 4.6-2 2.6.8 1.7-2.2 3.6-2 .9-1.7 2.4-.4 3.6-1.2.9-.7 1.4-1.7 2.5-1.6 1 0 1.3-.3 1.6-1.1 1-.4 2.1-.3 2.5-1.4a8 8 0 0 1 5.6-2.6c.7-.2 1.1-.6 1.5-1.3 1.4.6 1.3-.6 1.7-1.6 2-1 4-2.7 6.3-3.8 1 0 1-.9.5-1.9 1 .7 2 .4 3-2.3 2-3.5 5-5 7.5-8 2.5-3.1 3.5-7 6.5-9.3 2.3-5.3 5.5-10.5 7.7-15 1.3-1.8.7-3.7 2.1-5.7-.4-1.1.7-1.8-.2-2.8.6-.5 1.1-1.2 1.2-2a24 24 0 0 1 1.2-3.8c-.5-.8-1.6-1.2-.6-2.3-.9-1.6 1-2.1 1.1-3.6 0-1-.6-2 .2-3 1.2-2.7-1.3-7.5 1.1-9.7.4-1 .8-1.9.3-3 1.2-.7.3-1.3-.3-2.2.5-1.8.3-4 .8-6Z"/><path fill="#FFC83F" d="M566.4 455.1c-2-.2-3.7.8-5.4 1.6-2.7 1-5.6 1.5-8.3 2.6l.3.7c-.3-.6-.7-.8-1-.3-2.7 1.5-5 2.8-8.2 3a26.1 26.1 0 0 1-9.4 2.8c-2.7 1.2-5.4 1.6-7.9 3-2.1 0-4.2-.5-6.1.6-1 .9-2.1-.5-3 .8-.6-.2-1-.2-1.5.4-.6-.3-1-.4-1.5.1-2.5-.5-3.1 1-5.5 1.1-1.3-.8-2.4.6-3.6-.7h-4.5c-1-.6-1.7.3-2.2-1-1.2-1-2.7-.2-3.9-.8-3-1-6.4-1-9.4-2.4 0 .8-.4 1.8-.8 2.9l.8-3c-9-2.2-18.7-6-26.7-9.2a78.7 78.7 0 0 0 20.2 21.3l.4-.6c-.3.7-.2 1.1.6 1.1 7.1 3.7 13.9 8.5 22.2 10 3.7 1 7 .4 10.7 0 3.8 1.6 8.8.1 12.3-1.1 1.6 0 4.4-.3 5.7-1.3a24 24 0 0 1 6.7-3.1c6.7-3.2 14.7-6.3 19.5-12.8a9 9 0 0 0 2.8-2c-.2 0-.7-.4-1.3-1 1.2.8 2.5.7 3.4-1.7 2-2.8 3.8-6 4.2-9.5 0-.5 1-1.3.4-1.5Zm-12.4 7.3Zm-47.1 22.8Z"/><path fill="#E91315" d="M282.8 418.5c-5.8 2.6-25.7 22.6-19.8 27.8-1.4-.2-2.6 0-1.8 1-.8.3.1.5 0 1 .5 1-.1 2 .4 3-1.4.8-1 1.8-1.1 3-.4 1.5.7 3 0 4.4.6.4 1 .3.6 1.1-.4 2.3.6 4.8 1.2 7.6-1 .7.7 1.7-.4 2.8 1.2.4.3 1.2.2 2.2 1.6.3 0 2 1.2 2.6-.4.7.3.6.7.9-.6.5-.4 1-.4 1.8.3 1.3-.7 1.8 1.3 2.1-.5.9.8 1.6-.6 2.1 0 1.2 1 1.7 0 2.7.8.4.4.9 0 1.5.6.6.5 1.3.8 2-.2.9-1 1-1.5 1.7-.6.7.4 1.1-.8 1.4 1.7 1.4-.7 3.2-1.6 5l2.3.9-2.3-.8c-2.6 9.3-9.5 16-14.4 23.7-.3 1.2 2.5-1.1 3-1.1a38.2 38.2 0 0 0 19.8-15.5c1-.7 1-1.3.3-2 .7.3 1 .3.9-.3.9-1.2-.3-1.7.7-2.7 0-1.6.3-1.9 1.6-2.5-.5-1 .5-.8.5-1.7.9-1.2.3-2.8 1.4-4-1.3-1 .6-1.3 0-2.4 1.6-1.3.6-4.4 1-6.5 1.2-.4.1-.8.5-1.6.2-1 1-1.1 0-1.8 1.3-1.2 0-2 .3-3.5.2-.5 0-.7-.4-1 .4-.8-.2-.8-.6-1 1.1-.9-.2-2.2.5-3.1.3-1-1-.7-1.5-1 .5-1-.9-1.5.5-2.2-.2-1.2-1.2-1.6-.3-2.7-.9-.3-.5-.9-.2-1.6-.6-.4-.7-1.2-1.1-1.8 0-1 .8-1.2 1.1-2 .5-.8-.6-1 .5-1.6-2-1-.1-3.4.1-5.5 0 .2-1 0-2.1 0v-.2h2.1c.2-6.6 1-13.3 3.7-19.3 1.4-2.8 3-5.5 5.2-7.8 2.8-1.8-.6-3-1.5-5ZM271.5 485v-.1Zm-44.8 81.5c-.7-1.4-1.9-2-3.2-2.6-2-1.2-3.7-2.8-5.7-3.8l-1 1.5.6-1.6c-.7-.4-1 0-1.6 0-.2-.3.1-.8-.6-.6-.4-.2-.6-.6-1-.4-.3-.7-.3-1-1-.6 0-.3-1.8-1.3-2.2-1.2-.6 0-.5-1-1.2-.7-.2-.5-.8-.7-1.3-.6-1-.4-1.4-1.2-2.5-.4-1.4-1.1-.4-2-2.6-2.2-.7.4-.2-.5-.8-.7-.8.6-.5-.5-1.2 0 0-1-.6 0-.8-.7-.7-.2-.3-1-1-.4-.6.5-1-.1-1.7.1 0-.7-.5-.4-1-.3-.1-1-.8-1.3-1.7-1 0-.8-.6-.3-.8-.9-1.3.4.5-1.4-2.5-1.7-.6-1.6-2.7-.7-3.2-2.1-.3-1.3-3.7 6.2-3.1 5.8.4-.1.7-.2.6.3.7-.7 1.1-.4 1.8-.3 1.2-.4.7.5 1 1.2.7-.5.9.6 1.7.8.6-.3 1.3.2 1.7.8.6-.7.6-.5 1 .2.8-.4.5.3.6.7.8 0 4 .6 3.6 1.7.6-.4 1 .3 1.1.9.9-.9.7.1 1.2.8.7-.8 1-.1 1.5.4.4-.2.5-.4.7 0 1-1 .3.3 1.3.6 1.2.7.7 1.1 1.8-.3.2.5.3.4.7.3.6.3-.2 1.6 1 1.1.7-.4.5.4.8.8 1-.9.3.8 2.6 0 .5.5.2 1.2.5 1.8.3.8.9-.2.7 1 2.5-1.8 2.4 3.9 4.1.5-.2 1-.3 2-.2 3-.5-1-.8-1.8-.8-1.5-.3.3-.4.6-.7.2 0 1-.5 1-1.1 1.4-.5 1.2-.8.2-1.5 0-.2.7-1 .1-1.8.5-.2.7-1 .8-1.7.7 0 .9 0 .8-1 .6-.2.8-.4.1-.8 0-.5.4-3.2 2.3-3.7 1.2-.1.8-1 .6-1.4.2 0 1.2-.6.4-1.4.3 0 1-.6.7-1.3.8-.1.4-.1.6-.6.4.1 1.4-.4 0-1.3.5-1.3.4-1.2-.2-1 1.6-.5-.3-.5-.2-.7.3-.7.1-1-1.3-1.5-.1-.2.8-.6 0-1.1 0-.1 1.4-.8-.3-1.9 1.7-.7.1-1-.6-1.6-.8-.8-.3-.4.8-1.2-.2-.2 1.5-1.3 1.3-2.2 1 1.4-2.2 0-5 .6-7.5-.9-.7-1-.9-.2-1.7.1-1.2-.3-2.5.3-3.6.6-1.6-2-1.3-1-2.8-1-1.7 1.4-3-.3-5 .8-2.1.3-4.4-.4-6.6-1.1-2 2-3.7.6-5.7 1.2-.8.2-1.2-.4-2 .3-2-.1-4.2.4-6.4.6-.9 0-1.3-1.1-1.4 1-.4 1.5-1.2 0-3.3-2-4 0-8-1.7-12.3-.5-1.2.2-2.6-1-3.2l.7-.3c.3 2 .8.4 1.3 1.4 1 .4 2.1-.2 3 .7.4-.3.4-1 .9-.3.5.5 1-.2 1 .8 1.3-.3 2.7.2 4 .3 0 1.1 1.3 0 1.6 1.3.6-1 .7 0 1.4.5.7-1.3 1.3.6 2-.3.8 1.1.6-1.5 1.1.3.5 0 .8.4 1.2.2.9 2 1-1.5 1.7-.2 1.2-1 .6 1.8 2.2.3.6 1.5.8 0 1.4.7.4.8 1.6-.7 2 0 .8 0 .3 1 .9 1.3.5.7.9-.4 1 .8 2-2.3 3.4 3.3 4.3-.3 0 1 .2 2.1.6 3.1-.7-1-1.3-1.8-1.3-1.5-.1.4-.2.7-.6.3.3 1-.2 1.1-.7 1.6-.2 1.2-.7.3-1.4.2 0 .8-1 .3-1.6.9 0 .6-.8 1-1.4 1 .1.8 0 .8-.8.7 0 .9-.4.2-.8.1-.3.6-2.7 3-3.3 2 0 .7-.8.6-1.3.4.3 1.1-.4.4-1.2.5.2 1-.4.8-1.1 1 0 .4 0 .6-.5.5.5 1.4-.3.2-1.1.8-1.2.6-1.2 0-.7 1.7-.5-.2-.4 0-.5.4-.6.3-1.2-1-1.4.2 0 .8-.6.2-1 .2.1 1.3-.9 0-1.3 1.7-.4 1-1.2-.1-1.9-.2-.8-.1-.3.9-1.1 0 .2 3.9-7.2-2.2.4 7.2.8-.3.6-.7.8-1.4.4.1.6.7.8 0 .4-.3.8-.2.9-.7.7.2 1 .4 1-.5.5.4.4-.2 1-.3.4-.3 1-.2 1-.8.3-.5 1.1.2 1.3-.6.5.2 1-.3 1.1-.7.9-.6 1.8-.5 1.7-1.8 1.6-.6 1.7.8 3-.9.1-.9.6 0 1-.3 0-1 .8-.1.7-1 .8.5.3-.5 1-.3.5-.4.9.4.8-.6-.1-.7.6-.7.8-1.4.5.4.6-.2.7-.6 1 .4 1.5 0 1.8-.9.7.5.5-.3 1-.2.4-1.3 1 1.3 2.7-1 1.7.3 2-1.8 3.4-1.5.3 0 .3-.1.1-.5l.3.3c3.5-2 6.2-4.8 8.9-7.5.2 0 0-.3 0-.4a6.2 6.2 0 0 0-4-1.8c-2.2-.8-4.3-2-6.7-2.5l-.6 1.7.2-1.7c-.8-.3-1 .1-1.7.4-.2-.4 0-.9-.7-.5-.5-.1-.8-.5-1.2-.2-.4-.6-.5-1-1.2-.3-.2-.4-2-1-2.5-.8-.8 0-2-1.2-3-.7-1.1-.1-1.7-1-2.7.1-1-.2-1-1.3-2-1.6-.6.6-.5-.4-1.2 0-.6.6-.4-.4-1-.4-.6.7-.6-.5-1.3.3-.2-1-.6 0-1-.6-.7 0-.5-1-1.1-.2-.9 1-1.8-.3-2.8.4-.4-1-1.2-1.1-2-.7-.3-.7-.7-.1-1.1-.6-1.2.7.1-1.6-3-1.2-.7-.9-2.1-.9-3.1-.6l-.4-.6c-.6-3-1.4-6-1.8-8.5-.3-1.3.6-2.7-.8-3.3.4-1.2.7-2.9-.6-3.4.2-3-1.8-4.3-1.8-6.9-.3-1.1-.4-2.2-.5-3.4-.7-.4-2-.2-1.5-1.5-1.5-1.4.5-3.4-1.6-4.8.6-1.6-.7-2-.7-3.4.2-1.5-2-2.5-1.8-4-.6-1.6 1.2-3.3-.5-4.5 1-1-.2-1.2-1-1.8l-1.5-7.8c0 .3-1.4.7-2.9 1l2.9-1c-.3-.8-1.1-1.2-1.6-1.9-.2-.2-.1-.6-.3-.8-.5-.1-1-.3-1.5-.1-.4 0-.5-.3-.7-.6-.6-.4-1.4-.8-2.1-.7-.9-.5-1.1 0-1 1-.6-1-1.6-1.2-4 .7-2.1 0-3.3 1.6-5.3.3-1 1-2.8.4-4.3.9-1.5 1.4-4.2 0-5 1.8-4.7-.3-9.8 1.9-14 2.4-1.4.3-2.7-.7-3.4.7-1.8-1-2.8.4-4.3.5-1.5.3-3.3.3-4 1.7-1-.6-2.4-.2-3.5.3-2.3-1.2-1.7 2-3.5 1.4-1.2 1.5-2.7-.7-4 .8-2.7 1-5.4.8-7.9 3-1.2.3-2.2-.4-3.4-.3-1.2-.1-1.4 1.2-2.6.4-1.5 2.9-5.7 2.4-8.6 4.2.2 0 .6.6 1 1.4-.9-1.2-1.9-1.6-3.5 1-2.2 3.1-5.3 3.8-7.8 6.4-3.7 5.1-7.6 8.8-9.4 15.1-2 3-2.4 5.8-4 9 1.3 1.5-1 3.2 0 4.7-.5.8-.1 1.2.4 1.7-1.3 1.5-.5 3.8-1 5.6 2.9 1.3.2 4 1.3 6.2.7.9.2 1.8.1 2.7 1 .6.8 1.6.7 2.6a10 10 0 0 1 2 4.2c-1.3 1.8.8 3.2.2 4.7 1.5.7 2.4 2.5 2.9 4.1.2 1.5 1.1 3 1.9 4.3 0-.2.7-.7 1.6-1.2-1.5 1.2-1.8 2.4 2 4 .4 1.2 1.6 1.6 2.7 2.2 0 2.2 2 3 3.5 4.5 3.4 2.2 6.5 4 9.7 5.8 3.9 2.1 8.2 2.5 11.8 4.7 1.3-1 2.2.5 3.6.8 1.6-1 3.8.1 5.6-.2.8-1.5 1.5.2 2.8-.2 1.8-.4 4 .8 4.5-1.5 2.1-.5 4.1.6 6-1.1 2.2.4 3.8-1 5.8-1.8 1.5-1.9 3.6-.6 5.6-1.3.4-.8.8-.8 1.7-.5.6-2.3 3.4-2.8 5.3-4l2-.6c-.3-.1-.5-1-.9-2l.9 2c.4-.2.7-.6 1.2-.8.4.3.4.2.6-.2 1-.8 3.8-1.7 4.5-.2 1 .7 2.3 1 3.5 2.2 1.8.1 1.7 2.7 3.3 2.8.4 2.7.9 5 .2 7.9-.5 2-1.8 2.5-3 4-1 .2-1 .7-1 1.5-.4.2-1.1.5-1.4 1-1.2 1.1-1.6 2.8-3 4.2.2 1.2-1 1.9 0 3-.7.5-1.1 1.1-1 2l-.7 4c.7.6 2 .6 1.3 2 .8.8.8 1.7.1 2.6.1 1.5 1.8 2 1.6 3.5 0 1 .4 1.3 1.2 1.5.3 1 .4 2 1.5 2.3 2 1.3 3 2.7 3.8 4.6.7 1.2 2 .5 2.2 2 2-.4 4.3.7 6.3 1.7 1.3.1 2.7.7 4 .6v-1.4c.2 1.4 1 2 3.4.4 3.1-2.1 6.5-2.2 9.2-4.6 5.3-4.7 6.5-11.3 6.3-18-.1-1.5 1.2-2.3.5-3.4v-.3l1.4 2.7c.8-.1.7-.5 1-1.1.5.1.6.7 1 0 .4-.1.8 0 1-.5.6.4.9.6 1.1-.2.2.2 2.2-.3 2.4-.7.4-.5 1 .3 1.3-.4.5.3 1 0 1.3-.5 1-.5 1.9-.1 2.1-1.5 1.8-.2 1.7 1.2 3.4-.3.2-.8.5.2 1-.1.1-1 .8 0 .8-.9.8.8.5-.4 1.2 0 .6-.3.8.5 1-.5 0-.8.6-.6 1-1.2.5.4.7 0 1-.5.8.6 1.4.3 1.9-.5.5.5.5-.2 1.1 0 .6-1.2.7 1.4 3-.6 1.5.7 2.3-1.4 3.7-.8.3.2.3-.2.1-1l.6.9c3.6-1.2 6.5-3.4 9.5-5.4.2 0 .2-.3 0-.4Zm246.8 113.6c-3-2-6.4-2.2-9.6-3.5-3.3-1.2-6.3-3-9.4-4.6l-.6 1.2c.4-1 .5-1.6-.2-1.5-6-2-11.3-7.2-16.7-11.4-.4-1.4-2.3-.8-3-1.9-1-1.9-1.6-4-4-4.8.3-1.4-1.3-1-1.4-2.3-1.2-.3-1.4-1.5-2.3-2.5.2-1.1-1-1-1.7-1.2-1-1.1-1.5-2.3-2.7-3 .2-2.8-3-3.3-4-5.2-2.4-4.4-12.9-8.4-13.1.3a7 7 0 0 0-.7 3.3l.9-.1c-.8.1-1.3.4-.8.9 1.6 7.8 3.3 16.8 10.1 22.5 2.3.7 2.2 3.7 4.5 5.2 1.7 0 1.6 1.9 3.1 1.8 1 1.4 3 1.5 3.9 3.4 3.8-.5 5.9 3.4 9.6 3.4.6.8 1.8 1 2.8 1a4 4 0 0 0 1.9 1.7c3-.1 5.9 2 9 1 .9.3 1.8.8 2.7.8-.2-.1 0-1 0-2.2.4 2.5 2.4 2.7 7.1 1.9 5.2 0 9.8-2.4 14.7-3.8.2 0 0-.3-.1-.4Z"/><path fill="#FFC83F" d="M587.5 676c11.9-6.7 56.4-56 51.6-79 13.1 43.5-19.2 79.4-51.6 79Z"/><path fill="#E91315" d="M598.9 677.2c7.3-2.7 14.6-5 21.6-9.3.9-1.8 3.3-1.8 4-3.4 1.2-1.6 2.3-3 4.5-3.4 2.6-2 3.8-4.8 6-7 .3-2 3-3.3 3.1-5.5.3-3.3 2.3-6 3.5-9-.2-3 1-5.3 2.1-8 .1-4 .5-8.3.4-12.4 2.1-3.3-5.4-1.2-6.4-1.6.1 3 2.6 6.2.3 9 .3 2.3-.3 5.2-.5 7.7-.5.8-.2 1 .3 1.7-1 1-.4 2.5-1.7 3.1-.8 5.5-4 10-7.6 13.1.5 1.8-2.1 2-2.2 3.5-.8.3-.7.8-.6 1.5-1.9.2-2.8 2.1-4.5 2.7.5 1.6-1.2 3.4-3 2.9-1.1.4-1.2 2.1-2.6 2-2.3.8-4 3-6.5 4-1.7-1.3-3 .6-4.4-.1-.4.6-.6 1.7-1.7 1.2-6.4 2.6-7.7-1.8-5 7.7l.9-.4Z"/><path fill="#E91315" d="M631.5 617c-.4 2.9-.6 5.4-2.4 7.9.3 2.8-3 5.5-4.2 8-1 .9-1 2.6-2.6 3.2-.3 1-.3 2.1-1.1 2.8-1.7 1.1-2.8 1.7-4 3.2-.3 1.3-1 1.4-2 2.1.2 1.2-1 .9-1 2-1 0-.7 1-1.7 1.4-1 .8-1.5 1.1-1.5 2.5-1.5 1.2-2 3.4-4 3.9-1.1 1.7-2.6 2.6-3.6 4.4-2.2-.3-3.1 1.8-4.3 3-2.7 1-3.5 4.1-6 5-2.1.3 4 5 4 5.5.8-1.3 1.5-1.7 1.8-3.3 1-.3 1.2-1.4 1.7-2.3 2 .2 2.8-1.8 4.6-2.8 2.5-4.3 6.3-5.8 9-10.3 1.7-1 2.2-2.3 4.2-3-.4-1.3 1.1-1.3 2-2-.5-1.7 2-1.7 2-3.3.8-.3.6-.7.4-1.4 1.6 0 1.9-2 3.2-2.4 1-.5 0-1.4 0-2 1-.3.5-1.3 1.3-1.8 2.1.3 1.2-2.6 3.2-3-.6-1.4 1.5-1.5 1.1-2.8.4-2 1.3-3 3-4.1.7-.8-.2-1.6 1.1-2-.8-1.4 0-3.3 1.1-4.6.2-1 1-1.8 1.2-2.8-.4.5-7.3-3-6.5-.9Z"/><path fill="#E91315" d="M598 677.6c-2.9.7-5.7.6-8.6.8-1.9.2-3.7.4-5.4-.5-.2-.1-.3-.3 0-.4 2-2.3 3-5.4 5.5-7.4 2.7-5.1 5-.8 7.5 1.7l-.6-.7c.4 1.8 1 4.6 1.6 6.5Zm33.6-61.4c3-8.9 4-18.5 7.2-27.3 2.5 7 4.6 15.6 5.2 23.6 2 5.6-2.2 5.2-6.3 5l.3.4-6.4-1.7Zm-42.5-319c-14.2 13-43.5 72.8-29.4 102-42.3-29.6 14.2-106.1 29.4-102Z"/><path fill="#E91315" d="M577 299.7a80.9 80.9 0 0 0-24 26c-1.5 3.7-2.8 7.2-5.4 10.5-1 4.3-3 8.2-3.5 12.4-2.2 5-.7 10.5-2.5 15.8.5 8.8.5 18.5 6.9 25.8 1.3 6.2 4.2 1.7 7.2-.2-2.3-2.3-4-4.5-6.1-7.2.5-2.7-1.3-4.8-1.6-7.7-1.6-1.8-.2-4.8-1.9-6.3.9-5 .8-10.3 2-15.6 1.8-2.8 1.4-6.4 3.6-9.1-1-2 1.6-3.5 1.2-5.5 1.1-1.1-.4-2.2 1.3-2.9.7-1.8 1.6-3.4 2.8-5-.3-1-1.1-1.8.2-2.6.2-2.4 3.3-2.7 3.3-5.5 2.9-2 3.7-5.6 6.2-8 1.2-1.5 3.9-1 4.5-3.2 1.5.4 1.3-.9 1.7-1.9 2.7-1.7 5.5-3.4 8.7-4.9-1 0-3.2-7.7-4.6-4.9Z"/><path fill="#E91315" d="M561.3 388.1c-2-11-2.6-23-.9-34.3 2.5-2.8 3.2-6.5 4-9.7 1.5-1.8 1.4-4.2 3.4-5.9-.1-1.4.1-2.5.7-3.8 1.4-3.5 4-6.5 5.4-10 1-2.3 3.7-3 4.1-5.8 3.1-3.3 4.7-7.7 7.9-11-4-2.5-6.1-6.1-7.3.8-1.5 1.7-1.3 3.8-3.7 4.7-1 3.2-5 6.5-5 10-4 3.3-4.3 9.6-8 13.1-.6 2.7-2.1 4.9-3.6 7.1.9 1.9-1.7 3.2-1.1 5-.7 2.5-1.6 5-2.7 7.9 2.1 1.9.1 4-.4 6.3.8 2.8-.4 5.4.7 8 1 2.7 0 4.6-.6 7.1.5.8.4 1.2-.2 2 1.4.8.5 2 1.1 3.2.3 2.4-.6 4.7-.2 7.1.4-.7 8 .3 6.4-1.8Z"/><path fill="#E91315" d="M578.1 299c2.5-1.6 5.4-2.5 8.2-3.4 2-.7 4-1.6 6.1-1-1 3.5-3.1 7.5-5.3 11-.6 4.3-5-1.3-6.7-1.8l1.2.8-3.5-5.7Zm-16.6 90.2c.3 2.7 0 5.5.4 8.3.4 1.6.8 3.3.2 5-.3.6-.8-.3-1.2-.5-3.6-1-6.4-3.4-9-6.1-4.7-2.3 5.6-5.4 3-6 1.9-.1 4.7-.5 6.6-.7ZM254.6 574.4c5.8 4.6 14 12.7 16 23.2 2.3.8-14-16.4-16-23.2Z"/><path fill="#E91315" d="M264.9 579.8c-.4-.6-.6-.3-1.3-.3.6-1-.2-.4-.4-1.2-.7 0-.1-.4-.3-.8-.8.3-.4-.2-1-.6-.3-.5-.5-.7-1.1-.8.1-.8-.7-.8-.9-1.4-1.2.2-.6-1.4-2.2-.6-.6-.5 0-1-.4-1.6a4 4 0 0 0-2.7-1c-3.7-1.4-4.6 3.5-3.1 5.9 1-.3 0 1.2 1 .7.2 0 .6-.4.6.1.4.1.8 0 .5.5.9 0 .7.1.6.8.2.6.5.3 1 .4 0 .3-.4.6.2.5 0 .5.1.3.4.3-1.2 1.6.4 1.2.6 2.5 0 1 1.8.6 1.2 1.7-.6 1 7.2-4.4 4.8-4 .7-.8-1.2.5-1-.4-1.3-.1-.8-.3-.5-1.3-.7.3-.2-.3-.7-.8-.2-.4-.9-.2-1-.8 0-.8-.5 0-.8 0 0-.5.2-1-.4-.8.5-.8 0-.4-.2-1-.6-.2-1.2-.7-1.7-1.2.7-1-.3-.2-.4-1 1.3-.6 0 1.4.6 2-.4 1.2-1 2.2-2.2 1.2-.3.1-1.3-.1-1.2-.2 0 .5.3.2.6.1 0 1 1-1 .5.5 1 .9.5 1.4 1.8.2 0 .7 1 0 .2 1.2.3.5 1.3-.4 1 .5-.3.9.7-.4.5.8.6-.2 1.2-.2 1.4.4-.2.4-.5 1-.5 1.4.9-.2.2.2.1.6 1.5-.8.3 0 1.4.2-1.6 4.6 5.4-2.7 5-2.7Z"/><path fill="#E91315" d="M265.2 580c5.1 6.5 9.2 15.8 8 24.1-5-6.3-10.5-12.4-15.4-18.8l5.2-4.1c-3.4 3.8-2 2.2-2.9 3 1.5-1.1 3.7-3 5.1-4.2Z"/><path fill="#FFC83F" d="M462.5 588c67.7-35 102 130.9 169 54.4 0 0-4.9 24.6-40.8 33.8-61.5 21.5-82.2-84.8-128.2-88.1Z"/><path fill="#FFC83F" d="M532.2 661.8c8.5 7.4 17.4 16 29.4 17.7 3.3-.5 6.1 2.3 9.5 2 4.3-.1 8.1-.8 12.5-.5 10-5 23-4.3 31.9-12.9 1-.4 2.4-.9 3.3-1.7-.6.1-4-6.5-4.7-4.7-2.2 2-4.1 5.7-7.8 5.5a33.2 33.2 0 0 1-9 4c-1.3 2.2-4.6 1.2-6.7 2.3a30 30 0 0 1-16.1 1.6c-1.5 1.1-4 .2-5.7.2-.8.7-1 .7-1.8 0-1.3-.4-2.8-.3-3.8-1.1s-1.6.4-2.3.7c-1.8-.6-2.7-1-4.2-2.3-3.6-.4-5.7-3.1-9.4-3.8-1.6-1.2-1.5-3.8-3.7-4.2.2-1.4-.9-1-1.9-1.2a74.7 74.7 0 0 1-5.4-7c.1.8-6.9 4.7-4 5.4Z"/><path fill="#FFC83F" d="M472.4 594.8a52.4 52.4 0 0 1 19 13.5c3 2 5.2 4.8 8 6.9 1.5 2.3 2.4 5 4.6 6.5 1.2.4.8 1.7 1.6 2.5 1.1.7 2.2 1.8 2.4 3.1 2 2.3 3.3 4.5 5.7 6.6a54 54 0 0 0 5.5 9.2c1.4 2.5 2 5.1 4 7.4 2.4 3.8 5.7 6.8 8.2 10.5 2.5-2.8 7.2-4.2 2-6.9-2-1.4-4-2.9-4.2-5.4-2.6-2.1-4-7-7-8.6-1.9-5-5.9-9.8-8.5-14.2-1.8-4.3-4.7-7-7.6-10.7-1.1 0-1.3-.3-1.4-1.4-.9-1.1-2.2-2-2.6-3.4-.7-1.7-2.6.3-3-1.6-2-.8-1.5-3.7-4.3-4-1.3-3-4.8-4-7.1-6-1.2-.5-.8-2-1.8-2.6-.7-1.2-2-.7-2.1-2.2-1.9.1-3.7-1.2-5.2-2.5a17.1 17.1 0 0 0-4.4-3c.4.7-4.3 6.6-1.8 6.4Z"/><path fill="#FFC83F" d="M543.7 622c-6.9-7-11.7-16.1-19.4-22.7-2.8-1-3.5-3.6-5.5-5.5-2.8-1.1-4.6-3.7-7.5-4.3-1.7-1.3-3.9-3.3-6.2-2.8-3-1.1-5.7-1.8-8.6-3.2-3.1.4-5.7-1-8.5-2-4.5 0-9-.1-13.5.4-3.8-1.6-.7 5.3-1 6.6 3-.6 6.3-3.3 9.4-1.2 2.6-.2 6.2-.1 9 .7.8-1 3.7.2 4.4 1 6 .7 11 3.6 14.8 7.3 1.7-.2 3 1.8 4.5 2.7 1.3-.5 3.3 3 4.5 4.3 3.4-1.2 2.8 3.5 5.7 4.3.8 2.9 3.9 4 5.5 6.3 1.1 1.2 0 3.5 2 4.2-.4 1.3.7 1.1 1.6 1.5l4.2 7.2c0-.8 7.1-4 4.6-4.8Z"/><path fill="#FFC83F" d="M609.2 655.6c-8.3 3.8-18.3 3-27.4 1.8-3.2.9-4.3-2.6-7.2-2.9-1-1.1-2.5-1-3.5-2.4-1.2.3-1.2-1.1-2.4-1-.2-1.2-1.4-.9-1.8-1.9-1.4-1.8-3.3-2-5.1-3.4-.2-1-1.1-1.4-2-1.8-.4-1.3-1.1-3-2.6-3.4-3.5-4.2-5.7-9.3-10-13.7-1.4-1-1.8-2.7-2.8-4.2l-5.3 4c.5.8 1.7 1 1.5 2 2.4.9 4.7 3.1 5 5.7a64 64 0 0 1 6 7.4c2.4.4 2.8 3.6 4.7 5 3.2 3 6.4 5.4 8.8 8.7 1.5-.2 2 1.5 3 2.4 1 0 1.5-.1 2 .6 2.7 1.9 4.7 1.5 7.3 3.2 1 0 1.7 1 2.8 1.2 1.2-1.4 2.4-.8 4.1-.5 1 2 3.2 0 4.6 1 2.7.7 5.6-.7 8.6-.7 3.2 2.7 6.3-.7 9.8-.5 1.6.2 3.3-.3 5-.6-.8-.3-1.6-7.8-3.1-6Zm-137.8-61.1c-2.5-1.1-4.8-2.7-7.5-3.5-1.9-.6-4-.6-5.6-2-.7-.5.4-.7.8-.9 1.5-1.2 3-2.6 4.8-3.4 6.2-2.8 9.6-4.4 9.6 3.8 1.7-.9-2 5.1-2 6Z"/><path fill="#FFC83F" d="M610.1 655.2a39.4 39.4 0 0 0 16.6-10.2c3.1-3.5 4.4-8.3 7.4-11.9 1.4-1.8-.1 2.7 0 3.4-.2 3-.1 6.2-1 9.1a39.4 39.4 0 0 1-8.7 15.3c-4.2 5.3-6 6.6-9.7.3-3 .3-1.7.4-2.4.2l-2.2-6.2Z"/><path fill="#E91315" d="M466.5 586c67.7-35 102 130.9 169 54.4 0 0-4.9 24.6-40.8 33.8-61.5 21.5-82.2-84.8-128.2-88.1Z"/><path fill="#E91315" d="M536.2 659.8c8.5 7.4 17.4 16 29.4 17.7 3.3-.5 6.1 2.3 9.5 2 4.3-.1 8.1-.8 12.5-.5 10-5 23-4.3 31.9-12.9 1-.4 2.4-.9 3.3-1.7-.6.1-4-6.5-4.7-4.7-2.2 2-4.1 5.7-7.8 5.5a33.2 33.2 0 0 1-9 4c-1.3 2.2-4.6 1.2-6.7 2.3a30 30 0 0 1-16.1 1.6c-1.5 1.1-4 .2-5.7.2-.8.7-1 .7-1.8 0-1.3-.4-2.8-.3-3.8-1.1s-1.6.4-2.3.7c-1.8-.6-2.7-1-4.2-2.3-3.6-.4-5.7-3.1-9.4-3.8-1.6-1.2-1.5-3.8-3.7-4.2.2-1.4-.9-1-1.9-1.2a74.7 74.7 0 0 1-5.4-7c.1.8-6.9 4.7-4 5.4Z"/><path fill="#E91315" d="M476.4 592.8a52.4 52.4 0 0 1 19 13.5c3 2 5.2 4.8 8 6.9 1.5 2.3 2.4 5 4.6 6.5 1.2.4.8 1.7 1.6 2.5 1.1.7 2.2 1.8 2.4 3.1 2 2.3 3.3 4.5 5.7 6.6a54 54 0 0 0 5.5 9.2c1.4 2.5 2 5.1 4 7.4 2.4 3.8 5.7 6.8 8.2 10.5 2.5-2.8 7.2-4.2 2-6.9-2-1.4-4-2.9-4.2-5.4-2.6-2.1-4-7-7-8.6-1.9-5-5.9-9.8-8.5-14.2-1.8-4.3-4.7-7-7.6-10.7-1.1 0-1.3-.3-1.4-1.4-.9-1.1-2.2-2-2.6-3.4-.7-1.7-2.6.3-3-1.6-2-.8-1.5-3.7-4.3-4-1.3-3-4.8-4-7.1-6-1.2-.5-.8-2-1.8-2.6-.7-1.2-2-.7-2.1-2.2-1.9.1-3.7-1.2-5.2-2.5a17.1 17.1 0 0 0-4.4-3c.4.7-4.3 6.6-1.8 6.4Z"/><path fill="#E91315" d="M547.7 620c-6.9-7-11.7-16.1-19.4-22.7-2.8-1-3.5-3.6-5.5-5.5-2.8-1.1-4.6-3.7-7.5-4.3-1.7-1.3-3.9-3.3-6.2-2.8-3-1.1-5.7-1.8-8.6-3.2-3.1.4-5.7-1-8.5-2-4.5 0-9-.1-13.5.4-3.8-1.6-.7 5.3-1 6.6 3-.6 6.3-3.3 9.4-1.2 2.6-.2 6.2-.1 9 .7.8-1 3.7.2 4.4 1 6 .7 11 3.6 14.7 7.3 1.8-.2 3.2 1.8 4.6 2.7 1.3-.5 3.3 3 4.5 4.3 3.4-1.2 2.8 3.5 5.7 4.3.8 2.9 3.9 4 5.5 6.3 1.1 1.2 0 3.5 2 4.2-.4 1.3.7 1.1 1.6 1.5l4.2 7.2c0-.8 7.1-4 4.6-4.8Z"/><path fill="#E91315" d="M613.2 653.6c-8.3 3.8-18.3 3-27.4 1.8-3.2.9-4.3-2.6-7.2-2.9-1-1.1-2.5-1-3.5-2.4-1.2.3-1.2-1.1-2.4-1-.2-1.2-1.4-.9-1.8-1.9-1.4-1.8-3.3-2-5.1-3.4-.2-1-1.1-1.4-2-1.8-.4-1.3-1.1-3-2.6-3.4-3.5-4.2-5.7-9.3-10-13.7-1.4-1-1.8-2.7-2.8-4.2l-5.3 4c.5.8 1.7 1 1.5 2 2.4.9 4.7 3.1 5 5.7a64 64 0 0 1 6 7.4c2.4.4 2.8 3.6 4.7 5 3.2 3 6.4 5.4 8.8 8.7 1.5-.2 2 1.5 3 2.4 1 0 1.5-.1 2 .6 2.7 1.9 4.7 1.5 7.3 3.2 1 0 1.7 1 2.8 1.2 1.2-1.4 2.4-.8 4.1-.5 1 2 3.2 0 4.6 1 2.7.7 5.6-.7 8.6-.7 3.2 2.7 6.3-.7 9.8-.5 1.6.2 3.3-.3 5-.6-.8-.3-1.6-7.8-3.1-6Zm-137.8-61.1c-2.5-1.1-4.8-2.7-7.5-3.5-1.9-.6-4-.6-5.6-2-.7-.5.4-.7.8-.9 1.5-1.2 3-2.6 4.8-3.4 6.2-2.8 9.6-4.4 9.6 3.8 1.7-.9-2 5.1-2 6Z"/><path fill="#E91315" d="M614.1 653.2a39.4 39.4 0 0 0 16.6-10.2c3.1-3.5 4.4-8.3 7.4-11.9 1.4-1.8-.1 2.7 0 3.4-.2 3-.1 6.2-1 9.1a39.4 39.4 0 0 1-8.7 15.3c-4.2 5.3-6 6.6-9.7.3-3 .3-1.7.4-2.4.2l-2.2-6.2Z"/><path fill="#fff" d="M125.6 489.2c27.4-9 41 34.1 13.4 42.3-27.4 9-41-34-13.4-42.3Z"/><path fill="#E91315" d="M140.8 534.3a27.8 27.8 0 0 0 16.6-19.7c-1.3-2.8.1-5.1.2-8-.8-1.6-1.1-3.2-1.4-5-1.4-1.5-1.6-3.3-3-5.2 0-1.5-2.7-2-3.8-3.2-.2-1-1-1.2-2-1.5-.5-1.8-2-2.4-3.8-2.7-3.8-3-9.5-4.9-15-3.5-1.1.7-2.6 0-4 .5.6.2 1.6 8 2.8 6 .5-.6 1 .2 1.2-.6 1-1 2.4-.7 3.6-1.4 1.3 1.5 2.9.7 4.7 1.6 1.6-.7 2.9 1.6 4.2.6 1.6 1.5 2.8 2.2 4.5 3.6 1 1 2.2 1.6 3 2.8-.2.8-.3 1 .5 1.3.2.7.6 1.3.3 2 1.4 0 .7 1.4.9 2.4 1.2.3.9 1.6 1 2.6.4.3.5.6.3 1.2 1 .4 1 .5.3 1.2 0 1 .3 2-.3 2.8-.8 1.2 2 1.1.7 2.3 1 1.5-1.7 1.5-1.1 3.1.3 1-.6 1.2-1.1 1.8.5.9-.3 1.2-1 1.8.2.9-.4 1.6-.6 2.5-1 1.2-3.2.2-3.6 2-1.3-.7-.8.3-1 1.1a21 21 0 0 1-6 1.7c.6 0 1.5 8 3 6Z"/><path fill="#E91315" d="M123.8 486.4a27.8 27.8 0 0 0-16.5 19.8c1.3 2.7-.2 5-.2 7.8.7 1.7 1 3.3 1.4 5 1.4 1.6 1.6 3.5 2.9 5.3 0 1.5 2.7 2 3.8 3.3.2 1 1.1 1.1 2 1.4.6 1.8 2 2.5 3.8 2.8 3.9 3 9.5 4.8 15 3.5 1.1-.8 2.7 0 4-.6-.6-.1-1.6-7.9-2.7-6-.6.6-1-.2-1.2.6-1 1-2.4.7-3.7 1.5-1.2-1.6-2.9-.8-4.7-1.7-1.6.8-2.9-1.6-4.2-.6-1.5-1.5-2.7-2.2-4.5-3.5-1-1-2.2-1.7-3-2.9.3-.8.3-1-.5-1.2-.2-.7-.5-1.3-.3-2-1.4-.1-.7-1.4-.9-2.5-1.2-.2-.8-1.5-1-2.6-.4-.3-.5-.6-.3-1.1-.9-.5-1-.6-.3-1.3 0-1-.3-2 .3-2.8.8-1.2-2-1-.7-2.2-.9-1.6 1.7-1.5 1.1-3.2-.3-1 .6-1.1 1.2-1.7-.5-1 .2-1.3.9-1.8-.1-1 .5-1.7.7-2.6 1-1.1 3.1-.2 3.5-2 1.3.7.8-.3 1-1.1 1.8-.8 3.7-1.4 6-1.6-.6-.1-1.5-8.1-3-6h.1Z"/><path fill="#E91315" d="M140.8 507.8c.4-.7-.2-1.6-.9-1.9 1.1-2.5-2.5-3-3.8-4.3l-5 .1.4 1.3c-.4-1-.8-1.4-1-1-1 .3-1.1.8-1.5 1.7-.9-.4-1 .4-1.5 1-.8.7-.9 1.1-1.8 1.7.6.8-.4.9-.1 1.6-1.5 4 1.2 9.1 5.4 9.1 1.5 1.2 3 2.2 4.7.6 1.2.8 1.2-.7 2.2-.5.1-.8.3-.7 1-.6.1-.8 1-1.2 1.7-1.4 0-1.2-.2-2.6.6-3.4-.6-1.2.4-1.5.4-2.6.2-.7-.6-.8-.8-1.4Z"/></g><defs><clipPath id="a"><path fill="#fff" d="M0 0h1509.3v772.6H0z"/></clipPath></defs></svg>