<svg fill="currentColor" height="204" width="1360" xmlns="http://www.w3.org/2000/svg">
  <path d="M117.04.86c1.179-.532 2.447-.86 3.741-.86 1.638 0 3.252.486 4.552 1.487 15.98 12.3 22.142 32.46 14.812 54.868-1.097 3.353-3.551 6.143-6.773 7.56-3.904 1.716-8.129 2.686-13.065.563-11.882-7.009-14.395-22.702-28.22-24.056-2.903-.285-5.456 1.644-6.76 4.26-1.466 2.94-1.172 6.49 1.007 8.944 14.239 16.044 35.131 25.471 45.933 43.841 25.636 43.59-16.739 90.857-43.354 100.466-80.77 29.159-115.692-76.132-65.779-80.973l4.485 1.5c10.81 8.529 15.497 25.068 21.899 38.408 2.033 4.238 6.255 7.034 10.943 7.056a31.592 31.592 0 0 0 6.427-.593c3.57-.691 6.412-3.334 7.845-6.686 1.407-3.293 1.336-7.079-.566-10.111-19.259-30.682-62.55-43.832-46.548-97.05 5.005-16.65 13.546-31.11 26.91-38.987C73.48-.677 97.404 9.735 117.04.86zm254.718 9.4c6.707-2.842 14.008-4.524 21.279-4.16 136.977 6.863 65.256 223.374-55.958 188.834-43.162-12.299-61.771-70.197-40.365-119.96 15.92-37.006 39.301-49.57 75.044-64.715zm-104.84.726c2.935-1.097 6.054-1.78 9.161-1.39l.174.022c4.436.556 8.353 3.112 9.958 7.298 7.675 20.02 19.233 71.705-11.921 59.558-8.877-5.017-9.175-15.838-13.143-24.58-1.411-3.11-5.378-3.328-7.787-.911-6.461 14.978-11.952 83.809-6.445 107.021.864 3.642 4.094 5.7 7.41 7.417 2.028 1.05 3.271 2.467 5.015 5.521 1.974 5.969-.253 10.24-3.184 14.288a13.897 13.897 0 0 1-7.201 5.121c-23.772 7.268-74.319 17.259-81.524-10.105-.802-3.048.007-6.377 2.343-8.486 5.858-5.29 14.852-7.617 17.807-14.313l13.455-101.966c-2.585-6.066-9.142-3.525-11.659 2.57-3.159 7.65-7.366 15.121-13.425 18.92-1.172.734-2.517 1.118-3.88 1.346l-2.08.348c-3.141.525-6.47.21-9.184-1.46-1.488-.916-2.568-1.944-3.856-3.96a41.62 41.62 0 0 0-1.698-2.426c-13.125-17.65 7.785-53.355 20.367-58.823 22.208-4.649 66.441 8.28 91.297-1.01zm222.287-.21c2.234-1.1 4.641-1.816 7.128-1.884 90.194-2.472 198.119-1.878 118.148 86.164-.51.561-.832 1.333-.832 2.092 0 1.119.628 2.142 1.588 2.712 18.531 11.006 16.657 31.31 19.988 56.367.475 3.569 2.845 6.576 6.144 7.994 3.23 1.389 6.962 1.089 9.826-.954 52.163-37.202 57.489-97.649 92.517-149.772 82.866-23.038 66.765 81.862 86.708 137.954l15.489 16.572a14.636 14.636 0 0 1 2.402 16.517c-1.87 3.75-5.237 6.527-9.301 7.51-27.531 6.655-72.755 13.46-84.179-6.368-.463-.804-.746-1.703-.928-2.614a11.108 11.108 0 0 1 3.37-10.347l9.496-8.732a6.434 6.434 0 0 0 1.164-8.036c-1.12-1.871-3.107-3.035-5.279-3.176-14.755-.953-35.187-4.593-45.993.903-.925.47-1.734 1.133-2.479 1.856-1.523 1.478-1.171 1.355-1.647 4.92a4.907 4.907 0 0 0 .454 2.839 4.696 4.696 0 0 0 2.547 2.3l3.051 1.147a12.722 12.722 0 0 1 8.137 10.34l.037.3a11.871 11.871 0 0 1-1.592 7.566c-1.534 2.565-3.929 4.475-6.848 5.085-34.454 7.203-130.167 3.493-140.551-10.092-10.78-14.101-7.841-43.2-14.476-61.465-1.052-2.895-3.808-4.697-6.865-5.003l-5.591-.562c-2.39-.239-4.463 1.643-4.463 4.051l-1.254 33.953a15.02 15.02 0 0 0 4.369 11.157l2.638 2.646c2.999 3.009 4.97 7.235 3.898 11.352-.234.9-.52 1.639-.869 2.342-1.535 3.086-4.564 5.168-7.875 6.098-26.468 7.429-70.961 9.156-86.282-9.284-2.129-2.561-2.705-6.153-1.402-9.22 3.74-8.797 11.112-4.951 16.513-13.056 6.815-10.227 20.421-86.825 16.1-107.53-.488-2.34-2.185-4.124-4.169-5.45l-2.866-1.918a15.01 15.01 0 0 1-6.565-14.13l.188-1.696c.2-1.805.668-3.6 1.694-5.098 2.411-3.517 5.047-4.544 8.712-6.35zm430.067 2.864c7.522-2.915 15.48-4.84 23.532-4.402 8.969.488 16.593 1.625 24.071 3.004 14.216 2.622 27.534 10.288 33.515 23.485 7.5 16.531 11.48 37.449-4.027 48.245-3.977 3.062-8.425 4.973-13.455 2.999-15.046-2.667-20.568-18.47-28.186-29.965-2.656-4.008-7.517-5.62-12.266-4.94-.968.14-1.935.278-2.902.416-25.158 11.781-29.463 65.679-15.843 92.678 2.105 4.172 6.618 6.289 11.279 6.289h6.448a14.92 14.92 0 0 0 9.809-3.68l25.412-22.164a11.587 11.587 0 0 1 10.811-2.41 11.611 11.611 0 0 1 6.766 5.205l1.133 1.895c.66 1.102 1.198 2.33 1.517 3.575 15.954 62.227-85.111 77.026-120.121 52.067-45.711-32.585-23.914-127.551 10.464-155.947 9.946-8.215 20.108-11.725 32.043-16.35zm124.758.548c5.08-1.455 10.32-2.285 15.6-2.13 11.92.352 23.29 1.829 33.3 3.979 5.05 1.086 8.99 5.012 10.48 9.979 1.31 4.386.54 9.146-2.03 12.929-8.31 12.211-15.71 25.135-14.18 42.044.15 1.717 1.63 2.983 3.35 2.983h21.79c1.27 0 2.41-.81 2.79-2.03 6.08-19.795-.89-33.288-3.2-50.743-.37-2.742.11-5.565 1.46-7.978 1.19-2.118 2.37-3.39 5.56-5.227 12.81-8.64 42.37-5.856 57.19.109 3.74 1.504 5.92 5.16 6.49 9.159.4 2.76.07 5.637-1.5 7.938-3.76 5.517-8.86 8.66-11.35 14.283-8.56 19.276-13.25 95.098-10.47 112.462 2.5 1.5 4.99 2.999 7.48 4.499 4.48-3.998 8.97-7.999 13.45-11.996 15.95-23.989 31.9-47.987 47.84-71.976 12.34-20.992 15.28-47.976 30.69-65.254 2.27-2.535 5.59-3.882 8.98-3.89 68.91-.159 52.45 82.802 72.46 136.621 4.28 11.527 14.44 12.877 19.06 23.409a8.59 8.59 0 0 1-3.44 10.833c-18.12 10.97-66.35 19.179-82.9 4.745-2.18-1.452-3.45-2.722-4.43-4.224-2.43-3.699-2.05-8.69.79-12.079 5.5-6.575 12.74-10.888 11.62-17.773-.19-1.184-1.27-1.952-2.47-2.031-15.28-1-37.73-4.019-50.48 1.027-.85.335-1.37 1.176-1.37 2.091v4.557c0 .911.41 1.773 1.12 2.342l6.78 5.44c4.33 3.478 6.83 9.404 3.71 14.01-15.6 23.049-72.81 1.015-74.4 2.142-14.54 10.285-59.97 16.808-71.07-2.659-2.12-3.719-.6-8.206 1.97-11.633 8.42-11.253 17.39-26.848 15.95-43.326-.53-6.092-6.17-10.185-12.25-9.782-3.45.229-6.51.695-9.32 1.439-4.88 1.297-7.74 6.027-8.12 11.078-.73 9.413-1.45 18.828-2.17 28.241-.13 1.753-.03 3.549.73 5.134 2.16 4.505 5.89 6.83 7.53 14.075.43 1.904.13 3.885-.6 5.699-1.2 3.014-3.59 5.424-6.7 6.321-17.87 5.152-43.84 5.343-63.2 1.492-4.27-.851-7.68-3.968-9.3-8.029-2.07-5.185-.87-11.121 2.1-15.846 15.34-24.418 36.71-88.024 24.39-118.658l-6.06-6.08c-2.82-2.827-4.58-6.69-4.06-10.655.6-4.579 1.95-6.724 4.01-9.322a15.645 15.645 0 0 1 7.93-5.314c2.83-.808 5.65-1.617 8.47-2.426zM564.746 38.406c-3.842-.55-7.577 1.41-8.721 5.13-3.333 10.837-6.462 29.802-3.594 37.892.624 1.76 2.481 2.544 4.343 2.544a6.6 6.6 0 0 0 2.957-.7l1.721-.864a14.787 14.787 0 0 0 7.632-9.251c2.427-8.762 4.494-17.83 2.986-27.994-.165-1.11-.6-2.159-1.22-3.091a8.265 8.265 0 0 0-5.709-3.61l-.395-.056zm-174.626 4.7c-4.256-.712-8.655.408-11.248 3.866-16.449 21.931-39.04 89.906-14.458 111.338 3.191 2.783 7.9 2.762 10.854-.274 19.056-19.584 41.636-97.296 17.125-114.55l-2.273-.38zm362.517 37.867a2.46 2.46 0 0 0-2.148 1.276c-6.199 11.185-13.649 20.824-16.986 35.071a2.107 2.107 0 0 0 .567 1.965 2.131 2.131 0 0 0 1.622.624l24.661-1.302c1.572-.083 2.817-1.375 2.789-2.954-.248-13.833-3.81-23.584-8.311-33.283a2.416 2.416 0 0 0-2.194-1.397zm512.813 1.5c-.91 0-1.74.515-2.15 1.332-5.37 10.764-10.73 21.532-16.1 32.297-.54 1.083.24 2.358 1.45 2.358.24 0 .47.053.69.148 6.74 2.937 18.75 1.454 24.92-.916 1.04-.4 1.67-1.438 1.65-2.557-.21-13.549-3.88-22.106-8.3-31.304a2.397 2.397 0 0 0-2.16-1.359z" fill="#e91315" />
</svg>
