<svg fill="none" height="663" viewBox="0 0 642 663" width="642" xmlns="http://www.w3.org/2000/svg" xmlns:xlink="http://www.w3.org/1999/xlink"><clipPath id="a"><path d="m0 0h641.61v662.99h-641.61z"/></clipPath><g clip-path="url(#a)"><path clip-rule="evenodd" d="m56.8699 285.14c.55-.25 1.15-.4 1.75-.4.77 0 1.52.23 2.13.69 7.49 5.75 10.38 15.17 6.94 25.65-.51 1.57-1.66 2.87-3.18 3.53-1.83.8-3.81 1.26-6.13.26-5.57-3.28-6.75-10.61-13.23-11.24-1.36-.13-2.56.77-3.17 1.99-.69 1.37-.55 3.03.47 4.18 6.68 7.5 16.47 11.91 21.53 20.49 12.02 20.38-7.85 42.47-20.33 46.96-37.86997 13.63-54.24-35.58-30.84-37.85.7.23 1.4.47 2.1.7 5.07 3.99 7.27 11.72 10.27 17.95.95 1.98 2.93 3.29 5.13 3.3 1.08 0 2-.08 3.01-.28 1.67-.32 3.01-1.56 3.68-3.12.66-1.54.63-3.31-.27-4.73-9.03-14.34-29.32998-20.49-21.82-45.36 2.35-7.78 6.35-14.54 12.62-18.22 8.89-5.22 20.1-.36 29.31-4.5zm119.4201 4.39c3.14-1.33 6.57-2.11 9.98-1.94 64.22 3.21 30.59 104.41-26.24 88.26-20.24-5.75-28.96-32.81-18.92-56.07 7.46-17.3 18.43-23.17 35.18-30.25zm-49.15.34c1.38-.51 2.84-.83 4.3-.65.03 0 .05 0 .08.01 2.08.26 3.92 1.45 4.67 3.41 3.6 9.36 9.02 33.52-5.59 27.84-4.16-2.35-4.3-7.4-6.16-11.49-.66-1.45-2.52-1.55-3.65-.42-3.03 7-5.6 39.17-3.02 50.02.4 1.7 1.92 2.66 3.47 3.47.95.49 1.53 1.15 2.35 2.58.93 2.79-.12 4.79-1.49 6.68-.83 1.15-2.02 1.98-3.38 2.39-11.15 3.4-34.8401 8.07-38.2201-4.72-.38-1.43 0-2.98 1.1-3.97 2.75-2.47 6.96-3.56 8.35-6.69 2.1-15.89 4.21-31.78 6.31-47.66-1.21-2.83-4.29-1.65-5.47 1.2-1.48 3.58-3.45 7.07-6.29 8.84-.55.34-1.18.52-1.82.63-.33.05-.65.11-.98.16-1.47.24-3.03.1-4.31-.68-.7-.43-1.2-.91-1.81-1.85-.25-.39-.52-.77-.8-1.14-6.15-8.25 3.65-24.94 9.55-27.49 10.41-2.17 31.1501 3.87 42.8001-.47zm104.21-.1c1.05-.52 2.18-.85 3.34-.88 42.29-1.16 92.88-.88 55.39 40.27-.24.26-.39.62-.39.98 0 .52.29 1 .74 1.27 8.69 5.14 7.81 14.63 9.37 26.35.22 1.67 1.33 3.07 2.88 3.74 1.51.65 3.26.51 4.61-.45 24.46-17.39 26.95-45.64 43.38-70.01 38.85-10.77 31.3 38.26 40.65 64.48 2.42 2.58 4.84 5.16 7.26 7.75 1.95 2.08 2.4 5.17 1.13 7.72-.88 1.75-2.46 3.05-4.36 3.51-12.91 3.11-34.11 6.29-39.47-2.98-.22-.38-.35-.8-.43-1.22-.36-1.78.24-3.61 1.58-4.84 1.48-1.36 2.97-2.72 4.45-4.08 1.05-.96 1.28-2.53.55-3.76-.53-.88-1.46-1.42-2.48-1.48-6.92-.45-16.5-2.15-21.56.42-.43.22-.81.53-1.16.87-.71.69-.55.63-.77 2.3-.06.45 0 .92.21 1.33.25.5.67.88 1.19 1.08.48.18.95.36 1.43.54 2.07.78 3.54 2.64 3.81 4.83 0 .05.01.09.02.14.15 1.23-.11 2.47-.75 3.54-.72 1.2-1.84 2.09-3.21 2.38-16.15 3.37-61.03 1.63-65.9-4.72-5.05-6.59-3.67-20.19-6.79-28.73-.49-1.35-1.79-2.19-3.22-2.34-.87-.09-1.75-.17-2.62-.26-1.12-.11-2.09.77-2.09 1.89-.2 5.29-.39 10.58-.59 15.87-.07 1.95.67 3.84 2.05 5.22.41.41.83.82 1.24 1.24 1.41 1.41 2.33 3.38 1.83 5.31-.11.42-.24.77-.41 1.1-.72 1.44-2.14 2.42-3.69 2.85-12.41 3.47-33.27 4.28-40.45-4.34-1-1.2-1.27-2.88-.66-4.31 1.75-4.11 5.21-2.31 7.74-6.1 3.19-4.78 9.57-40.58 7.55-50.26-.23-1.09-1.02-1.93-1.95-2.55-.45-.3-.9-.6-1.34-.9-2.18-1.45-3.37-4-3.08-6.6.03-.26.06-.53.09-.79.09-.84.31-1.68.79-2.38 1.13-1.64 2.37-2.12 4.08-2.97zm201.63 1.34c3.53-1.36 7.26-2.26 11.03-2.06 4.2.23 7.78.76 11.29 1.4 6.67 1.23 12.91 4.81 15.71 10.98 3.52 7.73 5.38 17.5-1.89 22.55-1.86 1.43-3.95 2.32-6.31 1.4-7.05-1.25-9.64-8.63-13.21-14.01-1.24-1.87-3.52-2.63-5.75-2.31-.45.06-.91.13-1.36.19-11.8 5.51-13.81 30.7-7.43 43.32.99 1.95 3.1 2.94 5.29 2.94h3.02c1.69 0 3.32-.61 4.6-1.72 3.97-3.45 7.94-6.91 11.91-10.36 1.39-1.21 3.3-1.63 5.07-1.13 1.33.38 2.46 1.25 3.17 2.43.18.29.35.59.53.88.31.52.56 1.09.71 1.67 7.48 29.09-39.9 36-56.32 24.34-21.43-15.23-11.21-59.62 4.91-72.89 4.66-3.84 9.43-5.48 15.02-7.64zm58.49.26c2.38-.68 4.84-1.07 7.31-.99 5.59.16 10.92.86 15.61 1.86 2.37.51 4.22 2.34 4.91 4.66.61 2.05.25 4.28-.95 6.04-3.9 5.71-7.36 11.75-6.65 19.65.07.8.76 1.39 1.57 1.39h10.22c.6 0 1.13-.38 1.31-.95 2.85-9.25-.41-15.56-1.5-23.72-.17-1.28.05-2.6.69-3.73.56-.99 1.11-1.58 2.61-2.44 6.01-4.04 19.87-2.74 26.81.05 1.75.7 2.78 2.41 3.04 4.28.18 1.29.03 2.64-.7 3.71-1.76 2.58-4.15 4.05-5.32 6.68-4.01 9.01-6.21 44.45-4.91 52.57 1.17.7 2.34 1.4 3.5 2.1 2.1-1.87 4.21-3.74 6.31-5.61 7.48-11.21 14.95-22.43 22.43-33.64 5.78-9.81 7.16-22.42 14.39-30.5 1.06-1.18 2.62-1.82 4.21-1.82 32.31-.07 24.59 38.7 33.97 63.86 2.01 5.39 6.77 6.02 8.94 10.94.82 1.86.13 4.01-1.61 5.06-8.5 5.13-31.11 8.96-38.87 2.22-1.03-.68-1.62-1.27-2.08-1.97-1.14-1.73-.96-4.06.37-5.65 2.58-3.07 5.97-5.09 5.45-8.31-.09-.55-.6-.91-1.16-.95-7.17-.47-17.69-1.88-23.67.48-.4.16-.64.55-.64.98v2.13c0 .43.19.83.53 1.1 1.06.85 2.12 1.69 3.18 2.54 2.03 1.63 3.2 4.4 1.74 6.55-7.32 10.77-34.14.47-34.88 1-6.82 4.81-28.11 7.86-33.32-1.24-.99-1.74-.28-3.84.92-5.44 3.95-5.26 8.16-12.55 7.48-20.25-.25-2.85-2.89-4.76-5.74-4.57-1.62.11-3.05.33-4.37.67-2.29.61-3.63 2.82-3.81 5.18-.34 4.4-.68 8.8-1.02 13.2-.06.82-.01 1.66.34 2.4 1.01 2.11 2.76 3.19 3.53 6.58.2.89.06 1.82-.28 2.66-.56 1.41-1.69 2.54-3.14 2.96-8.38 2.41-20.55 2.5-29.63.7-2.01-.4-3.6-1.85-4.36-3.75-.97-2.42-.4-5.2.99-7.41 7.19-11.41 17.21-41.14 11.43-55.46-.95-.95-1.89-1.89-2.84-2.84-1.32-1.32-2.14-3.13-1.9-4.98.28-2.14.91-3.14 1.88-4.36.95-1.19 2.26-2.07 3.72-2.48 1.32-.38 2.65-.76 3.97-1.13zm-224.7 11.32c-1.8-.26-3.55.66-4.09 2.4-1.56 5.06-3.03 13.93-1.68 17.71.29.82 1.16 1.19 2.04 1.19.48 0 .96-.11 1.39-.33.27-.14.54-.27.81-.4 1.75-.87 3.05-2.44 3.58-4.32 1.14-4.1 2.11-8.33 1.4-13.09-.08-.52-.28-1.01-.57-1.45-.61-.92-1.58-1.53-2.68-1.69-.06 0-.12-.02-.18-.03zm-81.87 2.2c-1.99-.33-4.06.19-5.27 1.81-7.71 10.25-18.3 42.02-6.78 52.04 1.5 1.3 3.7 1.29 5.09-.13 8.93-9.15 19.52-45.48 8.03-53.54-.36-.06-.71-.12-1.07-.18zm169.96 17.7c-.42 0-.8.23-1.01.6-2.91 5.23-6.4 9.73-7.96 16.39-.08.33.02.68.27.92.2.2.48.31.76.29l11.56-.61c.74-.04 1.32-.64 1.31-1.38-.12-6.47-1.79-11.02-3.9-15.56-.19-.4-.59-.65-1.03-.65zm240.42.7c-.43 0-.82.24-1.01.62-2.52 5.03-5.03 10.07-7.55 15.1-.25.51.11 1.1.68 1.1.11 0 .22.02.32.07 3.16 1.37 8.79.68 11.68-.43.49-.19.78-.67.77-1.2-.1-6.33-1.82-10.33-3.89-14.63-.19-.39-.58-.64-1.01-.64z" fill="#e71e25" fill-rule="evenodd"/><g stroke="#e81e25" stroke-width="4"><path d="m56.8699 191.97c.55-.25 1.15-.4 1.75-.4.77 0 1.52.23 2.13.69 7.49 5.75 10.38 15.17 6.94 25.65-.51 1.57-1.66 2.87-3.18 3.53-1.83.8-3.81 1.26-6.13.26-5.57-3.28-6.75-10.61-13.23-11.24-1.36-.13-2.56.77-3.17 1.99-.69 1.37-.55 3.03.47 4.18 6.68 7.5 16.47 11.91 21.53 20.49 12.02 20.38-7.85 42.47-20.33 46.96-37.86997 13.63-54.24-35.58-30.84-37.85.7.23 1.4.47 2.1.7 5.07 3.99 7.27 11.72 10.27 17.95.95 1.98 2.93 3.29 5.13 3.3 1.08 0 2-.08 3.01-.28 1.67-.32 3.01-1.56 3.68-3.12.66-1.54.63-3.31-.27-4.73-9.03-14.34-29.32998-20.49-21.82-45.36 2.35-7.78 6.35-14.54 12.62-18.22 8.89-5.22 20.1-.36 29.31-4.5zm119.4201 4.39c3.14-1.33 6.57-2.11 9.98-1.94 64.22 3.21 30.59 104.41-26.24 88.26-20.24-5.75-28.96-32.81-18.92-56.07 7.46-17.3 18.43-23.17 35.18-30.25zm-49.15.34c1.38-.51 2.84-.83 4.3-.65.03 0 .05 0 .08.01 2.08.26 3.92 1.45 4.67 3.41 3.6 9.36 9.02 33.52-5.59 27.84-4.16-2.35-4.3-7.4-6.16-11.49-.66-1.45-2.52-1.55-3.65-.42-3.03 7-5.6 39.17-3.02 50.02.4 1.7 1.92 2.66 3.47 3.47.95.49 1.53 1.15 2.35 2.58.93 2.79-.12 4.79-1.49 6.68-.83 1.15-2.02 1.98-3.38 2.39-11.15 3.4-34.8401 8.07-38.2201-4.72-.38-1.43 0-2.98 1.1-3.97 2.75-2.47 6.96-3.56 8.35-6.69 2.1-15.89 4.21-31.78 6.31-47.66-1.21-2.83-4.29-1.65-5.47 1.2-1.48 3.58-3.45 7.07-6.29 8.84-.55.34-1.18.52-1.82.63-.33.05-.65.11-.98.16-1.47.24-3.03.1-4.31-.68-.7-.43-1.2-.91-1.81-1.85-.25-.39-.52-.77-.8-1.14-6.15-8.25 3.65-24.94 9.55-27.49 10.41-2.17 31.1501 3.87 42.8001-.47zm104.21-.1c1.05-.52 2.18-.85 3.34-.88 42.29-1.16 92.88-.88 55.39 40.27-.24.26-.39.62-.39.98 0 .52.29 1 .74 1.27 8.69 5.14 7.81 14.63 9.37 26.35.22 1.67 1.33 3.07 2.88 3.74 1.51.65 3.26.51 4.61-.45 24.46-17.39 26.95-45.64 43.38-70.01 38.85-10.77 31.3 38.26 40.65 64.48 2.42 2.58 4.84 5.16 7.26 7.75 1.95 2.08 2.4 5.17 1.13 7.72-.88 1.75-2.46 3.05-4.36 3.51-12.91 3.11-34.11 6.29-39.47-2.98-.22-.38-.35-.8-.43-1.22-.36-1.78.24-3.61 1.58-4.84 1.48-1.36 2.97-2.72 4.45-4.08 1.05-.96 1.28-2.53.55-3.76-.53-.88-1.46-1.42-2.48-1.48-6.92-.45-16.5-2.15-21.56.42-.43.22-.81.53-1.16.87-.71.69-.55.63-.77 2.3-.06.45 0 .92.21 1.33.25.5.67.88 1.19 1.08.48.18.95.36 1.43.54 2.07.78 3.54 2.64 3.81 4.83 0 .05.01.09.02.14.15 1.23-.11 2.47-.75 3.54-.72 1.2-1.84 2.09-3.21 2.38-16.15 3.37-61.03 1.63-65.9-4.72-5.05-6.59-3.67-20.19-6.79-28.73-.49-1.35-1.79-2.19-3.22-2.34-.87-.09-1.75-.17-2.62-.26-1.12-.11-2.09.77-2.09 1.89-.2 5.29-.39 10.58-.59 15.87-.07 1.95.67 3.84 2.05 5.22.41.41.83.82 1.24 1.24 1.41 1.41 2.33 3.38 1.83 5.31-.11.42-.24.77-.41 1.1-.72 1.44-2.14 2.42-3.69 2.85-12.41 3.47-33.27 4.28-40.45-4.34-1-1.2-1.27-2.88-.66-4.31 1.75-4.11 5.21-2.31 7.74-6.1 3.19-4.78 9.57-40.58 7.55-50.26-.23-1.09-1.02-1.93-1.95-2.55-.45-.3-.9-.6-1.34-.9-2.18-1.45-3.37-4-3.08-6.6.03-.26.06-.53.09-.79.09-.84.31-1.68.79-2.38 1.13-1.64 2.37-2.12 4.08-2.97zm201.63 1.34c3.53-1.36 7.26-2.26 11.03-2.06 4.2.23 7.78.76 11.29 1.4 6.67 1.23 12.91 4.81 15.71 10.98 3.52 7.73 5.38 17.5-1.89 22.55-1.86 1.43-3.95 2.32-6.31 1.4-7.05-1.25-9.64-8.63-13.21-14.01-1.24-1.87-3.52-2.63-5.75-2.31-.45.06-.91.13-1.36.19-11.8 5.51-13.81 30.7-7.43 43.32.99 1.95 3.1 2.94 5.29 2.94h3.02c1.69 0 3.32-.61 4.6-1.72 3.97-3.45 7.94-6.91 11.91-10.36 1.39-1.21 3.3-1.63 5.07-1.13 1.33.38 2.46 1.25 3.17 2.43.18.29.35.59.53.88.31.52.56 1.09.71 1.67 7.48 29.09-39.9 36-56.32 24.34-21.43-15.23-11.21-59.62 4.91-72.89 4.66-3.84 9.43-5.48 15.02-7.64zm58.49.26c2.38-.68 4.84-1.07 7.31-.99 5.59.16 10.92.86 15.61 1.86 2.37.51 4.22 2.34 4.91 4.66.61 2.05.25 4.28-.95 6.04-3.9 5.71-7.36 11.75-6.65 19.65.07.8.76 1.39 1.57 1.39h10.22c.6 0 1.13-.38 1.31-.95 2.85-9.25-.41-15.56-1.5-23.72-.17-1.28.05-2.6.69-3.73.56-.99 1.11-1.58 2.61-2.44 6.01-4.04 19.87-2.74 26.81.05 1.75.7 2.78 2.41 3.04 4.28.18 1.29.03 2.64-.7 3.71-1.76 2.58-4.15 4.05-5.32 6.68-4.01 9.01-6.21 44.45-4.91 52.57 1.17.7 2.34 1.4 3.5 2.1 2.1-1.87 4.21-3.74 6.31-5.61 7.48-11.21 14.95-22.43 22.43-33.64 5.78-9.81 7.16-22.42 14.39-30.5 1.06-1.18 2.62-1.82 4.21-1.82 32.31-.07 24.59 38.7 33.97 63.86 2.01 5.39 6.77 6.02 8.94 10.94.82 1.86.13 4.01-1.61 5.06-8.5 5.13-31.11 8.96-38.87 2.22-1.03-.68-1.62-1.27-2.08-1.97-1.14-1.73-.96-4.06.37-5.65 2.58-3.07 5.97-5.09 5.45-8.31-.09-.55-.6-.91-1.16-.95-7.17-.47-17.69-1.88-23.67.48-.4.16-.64.55-.64.98v2.13c0 .43.19.83.53 1.1 1.06.85 2.12 1.69 3.18 2.54 2.03 1.63 3.2 4.4 1.74 6.55-7.32 10.77-34.14.47-34.88 1-6.82 4.81-28.11 7.86-33.32-1.24-.99-1.74-.28-3.84.92-5.44 3.95-5.26 8.16-12.55 7.48-20.25-.25-2.85-2.89-4.76-5.74-4.57-1.62.11-3.05.33-4.37.67-2.29.61-3.63 2.82-3.81 5.18-.34 4.4-.68 8.8-1.02 13.2-.06.82-.01 1.66.34 2.4 1.01 2.11 2.76 3.19 3.53 6.58.2.89.06 1.82-.28 2.66-.56 1.41-1.69 2.54-3.14 2.96-8.38 2.41-20.55 2.5-29.63.7-2.01-.4-3.6-1.85-4.36-3.75-.97-2.42-.4-5.2.99-7.41 7.19-11.41 17.21-41.14 11.43-55.46-.95-.95-1.89-1.89-2.84-2.84-1.32-1.32-2.14-3.13-1.9-4.98.28-2.14.91-3.14 1.88-4.36.95-1.19 2.26-2.07 3.72-2.48 1.32-.38 2.65-.76 3.97-1.13zm-224.7 11.32c-1.8-.26-3.55.66-4.09 2.4-1.56 5.06-3.03 13.93-1.68 17.71.29.82 1.16 1.19 2.04 1.19.48 0 .96-.11 1.39-.33.27-.14.54-.27.81-.4 1.75-.87 3.05-2.44 3.58-4.32 1.14-4.1 2.11-8.33 1.4-13.09-.08-.52-.28-1.01-.57-1.45-.61-.92-1.58-1.53-2.68-1.69-.06 0-.12-.02-.18-.03zm-81.87 2.2c-1.99-.33-4.06.19-5.27 1.81-7.71 10.25-18.3 42.02-6.78 52.04 1.5 1.3 3.7 1.29 5.09-.13 8.93-9.15 19.52-45.48 8.03-53.54-.36-.06-.71-.12-1.07-.18zm169.96 17.7c-.42 0-.8.23-1.01.6-2.91 5.23-6.4 9.73-7.96 16.39-.08.33.02.68.27.92.2.2.48.31.76.29l11.56-.61c.74-.04 1.32-.64 1.31-1.38-.12-6.47-1.79-11.02-3.9-15.56-.19-.4-.59-.65-1.03-.65zm240.42.7c-.43 0-.82.24-1.01.62-2.52 5.03-5.03 10.07-7.55 15.1-.25.51.11 1.1.68 1.1.11 0 .22.02.32.07 3.16 1.37 8.79.68 11.68-.43.49-.19.78-.67.77-1.2-.1-6.33-1.82-10.33-3.89-14.63-.19-.39-.58-.64-1.01-.64z"/><path d="m56.8699 96.7599c.55-.25 1.15-.4 1.75-.4.77 0 1.52.23 2.13.69 7.49 5.7501 10.38 15.1701 6.94 25.6501-.51 1.57-1.66 2.87-3.18 3.53-1.83.8-3.81 1.26-6.13.26-5.57-3.28-6.75-10.61-13.23-11.24-1.36-.13-2.56.77-3.17 1.99-.69 1.37-.55 3.03.47 4.18 6.68 7.5 16.47 11.91 21.53 20.49 12.02 20.38-7.85 42.47-20.33 46.96-37.86997 13.63-54.24-35.58-30.84-37.85.7.23 1.4.47 2.1.7 5.07 3.99 7.27 11.72 10.27 17.95.95 1.98 2.93 3.29 5.13 3.3 1.08 0 2-.08 3.01-.28 1.67-.32 3.01-1.56 3.68-3.12.66-1.54.63-3.31-.27-4.73-9.03-14.34-29.32998-20.49-21.82-45.36 2.35-7.78 6.35-14.54 12.62-18.22 8.89-5.2201 20.1-.36 29.31-4.5001zm119.4201 4.3901c3.14-1.3301 6.57-2.1101 9.98-1.9401 64.22 3.2101 30.59 104.4101-26.24 88.2601-20.24-5.75-28.96-32.81-18.92-56.07 7.46-17.3 18.43-23.17 35.18-30.25zm-49.15.34c1.38-.51 2.84-.83 4.3-.65.03 0 .05 0 .08.01 2.08.26 3.92 1.45 4.67 3.41 3.6 9.36 9.02 33.52-5.59 27.84-4.16-2.35-4.3-7.4-6.16-11.49-.66-1.45-2.52-1.55-3.65-.42-3.03 7-5.6 39.17-3.02 50.02.4 1.7 1.92 2.66 3.47 3.47.95.49 1.53 1.15 2.35 2.58.93 2.79-.12 4.79-1.49 6.68-.83 1.15-2.02 1.98-3.38 2.39-11.15 3.4-34.8401 8.07-38.2201-4.72-.38-1.43 0-2.98 1.1-3.97 2.75-2.47 6.96-3.56 8.35-6.69 2.1-15.89 4.21-31.78 6.31-47.66-1.21-2.83-4.29-1.65-5.47 1.2-1.48 3.58-3.45 7.07-6.29 8.84-.55.34-1.18.52-1.82.63-.33.05-.65.11-.98.16-1.47.24-3.03.1-4.31-.68-.7-.43-1.2-.91-1.81-1.85-.25-.39-.52-.77-.8-1.14-6.15-8.25 3.65-24.94 9.55-27.49 10.41-2.1701 31.1501 3.87 42.8001-.47zm104.21-.1c1.05-.52 2.18-.85 3.34-.88 42.29-1.1601 92.88-.8801 55.39 40.27-.24.26-.39.62-.39.98 0 .52.29 1 .74 1.27 8.69 5.14 7.81 14.63 9.37 26.35.22 1.67 1.33 3.07 2.88 3.74 1.51.65 3.26.51 4.61-.45 24.46-17.39 26.95-45.64 43.38-70.01 38.85-10.7701 31.3 38.26 40.65 64.48 2.42 2.58 4.84 5.16 7.26 7.75 1.95 2.08 2.4 5.17 1.13 7.72-.88 1.75-2.46 3.05-4.36 3.51-12.91 3.11-34.11 6.29-39.47-2.98-.22-.38-.35-.8-.43-1.22-.36-1.78.24-3.61 1.58-4.84 1.48-1.36 2.97-2.72 4.45-4.08 1.05-.96 1.28-2.53.55-3.76-.53-.88-1.46-1.42-2.48-1.48-6.92-.45-16.5-2.15-21.56.42-.43.22-.81.53-1.16.87-.71.69-.55.63-.77 2.3-.06.45 0 .92.21 1.33.25.5.67.88 1.19 1.08.48.18.95.36 1.43.54 2.07.78 3.54 2.64 3.81 4.83 0 .05.01.09.02.14.15 1.23-.11 2.47-.75 3.54-.72 1.2-1.84 2.09-3.21 2.38-16.15 3.37-61.03 1.63-65.9-4.72-5.05-6.59-3.67-20.19-6.79-28.73-.49-1.35-1.79-2.19-3.22-2.34-.87-.09-1.75-.17-2.62-.26-1.12-.11-2.09.77-2.09 1.89-.2 5.29-.39 10.58-.59 15.87-.07 1.95.67 3.84 2.05 5.22.41.41.83.82 1.24 1.24 1.41 1.41 2.33 3.38 1.83 5.31-.11.42-.24.77-.41 1.1-.72 1.44-2.14 2.42-3.69 2.85-12.41 3.47-33.27 4.28-40.45-4.34-1-1.2-1.27-2.88-.66-4.31 1.75-4.11 5.21-2.31 7.74-6.1 3.19-4.78 9.57-40.58 7.55-50.26-.23-1.09-1.02-1.93-1.95-2.55-.45-.3-.9-.6-1.34-.9-2.18-1.45-3.37-4-3.08-6.6.03-.26.06-.53.09-.79.09-.84.31-1.68.79-2.38 1.13-1.64 2.37-2.12 4.08-2.97zm201.63 1.34c3.53-1.36 7.26-2.26 11.03-2.06 4.2.23 7.78.76 11.29 1.4 6.67 1.23 12.91 4.81 15.71 10.98 3.52 7.73 5.38 17.5-1.89 22.55-1.86 1.43-3.95 2.32-6.31 1.4-7.05-1.25-9.64-8.63-13.21-14.01-1.24-1.87-3.52-2.63-5.75-2.31-.45.06-.91.13-1.36.19-11.8 5.51-13.81 30.7-7.43 43.32.99 1.95 3.1 2.94 5.29 2.94h3.02c1.69 0 3.32-.61 4.6-1.72 3.97-3.45 7.94-6.91 11.91-10.36 1.39-1.21 3.3-1.63 5.07-1.13 1.33.38 2.46 1.25 3.17 2.43.18.29.35.59.53.88.31.52.56 1.09.71 1.67 7.48 29.09-39.9 36-56.32 24.34-21.43-15.23-11.21-59.62 4.91-72.89 4.66-3.84 9.43-5.48 15.02-7.64zm58.49.26c2.38-.68 4.84-1.07 7.31-.99 5.59.16 10.92.86 15.61 1.86 2.37.51 4.22 2.34 4.91 4.66.61 2.05.25 4.28-.95 6.04-3.9 5.71-7.36 11.75-6.65 19.65.07.8.76 1.39 1.57 1.39h10.22c.6 0 1.13-.38 1.31-.95 2.85-9.25-.41-15.56-1.5-23.72-.17-1.28.05-2.6.69-3.73.56-.99 1.11-1.58 2.61-2.44 6.01-4.04 19.87-2.74 26.81.05 1.75.7 2.78 2.41 3.04 4.28.18 1.29.03 2.64-.7 3.71-1.76 2.58-4.15 4.05-5.32 6.68-4.01 9.01-6.21 44.45-4.91 52.57 1.17.7 2.34 1.4 3.5 2.1 2.1-1.87 4.21-3.74 6.31-5.61 7.48-11.21 14.95-22.43 22.43-33.64 5.78-9.81 7.16-22.42 14.39-30.5 1.06-1.18 2.62-1.82 4.21-1.82 32.31-.07 24.59 38.7 33.97 63.86 2.01 5.39 6.77 6.02 8.94 10.94.82 1.86.13 4.01-1.61 5.06-8.5 5.13-31.11 8.96-38.87 2.22-1.03-.68-1.62-1.27-2.08-1.97-1.14-1.73-.96-4.06.37-5.65 2.58-3.07 5.97-5.09 5.45-8.31-.09-.55-.6-.91-1.16-.95-7.17-.47-17.69-1.88-23.67.48-.4.16-.64.55-.64.98v2.13c0 .43.19.83.53 1.1 1.06.85 2.12 1.69 3.18 2.54 2.03 1.63 3.2 4.4 1.74 6.55-7.32 10.77-34.14.47-34.88 1-6.82 4.81-28.11 7.86-33.32-1.24-.99-1.74-.28-3.84.92-5.44 3.95-5.26 8.16-12.55 7.48-20.25-.25-2.85-2.89-4.76-5.74-4.57-1.62.11-3.05.33-4.37.67-2.29.61-3.63 2.82-3.81 5.18-.34 4.4-.68 8.8-1.02 13.2-.06.82-.01 1.66.34 2.4 1.01 2.11 2.76 3.19 3.53 6.58.2.89.06 1.82-.28 2.66-.56 1.41-1.69 2.54-3.14 2.96-8.38 2.41-20.55 2.5-29.63.7-2.01-.4-3.6-1.85-4.36-3.75-.97-2.42-.4-5.2.99-7.41 7.19-11.41 17.21-41.14 11.43-55.46-.95-.95-1.89-1.89-2.84-2.84-1.32-1.32-2.14-3.13-1.9-4.98.28-2.14.91-3.14 1.88-4.36.95-1.19 2.26-2.07 3.72-2.48 1.32-.38 2.65-.76 3.97-1.13zm-224.7 11.32c-1.8-.26-3.55.66-4.09 2.4-1.56 5.06-3.03 13.93-1.68 17.71.29.82 1.16 1.19 2.04 1.19.48 0 .96-.11 1.39-.33.27-.14.54-.27.81-.4 1.75-.87 3.05-2.44 3.58-4.32 1.14-4.1 2.11-8.33 1.4-13.09-.08-.52-.28-1.01-.57-1.45-.61-.92-1.58-1.53-2.68-1.69-.06 0-.12-.02-.18-.03zm-81.87 2.2c-1.99-.33-4.06.19-5.27 1.81-7.71 10.25-18.3 42.02-6.78 52.04 1.5 1.3 3.7 1.29 5.09-.13 8.93-9.15 19.52-45.48 8.03-53.54-.36-.06-.71-.12-1.07-.18zm169.96 17.7c-.42 0-.8.23-1.01.6-2.91 5.23-6.4 9.73-7.96 16.39-.08.33.02.68.27.92.2.2.48.31.76.29l11.56-.61c.74-.04 1.32-.64 1.31-1.38-.12-6.47-1.79-11.02-3.9-15.56-.19-.4-.59-.65-1.03-.65zm240.42.7c-.43 0-.82.24-1.01.62-2.52 5.03-5.03 10.07-7.55 15.1-.25.51.11 1.1.68 1.1.11 0 .22.02.32.07 3.16 1.37 8.79.68 11.68-.43.49-.19.78-.67.77-1.2-.1-6.33-1.82-10.33-3.89-14.63-.19-.39-.58-.64-1.01-.64z"/><path d="m56.8698 2.4c.55-.25 1.15-.4 1.75-.4.77 0 1.52.23 2.13.69 7.49 5.75 10.38 15.17 6.94 25.65-.51 1.57-1.66 2.87-3.18 3.53-1.83.8-3.81 1.26-6.13.26-5.57-3.28-6.75-10.61-13.23-11.24-1.36-.13-2.56.77-3.17 1.99-.69 1.37-.55 3.03.47 4.18 6.68 7.5 16.47 11.91 21.53 20.49 12.02 20.38-7.85 42.47-20.33 46.96-37.83002 13.64-54.2-35.58-30.8-37.84.7.23 1.4.47 2.1.7 5.07 3.99 7.27 11.72 10.27 17.95.95 1.98 2.93 3.29 5.13 3.3 1.08 0 2-.08 3.01-.28 1.67-.32 3.01-1.56 3.68-3.12.66-1.54.63-3.31-.27-4.73-9.03-14.34-29.33002-20.49-21.82-45.36 2.35-7.78 6.35-14.54 12.62-18.22 8.89-5.22 20.1-.36 29.31-4.5zm119.4202 4.39c3.14-1.33 6.57-2.11 9.98-1.94 64.22 3.21 30.59 104.41-26.24 88.26-20.24-5.75-28.96-32.81-18.92-56.07 7.46-17.3 18.43-23.17 35.18-30.25zm-49.15.34c1.38-.51 2.84-.83 4.3-.65.03 0 .05 0 .08.01 2.08.26 3.92 1.45 4.67 3.41 3.6 9.36 9.02 33.52-5.59 27.84-4.16-2.35-4.3-7.4-6.16-11.49-.66-1.45-2.52-1.55-3.65-.42-3.03 7-5.6 39.17-3.02 50.02.4 1.7 1.92 2.66 3.47 3.47.95.49 1.53 1.15 2.35 2.58.93 2.79-.12 4.79-1.49 6.68-.83 1.15-2.02 1.98-3.38 2.39-11.15 3.4-34.8402 8.07-38.2202-4.72-.38-1.43 0-2.98 1.1-3.97 2.75-2.47 6.96-3.56 8.35-6.69 2.1-15.89 4.21-31.78 6.31-47.66-1.21-2.83-4.29-1.65-5.47 1.2-1.48 3.58-3.45 7.07-6.29 8.84-.55.34-1.18.52-1.82.63-.33.05-.65.11-.98.16-1.47.24-3.03.1-4.31-.68-.7-.43-1.2-.91-1.81-1.85-.25-.39-.52-.77-.8-1.14-6.15-8.25 3.65-24.94 9.55-27.49 10.41-2.17 31.1502 3.87 42.8002-.47zm104.21-.1c1.05-.52 2.18-.85 3.34-.88 42.29-1.16 92.88-.88 55.39 40.27-.24.26-.39.62-.39.98 0 .52.29 1 .74 1.27 8.69 5.14 7.81 14.63 9.37 26.35.22 1.67 1.33 3.07 2.88 3.74 1.51.65 3.26.51 4.61-.45 24.46-17.39 26.95-45.64 43.38-70.01 38.85-10.77 31.3 38.26 40.65 64.48 2.42 2.58 4.84 5.16 7.26 7.75 1.95 2.08 2.4 5.17 1.13 7.72-.88 1.75-2.46 3.05-4.36 3.51-12.91 3.11-34.11 6.29-39.47-2.98-.22-.38-.35-.8-.43-1.22-.36-1.78.24-3.61 1.58-4.84 1.48-1.36 2.97-2.72 4.45-4.08 1.05-.96 1.28-2.53.55-3.76-.53-.88-1.46-1.42-2.48-1.48-6.92-.45-16.5-2.15-21.56.42-.43.22-.81.53-1.16.87-.71.69-.55.63-.77 2.3-.06.45 0 .92.21 1.33.25.5.67.88 1.19 1.08.48.18.95.36 1.43.54 2.07.78 3.54 2.64 3.81 4.83 0 .05.01.09.02.14.15 1.23-.11 2.47-.75 3.54-.72 1.2-1.84 2.09-3.21 2.38-16.15 3.37-61.03 1.63-65.9-4.72-5.05-6.59-3.67-20.19-6.79-28.73-.49-1.35-1.79-2.19-3.22-2.34-.87-.09-1.75-.17-2.62-.26-1.12-.11-2.09.77-2.09 1.89-.2 5.29-.39 10.58-.59 15.87-.07 1.95.67 3.84 2.05 5.22.41.41.83.82 1.24 1.24 1.41 1.41 2.33 3.38 1.83 5.31-.11.42-.24.77-.41 1.1-.72 1.44-2.14 2.42-3.69 2.85-12.41 3.47-33.27 4.28-40.45-4.34-1-1.2-1.27-2.88-.66-4.31 1.75-4.11 5.21-2.31 7.74-6.1 3.19-4.78 9.57-40.58 7.55-50.26-.23-1.09-1.02-1.93-1.95-2.55-.45-.3-.9-.6-1.34-.9-2.18-1.45-3.37-4-3.08-6.6.03-.26.06-.53.09-.79.09-.84.31-1.68.79-2.38 1.13-1.64 2.37-2.12 4.08-2.97zm201.63 1.34c3.53-1.36 7.26-2.26 11.03-2.06 4.2.23 7.78.76 11.29 1.4 6.67 1.23 12.91 4.81 15.71 10.98 3.52 7.73 5.38 17.5-1.89 22.55-1.86 1.43-3.95 2.32-6.31 1.4-7.05-1.25-9.64-8.63-13.21-14.01-1.24-1.87-3.52-2.63-5.75-2.31-.45.06-.91.13-1.36.19-11.8 5.51-13.81 30.7-7.43 43.32.99 1.95 3.1 2.94 5.29 2.94h3.02c1.69 0 3.32-.61 4.6-1.72 3.97-3.45 7.94-6.91 11.91-10.36 1.39-1.21 3.3-1.63 5.07-1.13 1.33.38 2.46 1.25 3.17 2.43.18.29.35.59.53.88.31.52.56 1.09.71 1.67 7.48 29.09-39.9 36-56.32 24.34-21.43-15.23-11.21-59.62 4.91-72.89 4.66-3.84 9.43-5.48 15.02-7.64zm58.49.26c2.38-.68 4.84-1.07 7.31-.99 5.59.16 10.92.86 15.61 1.86 2.37.51 4.22 2.34 4.91 4.66.61 2.05.25 4.28-.95 6.04-3.9 5.71-7.36 11.75-6.65 19.65.07.8.76 1.39 1.57 1.39h10.22c.6 0 1.13-.38 1.31-.95 2.85-9.25-.41-15.56-1.5-23.72-.17-1.28.05-2.6.69-3.73.56-.99 1.11-1.58 2.61-2.44 6.01-4.04 19.87-2.74 26.81.05 1.75.7 2.78 2.41 3.04 4.28.18 1.29.03 2.64-.7 3.71-1.76 2.58-4.15 4.05-5.32 6.68-4.01 9.01-6.21 44.45-4.91 52.57 1.17.7 2.34 1.4 3.5 2.1 2.1-1.87 4.21-3.74 6.31-5.61 7.48-11.21 14.95-22.43 22.43-33.64 5.78-9.81 7.16-22.42 14.39-30.5 1.06-1.18 2.62-1.82 4.21-1.82 32.31-.07 24.59 38.7 33.97 63.86 2.01 5.39 6.77 6.02 8.94 10.94.82 1.86.13 4.01-1.61 5.06-8.5 5.13-31.11 8.96-38.87 2.22-1.03-.68-1.62-1.27-2.08-1.97-1.14-1.73-.96-4.06.37-5.65 2.58-3.07 5.97-5.09 5.45-8.31-.09-.55-.6-.91-1.16-.95-7.17-.47-17.69-1.88-23.67.48-.4.16-.64.55-.64.98v2.13c0 .43.19.83.53 1.1 1.06.85 2.12 1.69 3.18 2.54 2.03 1.63 3.2 4.4 1.74 6.55-7.32 10.77-34.14.47-34.88 1-6.82 4.81-28.11 7.86-33.32-1.24-.99-1.74-.28-3.84.92-5.44 3.95-5.26 8.16-12.55 7.48-20.25-.25-2.85-2.89-4.76-5.74-4.57-1.62.11-3.05.33-4.37.67-2.29.61-3.63 2.82-3.81 5.18-.34 4.4-.68 8.8-1.02 13.2-.06.82-.01 1.66.34 2.4 1.01 2.11 2.76 3.19 3.53 6.58.2.89.06 1.82-.28 2.66-.56 1.41-1.69 2.54-3.14 2.96-8.38 2.41-20.55 2.5-29.63.7-2.01-.4-3.6-1.85-4.36-3.75-.97-2.42-.4-5.2.99-7.41 7.19-11.41 17.21-41.14 11.43-55.46-.95-.95-1.89-1.89-2.84-2.84-1.32-1.32-2.14-3.13-1.9-4.98.28-2.14.91-3.14 1.88-4.36.95-1.19 2.26-2.07 3.72-2.48 1.32-.38 2.65-.76 3.97-1.13zm-224.7 11.32c-1.8-.26-3.55.66-4.09 2.4-1.56 5.06-3.03 13.93-1.68 17.71.29.82 1.16 1.19 2.04 1.19.48 0 .96-.11 1.39-.33.27-.14.54-.27.81-.4 1.75-.87 3.05-2.44 3.58-4.32 1.14-4.1 2.11-8.33 1.4-13.09-.08-.52-.28-1.01-.57-1.45-.61-.92-1.58-1.53-2.68-1.69-.06 0-.12-.02-.18-.03zm-81.87 2.2c-1.99-.33-4.06.19-5.27 1.81-7.71 10.25-18.3 42.02-6.78 52.04 1.5 1.3 3.7 1.29 5.09-.13 8.93-9.15 19.52-45.48 8.03-53.54-.36-.06-.71-.12-1.07-.18zm169.96 17.7c-.42 0-.8.23-1.01.6-2.91 5.23-6.4 9.73-7.96 16.39-.08.33.02.68.27.92.2.2.48.31.76.29l11.56-.61c.74-.04 1.32-.64 1.31-1.38-.12-6.47-1.79-11.02-3.9-15.56-.19-.4-.59-.65-1.03-.65zm240.42.7c-.43 0-.82.24-1.01.62-2.52 5.03-5.03 10.07-7.55 15.1-.25.51.11 1.1.68 1.1.11 0 .22.02.32.07 3.16 1.37 8.79.68 11.68-.43.49-.19.78-.67.77-1.2-.1-6.33-1.82-10.33-3.89-14.63-.19-.39-.58-.64-1.01-.64z"/><path d="m56.8699 566.49c.55-.25 1.15-.4 1.75-.4.77 0 1.52.23 2.13.69 7.49 5.75 10.38 15.17 6.94 25.65-.51 1.57-1.66 2.87-3.18 3.53-1.83.8-3.81 1.26-6.13.26-5.57-3.28-6.75-10.61-13.23-11.24-1.36-.13-2.56.77-3.17 1.99-.69 1.37-.55 3.03.47 4.18 6.68 7.5 16.47 11.91 21.53 20.49 12.02 20.38-7.85 42.47-20.33 46.96-37.86997 13.63-54.24-35.58-30.84-37.85.7.23 1.4.47 2.1.7 5.07 3.99 7.27 11.72 10.27 17.95.95 1.98 2.93 3.29 5.13 3.3 1.08 0 2-.08 3.01-.28 1.67-.32 3.01-1.56 3.68-3.12.66-1.54.63-3.31-.27-4.73-9.03-14.34-29.32998-20.49-21.82-45.36 2.35-7.78 6.35-14.54 12.62-18.22 8.89-5.22 20.1-.36 29.31-4.5zm119.4201 4.39c3.14-1.33 6.57-2.11 9.98-1.94 64.22 3.21 30.59 104.41-26.24 88.26-20.24-5.75-28.96-32.81-18.92-56.07 7.46-17.3 18.43-23.17 35.18-30.25zm-49.15.34c1.38-.51 2.84-.83 4.3-.65.03 0 .05 0 .08.01 2.08.26 3.92 1.45 4.67 3.41 3.6 9.36 9.02 33.52-5.59 27.84-4.16-2.35-4.3-7.4-6.16-11.49-.66-1.45-2.52-1.55-3.65-.42-3.03 7-5.6 39.17-3.02 50.02.4 1.7 1.92 2.66 3.47 3.47.95.49 1.53 1.15 2.35 2.58.93 2.79-.12 4.79-1.49 6.68-.83 1.15-2.02 1.98-3.38 2.39-11.15 3.4-34.8401 8.07-38.2201-4.72-.38-1.43 0-2.98 1.1-3.97 2.75-2.47 6.96-3.56 8.35-6.69 2.1-15.89 4.21-31.78 6.31-47.66-1.21-2.83-4.29-1.65-5.47 1.2-1.48 3.58-3.45 7.07-6.29 8.84-.55.34-1.18.52-1.82.63-.33.05-.65.11-.98.16-1.47.24-3.03.1-4.31-.68-.7-.43-1.2-.91-1.81-1.85-.25-.39-.52-.77-.8-1.14-6.15-8.25 3.65-24.94 9.55-27.49 10.41-2.17 31.1501 3.87 42.8001-.47zm104.21-.1c1.05-.52 2.18-.85 3.34-.88 42.29-1.16 92.88-.88 55.39 40.27-.24.26-.39.62-.39.98 0 .52.29 1 .74 1.27 8.69 5.14 7.81 14.63 9.37 26.35.22 1.67 1.33 3.07 2.88 3.74 1.51.65 3.26.51 4.61-.45 24.46-17.39 26.95-45.64 43.38-70.01 38.85-10.77 31.3 38.26 40.65 64.48 2.42 2.58 4.84 5.16 7.26 7.75 1.95 2.08 2.4 5.17 1.13 7.72-.88 1.75-2.46 3.05-4.36 3.51-12.91 3.11-34.11 6.29-39.47-2.98-.22-.38-.35-.8-.43-1.22-.36-1.78.24-3.61 1.58-4.84 1.48-1.36 2.97-2.72 4.45-4.08 1.05-.96 1.28-2.53.55-3.76-.53-.88-1.46-1.42-2.48-1.48-6.92-.45-16.5-2.15-21.56.42-.43.22-.81.53-1.16.87-.71.69-.55.63-.77 2.3-.06.45 0 .92.21 1.33.25.5.67.88 1.19 1.08.48.18.95.36 1.43.54 2.07.78 3.54 2.64 3.81 4.83 0 .05.01.09.02.14.15 1.23-.11 2.47-.75 3.54-.72 1.2-1.84 2.09-3.21 2.38-16.15 3.37-61.03 1.63-65.9-4.72-5.05-6.59-3.67-20.19-6.79-28.73-.49-1.35-1.79-2.19-3.22-2.34-.87-.09-1.75-.17-2.62-.26-1.12-.11-2.09.77-2.09 1.89-.2 5.29-.39 10.58-.59 15.87-.07 1.95.67 3.84 2.05 5.22.41.41.83.82 1.24 1.24 1.41 1.41 2.33 3.38 1.83 5.31-.11.42-.24.77-.41 1.1-.72 1.44-2.14 2.42-3.69 2.85-12.41 3.47-33.27 4.28-40.45-4.34-1-1.2-1.27-2.88-.66-4.31 1.75-4.11 5.21-2.31 7.74-6.1 3.19-4.78 9.57-40.58 7.55-50.26-.23-1.09-1.02-1.93-1.95-2.55-.45-.3-.9-.6-1.34-.9-2.18-1.45-3.37-4-3.08-6.6.03-.26.06-.53.09-.79.09-.84.31-1.68.79-2.38 1.13-1.64 2.37-2.12 4.08-2.97zm201.63 1.34c3.53-1.36 7.26-2.26 11.03-2.06 4.2.23 7.78.76 11.29 1.4 6.67 1.23 12.91 4.81 15.71 10.98 3.52 7.73 5.38 17.5-1.89 22.55-1.86 1.43-3.95 2.32-6.31 1.4-7.05-1.25-9.64-8.63-13.21-14.01-1.24-1.87-3.52-2.63-5.75-2.31-.45.06-.91.13-1.36.19-11.8 5.51-13.81 30.7-7.43 43.32.99 1.95 3.1 2.94 5.29 2.94h3.02c1.69 0 3.32-.61 4.6-1.72 3.97-3.45 7.94-6.91 11.91-10.36 1.39-1.21 3.3-1.63 5.07-1.13 1.33.38 2.46 1.25 3.17 2.43.18.29.35.59.53.88.31.52.56 1.09.71 1.67 7.48 29.09-39.9 36-56.32 24.34-21.43-15.23-11.21-59.62 4.91-72.89 4.66-3.84 9.43-5.48 15.02-7.64zm58.49.26c2.38-.68 4.84-1.07 7.31-.99 5.59.16 10.92.86 15.61 1.86 2.37.51 4.22 2.34 4.91 4.66.61 2.05.25 4.28-.95 6.04-3.9 5.71-7.36 11.75-6.65 19.65.07.8.76 1.39 1.57 1.39h10.22c.6 0 1.13-.38 1.31-.95 2.85-9.25-.41-15.56-1.5-23.72-.17-1.28.05-2.6.69-3.73.56-.99 1.11-1.58 2.61-2.44 6.01-4.04 19.87-2.74 26.81.05 1.75.7 2.78 2.41 3.04 4.28.18 1.29.03 2.64-.7 3.71-1.76 2.58-4.15 4.05-5.32 6.68-4.01 9.01-6.21 44.45-4.91 52.57 1.17.7 2.34 1.4 3.5 2.1 2.1-1.87 4.21-3.74 6.31-5.61 7.48-11.21 14.95-22.43 22.43-33.64 5.78-9.81 7.16-22.42 14.39-30.5 1.06-1.18 2.62-1.82 4.21-1.82 32.31-.07 24.59 38.7 33.97 63.86 2.01 5.39 6.77 6.02 8.94 10.94.82 1.86.13 4.01-1.61 5.06-8.5 5.13-31.11 8.96-38.87 2.22-1.03-.68-1.62-1.27-2.08-1.97-1.14-1.73-.96-4.06.37-5.65 2.58-3.07 5.97-5.09 5.45-8.31-.09-.55-.6-.91-1.16-.95-7.17-.47-17.69-1.88-23.67.48-.4.16-.64.55-.64.98v2.13c0 .43.19.83.53 1.1 1.06.85 2.12 1.69 3.18 2.54 2.03 1.63 3.2 4.4 1.74 6.55-7.32 10.77-34.14.47-34.88 1-6.82 4.81-28.11 7.86-33.32-1.24-.99-1.74-.28-3.84.92-5.44 3.95-5.26 8.16-12.55 7.48-20.25-.25-2.85-2.89-4.76-5.74-4.57-1.62.11-3.05.33-4.37.67-2.29.61-3.63 2.82-3.81 5.18-.34 4.4-.68 8.8-1.02 13.2-.06.82-.01 1.66.34 2.4 1.01 2.11 2.76 3.19 3.53 6.58.2.89.06 1.82-.28 2.66-.56 1.41-1.69 2.54-3.14 2.96-8.38 2.41-20.55 2.5-29.63.7-2.01-.4-3.6-1.85-4.36-3.75-.97-2.42-.4-5.2.99-7.41 7.19-11.41 17.21-41.14 11.43-55.46-.95-.95-1.89-1.89-2.84-2.84-1.32-1.32-2.14-3.13-1.9-4.98.28-2.14.91-3.14 1.88-4.36.95-1.19 2.26-2.07 3.72-2.48 1.32-.38 2.65-.76 3.97-1.13zm-224.7 11.32c-1.8-.26-3.55.66-4.09 2.4-1.56 5.06-3.03 13.93-1.68 17.71.29.82 1.16 1.19 2.04 1.19.48 0 .96-.11 1.39-.33.27-.14.54-.27.81-.4 1.75-.87 3.05-2.44 3.58-4.32 1.14-4.1 2.11-8.33 1.4-13.09-.08-.52-.28-1.01-.57-1.45-.61-.92-1.58-1.53-2.68-1.69-.06 0-.12-.02-.18-.03zm-81.87 2.2c-1.99-.33-4.06.19-5.27 1.81-7.71 10.25-18.3 42.02-6.78 52.04 1.5 1.3 3.7 1.29 5.09-.13 8.93-9.15 19.52-45.48 8.03-53.54-.36-.06-.71-.12-1.07-.18zm169.96 17.7c-.42 0-.8.23-1.01.6-2.91 5.23-6.4 9.73-7.96 16.39-.08.33.02.68.27.92.2.2.48.31.76.29l11.56-.61c.74-.04 1.32-.64 1.31-1.38-.12-6.47-1.79-11.02-3.9-15.56-.19-.4-.59-.65-1.03-.65zm240.42.7c-.43 0-.82.24-1.01.62-2.52 5.03-5.03 10.07-7.55 15.1-.25.51.11 1.1.68 1.1.11 0 .22.02.32.07 3.16 1.37 8.79.68 11.68-.43.49-.19.78-.67.77-1.2-.1-6.33-1.82-10.33-3.89-14.63-.19-.39-.58-.64-1.01-.64z"/><path d="m56.8699 471.28c.55-.25 1.15-.4 1.75-.4.77 0 1.52.23 2.13.69 7.49 5.75 10.38 15.17 6.94 25.65-.51 1.57-1.66 2.87-3.18 3.53-1.83.8-3.81 1.26-6.13.26-5.57-3.28-6.75-10.61-13.23-11.24-1.36-.13-2.56.77-3.17 1.99-.69 1.37-.55 3.03.47 4.18 6.68 7.5 16.47 11.91 21.53 20.49 12.02 20.38-7.85 42.47-20.33 46.96-37.86997 13.63-54.24-35.58-30.84-37.85.7.23 1.4.47 2.1.7 5.07 3.99 7.27 11.72 10.27 17.95.95 1.98 2.93 3.29 5.13 3.3 1.08 0 2-.08 3.01-.28 1.67-.32 3.01-1.56 3.68-3.12.66-1.54.63-3.31-.27-4.73-9.03-14.34-29.32998-20.49-21.82-45.36 2.35-7.78 6.35-14.54 12.62-18.22 8.89-5.22 20.1-.36 29.31-4.5zm119.4201 4.39c3.14-1.33 6.57-2.11 9.98-1.94 64.22 3.21 30.59 104.41-26.24 88.26-20.24-5.75-28.96-32.81-18.92-56.07 7.46-17.3 18.43-23.17 35.18-30.25zm-49.15.34c1.38-.51 2.84-.83 4.3-.65.03 0 .05 0 .08.01 2.08.26 3.92 1.45 4.67 3.41 3.6 9.36 9.02 33.52-5.59 27.84-4.16-2.35-4.3-7.4-6.16-11.49-.66-1.45-2.52-1.55-3.65-.42-3.03 7-5.6 39.17-3.02 50.02.4 1.7 1.92 2.66 3.47 3.47.95.49 1.53 1.15 2.35 2.58.93 2.79-.12 4.79-1.49 6.68-.83 1.15-2.02 1.98-3.38 2.39-11.15 3.4-34.8401 8.07-38.2201-4.72-.38-1.43 0-2.98 1.1-3.97 2.75-2.47 6.96-3.56 8.35-6.69 2.1-15.89 4.21-31.78 6.31-47.66-1.21-2.83-4.29-1.65-5.47 1.2-1.48 3.58-3.45 7.07-6.29 8.84-.55.34-1.18.52-1.82.63-.33.05-.65.11-.98.16-1.47.24-3.03.1-4.31-.68-.7-.43-1.2-.91-1.81-1.85-.25-.39-.52-.77-.8-1.14-6.15-8.25 3.65-24.94 9.55-27.49 10.41-2.17 31.1501 3.87 42.8001-.47zm104.21-.1c1.05-.52 2.18-.85 3.34-.88 42.29-1.16 92.88-.88 55.39 40.27-.24.26-.39.62-.39.98 0 .52.29 1 .74 1.27 8.69 5.14 7.81 14.63 9.37 26.35.22 1.67 1.33 3.07 2.88 3.74 1.51.65 3.26.51 4.61-.45 24.46-17.39 26.95-45.64 43.38-70.01 38.85-10.77 31.3 38.26 40.65 64.48 2.42 2.58 4.84 5.16 7.26 7.75 1.95 2.08 2.4 5.17 1.13 7.72-.88 1.75-2.46 3.05-4.36 3.51-12.91 3.11-34.11 6.29-39.47-2.98-.22-.38-.35-.8-.43-1.22-.36-1.78.24-3.61 1.58-4.84 1.48-1.36 2.97-2.72 4.45-4.08 1.05-.96 1.28-2.53.55-3.76-.53-.88-1.46-1.42-2.48-1.48-6.92-.45-16.5-2.15-21.56.42-.43.22-.81.53-1.16.87-.71.69-.55.63-.77 2.3-.06.45 0 .92.21 1.33.25.5.67.88 1.19 1.08.48.18.95.36 1.43.54 2.07.78 3.54 2.64 3.81 4.83 0 .05.01.09.02.14.15 1.23-.11 2.47-.75 3.54-.72 1.2-1.84 2.09-3.21 2.38-16.15 3.37-61.03 1.63-65.9-4.72-5.05-6.59-3.67-20.19-6.79-28.73-.49-1.35-1.79-2.19-3.22-2.34-.87-.09-1.75-.17-2.62-.26-1.12-.11-2.09.77-2.09 1.89-.2 5.29-.39 10.58-.59 15.87-.07 1.95.67 3.84 2.05 5.22.41.41.83.82 1.24 1.24 1.41 1.41 2.33 3.38 1.83 5.31-.11.42-.24.77-.41 1.1-.72 1.44-2.14 2.42-3.69 2.85-12.41 3.47-33.27 4.28-40.45-4.34-1-1.2-1.27-2.88-.66-4.31 1.75-4.11 5.21-2.31 7.74-6.1 3.19-4.78 9.57-40.58 7.55-50.26-.23-1.09-1.02-1.93-1.95-2.55-.45-.3-.9-.6-1.34-.9-2.18-1.45-3.37-4-3.08-6.6.03-.26.06-.53.09-.79.09-.84.31-1.68.79-2.38 1.13-1.64 2.37-2.12 4.08-2.97zm201.63 1.34c3.53-1.36 7.26-2.26 11.03-2.06 4.2.23 7.78.76 11.29 1.4 6.67 1.23 12.91 4.81 15.71 10.98 3.52 7.73 5.38 17.5-1.89 22.55-1.86 1.43-3.95 2.32-6.31 1.4-7.05-1.25-9.64-8.63-13.21-14.01-1.24-1.87-3.52-2.63-5.75-2.31-.45.06-.91.13-1.36.19-11.8 5.51-13.81 30.7-7.43 43.32.99 1.95 3.1 2.94 5.29 2.94h3.02c1.69 0 3.32-.61 4.6-1.72 3.97-3.45 7.94-6.91 11.91-10.36 1.39-1.21 3.3-1.63 5.07-1.13 1.33.38 2.46 1.25 3.17 2.43.18.29.35.59.53.88.31.52.56 1.09.71 1.67 7.48 29.09-39.9 36-56.32 24.34-21.43-15.23-11.21-59.62 4.91-72.89 4.66-3.84 9.43-5.48 15.02-7.64zm58.49.26c2.38-.68 4.84-1.07 7.31-.99 5.59.16 10.92.86 15.61 1.86 2.37.51 4.22 2.34 4.91 4.66.61 2.05.25 4.28-.95 6.04-3.9 5.71-7.36 11.75-6.65 19.65.07.8.76 1.39 1.57 1.39h10.22c.6 0 1.13-.38 1.31-.95 2.85-9.25-.41-15.56-1.5-23.72-.17-1.28.05-2.6.69-3.73.56-.99 1.11-1.58 2.61-2.44 6.01-4.04 19.87-2.74 26.81.05 1.75.7 2.78 2.41 3.04 4.28.18 1.29.03 2.64-.7 3.71-1.76 2.58-4.15 4.05-5.32 6.68-4.01 9.01-6.21 44.45-4.91 52.57 1.17.7 2.34 1.4 3.5 2.1 2.1-1.87 4.21-3.74 6.31-5.61 7.48-11.21 14.95-22.43 22.43-33.64 5.78-9.81 7.16-22.42 14.39-30.5 1.06-1.18 2.62-1.82 4.21-1.82 32.31-.07 24.59 38.7 33.97 63.86 2.01 5.39 6.77 6.02 8.94 10.94.82 1.86.13 4.01-1.61 5.06-8.5 5.13-31.11 8.96-38.87 2.22-1.03-.68-1.62-1.27-2.08-1.97-1.14-1.73-.96-4.06.37-5.65 2.58-3.07 5.97-5.09 5.45-8.31-.09-.55-.6-.91-1.16-.95-7.17-.47-17.69-1.88-23.67.48-.4.16-.64.55-.64.98v2.13c0 .43.19.83.53 1.1 1.06.85 2.12 1.69 3.18 2.54 2.03 1.63 3.2 4.4 1.74 6.55-7.32 10.77-34.14.47-34.88 1-6.82 4.81-28.11 7.86-33.32-1.24-.99-1.74-.28-3.84.92-5.44 3.95-5.26 8.16-12.55 7.48-20.25-.25-2.85-2.89-4.76-5.74-4.57-1.62.11-3.05.33-4.37.67-2.29.61-3.63 2.82-3.81 5.18-.34 4.4-.68 8.8-1.02 13.2-.06.82-.01 1.66.34 2.4 1.01 2.11 2.76 3.19 3.53 6.58.2.89.06 1.82-.28 2.66-.56 1.41-1.69 2.54-3.14 2.96-8.38 2.41-20.55 2.5-29.63.7-2.01-.4-3.6-1.85-4.36-3.75-.97-2.42-.4-5.2.99-7.41 7.19-11.41 17.21-41.14 11.43-55.46-.95-.95-1.89-1.89-2.84-2.84-1.32-1.32-2.14-3.13-1.9-4.98.28-2.14.91-3.14 1.88-4.36.95-1.19 2.26-2.07 3.72-2.48 1.32-.38 2.65-.76 3.97-1.13zm-224.7 11.32c-1.8-.26-3.55.66-4.09 2.4-1.56 5.06-3.03 13.93-1.68 17.71.29.82 1.16 1.19 2.04 1.19.48 0 .96-.11 1.39-.33.27-.14.54-.27.81-.4 1.75-.87 3.05-2.44 3.58-4.32 1.14-4.1 2.11-8.33 1.4-13.09-.08-.52-.28-1.01-.57-1.45-.61-.92-1.58-1.53-2.68-1.69-.06 0-.12-.02-.18-.03zm-81.87 2.2c-1.99-.33-4.06.19-5.27 1.81-7.71 10.25-18.3 42.02-6.78 52.04 1.5 1.3 3.7 1.29 5.09-.13 8.93-9.15 19.52-45.48 8.03-53.54-.36-.06-.71-.12-1.07-.18zm169.96 17.7c-.42 0-.8.23-1.01.6-2.91 5.23-6.4 9.73-7.96 16.39-.08.33.02.68.27.92.2.2.48.31.76.29l11.56-.61c.74-.04 1.32-.64 1.31-1.38-.12-6.47-1.79-11.02-3.9-15.56-.19-.4-.59-.65-1.03-.65zm240.42.7c-.43 0-.82.24-1.01.62-2.52 5.03-5.03 10.07-7.55 15.1-.25.51.11 1.1.68 1.1.11 0 .22.02.32.07 3.16 1.37 8.79.68 11.68-.43.49-.19.78-.67.77-1.2-.1-6.33-1.82-10.33-3.89-14.63-.19-.39-.58-.64-1.01-.64z"/><path d="m56.8699 376.93c.55-.25 1.15-.4 1.75-.4.77 0 1.52.23 2.13.69 7.49 5.75 10.38 15.17 6.94 25.65-.51 1.57-1.66 2.87-3.18 3.53-1.83.8-3.81 1.26-6.13.26-5.57-3.28-6.75-10.61-13.23-11.24-1.36-.13-2.56.77-3.17 1.99-.69 1.37-.55 3.03.47 4.18 6.68 7.5 16.47 11.91 21.53 20.49 12.02 20.38-7.85 42.47-20.33 46.96-37.86997 13.63-54.24-35.58-30.84-37.85.7.23 1.4.47 2.1.7 5.07 3.99 7.27 11.72 10.27 17.95.95 1.98 2.93 3.29 5.13 3.3 1.08 0 2-.08 3.01-.28 1.67-.32 3.01-1.56 3.68-3.12.66-1.54.63-3.31-.27-4.73-9.03-14.34-29.32998-20.49-21.82-45.36 2.35-7.78 6.35-14.54 12.62-18.22 8.89-5.22 20.1-.36 29.31-4.5zm119.4201 4.39c3.14-1.33 6.57-2.11 9.98-1.94 64.22 3.21 30.59 104.41-26.24 88.26-20.24-5.75-28.96-32.81-18.92-56.07 7.46-17.3 18.43-23.17 35.18-30.25zm-49.15.34c1.38-.51 2.84-.83 4.3-.65.03 0 .05 0 .08.01 2.08.26 3.92 1.45 4.67 3.41 3.6 9.36 9.02 33.52-5.59 27.84-4.16-2.35-4.3-7.4-6.16-11.49-.66-1.45-2.52-1.55-3.65-.42-3.03 7-5.6 39.17-3.02 50.02.4 1.7 1.92 2.66 3.47 3.47.95.49 1.53 1.15 2.35 2.58.93 2.79-.12 4.79-1.49 6.68-.83 1.15-2.02 1.98-3.38 2.39-11.15 3.4-34.8401 8.07-38.2201-4.72-.38-1.43 0-2.98 1.1-3.97 2.75-2.47 6.96-3.56 8.35-6.69 2.1-15.89 4.21-31.78 6.31-47.66-1.21-2.83-4.29-1.65-5.47 1.2-1.48 3.58-3.45 7.07-6.29 8.84-.55.34-1.18.52-1.82.63-.33.05-.65.11-.98.16-1.47.24-3.03.1-4.31-.68-.7-.43-1.2-.91-1.81-1.85-.25-.39-.52-.77-.8-1.14-6.15-8.25 3.65-24.94 9.55-27.49 10.41-2.17 31.1501 3.87 42.8001-.47zm104.21-.1c1.05-.52 2.18-.85 3.34-.88 42.29-1.16 92.88-.88 55.39 40.27-.24.26-.39.62-.39.98 0 .52.29 1 .74 1.27 8.69 5.14 7.81 14.63 9.37 26.35.22 1.67 1.33 3.07 2.88 3.74 1.51.65 3.26.51 4.61-.45 24.46-17.39 26.95-45.64 43.38-70.01 38.85-10.77 31.3 38.26 40.65 64.48 2.42 2.58 4.84 5.16 7.26 7.75 1.95 2.08 2.4 5.17 1.13 7.72-.88 1.75-2.46 3.05-4.36 3.51-12.91 3.11-34.11 6.29-39.47-2.98-.22-.38-.35-.8-.43-1.22-.36-1.78.24-3.61 1.58-4.84 1.48-1.36 2.97-2.72 4.45-4.08 1.05-.96 1.28-2.53.55-3.76-.53-.88-1.46-1.42-2.48-1.48-6.92-.45-16.5-2.15-21.56.42-.43.22-.81.53-1.16.87-.71.69-.55.63-.77 2.3-.06.45 0 .92.21 1.33.25.5.67.88 1.19 1.08.48.18.95.36 1.43.54 2.07.78 3.54 2.64 3.81 4.83 0 .05.01.09.02.14.15 1.23-.11 2.47-.75 3.54-.72 1.2-1.84 2.09-3.21 2.38-16.15 3.37-61.03 1.63-65.9-4.72-5.05-6.59-3.67-20.19-6.79-28.73-.49-1.35-1.79-2.19-3.22-2.34-.87-.09-1.75-.17-2.62-.26-1.12-.11-2.09.77-2.09 1.89-.2 5.29-.39 10.58-.59 15.87-.07 1.95.67 3.84 2.05 5.22.41.41.83.82 1.24 1.24 1.41 1.41 2.33 3.38 1.83 5.31-.11.42-.24.77-.41 1.1-.72 1.44-2.14 2.42-3.69 2.85-12.41 3.47-33.27 4.28-40.45-4.34-1-1.2-1.27-2.88-.66-4.31 1.75-4.11 5.21-2.31 7.74-6.1 3.19-4.78 9.57-40.58 7.55-50.26-.23-1.09-1.02-1.93-1.95-2.55-.45-.3-.9-.6-1.34-.9-2.18-1.45-3.37-4-3.08-6.6.03-.26.06-.53.09-.79.09-.84.31-1.68.79-2.38 1.13-1.64 2.37-2.12 4.08-2.97zm201.63 1.34c3.53-1.36 7.26-2.26 11.03-2.06 4.2.23 7.78.76 11.29 1.4 6.67 1.23 12.91 4.81 15.71 10.98 3.52 7.73 5.38 17.5-1.89 22.55-1.86 1.43-3.95 2.32-6.31 1.4-7.05-1.25-9.64-8.63-13.21-14.01-1.24-1.87-3.52-2.63-5.75-2.31-.45.06-.91.13-1.36.19-11.8 5.51-13.81 30.7-7.43 43.32.99 1.95 3.1 2.94 5.29 2.94h3.02c1.69 0 3.32-.61 4.6-1.72 3.97-3.45 7.94-6.91 11.91-10.36 1.39-1.21 3.3-1.63 5.07-1.13 1.33.38 2.46 1.25 3.17 2.43.18.29.35.59.53.88.31.52.56 1.09.71 1.67 7.48 29.09-39.9 36-56.32 24.34-21.43-15.23-11.21-59.62 4.91-72.89 4.66-3.84 9.43-5.48 15.02-7.64zm58.49.26c2.38-.68 4.84-1.07 7.31-.99 5.59.16 10.92.86 15.61 1.86 2.37.51 4.22 2.34 4.91 4.66.61 2.05.25 4.28-.95 6.04-3.9 5.71-7.36 11.75-6.65 19.65.07.8.76 1.39 1.57 1.39h10.22c.6 0 1.13-.38 1.31-.95 2.85-9.25-.41-15.56-1.5-23.72-.17-1.28.05-2.6.69-3.73.56-.99 1.11-1.58 2.61-2.44 6.01-4.04 19.87-2.74 26.81.05 1.75.7 2.78 2.41 3.04 4.28.18 1.29.03 2.64-.7 3.71-1.76 2.58-4.15 4.05-5.32 6.68-4.01 9.01-6.21 44.45-4.91 52.57 1.17.7 2.34 1.4 3.5 2.1 2.1-1.87 4.21-3.74 6.31-5.61 7.48-11.21 14.95-22.43 22.43-33.64 5.78-9.81 7.16-22.42 14.39-30.5 1.06-1.18 2.62-1.82 4.21-1.82 32.31-.07 24.59 38.7 33.97 63.86 2.01 5.39 6.77 6.02 8.94 10.94.82 1.86.13 4.01-1.61 5.06-8.5 5.13-31.11 8.96-38.87 2.22-1.03-.68-1.62-1.27-2.08-1.97-1.14-1.73-.96-4.06.37-5.65 2.58-3.07 5.97-5.09 5.45-8.31-.09-.55-.6-.91-1.16-.95-7.17-.47-17.69-1.88-23.67.48-.4.16-.64.55-.64.98v2.13c0 .43.19.83.53 1.1 1.06.85 2.12 1.69 3.18 2.54 2.03 1.63 3.2 4.4 1.74 6.55-7.32 10.77-34.14.47-34.88 1-6.82 4.81-28.11 7.86-33.32-1.24-.99-1.74-.28-3.84.92-5.44 3.95-5.26 8.16-12.55 7.48-20.25-.25-2.85-2.89-4.76-5.74-4.57-1.62.11-3.05.33-4.37.67-2.29.61-3.63 2.82-3.81 5.18-.34 4.4-.68 8.8-1.02 13.2-.06.82-.01 1.66.34 2.4 1.01 2.11 2.76 3.19 3.53 6.58.2.89.06 1.82-.28 2.66-.56 1.41-1.69 2.54-3.14 2.96-8.38 2.41-20.55 2.5-29.63.7-2.01-.4-3.6-1.85-4.36-3.75-.97-2.42-.4-5.2.99-7.41 7.19-11.41 17.21-41.14 11.43-55.46-.95-.95-1.89-1.89-2.84-2.84-1.32-1.32-2.14-3.13-1.9-4.98.28-2.14.91-3.14 1.88-4.36.95-1.19 2.26-2.07 3.72-2.48 1.32-.38 2.65-.76 3.97-1.13zm-224.7 11.32c-1.8-.26-3.55.66-4.09 2.4-1.56 5.06-3.03 13.93-1.68 17.71.29.82 1.16 1.19 2.04 1.19.48 0 .96-.11 1.39-.33.27-.14.54-.27.81-.4 1.75-.87 3.05-2.44 3.58-4.32 1.14-4.1 2.11-8.33 1.4-13.09-.08-.52-.28-1.01-.57-1.45-.61-.92-1.58-1.53-2.68-1.69-.06 0-.12-.02-.18-.03zm-81.87 2.2c-1.99-.33-4.06.19-5.27 1.81-7.71 10.25-18.3 42.02-6.78 52.04 1.5 1.3 3.7 1.29 5.09-.13 8.93-9.15 19.52-45.48 8.03-53.54-.36-.06-.71-.12-1.07-.18zm169.96 17.7c-.42 0-.8.23-1.01.6-2.91 5.23-6.4 9.73-7.96 16.39-.08.33.02.68.27.92.2.2.48.31.76.29l11.56-.61c.74-.04 1.32-.64 1.31-1.38-.12-6.47-1.79-11.02-3.9-15.56-.19-.4-.59-.65-1.03-.65zm240.42.7c-.43 0-.82.24-1.01.62-2.52 5.03-5.03 10.07-7.55 15.1-.25.51.11 1.1.68 1.1.11 0 .22.02.32.07 3.16 1.37 8.79.68 11.68-.43.49-.19.78-.67.77-1.2-.1-6.33-1.82-10.33-3.89-14.63-.19-.39-.58-.64-1.01-.64z"/></g></g></svg>