<svg fill="none" height="80" viewBox="0 0 225 80" width="225" xmlns="http://www.w3.org/2000/svg" xmlns:xlink="http://www.w3.org/1999/xlink"><clipPath id="a"><path d="m0 0h225v80h-225z"/></clipPath><clipPath id="b"><path d="m0 0h72v80h-72z"/></clipPath><g clip-path="url(#a)" fill="#fff"><path d="m98.1776 61.6884c-5.2569 0-8.5187-2.5922-9.3104-7.3972l2.8501-.569c.57 3.3825 2.7235 5.1211 6.302 5.1211 3.4517 0 5.8587-1.6438 5.8587-3.9831 0-2.0547-1.869-3.4772-6.4288-4.8049-5.5419-1.5806-7.917-3.9199-7.917-7.2075 0-3.7618 3.1035-6.101 8.0754-6.101 4.8454 0 7.7584 2.2128 8.7404 6.4487l-2.945.6323c-.634-2.8451-2.534-4.2676-5.8588-4.2676-3.1034 0-5.0352 1.2012-5.0352 3.256 0 1.8967 1.6151 3.1928 6.1436 4.5837 5.9534 1.8019 8.1704 4.1411 8.1704 7.4603 0 4.1412-3.389 6.8282-8.6454 6.8282z"/><path d="m117.308 61.4671c-3.04 0-4.275-1.1697-4.275-4.1411v-10.5583h-2.787v-2.7503h2.787v-4.7733h2.85v4.7733h3.388v2.7503h-3.388v10.1473c0 1.4225.633 1.707 1.552 1.707h1.995v2.7186c-.634.0633-1.425.1265-2.122.1265z"/><path d="m130.96 61.4671c-4.94 0-8.74-3.7618-8.74-8.8513s3.8-8.8829 8.74-8.8829c4.941 0 8.741 3.7934 8.741 8.8829s-3.8 8.8513-8.741 8.8513zm0-2.7502c3.199 0 5.764-2.6554 5.764-6.1011s-2.565-6.0694-5.764-6.0694c-3.198 0-5.763 2.6237-5.763 6.0694s2.565 6.1011 5.763 6.1011z"/><path d="m143.196 61.0876v-17.0703h2.85v2.1813c1.394-1.8019 3.072-2.4658 5.701-2.3077v3.256c-3.611-.1897-5.701 1.6122-5.701 4.963v8.9777z"/><path d="m160.098 61.4671c-3.452 0-5.827-1.9283-5.827-4.805 0-2.5921 1.868-4.0463 4.306-4.805 3.611-1.138 6.619-1.5173 6.619-3.3192 0-1.2328-1.362-2.0864-3.388-2.0864-2.09 0-3.579.9168-4.181 2.5606l-2.691-.8851c.855-2.7819 3.356-4.3941 6.935-4.3941 4.022 0 6.429 2.0232 6.429 5.9114v7.9662c0 .9167.791 1.4225 1.678 1.0431v2.4974c-.443.2212-.887.3161-1.362.3161-1.298 0-2.375-.7903-2.787-2.0232-1.646 1.3277-3.673 2.0232-5.731 2.0232zm.126-2.7502c1.995 0 4.117-.9484 5.257-2.2761v-4.3308c-3.99 2.3077-8.329 1.7703-8.329 4.3941 0 1.4225 1.299 2.2128 3.072 2.2128z"/><path d="m179.941 61.4671c-4.877 0-7.664-4.2044-7.664-8.9461 0-5.0895 3.135-8.7881 7.632-8.7881 3.262 0 5.795 1.9284 6.872 5.1211l-2.755.6955c-.792-2.118-2.375-3.0031-4.054-3.0031-2.882 0-4.782 2.6554-4.782 5.9746 0 3.3508 1.964 6.1326 4.719 6.1326 1.995 0 3.452-1.5173 4.18-3.7617l2.787.6638c-1.014 3.9515-3.642 5.9114-6.935 5.9114z"/><path d="m190.494 61.056v-23.8668h2.882v8.9777c1.773-1.8018 3.832-2.4341 5.763-2.4341 3.61 0 5.827 2.1812 5.827 6.354v10.9692h-2.85v-10.7479c0-2.7502-1.488-3.7934-3.452-3.7934-2.596 0-4.655 1.707-5.288 3.9514v10.5899z"/><path d="m214.819 61.4671c-3.452 0-5.827-1.9283-5.827-4.805 0-2.5921 1.868-4.0463 4.307-4.805 3.61-1.138 6.619-1.5173 6.619-3.3192 0-1.2328-1.362-2.0864-3.389-2.0864-2.09 0-3.578.9168-4.18 2.5606l-2.692-.8851c.855-2.7819 3.357-4.3941 6.935-4.3941 4.022 0 6.429 2.0232 6.429 5.9114v7.9662c0 .9167.792 1.4225 1.678 1.0431v2.4974c-.443.2212-.886.3161-1.361.3161-1.299 0-2.375-.7903-2.787-2.0232-1.647 1.3277-3.674 2.0232-5.732 2.0232zm.127-2.7502c1.995 0 4.116-.9484 5.257-2.2761v-4.3308c-3.991 2.3077-8.329 1.7703-8.329 4.3941 0 1.4225 1.298 2.2128 3.072 2.2128z"/><g clip-path="url(#b)"><path d="m45.3387 36.6197c1.7961-.6237 2.9612-2.4054 2.9798-4.2767-.0261-2.159-1.5309-4.0116-3.6444-4.4636-1.8334-.3922-3.7901.4707-4.7684 2.0619-.9895 1.6061-.8962 3.7202.2801 5.2105 1.2247 1.5539 3.3009 2.1067 5.1529 1.4642zm-1.5683-6.234c1.0829 0 1.9567.8778 1.9567 1.9573 0 1.0794-.8775 1.9572-1.9567 1.9572-1.0791 0-1.9566-.8778-1.9566-1.9572 0-1.0795.8775-1.9573 1.9566-1.9573z"/><path d="m32.5534 48.1949v-4.1497c-1.7812.7731-3.5623 1.5463-5.3434 2.3158 1.7811.6125 3.5622 1.2214 5.3434 1.8339z"/><path d="m27.2549 34.6138c1.7662 1.4417 3.5324 2.8798 5.2986 4.3216v-4.3216z"/><path d="m19.1522 37.3218c-1.7662-1.0122-4.1411-.8815-5.9745-.1158-.1232.0523-.2465.1083-.3659.1681-.0336.0149-.0673.0336-.1009.0523.1793.0112.366-.015.5452-.0112.4854.0112.9746.0672 1.4451.183.7692.1905 1.4787.5715 1.923 1.2476.295.4519.4705 1.0794.1905 1.5799-.366.6574-1.236.7247-1.9007.6873.0411-.0037.2203.2316.2838.2914.1232.1195.2539.2278.3958.3212.3734.2502.7954.4108 1.2397.4781 1.1725.1755 2.5803-.254 3.5212-.9674.5975-.4557.9373-1.1131.6983-1.8601-.28-.8778-1.1239-1.6174-1.8969-2.0581z"/><path d="m71.9778 38.8608c-.1232-5.0873-2.1134-9.9393-5.5936-13.6632-2.0724-2.215-4.6003-3.9182-7.3897-5.035h1.6579c2.5093 0 4.7012-.5454 6.5197-1.6174 2.3935-1.4119 4.1373-3.6082 4.6713-5.8754.4742-2.0095-.2987-4.34028-1.8782-5.66627-.9261-.77692-2.0052-1.17285-3.2076-1.17285-.5414 0-1.1053.08591-1.6766.25026-.0224-.72089-.1419-1.38575-.3547-2.00953-.8028-2.33074-2.9163-3.802404-5.7952-4.0451907-.2316-.01867588-.4705-.02988141-.7058-.02988141-2.8677 0-5.3434 1.38201211-6.9154 2.54365211-1.1651.85909-2.2218 1.84144-3.1628 2.93212-.351-.41087-.7543-.75824-1.1986-1.03465-.7954-.48931-1.7326-.73956-2.7856-.73956-.3921 0-.8028.03361-1.2285.10458-2.1172.34364-4.0888 1.60986-6.0268 3.86965-1.348 1.5725-2.6026 3.45877-3.8274 5.76707-.702 1.326-1.2733 2.5325-1.7438 3.6904-.2875.7059-.1456 1.5314.3697 2.1664.0299.0411.0635.0784.0971.1158-.3697.4034-.5975.9412-.5975 1.5314v10.4548h-6.5682c-.9522 0-1.8185.6349-2.1545 1.5762-.071.2017-.1083.4071-.1232.6088-.1643-.1979-.3324-.3922-.5153-.5826-.941-.9749-1.9903-1.8116-3.1254-2.4802-1.9343-1.143-4.1-1.7481-6.2621-1.7481-.9708 0-1.9342.1233-2.87144.3623l-.07468.0187c-.31739.071-1.16129.2577-1.51976 1.1019-.20537.4818-.17923.9936.04481 1.4306-.55264.2465-1.04927.5602-1.48242.9338-.55637.4818-.91111 1.0346-1.22477 1.5277-.08588.1307-.16803.2652-.25765.3959-.46675.6873-.97085 1.2811-1.49362 1.7667-.5489.508-1.04926.8404-1.53096 1.0085-.03734.0075-.08215.015-.12695.0262-.47796.0896-1.362933.2577-1.758743 1.0906-.1344257.2839-.302458.8629.078415 1.5576.246448.452.616119.7956.911108 1.072.05975.056.11576.1083.16803.1569.4929.4818 1.00073.9076 1.50483 1.2587 1.10154.7657 2.18442 1.1579 3.21501 1.1579h.08962c-.11202.1719-.19417.3623-.23898.5715-.06348.2839-.17923 1.2625.93351 1.9124 1.11275.6499 2.38233 1.2326 3.77144 1.7331 1.7326.6238 3.256.9301 4.6601.9301.1194 0 .2352 0 .3547-.0075 1.5459-.0597 3.1217-.5192 4.5518-1.3297.758-.4295 1.5011-.9823 2.2964-1.707-.0672.2241-.1008.4632-.0896.7097.0374.9786.6946 1.8788 1.5907 2.1888l7.2516 2.4877v19.6022c0 .7619-.0075 1.5202-.015 2.2822-.0149 1.5202-.0299 3.0964.015 4.6652v.0448c0 1.255 1.0231 2.2785 2.2777 2.2785h18.1102.0933c.5676-.015 1.1053-.2503 1.5198-.6649l18.1101-18.1156c.4033-.4034.6386-.9226.661-1.4754v-.0336l.0037-15.3254c0-.579.0037-1.1542.0075-1.7332.0074-1.24.0186-2.5212-.015-3.7912zm-39.3905-21.2232c.4929-1.2177 1.0717-2.4055 1.6878-3.5671 1.0343-1.9498 2.218-3.8435 3.6594-5.52061 1.3629-1.58745 3.0955-3.07405 5.2239-3.41769 1.053-.17181 2.162-.11952 3.0918.45196.7506.46316 1.2845 1.17285 1.6243 1.97964.0448.10459.0822.20917.1232.31376 1.1277-1.63227 2.5317-3.08152 4.1187-4.25437 1.9006-1.40442 4.3054-2.45774 6.7138-2.25604 2.0426.16808 3.9357 1.11682 4.634 3.14128.4107 1.19526.3249 2.53245.056 3.78 1.7102-1.11308 3.8647-1.69951 5.5861-.25399 1.1875.99729 1.7887 2.82376 1.4339 4.32906-.4966 2.1141-2.2255 3.9518-4.044 5.0238-1.7774 1.0496-3.7975 1.4306-5.8363 1.4306h-27.1689s-.0112 0-.015 0c-.0373 0-.0747-.0075-.112-.0112-.2651-.0336-.463-.1606-.59-.3399-.1942-.2316-.2987-.5491-.1829-.833zm-10.474 26.5758c-.7916.7843-1.643 1.5127-2.6176 2.0655-1.1949.6761-2.5653 1.1019-3.9394 1.1542-1.5347.056-3.0768-.325-4.5107-.8442-1.21732-.437-2.43089-.9749-3.54737-1.6285-.1755-.1046-.34727-.2316-.29873-.4632.03734-.1755.19044-.2764.35847-.2876.40328-.0261.8551.1569 1.26958.1793.37714.0187.75428 0 1.12395-.071.5041-.0971 1.1389-.3175 1.3779-.818.224-.4743-.0598-1.0122-.4145-1.3372-1.13143-1.0234-2.84536-.3959-4.08507.0075-1.13515.3698-2.31511-.1457-3.24115-.7918-.47423-.3325-.91858-.7097-1.33306-1.1169-.26885-.2652-.65719-.5789-.8439-.9151-.34353-.6238.70947-.635 1.03807-.747.76548-.2615 1.44508-.7583 2.03506-1.3036.64226-.5939 1.19863-1.2737 1.69152-1.9946.39581-.5789.70947-1.1952 1.25091-1.6621.84763-.7321 1.94544-1.0907 3.04322-1.2326.2054-.0262.4145-.0486.6236-.0598.0187 0 .0747-.0075.1307-.0149-.2278-.1644-.4033-.4109-.646-.5715-.3323-.2204-.69078-.3661-1.07165-.4632 0 0-.00747 0-.0112 0-.01121 0-.01867-.0075-.02988-.0075-.0112 0-.01867-.0074-.02613-.0112-.01121-.0037-.01868-.0037-.02988-.0112 0 0-.00373-.0037-.00747-.0074-.01867-.0112-.0336-.0225-.0448-.0374-.13443-.1046-.20911-.2577-.13443-.4333.10829-.254.46302-.2876.69827-.3473 2.77437-.7135 5.66457-.2092 8.11407 1.2438 1.0418.6163 2.0015 1.3857 2.8416 2.256.8215.8554 1.4152 1.8527 2.1546 2.7715.5227.6499 1.0941 1.2625 1.6915 1.8415.2838.2764.5713.5453.8663.8105.2091.1868.4294.3586.5638.6126.2428.4631.1718 1.0608-.1792 1.4529-.2016.2242-.4742.325-.7356.4632-.3585.1868-.7095.3959-1.0567.6051-.8066.4818-1.4003 1.0608-2.0687 1.7145zm48.5277.1718v15.2208.0262c0 .2166-.0746.437-.2726.6349-.7468.7471-1.4898 1.4941-2.2366 2.2374-3.2449 3.2459-6.4898 6.4917-9.7384 9.7413l-6.1351 6.1369c-.1979.198-.4219.2764-.6348.2727-.0075 0-.0149 0-.0224 0h-18.1101c-.5041 0-.9336-.4295-.9336-.9338 0-.0336 0-.0635 0-.0971-.0672-2.2934 0-4.6017 0-6.8951v-20.5622c-.1381-.0485-.2763-.0934-.4107-.1419-2.584-.8853-5.1642-1.7705-7.7482-2.6595-.6758-.2315-1.0231-1.3596-.224-1.7069.3622-.1569.7281-.3138 1.0903-.4744 2.4309-1.0533 4.8618-2.1066 7.2926-3.1637v-.6873c-.28-.2278-.5601-.4557-.8364-.6835-2.5765-2.1029-5.1567-4.2058-7.7332-6.3087-.6497-.5304-.0896-1.5949.6609-1.5949h7.9125v-11.7995c0-.5042.4294-.9338.9335-.9338h17.8189c.5862 0 1.1762.0262 1.7625.0822 4.6862.4445 9.1148 2.5773 12.3373 6.0211 3.2374 3.4588 5.1156 8.0381 5.2314 12.7781.0448 1.8302.0074 3.6642.0074 5.4907z"/><path d="m52.5308 60.5398v14.9258c.2128-.2129.4294-.4296.6422-.6425l9.7384-9.7413 4.5406-4.542z"/><path d="m63.2176 26.5759c-2.1023-1.9685-4.6638-3.358-7.4084-4.0901 3.3271 1.9946 5.4704 5.7634 5.4704 10.2531 0 6.3423-5.4181 11.2989-11.1051 11.2989-2.1284 0-4.1373-.3959-5.8437-1.4082-1.0979-.5341-2.4533-.3735-3.4018.5118-.6123.5714-.9372 1.3372-.9634 2.1141-.0336.9524.4444 1.8451 1.1875 2.4428.239.1905.6086.5117 1.165 1.0533.4294.4146.6983.9711.8402 1.58.6273 2.6856-1.3219 5.3824-4.0776 5.4421-1.6355.0336-3.1441-.803-3.8312-2.1589-.2949-.579-.575-1.2177-.8252-2.0431v25.2236h16.2431v-17.1818c0-.5043.4295-.9338.9336-.9338h17.1579c0-.4295.0187-.8591.0187-1.2812v-13.6857c0-1.8787.0859-3.7837-.0448-5.6587-.3062-4.359-2.3263-8.4938-5.5115-11.4708z"/></g></g></svg>