<svg width="645" height="669" viewBox="0 0 645 669" fill="none" xmlns="http://www.w3.org/2000/svg">
<path d="M70.3957 500.24C71.4208 497.039 71.0724 493.102 69.8801 489.348C66.4151 478.438 52.9483 475.681 41.5944 477.138C36.0119 477.855 31.5985 479.336 27.5564 481.823C22.6793 484.824 20.9594 489.772 17.7724 494.599C4.85114 514.173 22.7139 529.519 33.9438 541.265C37.0876 544.553 39.4221 550.212 35.507 552.529C34.2888 553.25 32.9147 553.929 31.5068 554.076C29.6643 554.269 28.2359 553.025 26.9413 551.03C17.4866 536.461 -2.98652 540.001 4.86388 555.494C10.8442 567.296 28.188 575.446 44.9975 568.703C74.3681 556.922 73.4249 522.296 48.4564 507.516C46.2433 506.206 43.945 504.714 43.0048 502.32C42.475 500.971 42.2648 499.525 42.5169 497.859C42.6708 496.842 43.3514 496.002 44.2235 495.456C45.494 494.661 47.1247 494.557 48.3008 495.486C52.5272 498.825 54.1279 504.186 59.0354 506.95C63.4143 508.984 68.9233 504.838 70.3957 500.24Z" stroke="#E91315" stroke-width="5"/>
<path d="M218.983 529.096C226.58 502.126 214.146 482.538 191.916 479.307C187.039 478.598 182.099 479.357 177.278 480.381C172.761 481.34 168.26 482.575 164.286 484.927C156.484 489.546 150.068 496.185 145.39 503.543C131.626 525.191 134.979 558.508 158.152 567C188.86 578.253 212.663 551.531 218.983 529.096Z" stroke="#E91315" stroke-width="5"/>
<path d="M301.084 495.877C294.981 476.507 262.845 480.054 238.492 480.133C236.286 480.141 234.11 480.605 232.062 481.425L231.867 481.503C230.828 481.919 229.872 482.301 228.937 482.756C227.119 483.639 226.087 485.523 225.865 487.532C225.559 490.288 226.947 492.824 229.431 494.055C229.814 494.244 230.188 494.441 230.547 494.653C232.035 495.53 232.742 497.2 232.822 498.926C233.428 512.064 228.721 543.083 224.088 548.687C220.074 553.541 216.426 558.525 221.919 561.607C232.994 567.819 257.315 566.804 261.661 560.258C261.875 559.936 262.001 559.572 262.107 559.2C262.552 557.641 262.521 555.857 261.36 554.726C259.939 553.343 258.318 553.083 256.843 551.242C254.708 548.578 256.098 534.663 257.521 530.414C257.626 530.1 257.814 529.827 258.049 529.592C258.627 529.014 259.449 528.75 260.255 528.885L261.749 529.134C263.233 529.381 264.597 530.211 265.197 531.591C268.006 538.053 266.691 547.507 269.179 555.075C270.784 559.958 274.589 563.208 279.312 564.997C293.719 570.456 312.567 569.345 327.88 567.662C332.145 567.193 336.176 566.091 339.373 564.264C340.512 563.614 341.266 562.482 341.626 561.221C341.821 560.536 341.908 559.817 341.79 559.114C341.164 555.365 339.056 554.939 335.966 553.371C334.612 552.467 334.622 552.007 334.681 549.873C334.687 549.653 334.74 549.437 334.838 549.24C335.016 548.886 335.324 548.613 335.704 548.501C340.399 547.112 350.378 546.19 356.622 547.988C360.821 549.198 359.751 553.562 356.335 556.287C355.97 556.578 355.617 556.895 355.281 557.254C354.148 558.463 353.942 560.213 354.147 561.857C354.221 562.445 354.331 563.041 354.658 563.535C359.41 570.736 392.463 573.129 398.494 562.308C400.729 558.298 396.785 554.412 393.066 551.72C390.899 550.152 390.218 547.338 389.829 544.692L389.388 541.687C389.022 539.193 388.655 536.7 388.289 534.207C383.824 515.034 381.025 473.919 353.407 480.971C344.364 483.28 343.279 498.195 339.794 506.098C334.032 519.167 318.976 545.602 306.066 553.192C304.824 553.922 303.312 553.882 302 553.285C300.376 552.546 299.259 551.008 299.059 549.235L297.086 531.785C296.916 530.284 296.586 528.702 295.574 527.581C291.612 523.195 291.683 518.755 296.383 515.171C297.905 514.011 299.276 512.663 300.233 510.783C302.091 507.131 302.43 500.151 301.084 495.877Z" stroke="#E91315" stroke-width="5"/>
<path d="M449.6 482.134C448.923 481.882 448.231 481.635 447.512 481.404C442.585 479.823 437.356 481.208 432.352 482.532L432.266 482.555C427.895 483.712 423.894 484.633 420.193 487.359C406.871 497.174 387.018 540 406.581 558.908C421.882 573.697 433.48 570.213 451.364 563.498C452.7 562.996 454.079 562.608 455.482 562.345C458.585 561.763 461.644 560.607 463.459 558.024C467.199 552.705 470.372 543.342 466.986 537.614C465.377 534.11 460.458 533.519 457.236 535.638C450.135 540.309 446.644 551.789 435.933 546.983C425.15 542.094 428.007 524.405 433.674 511.926C437.711 503.039 448.272 500.311 452.272 509.214C457.389 520.603 472.643 508.325 470.777 495.979C470.239 492.42 469.049 489.164 466.959 486.715C464.676 484.04 460.913 483.526 457.397 483.526C454.732 483.526 452.097 483.063 449.6 482.134Z" stroke="#E91315" stroke-width="5"/>
<path d="M136.447 511.599C145.002 506.309 140.392 489.389 135.353 482.618C134.5 481.472 133.135 480.894 131.713 480.752C130.371 480.617 129.033 480.948 127.745 481.35C124.549 482.346 120.333 482.247 116.038 482.249C111.29 482.251 86.2712 480.952 84.9844 481.397C80.5935 482.916 78.2866 488.588 76.4765 492.896C74.767 496.964 72.9219 503.327 74.309 507.898C75.503 511.834 80.2086 514.139 84.1336 512.912C88.6567 511.072 91.0314 504.264 92.7282 499.4L92.7859 499.234C92.9597 498.736 93.3841 498.369 93.9016 498.265C94.6403 498.117 95.3664 498.528 95.4898 499.271C97.025 508.519 93.197 543.306 90.0891 550.39C88.7754 553.384 85.2333 553.657 82.8438 555.53C81.4334 556.635 81.1558 558.558 81.1558 560.35C81.1558 561.929 81.3742 563.584 82.4903 564.7C89.783 571.997 118.502 570.807 123.73 560.109C124.704 558.115 124.021 555.79 122.303 554.385C120.583 552.979 118.345 551.877 117.942 549.692C115.891 538.559 117.897 506.213 121.143 499.284C121.867 498.15 121.364 498.465 122.378 498.158C122.682 498.066 123.007 498.061 123.308 498.161C123.808 498.328 124.176 498.757 124.276 499.276C125.137 503.737 126.509 507.64 128.921 510.573C130.288 512.234 132.559 512.671 134.668 512.249C135.291 512.124 135.907 511.934 136.447 511.599Z" stroke="#E91315" stroke-width="5"/>
<path d="M517.183 487.359C515.373 483.499 508.431 482.272 501.841 481.927C497.084 481.678 492.287 482.447 487.604 483.319C486.309 483.559 485.101 483.886 484.066 484.495C482.701 485.298 481.508 486.446 480.589 487.736C479.862 488.758 479.578 489.916 479.552 491.42C479.516 493.44 480.719 495.247 482.399 496.369C483.965 497.414 485.051 499.051 485.212 500.927C486.308 513.612 483.31 537.281 479.494 547.932C478.685 550.192 477.128 552.054 475.329 553.643C472.377 556.251 469.31 560.336 471.974 563.237C476.419 568.078 489.807 568.677 496.764 567.426C503.554 565.794 511.689 560.411 507.307 554.973C506.53 554.01 505.73 552.896 505.272 551.242C504.63 548.925 505.688 538.494 507.329 534.156C507.778 532.968 508.115 532.381 509.338 532.036C517.954 529.61 527.772 537.576 524.318 545.833C521.274 553.113 515.433 559.227 517.296 562.883C518.6 565.587 522.063 567.03 526.321 567.598C541.078 569.565 560.87 569.842 575.427 566.721C578.468 566.069 581.209 565.011 583.282 563.517C586.038 561.531 585.822 557.473 583.233 555.272C580.364 552.833 580.749 548.942 584.404 548.037C590.603 546.503 600.594 547.117 604.683 549.129C604.85 549.211 604.994 549.321 605.126 549.453C605.756 550.084 605.875 551.08 605.262 551.728C602.313 554.846 596.992 556.437 598.546 562.457C602.274 571.783 639.869 570.484 641.936 560.753C642.85 556.903 633.634 550.272 631.727 543.292C625.606 520.898 628.025 493.756 608.756 484.52C605.704 483.058 599.564 481.839 595.568 483.668C588.805 486.764 587.082 500.565 584.083 507.518C578.474 520.52 564.539 543.848 553.555 553.34C552.488 554.263 550.962 554.338 549.738 553.638C549.111 553.279 548.598 552.756 548.421 552.056C546.352 543.892 550.377 511.418 552.604 502.407C552.752 501.775 552.942 501.202 553.165 500.676C557.248 491.018 553.232 482.917 542.747 483.048C540.799 483.072 538.841 483.203 536.944 483.434C531.278 484.124 524.999 488.52 527.4 493.698C527.525 493.967 527.659 494.238 527.799 494.515C529.126 497.137 529.482 500.086 529.19 503.01C528.417 510.744 523.149 517.382 515.391 516.918C513.743 516.819 512.275 516.573 511.242 516.117C510.941 515.984 510.684 515.776 510.451 515.543C509.601 514.691 509.2 513.489 509.37 512.297L510.815 502.176C511.089 500.255 511.531 498.276 512.961 496.964C514.558 495.499 516.649 494.293 517.608 492.044C518.335 490.496 517.935 488.554 517.183 487.359Z" stroke="#E91315" stroke-width="5"/>
<path d="M70.3959 595.097C71.421 591.895 71.0726 587.959 69.8804 584.205C66.4153 573.295 52.9485 570.537 41.5946 571.995C36.0122 572.712 31.5987 574.192 27.5567 576.68C22.6795 579.681 20.9597 584.628 17.7726 589.456C4.85138 609.03 22.7142 624.376 33.944 636.121C37.0879 639.409 39.4223 645.069 35.5073 647.386C34.2891 648.107 32.9149 648.786 31.5071 648.933C29.6646 649.125 28.2362 647.882 26.9415 645.887C17.4868 631.317 -2.98628 634.857 4.86412 650.35C10.8444 662.152 28.1882 670.303 44.9977 663.56C74.3684 651.778 73.4251 617.153 48.4566 602.373C46.2436 601.063 43.9453 599.571 43.0051 597.177C42.4752 595.828 42.265 594.382 42.5171 592.716C42.671 591.699 43.3516 590.859 44.2237 590.313C45.4943 589.518 47.1249 589.414 48.301 590.343C52.5274 593.681 54.1282 599.043 59.0357 601.807C63.4145 603.84 68.9236 599.695 70.3959 595.097Z" stroke="#E91315" stroke-width="5"/>
<path d="M218.983 623.953C226.581 596.983 214.146 577.395 191.916 574.164C187.039 573.455 182.099 574.214 177.278 575.238C172.761 576.197 168.26 577.432 164.286 579.784C156.484 584.403 150.068 591.042 145.39 598.4C131.626 620.047 134.98 653.365 158.152 661.856C188.86 673.109 212.663 646.388 218.983 623.953Z" stroke="#E91315" stroke-width="5"/>
<path d="M301.084 590.734C294.982 571.364 262.845 574.911 238.492 574.99C236.286 574.997 234.11 575.462 232.062 576.282L231.867 576.36C230.828 576.775 229.873 577.158 228.937 577.612C227.119 578.496 226.088 580.38 225.865 582.389C225.559 585.145 226.947 587.68 229.431 588.911C229.814 589.101 230.188 589.298 230.547 589.51C232.035 590.386 232.743 592.057 232.822 593.782C233.428 606.921 228.721 637.94 224.088 643.543C220.075 648.398 216.426 653.382 221.919 656.463C232.994 662.675 257.315 661.66 261.661 655.115C261.875 654.792 262.001 654.429 262.108 654.057C262.553 652.497 262.522 650.714 261.36 649.583C259.939 648.2 258.319 647.939 256.843 646.099C254.708 643.435 256.098 629.52 257.521 625.271C257.627 624.956 257.815 624.684 258.049 624.449C258.627 623.87 259.449 623.607 260.255 623.741L261.749 623.99C263.233 624.238 264.597 625.068 265.197 626.448C268.006 632.91 266.691 642.363 269.179 649.932C270.785 654.814 274.589 658.064 279.313 659.854C293.719 665.313 312.567 664.202 327.88 662.518C332.145 662.049 336.177 660.947 339.374 659.121C340.512 658.47 341.266 657.339 341.626 656.078C341.821 655.393 341.908 654.673 341.791 653.971C341.164 650.221 339.056 649.795 335.966 648.228C334.613 647.324 334.622 646.864 334.681 644.729C334.687 644.51 334.741 644.293 334.839 644.097C335.016 643.742 335.324 643.47 335.704 643.357C340.399 641.968 350.378 641.047 356.622 642.845C360.821 644.054 359.751 648.419 356.335 651.144C355.97 651.435 355.617 651.752 355.281 652.111C354.148 653.32 353.942 655.069 354.147 656.714C354.221 657.301 354.332 657.897 354.658 658.392C359.41 665.593 392.463 667.986 398.494 657.165C400.73 653.154 396.786 649.269 393.066 646.577C390.899 645.008 390.218 642.195 389.829 639.548L389.388 636.544C389.022 634.05 388.656 631.556 388.289 629.063C383.825 609.89 381.025 568.776 353.407 575.828C344.364 578.137 343.279 593.051 339.795 600.955C334.032 614.024 318.976 640.459 306.066 648.049C304.824 648.779 303.312 648.739 302.001 648.142C300.376 647.403 299.26 645.865 299.059 644.092L297.086 626.642C296.916 625.141 296.587 623.559 295.574 622.438C291.612 618.052 291.683 613.612 296.383 610.028C297.905 608.867 299.276 607.52 300.233 605.64C302.092 601.987 302.43 595.007 301.084 590.734Z" stroke="#E91315" stroke-width="5"/>
<path d="M449.601 576.991C448.923 576.739 448.231 576.491 447.512 576.261C442.586 574.68 437.356 576.064 432.352 577.389L432.266 577.412C427.895 578.569 423.895 579.489 420.194 582.216C406.871 592.031 387.019 634.857 406.581 653.765C421.882 668.554 433.48 665.07 451.365 658.355C452.701 657.853 454.079 657.465 455.482 657.202C458.585 656.619 461.644 655.464 463.46 652.881C467.2 647.562 470.372 638.198 466.987 632.47C465.378 628.966 460.458 628.376 457.237 630.495C450.136 635.166 446.644 646.646 435.933 641.84C425.15 636.951 428.007 619.261 433.675 606.783C437.711 597.896 448.272 595.168 452.273 604.071C457.39 615.46 472.643 603.181 470.777 590.836C470.239 587.277 469.049 584.02 466.959 581.571C464.677 578.896 460.913 578.383 457.397 578.383C454.733 578.383 452.098 577.919 449.601 576.991Z" stroke="#E91315" stroke-width="5"/>
<path d="M136.447 606.456C145.002 601.165 140.392 584.246 135.353 577.475C134.5 576.329 133.135 575.751 131.713 575.608C130.371 575.474 129.033 575.805 127.745 576.206C124.55 577.203 120.333 577.103 116.038 577.105C111.29 577.108 86.2714 575.809 84.9846 576.254C80.5937 577.772 78.2868 583.445 76.4768 587.753C74.7673 591.821 72.9222 598.184 74.3092 602.755C75.5032 606.69 80.2088 608.996 84.1338 607.769C88.657 605.929 91.0316 599.121 92.7285 594.256L92.7861 594.091C92.96 593.593 93.3844 593.226 93.9019 593.122C94.6406 592.974 95.3666 593.384 95.49 594.128C97.0253 603.375 93.1973 638.163 90.0893 645.247C88.7757 648.241 85.2335 648.513 82.844 650.387C81.4337 651.492 81.1561 653.415 81.1561 655.207C81.1561 656.786 81.3744 658.44 82.4906 659.557C89.7833 666.854 118.503 665.663 123.73 654.966C124.705 652.972 124.021 650.647 122.303 649.242C120.583 647.836 118.345 646.733 117.943 644.549C115.891 633.416 117.897 601.069 121.143 594.141C121.868 593.006 121.364 593.322 122.379 593.015C122.682 592.923 123.007 592.917 123.308 593.018C123.809 593.185 124.176 593.614 124.276 594.132C125.137 598.594 126.509 602.497 128.922 605.429C130.288 607.091 132.559 607.527 134.668 607.105C135.291 606.98 135.907 606.79 136.447 606.456Z" stroke="#E91315" stroke-width="5"/>
<path d="M517.183 582.216C515.373 578.356 508.431 577.129 501.841 576.784C497.084 576.535 492.287 577.304 487.604 578.175C486.309 578.416 485.101 578.743 484.066 579.351C482.701 580.154 481.508 581.302 480.589 582.593C479.862 583.614 479.578 584.773 479.552 586.277C479.517 588.297 480.719 590.104 482.399 591.225C483.965 592.271 485.051 593.908 485.213 595.783C486.308 608.469 483.31 632.138 479.495 642.789C478.685 645.049 477.128 646.91 475.329 648.5C472.377 651.107 469.31 655.193 471.974 658.094C476.419 662.935 489.807 663.534 496.764 662.282C503.554 660.65 511.689 655.267 507.307 649.83C506.53 648.866 505.73 647.753 505.272 646.099C504.63 643.781 505.688 633.351 507.329 629.013C507.778 627.825 508.116 627.237 509.338 626.893C517.954 624.467 527.772 632.432 524.319 640.69C521.274 647.969 515.433 654.084 517.297 657.739C518.601 660.444 522.063 661.887 526.321 662.454C541.078 664.422 560.871 664.699 575.427 661.577C578.468 660.925 581.209 659.867 583.282 658.374C586.039 656.387 585.822 652.329 583.233 650.129C580.364 647.69 580.749 643.798 584.404 642.894C590.604 641.36 600.594 641.973 604.684 643.986C604.851 644.068 604.994 644.178 605.126 644.31C605.756 644.941 605.875 645.937 605.262 646.585C602.313 649.702 596.992 651.294 598.547 657.313C602.275 666.64 639.87 665.341 641.937 655.61C642.851 651.759 633.635 645.128 631.727 638.149C625.607 615.755 628.025 588.612 608.756 579.377C605.705 577.914 599.564 576.696 595.569 578.525C588.805 581.621 587.082 595.421 584.083 602.374C578.475 615.377 564.539 638.705 553.556 648.197C552.488 649.119 550.962 649.195 549.738 648.495C549.111 648.136 548.599 647.613 548.421 646.913C546.353 638.748 550.377 606.275 552.604 597.264C552.752 596.632 552.942 596.059 553.165 595.533C557.248 585.874 553.232 577.774 542.747 577.904C540.8 577.929 538.841 578.06 536.944 578.291C531.278 578.98 525 583.376 527.4 588.555C527.525 588.824 527.659 589.095 527.799 589.372C529.126 591.994 529.482 594.943 529.19 597.867C528.417 605.601 523.149 612.238 515.391 611.774C513.743 611.676 512.275 611.43 511.242 610.973C510.941 610.84 510.684 610.632 510.452 610.399C509.601 609.548 509.201 608.346 509.371 607.154L510.815 597.033C511.089 595.112 511.531 593.133 512.962 591.821C514.558 590.356 516.649 589.15 517.608 586.901C518.335 585.352 517.935 583.41 517.183 582.216Z" stroke="#E91315" stroke-width="5"/>
<path d="M70.3959 405.382C71.421 402.18 71.0726 398.244 69.8804 394.49C66.4153 383.58 52.9485 380.822 41.5946 382.28C36.0122 382.997 31.5987 384.478 27.5567 386.965C22.6795 389.966 20.9597 394.913 17.7726 399.741C4.85138 419.315 22.7142 434.661 33.944 446.406C37.0879 449.695 39.4223 455.354 35.5073 457.671C34.2891 458.392 32.9149 459.071 31.5071 459.218C29.6646 459.41 28.2362 458.167 26.9415 456.172C17.4868 441.602 -2.98628 445.143 4.86412 460.635C10.8444 472.438 28.1882 480.588 44.9977 473.845C74.3684 462.064 73.4251 427.438 48.4566 412.658C46.2436 411.348 43.9453 409.856 43.0051 407.462C42.4752 406.113 42.265 404.667 42.5171 403.001C42.671 401.984 43.3516 401.144 44.2237 400.598C45.4943 399.803 47.1249 399.699 48.301 400.628C52.5274 403.966 54.1282 409.328 59.0357 412.092C63.4145 414.126 68.9236 409.98 70.3959 405.382Z" stroke="#E91315" stroke-width="5"/>
<path d="M218.983 434.238C226.581 407.268 214.146 387.68 191.916 384.449C187.039 383.74 182.099 384.499 177.278 385.523C172.761 386.482 168.26 387.717 164.286 390.069C156.484 394.688 150.068 401.327 145.39 408.685C131.626 430.332 134.98 463.65 158.152 472.141C188.86 483.395 212.663 456.673 218.983 434.238Z" stroke="#E91315" stroke-width="5"/>
<path d="M301.084 401.019C294.982 381.649 262.845 385.196 238.492 385.275C236.286 385.282 234.11 385.747 232.062 386.567L231.867 386.645C230.828 387.061 229.873 387.443 228.937 387.897C227.119 388.781 226.088 390.665 225.865 392.674C225.559 395.43 226.947 397.965 229.431 399.196C229.814 399.386 230.188 399.583 230.547 399.795C232.035 400.671 232.743 402.342 232.822 404.067C233.428 417.206 228.721 448.225 224.088 453.828C220.075 458.683 216.426 463.667 221.919 466.748C232.994 472.961 257.315 471.946 261.661 465.4C261.875 465.078 262.001 464.714 262.108 464.342C262.553 462.782 262.522 460.999 261.36 459.868C259.939 458.485 258.319 458.224 256.843 456.384C254.708 453.72 256.098 439.805 257.521 435.556C257.627 435.241 257.815 434.969 258.049 434.734C258.627 434.155 259.449 433.892 260.255 434.026L261.749 434.276C263.233 434.523 264.597 435.353 265.197 436.733C268.006 443.195 266.691 452.649 269.179 460.217C270.785 465.1 274.589 468.35 279.313 470.139C293.719 475.598 312.567 474.487 327.88 472.804C332.145 472.335 336.177 471.232 339.374 469.406C340.512 468.755 341.266 467.624 341.626 466.363C341.821 465.678 341.908 464.958 341.791 464.256C341.164 460.507 339.056 460.08 335.966 458.513C334.613 457.609 334.622 457.149 334.681 455.015C334.687 454.795 334.741 454.578 334.839 454.382C335.016 454.028 335.324 453.755 335.704 453.642C340.399 452.254 350.378 451.332 356.622 453.13C360.821 454.34 359.751 458.704 356.335 461.429C355.97 461.72 355.617 462.037 355.281 462.396C354.148 463.605 353.942 465.354 354.147 466.999C354.221 467.586 354.332 468.182 354.658 468.677C359.41 475.878 392.463 478.271 398.494 467.45C400.73 463.44 396.786 459.554 393.066 456.862C390.899 455.293 390.218 452.48 389.829 449.833L389.388 446.829C389.022 444.335 388.656 441.842 388.289 439.348C383.825 420.176 381.025 379.061 353.407 386.113C344.364 388.422 343.279 403.337 339.795 411.24C334.032 424.309 318.976 450.744 306.066 458.334C304.824 459.064 303.312 459.024 302.001 458.427C300.376 457.688 299.26 456.15 299.059 454.377L297.086 436.927C296.916 435.426 296.587 433.844 295.574 432.723C291.612 428.337 291.683 423.897 296.383 420.313C297.905 419.153 299.276 417.805 300.233 415.925C302.092 412.272 302.43 405.293 301.084 401.019Z" stroke="#E91315" stroke-width="5"/>
<path d="M449.601 387.276C448.923 387.024 448.231 386.777 447.512 386.546C442.586 384.965 437.356 386.35 432.352 387.674L432.266 387.697C427.895 388.854 423.895 389.775 420.194 392.501C406.871 402.316 387.019 445.142 406.581 464.05C421.882 478.839 433.48 475.355 451.365 468.64C452.701 468.138 454.079 467.75 455.482 467.487C458.585 466.905 461.644 465.749 463.46 463.166C467.2 457.847 470.372 448.483 466.987 442.756C465.378 439.251 460.458 438.661 457.237 440.78C450.136 445.451 446.644 456.931 435.933 452.125C425.15 447.236 428.007 429.546 433.675 417.068C437.711 408.181 448.272 405.453 452.273 414.356C457.39 425.745 472.643 413.467 470.777 401.121C470.239 397.562 469.049 394.305 466.959 391.857C464.677 389.181 460.913 388.668 457.397 388.668C454.733 388.668 452.098 388.204 449.601 387.276Z" stroke="#E91315" stroke-width="5"/>
<path d="M136.447 416.741C145.002 411.451 140.392 394.531 135.353 387.76C134.5 386.614 133.135 386.036 131.713 385.894C130.371 385.759 129.033 386.09 127.745 386.492C124.55 387.488 120.333 387.388 116.038 387.391C111.29 387.393 86.2714 386.094 84.9846 386.539C80.5937 388.058 78.2868 393.73 76.4768 398.038C74.7673 402.106 72.9222 408.469 74.3092 413.04C75.5032 416.975 80.2088 419.281 84.1338 418.054C88.657 416.214 91.0316 409.406 92.7285 404.541L92.7861 404.376C92.96 403.878 93.3844 403.511 93.9019 403.407C94.6406 403.259 95.3666 403.67 95.49 404.413C97.0253 413.66 93.1973 448.448 90.0893 455.532C88.7757 458.526 85.2335 458.799 82.844 460.672C81.4337 461.777 81.1561 463.7 81.1561 465.492C81.1561 467.071 81.3744 468.725 82.4906 469.842C89.7833 477.139 118.503 475.948 123.73 465.251C124.705 463.257 124.021 460.932 122.303 459.527C120.583 458.121 118.345 457.018 117.943 454.834C115.891 443.701 117.897 411.354 121.143 404.426C121.868 403.292 121.364 403.607 122.379 403.3C122.682 403.208 123.007 403.203 123.308 403.303C123.809 403.47 124.176 403.899 124.276 404.417C125.137 408.879 126.509 412.782 128.922 415.715C130.288 417.376 132.559 417.813 134.668 417.39C135.291 417.266 135.907 417.075 136.447 416.741Z" stroke="#E91315" stroke-width="5"/>
<path d="M517.183 392.501C515.373 388.641 508.431 387.414 501.841 387.069C497.084 386.82 492.287 387.589 487.604 388.46C486.309 388.701 485.101 389.028 484.066 389.636C482.701 390.439 481.508 391.587 480.589 392.878C479.862 393.9 479.578 395.058 479.552 396.562C479.517 398.582 480.719 400.389 482.399 401.511C483.965 402.556 485.051 404.193 485.213 406.069C486.308 418.754 483.31 442.423 479.495 453.074C478.685 455.334 477.128 457.196 475.329 458.785C472.377 461.393 469.31 465.478 471.974 468.379C476.419 473.22 489.807 473.819 496.764 472.567C503.554 470.936 511.689 465.552 507.307 460.115C506.53 459.151 505.73 458.038 505.272 456.384C504.63 454.066 505.688 443.636 507.329 439.298C507.778 438.11 508.116 437.522 509.338 437.178C517.954 434.752 527.772 442.718 524.319 450.975C521.274 458.254 515.433 464.369 517.297 468.024C518.601 470.729 522.063 472.172 526.321 472.74C541.078 474.707 560.871 474.984 575.427 471.863C578.468 471.21 581.209 470.153 583.282 468.659C586.039 466.672 585.822 462.614 583.233 460.414C580.364 457.975 580.749 454.084 584.404 453.179C590.604 451.645 600.594 452.258 604.684 454.271C604.851 454.353 604.994 454.463 605.126 454.595C605.756 455.226 605.875 456.222 605.262 456.87C602.313 459.988 596.992 461.579 598.547 467.599C602.275 476.925 639.87 475.626 641.937 465.895C642.851 462.045 633.635 455.414 631.727 448.434C625.607 426.04 628.025 398.898 608.756 389.662C605.705 388.199 599.564 386.981 595.569 388.81C588.805 391.906 587.082 405.707 584.083 412.66C578.475 425.662 564.539 448.99 553.556 458.482C552.488 459.405 550.962 459.48 549.738 458.78C549.111 458.421 548.599 457.898 548.421 457.198C546.353 449.033 550.377 416.56 552.604 407.549C552.752 406.917 552.942 406.344 553.165 405.818C557.248 396.16 553.232 388.059 542.747 388.19C540.8 388.214 538.841 388.345 536.944 388.576C531.278 389.265 525 393.661 527.4 398.84C527.525 399.109 527.659 399.38 527.799 399.657C529.126 402.279 529.482 405.228 529.19 408.152C528.417 415.886 523.149 422.524 515.391 422.06C513.743 421.961 512.275 421.715 511.242 421.258C510.941 421.125 510.684 420.918 510.452 420.685C509.601 419.833 509.201 418.631 509.371 417.439L510.815 407.318C511.089 405.397 511.531 403.418 512.962 402.106C514.558 400.641 516.649 399.435 517.608 397.186C518.335 395.637 517.935 393.695 517.183 392.501Z" stroke="#E91315" stroke-width="5"/>
<path d="M70.3957 120.81C71.4208 117.608 71.0724 113.672 69.8801 109.918C66.4151 99.0079 52.9483 96.2503 41.5944 97.708C36.0119 98.4247 31.5985 99.9055 27.5564 102.393C22.6793 105.394 20.9594 110.341 17.7724 115.169C4.85114 134.743 22.7139 150.089 33.9438 161.834C37.0876 165.123 39.4221 170.782 35.507 173.099C34.2888 173.82 32.9147 174.499 31.5068 174.646C29.6643 174.838 28.2359 173.595 26.9413 171.6C17.4866 157.03 -2.98652 160.571 4.86388 176.063C10.8442 187.866 28.188 196.016 44.9975 189.273C74.3681 177.492 73.4249 142.866 48.4564 128.086C46.2433 126.776 43.945 125.284 43.0048 122.89C42.475 121.541 42.2648 120.095 42.5169 118.429C42.6708 117.412 43.3514 116.572 44.2235 116.026C45.494 115.231 47.1247 115.127 48.3008 116.056C52.5272 119.394 54.1279 124.756 59.0354 127.52C63.4143 129.554 68.9233 125.408 70.3957 120.81Z" stroke="#E91315" stroke-width="5"/>
<path d="M218.983 149.666C226.58 122.696 214.146 103.108 191.916 99.8769C187.039 99.1681 182.099 99.927 177.278 100.951C172.761 101.91 168.26 103.145 164.286 105.497C156.484 110.116 150.068 116.755 145.39 124.113C131.626 145.76 134.979 179.078 158.152 187.569C188.86 198.823 212.663 172.101 218.983 149.666Z" stroke="#E91315" stroke-width="5"/>
<path d="M301.084 116.447C294.981 97.0767 262.845 100.624 238.492 100.703C236.286 100.71 234.11 101.175 232.062 101.995L231.867 102.073C230.828 102.489 229.872 102.871 228.937 103.325C227.119 104.209 226.087 106.093 225.865 108.102C225.559 110.858 226.947 113.393 229.431 114.624C229.814 114.814 230.188 115.011 230.547 115.223C232.035 116.099 232.742 117.77 232.822 119.495C233.428 132.634 228.721 163.653 224.088 169.256C220.074 174.111 216.426 179.095 221.919 182.176C232.994 188.389 257.315 187.374 261.661 180.828C261.875 180.506 262.001 180.142 262.107 179.77C262.552 178.21 262.521 176.427 261.36 175.296C259.939 173.913 258.318 173.652 256.843 171.812C254.708 169.148 256.098 155.233 257.521 150.984C257.626 150.669 257.814 150.397 258.049 150.162C258.627 149.583 259.449 149.32 260.255 149.454L261.749 149.704C263.233 149.951 264.597 150.781 265.197 152.161C268.006 158.623 266.691 168.077 269.179 175.645C270.784 180.528 274.589 183.778 279.312 185.567C293.719 191.026 312.567 189.915 327.88 188.232C332.145 187.763 336.176 186.66 339.373 184.834C340.512 184.183 341.266 183.052 341.626 181.791C341.821 181.106 341.908 180.386 341.79 179.684C341.164 175.935 339.056 175.508 335.966 173.941C334.612 173.037 334.622 172.577 334.681 170.443C334.687 170.223 334.74 170.006 334.838 169.81C335.016 169.456 335.324 169.183 335.704 169.07C340.399 167.682 350.378 166.76 356.622 168.558C360.821 169.768 359.751 174.132 356.335 176.857C355.97 177.148 355.617 177.465 355.281 177.824C354.148 179.033 353.942 180.782 354.147 182.427C354.221 183.014 354.331 183.61 354.658 184.105C359.41 191.306 392.463 193.699 398.494 182.878C400.729 178.868 396.785 174.982 393.066 172.29C390.899 170.721 390.218 167.908 389.829 165.261L389.388 162.257C389.022 159.763 388.655 157.27 388.289 154.776C383.824 135.604 381.025 94.4891 353.407 101.541C344.364 103.85 343.279 118.765 339.794 126.668C334.032 139.737 318.976 166.172 306.066 173.762C304.824 174.492 303.312 174.452 302 173.855C300.376 173.116 299.259 171.578 299.059 169.805L297.086 152.355C296.916 150.854 296.586 149.272 295.574 148.151C291.612 143.765 291.683 139.325 296.383 135.741C297.905 134.581 299.276 133.233 300.233 131.353C302.091 127.7 302.43 120.721 301.084 116.447Z" stroke="#E91315" stroke-width="5"/>
<path d="M449.6 102.704C448.923 102.452 448.231 102.204 447.512 101.974C442.585 100.393 437.356 101.778 432.352 103.102L432.266 103.125C427.895 104.282 423.894 105.203 420.193 107.929C406.871 117.744 387.018 160.57 406.581 179.478C421.882 194.267 433.48 190.783 451.364 184.068C452.7 183.566 454.079 183.178 455.482 182.915C458.585 182.333 461.644 181.177 463.459 178.594C467.199 173.275 470.372 163.911 466.986 158.183C465.377 154.679 460.458 154.089 457.236 156.208C450.135 160.879 446.644 172.359 435.933 167.553C425.15 162.664 428.007 144.974 433.674 132.496C437.711 123.609 448.272 120.881 452.272 129.784C457.389 141.173 472.643 128.895 470.777 116.549C470.239 112.99 469.049 109.733 466.959 107.285C464.676 104.609 460.913 104.096 457.397 104.096C454.732 104.096 452.097 103.632 449.6 102.704Z" stroke="#E91315" stroke-width="5"/>
<path d="M136.447 132.169C145.002 126.879 140.392 109.959 135.353 103.188C134.5 102.042 133.135 101.464 131.713 101.322C130.371 101.187 129.033 101.518 127.745 101.92C124.549 102.916 120.333 102.816 116.038 102.819C111.29 102.821 86.2712 101.522 84.9844 101.967C80.5935 103.486 78.2866 109.158 76.4765 113.466C74.767 117.534 72.9219 123.897 74.309 128.468C75.503 132.403 80.2086 134.709 84.1336 133.482C88.6567 131.642 91.0314 124.834 92.7282 119.969L92.7859 119.804C92.9597 119.306 93.3841 118.939 93.9016 118.835C94.6403 118.687 95.3664 119.098 95.4898 119.841C97.025 129.088 93.197 163.876 90.0891 170.96C88.7754 173.954 85.2333 174.227 82.8438 176.1C81.4334 177.205 81.1558 179.128 81.1558 180.92C81.1558 182.499 81.3742 184.153 82.4903 185.27C89.783 192.567 118.502 191.376 123.73 180.679C124.704 178.685 124.021 176.36 122.303 174.955C120.583 173.549 118.345 172.446 117.942 170.262C115.891 159.129 117.897 126.782 121.143 119.854C121.867 118.72 121.364 119.035 122.378 118.728C122.682 118.636 123.007 118.631 123.308 118.731C123.808 118.898 124.176 119.327 124.276 119.845C125.137 124.307 126.509 128.21 128.921 131.143C130.288 132.804 132.559 133.241 134.668 132.818C135.291 132.694 135.907 132.503 136.447 132.169Z" stroke="#E91315" stroke-width="5"/>
<path d="M517.183 107.929C515.373 104.069 508.431 102.842 501.841 102.497C497.084 102.248 492.287 103.017 487.604 103.888C486.309 104.129 485.101 104.456 484.066 105.064C482.701 105.867 481.508 107.015 480.589 108.306C479.862 109.328 479.578 110.486 479.552 111.99C479.516 114.01 480.719 115.817 482.399 116.939C483.965 117.984 485.051 119.621 485.212 121.497C486.308 134.182 483.31 157.851 479.494 168.502C478.685 170.762 477.128 172.624 475.329 174.213C472.377 176.821 469.31 180.906 471.974 183.807C476.419 188.648 489.807 189.247 496.764 187.995C503.554 186.364 511.689 180.98 507.307 175.543C506.53 174.579 505.73 173.466 505.272 171.812C504.63 169.494 505.688 159.064 507.329 154.726C507.778 153.538 508.115 152.95 509.338 152.606C517.954 150.18 527.772 158.146 524.318 166.403C521.274 173.682 515.433 179.797 517.296 183.452C518.6 186.157 522.063 187.6 526.321 188.168C541.078 190.135 560.87 190.412 575.427 187.291C578.468 186.638 581.209 185.581 583.282 184.087C586.038 182.1 585.822 178.042 583.233 175.842C580.364 173.403 580.749 169.512 584.404 168.607C590.603 167.073 600.594 167.686 604.683 169.699C604.85 169.781 604.994 169.891 605.126 170.023C605.756 170.654 605.875 171.65 605.262 172.298C602.313 175.416 596.992 177.007 598.546 183.027C602.274 192.353 639.869 191.054 641.936 181.323C642.85 177.473 633.634 170.842 631.727 163.862C625.606 141.468 628.025 114.326 608.756 105.09C605.704 103.627 599.564 102.409 595.568 104.238C588.805 107.334 587.082 121.135 584.083 128.088C578.474 141.09 564.539 164.418 553.555 173.91C552.488 174.833 550.962 174.908 549.738 174.208C549.111 173.849 548.598 173.326 548.421 172.626C546.352 164.461 550.377 131.988 552.604 122.977C552.752 122.345 552.942 121.772 553.165 121.246C557.248 111.588 553.232 103.487 542.747 103.618C540.799 103.642 538.841 103.773 536.944 104.004C531.278 104.693 524.999 109.089 527.4 114.268C527.525 114.537 527.659 114.808 527.799 115.085C529.126 117.707 529.482 120.656 529.19 123.58C528.417 131.314 523.149 137.952 515.391 137.488C513.743 137.389 512.275 137.143 511.242 136.686C510.941 136.553 510.684 136.345 510.451 136.113C509.601 135.261 509.2 134.059 509.37 132.867L510.815 122.746C511.089 120.825 511.531 118.846 512.961 117.534C514.558 116.069 516.649 114.863 517.608 112.614C518.335 111.065 517.935 109.123 517.183 107.929Z" stroke="#E91315" stroke-width="5"/>
<path d="M70.3957 215.668C71.4208 212.467 71.0724 208.53 69.8801 204.776C66.4151 193.866 52.9483 191.108 41.5944 192.566C36.0119 193.283 31.5985 194.764 27.5564 197.251C22.6793 200.252 20.9594 205.2 17.7724 210.027C4.85114 229.601 22.7139 244.947 33.9438 256.693C37.0876 259.981 39.4221 265.64 35.507 267.957C34.2888 268.678 32.9147 269.357 31.5068 269.504C29.6643 269.697 28.2359 268.453 26.9413 266.458C17.4866 251.889 -2.98652 255.429 4.86388 270.922C10.8442 282.724 28.188 290.874 44.9975 284.131C74.3681 272.35 73.4249 237.724 48.4564 222.944C46.2433 221.634 43.945 220.142 43.0048 217.748C42.475 216.399 42.2648 214.953 42.5169 213.287C42.6708 212.27 43.3514 211.43 44.2235 210.884C45.494 210.089 47.1247 209.985 48.3008 210.914C52.5272 214.253 54.1279 219.614 59.0354 222.378C63.4143 224.412 68.9233 220.266 70.3957 215.668Z" stroke="#E91315" stroke-width="5"/>
<path d="M218.983 244.524C226.58 217.554 214.146 197.966 191.916 194.735C187.039 194.026 182.099 194.785 177.278 195.809C172.761 196.768 168.26 198.003 164.286 200.355C156.484 204.974 150.068 211.613 145.39 218.971C131.626 240.619 134.979 273.936 158.152 282.428C188.86 293.681 212.663 266.959 218.983 244.524Z" stroke="#E91315" stroke-width="5"/>
<path d="M301.084 211.305C294.981 191.935 262.845 195.482 238.492 195.561C236.286 195.569 234.11 196.033 232.062 196.853L231.867 196.931C230.828 197.347 229.872 197.729 228.937 198.184C227.119 199.067 226.087 200.951 225.865 202.96C225.559 205.716 226.947 208.252 229.431 209.483C229.814 209.672 230.188 209.869 230.547 210.081C232.035 210.958 232.742 212.628 232.822 214.354C233.428 227.492 228.721 258.511 224.088 264.115C220.074 268.969 216.426 273.953 221.919 277.035C232.994 283.247 257.315 282.232 261.661 275.686C261.875 275.364 262.001 275 262.107 274.628C262.552 273.069 262.521 271.285 261.36 270.154C259.939 268.771 258.318 268.511 256.843 266.67C254.708 264.006 256.098 250.091 257.521 245.842C257.626 245.528 257.814 245.255 258.049 245.02C258.627 244.441 259.449 244.178 260.255 244.313L261.749 244.562C263.233 244.809 264.597 245.639 265.197 247.019C268.006 253.481 266.691 262.935 269.179 270.503C270.784 275.386 274.589 278.636 279.312 280.425C293.719 285.884 312.567 284.773 327.88 283.09C332.145 282.621 336.176 281.519 339.373 279.692C340.512 279.042 341.266 277.91 341.626 276.649C341.821 275.964 341.908 275.245 341.79 274.542C341.164 270.793 339.056 270.367 335.966 268.799C334.612 267.895 334.622 267.435 334.681 265.301C334.687 265.081 334.74 264.865 334.838 264.668C335.016 264.314 335.324 264.041 335.704 263.929C340.399 262.54 350.378 261.618 356.622 263.416C360.821 264.626 359.751 268.99 356.335 271.715C355.97 272.006 355.617 272.323 355.281 272.682C354.148 273.891 353.942 275.641 354.147 277.285C354.221 277.873 354.331 278.469 354.658 278.963C359.41 286.164 392.463 288.557 398.494 277.736C400.729 273.726 396.785 269.84 393.066 267.148C390.899 265.58 390.218 262.766 389.829 260.12L389.388 257.115C389.022 254.621 388.655 252.128 388.289 249.635C383.824 230.462 381.025 189.347 353.407 196.399C344.364 198.708 343.279 213.623 339.794 221.526C334.032 234.595 318.976 261.03 306.066 268.62C304.824 269.35 303.312 269.31 302 268.713C300.376 267.974 299.259 266.436 299.059 264.663L297.086 247.213C296.916 245.712 296.586 244.13 295.574 243.009C291.612 238.623 291.683 234.183 296.383 230.599C297.905 229.439 299.276 228.091 300.233 226.211C302.091 222.559 302.43 215.579 301.084 211.305Z" stroke="#E91315" stroke-width="5"/>
<path d="M449.6 197.562C448.923 197.31 448.231 197.063 447.512 196.832C442.585 195.251 437.356 196.636 432.352 197.96L432.266 197.983C427.895 199.14 423.894 200.061 420.193 202.787C406.871 212.602 387.018 255.428 406.581 274.336C421.882 289.125 433.48 285.641 451.364 278.926C452.7 278.424 454.079 278.036 455.482 277.773C458.585 277.191 461.644 276.035 463.459 273.452C467.199 268.133 470.372 258.77 466.986 253.042C465.377 249.538 460.458 248.947 457.236 251.066C450.135 255.737 446.644 267.217 435.933 262.411C425.15 257.522 428.007 239.833 433.674 227.354C437.711 218.467 448.272 215.739 452.272 224.642C457.389 236.031 472.643 223.753 470.777 211.407C470.239 207.848 469.049 204.592 466.959 202.143C464.676 199.468 460.913 198.954 457.397 198.954C454.732 198.954 452.097 198.491 449.6 197.562Z" stroke="#E91315" stroke-width="5"/>
<path d="M136.447 227.027C145.002 221.737 140.392 204.817 135.353 198.046C134.5 196.9 133.135 196.322 131.713 196.18C130.371 196.045 129.033 196.376 127.745 196.778C124.549 197.774 120.333 197.675 116.038 197.677C111.29 197.679 86.2712 196.38 84.9844 196.825C80.5935 198.344 78.2866 204.016 76.4765 208.324C74.767 212.392 72.9219 218.755 74.309 223.326C75.503 227.262 80.2086 229.567 84.1336 228.34C88.6567 226.5 91.0314 219.692 92.7282 214.828L92.7859 214.662C92.9597 214.164 93.3841 213.797 93.9016 213.693C94.6403 213.545 95.3664 213.956 95.4898 214.699C97.025 223.947 93.197 258.734 90.0891 265.818C88.7754 268.812 85.2333 269.085 82.8438 270.958C81.4334 272.063 81.1558 273.986 81.1558 275.778C81.1558 277.357 81.3742 279.011 82.4903 280.128C89.783 287.425 118.502 286.234 123.73 275.537C124.704 273.543 124.021 271.218 122.303 269.813C120.583 268.407 118.345 267.304 117.942 265.12C115.891 253.987 117.897 221.641 121.143 214.712C121.867 213.578 121.364 213.893 122.378 213.586C122.682 213.494 123.007 213.489 123.308 213.589C123.808 213.756 124.176 214.185 124.276 214.704C125.137 219.165 126.509 223.068 128.921 226.001C130.288 227.662 132.559 228.099 134.668 227.676C135.291 227.552 135.907 227.362 136.447 227.027Z" stroke="#E91315" stroke-width="5"/>
<path d="M517.183 202.787C515.373 198.927 508.431 197.7 501.841 197.355C497.084 197.106 492.287 197.875 487.604 198.746C486.309 198.987 485.101 199.314 484.066 199.923C482.701 200.726 481.508 201.874 480.589 203.164C479.862 204.186 479.578 205.344 479.552 206.848C479.516 208.868 480.719 210.675 482.399 211.797C483.965 212.842 485.051 214.479 485.212 216.355C486.308 229.04 483.31 252.709 479.494 263.36C478.685 265.62 477.128 267.482 475.329 269.071C472.377 271.679 469.31 275.764 471.974 278.665C476.419 283.506 489.807 284.105 496.764 282.854C503.554 281.222 511.689 275.839 507.307 270.401C506.53 269.438 505.73 268.324 505.272 266.67C504.63 264.353 505.688 253.922 507.329 249.584C507.778 248.396 508.115 247.809 509.338 247.464C517.954 245.038 527.772 253.004 524.318 261.261C521.274 268.541 515.433 274.655 517.296 278.311C518.6 281.015 522.063 282.458 526.321 283.026C541.078 284.993 560.87 285.27 575.427 282.149C578.468 281.497 581.209 280.439 583.282 278.945C586.038 276.958 585.822 272.901 583.233 270.7C580.364 268.261 580.749 264.37 584.404 263.465C590.603 261.931 600.594 262.544 604.683 264.557C604.85 264.639 604.994 264.749 605.126 264.881C605.756 265.512 605.875 266.508 605.262 267.156C602.313 270.274 596.992 271.865 598.546 277.885C602.274 287.211 639.869 285.912 641.936 276.181C642.85 272.331 633.634 265.7 631.727 258.72C625.606 236.326 628.025 209.184 608.756 199.948C605.704 198.485 599.564 197.267 595.568 199.096C588.805 202.192 587.082 215.993 584.083 222.946C578.474 235.948 564.539 259.276 553.555 268.768C552.488 269.691 550.962 269.766 549.738 269.066C549.111 268.707 548.598 268.184 548.421 267.484C546.352 259.32 550.377 226.846 552.604 217.835C552.752 217.203 552.942 216.63 553.165 216.104C557.248 206.446 553.232 198.345 542.747 198.476C540.799 198.5 538.841 198.631 536.944 198.862C531.278 199.552 524.999 203.948 527.4 209.126C527.525 209.395 527.659 209.666 527.799 209.943C529.126 212.565 529.482 215.514 529.19 218.438C528.417 226.172 523.149 232.81 515.391 232.346C513.743 232.247 512.275 232.001 511.242 231.545C510.941 231.412 510.684 231.204 510.451 230.971C509.601 230.119 509.2 228.917 509.37 227.725L510.815 217.604C511.089 215.683 511.531 213.704 512.961 212.392C514.558 210.927 516.649 209.721 517.608 207.472C518.335 205.924 517.935 203.982 517.183 202.787Z" stroke="#E91315" stroke-width="5"/>
<path d="M70.3956 25.9537C71.4207 22.7522 71.0723 18.8157 69.88 15.0618C66.415 4.15172 52.9482 1.39413 41.5943 2.85177C36.0118 3.56853 31.5984 5.04933 27.5563 7.53649C22.6792 10.5377 20.9593 15.4852 17.7723 20.313C4.85105 39.8867 22.7138 55.2327 33.9437 66.9782C37.0875 70.2663 39.422 75.9261 35.5069 78.243C34.2887 78.9639 32.9146 79.6426 31.5067 79.7897C29.6642 79.9822 28.2358 78.7385 26.9412 76.7436C17.4865 62.1742 -2.98661 65.7143 4.86379 81.2072C10.8441 93.0094 28.1879 101.16 44.9974 94.4168C74.368 82.6353 73.4248 48.0095 48.4563 33.2295C46.2432 31.9195 43.945 30.4275 43.0047 28.0338C42.4749 26.6848 42.2647 25.2387 42.5168 23.5726C42.6707 22.5555 43.3513 21.7155 44.2234 21.1699C45.4939 20.3751 47.1246 20.2711 48.3007 21.2001C52.5271 24.5382 54.1278 29.9001 59.0353 32.6636C63.4142 34.6974 68.9232 30.5518 70.3956 25.9537Z" stroke="#E91315" stroke-width="5"/>
<path d="M218.983 54.8096C226.58 27.84 214.146 8.25165 191.916 5.02066C187.039 4.31186 182.098 5.07081 177.278 6.09455C172.761 7.05385 168.26 8.28873 164.286 10.641C156.484 15.2596 150.068 21.8987 145.39 29.2566C131.626 50.9043 134.979 84.2216 158.152 92.7133C188.859 103.966 212.663 77.2448 218.983 54.8096Z" stroke="#E91315" stroke-width="5"/>
<path d="M301.083 21.5907C294.981 2.22045 262.845 5.76767 238.492 5.84704C236.286 5.85423 234.11 6.3188 232.062 7.13869L231.866 7.21699C230.828 7.63241 229.872 8.01469 228.937 8.46925C227.119 9.3526 226.087 11.2367 225.864 13.2457C225.559 16.0015 226.947 18.5372 229.431 19.7681C229.813 19.9576 230.188 20.1551 230.547 20.3665C232.035 21.2432 232.742 22.9139 232.822 24.6392C233.428 37.7778 228.721 68.7965 224.088 74.4003C220.074 79.2545 216.426 84.2389 221.919 87.3202C232.994 93.5324 257.315 92.5173 261.661 85.972C261.875 85.6493 262.001 85.2859 262.107 84.9134C262.552 83.3542 262.521 81.5711 261.36 80.4399C259.939 79.0564 258.318 78.7962 256.843 76.9556C254.708 74.2921 256.098 60.3765 257.521 56.128C257.626 55.8132 257.814 55.5405 258.049 55.3056C258.627 54.7271 259.448 54.4637 260.255 54.5982L261.749 54.8474C263.233 55.0951 264.596 55.9248 265.197 57.3049C268.006 63.7666 266.691 73.2204 269.179 80.7885C270.784 85.6714 274.589 88.9214 279.312 90.7111C293.718 96.1694 312.567 95.059 327.88 93.3753C332.144 92.9064 336.176 91.8042 339.373 89.9778C340.512 89.3273 341.266 88.1958 341.626 86.9346C341.821 86.2499 341.908 85.5302 341.79 84.828C341.164 81.0783 339.056 80.6522 335.966 79.085C334.612 78.1807 334.622 77.7208 334.68 75.5864C334.686 75.3671 334.74 75.1502 334.838 74.9539C335.016 74.5993 335.323 74.3267 335.704 74.2142C340.398 72.8254 350.378 71.9037 356.622 73.702C360.821 74.9114 359.751 79.2755 356.335 82.0008C355.97 82.2919 355.617 82.609 355.281 82.9676C354.148 84.1768 353.942 85.9262 354.147 87.5705C354.221 88.1582 354.331 88.7542 354.657 89.2485C359.41 96.4499 392.463 98.8426 398.494 88.0218C400.729 84.0113 396.785 80.126 393.066 77.4339C390.899 75.8652 390.218 73.0521 389.829 70.4052L389.388 67.4006C389.021 64.907 388.655 62.4134 388.289 59.9202C383.824 40.7473 381.025 -0.367064 353.407 6.68472C344.364 8.99387 343.279 23.9083 339.794 31.8119C334.032 44.8806 318.976 71.3156 306.066 78.9057C304.824 79.6361 303.312 79.5959 302 78.9989C300.376 78.2597 299.259 76.722 299.059 74.9487L297.086 57.499C296.916 55.9979 296.586 54.4155 295.574 53.2945C291.612 48.9087 291.683 44.4687 296.383 40.885C297.905 39.7244 299.276 38.3766 300.233 36.4966C302.091 32.8442 302.43 25.8644 301.083 21.5907Z" stroke="#E91315" stroke-width="5"/>
<path d="M449.6 7.84777C448.923 7.59582 448.231 7.34829 447.512 7.11765C442.585 5.53694 437.356 6.92132 432.352 8.24602L432.266 8.26863C427.895 9.42579 423.894 10.3463 420.193 13.073C406.871 22.8879 387.018 65.7139 406.581 84.6215C421.882 99.4105 433.48 95.9267 451.364 89.2116C452.7 88.7099 454.079 88.322 455.482 88.0588C458.584 87.4763 461.643 86.3206 463.459 83.738C467.199 78.4185 470.371 69.0552 466.986 63.3273C465.377 59.8232 460.458 59.2325 457.236 61.3516C450.135 66.0226 446.644 77.5025 435.933 72.6967C425.15 67.8077 428.007 50.1182 433.674 37.6395C437.711 28.7526 448.272 26.0246 452.272 34.9278C457.389 46.3168 472.643 34.0383 470.777 21.6928C470.239 18.1338 469.048 14.8773 466.959 12.4284C464.676 9.75328 460.913 9.24003 457.396 9.24003C454.732 9.24003 452.097 8.7762 449.6 7.84777Z" stroke="#E91315" stroke-width="5"/>
<path d="M136.447 37.3131C145.002 32.0223 140.392 15.1025 135.353 8.33201C134.5 7.18548 133.135 6.60777 131.713 6.46533C130.371 6.33087 129.033 6.66157 127.745 7.06333C124.549 8.06009 120.333 7.96027 116.038 7.96237C111.29 7.96493 86.2711 6.66556 84.9843 7.11061C80.5934 8.62931 78.2865 14.3021 76.4764 18.6095C74.7669 22.6781 72.9219 29.0406 74.3089 33.6121C75.5029 37.5473 80.2085 39.8529 84.1335 38.626C88.6566 36.7858 91.0313 29.9779 92.7281 25.1132L92.7858 24.9479C92.9596 24.4496 93.384 24.0825 93.9015 23.9789C94.6403 23.8309 95.3663 24.2414 95.4897 24.9846C97.0249 34.2322 93.1969 69.0199 90.089 76.1038C88.7754 79.0977 85.2332 79.3704 82.8437 81.2435C81.4333 82.3491 81.1557 84.272 81.1557 86.064C81.1557 87.643 81.3741 89.2971 82.4902 90.414C89.7829 97.7111 118.502 96.5201 123.73 85.823C124.704 83.829 124.021 81.5036 122.302 80.0989C120.583 78.6931 118.345 77.5901 117.942 75.4057C115.891 64.2729 117.897 31.9263 121.143 24.9977C121.867 23.8634 121.364 24.179 122.378 23.8717C122.681 23.7798 123.007 23.7744 123.307 23.8747C123.808 24.0419 124.176 24.4708 124.276 24.9893C125.137 29.451 126.509 33.3538 128.921 36.2864C130.288 37.9475 132.559 38.3844 134.668 37.9621C135.291 37.8374 135.906 37.6472 136.447 37.3131Z" stroke="#E91315" stroke-width="5"/>
<path d="M517.183 13.073C515.373 9.21311 508.431 7.98544 501.841 7.64082C497.084 7.39208 492.287 8.16107 487.604 9.03214C486.309 9.27294 485.1 9.59945 484.066 10.2082C482.701 11.0112 481.507 12.1592 480.589 13.4495C479.862 14.4714 479.578 15.6297 479.552 17.1337C479.516 19.1535 480.719 20.9608 482.399 22.0824C483.965 23.1276 485.05 24.7647 485.212 26.6403C486.308 39.3261 483.31 62.9951 479.494 73.6455C478.685 75.9056 477.128 77.7673 475.329 79.3567C472.377 81.9644 469.31 86.0498 471.974 88.9509C476.419 93.7917 489.807 94.3905 496.764 93.1392C503.554 91.5074 511.689 86.1242 507.306 80.687C506.53 79.7232 505.73 78.6098 505.272 76.9556C504.63 74.6382 505.688 64.2079 507.329 59.8696C507.778 58.6816 508.115 58.0942 509.338 57.7499C517.953 55.3238 527.772 63.2894 524.318 71.547C521.274 78.8262 515.432 84.9408 517.296 88.5963C518.6 91.3008 522.063 92.7436 526.321 93.3113C541.077 95.2791 560.87 95.5561 575.427 92.4344C578.468 91.7822 581.209 90.7244 583.281 89.2307C586.038 87.2441 585.822 83.1862 583.233 80.9856C580.364 78.5469 580.748 74.6553 584.404 73.7509C590.603 72.2169 600.594 72.8301 604.683 74.8425C604.85 74.9248 604.994 75.035 605.126 75.1668C605.756 75.7979 605.875 76.7936 605.262 77.4416C602.313 80.5594 596.992 82.1508 598.546 88.1704C602.274 97.4968 639.869 96.1979 641.936 86.4669C642.85 82.6164 633.634 75.9854 631.727 69.0056C625.606 46.6118 628.025 19.4693 608.756 10.2336C605.704 8.77114 599.564 7.55311 595.568 9.38186C588.805 12.478 587.082 26.2784 584.083 33.2314C578.474 46.234 564.539 69.5617 553.555 79.054C552.488 79.9763 550.962 80.052 549.738 79.3515C549.111 78.993 548.598 78.47 548.421 77.7701C546.352 69.6052 550.376 37.1317 552.604 28.1207C552.751 27.4887 552.942 26.9157 553.164 26.3894C557.248 16.7314 553.232 8.63092 542.747 8.76136C540.799 8.7856 538.841 8.91669 536.944 9.14753C531.278 9.83718 524.999 14.2332 527.4 19.4117C527.524 19.6806 527.659 19.9518 527.799 20.2289C529.125 22.8508 529.482 25.7998 529.19 28.7237C528.417 36.4575 523.149 43.0954 515.391 42.6314C513.742 42.5329 512.274 42.2866 511.242 41.8303C510.941 41.6972 510.684 41.4893 510.451 41.2563C509.601 40.4048 509.2 39.2026 509.37 38.0111L510.814 27.89C511.089 25.9687 511.531 23.9895 512.961 22.6776C514.558 21.2131 516.649 20.0068 517.608 17.7577C518.335 16.2092 517.935 14.2672 517.183 13.073Z" stroke="#E91315" stroke-width="5"/>
<path fill-rule="evenodd" clip-rule="evenodd" d="M56.9754 287.326C57.5292 287.076 58.125 286.923 58.7324 286.923C59.5022 286.923 60.2599 287.151 60.8706 287.619C68.3768 293.383 71.2711 302.829 67.8279 313.33C67.3127 314.901 66.1603 316.208 64.6468 316.872C62.8132 317.677 60.8283 318.131 58.5101 317.136C52.929 313.852 51.7482 306.498 45.2547 305.864C43.891 305.73 42.6917 306.634 42.0789 307.86C41.3905 309.238 41.5286 310.901 42.5522 312.051C49.2407 319.569 59.0537 323.987 64.1278 332.595C76.1693 353.021 56.2651 375.169 43.7636 379.672C5.82528 393.336 -10.5784 343.997 12.8664 341.729C13.5686 341.963 14.2708 342.198 14.973 342.432C20.0509 346.428 22.2522 354.178 25.2591 360.429C26.2142 362.415 28.1974 363.725 30.3995 363.736C31.4857 363.741 32.4057 363.653 33.4184 363.458C35.0956 363.134 36.4303 361.896 37.1031 360.325C37.7639 358.782 37.731 357.008 36.8371 355.587C27.7912 341.209 7.45665 335.048 14.973 310.11C17.324 302.308 21.3357 295.533 27.6128 291.841C36.5147 286.606 47.7525 291.484 56.9754 287.326ZM176.62 291.73C179.77 290.398 183.2 289.61 186.615 289.781C250.955 292.997 217.267 394.451 160.331 378.267C140.057 372.503 131.316 345.373 141.371 322.055C148.849 304.714 159.831 298.827 176.62 291.73ZM127.375 292.071C128.754 291.557 130.219 291.237 131.678 291.419C131.705 291.423 131.733 291.426 131.76 291.429C133.844 291.69 135.683 292.888 136.437 294.849C140.042 304.23 145.471 328.45 130.838 322.758C126.668 320.406 126.528 315.336 124.665 311.239C124.002 309.782 122.138 309.68 121.007 310.813C117.972 317.831 115.393 350.084 117.98 360.961C118.386 362.668 119.902 363.633 121.46 364.437C122.413 364.929 122.996 365.593 123.816 367.024C124.743 369.821 123.697 371.823 122.32 373.719C121.487 374.867 120.294 375.705 118.938 376.119C107.772 379.525 84.0291 384.207 80.6449 371.384C80.268 369.955 80.6482 368.396 81.7454 367.407C84.497 364.929 88.7215 363.838 90.1096 360.7C92.2162 344.776 94.3228 328.845 96.4295 312.921C95.2153 310.078 92.1355 311.268 90.9533 314.124C89.4694 317.709 87.4931 321.21 84.6471 322.99C84.0968 323.334 83.465 323.514 82.8249 323.621C82.4992 323.675 82.1735 323.73 81.8478 323.784C80.3722 324.03 78.8087 323.883 77.5337 323.1C76.835 322.671 76.3275 322.189 75.7227 321.245C75.4735 320.856 75.2013 320.478 74.9252 320.108C68.7599 311.837 78.5816 295.106 84.4919 292.544C94.9231 290.365 115.7 296.424 127.375 292.071ZM231.787 291.972C232.836 291.457 233.966 291.121 235.135 291.089C277.5 289.931 328.194 290.21 290.63 331.465C290.391 331.728 290.24 332.089 290.24 332.445C290.24 332.969 290.535 333.449 290.986 333.716C299.69 338.873 298.809 348.387 300.374 360.129C300.597 361.801 301.71 363.21 303.26 363.875C304.777 364.526 306.53 364.385 307.876 363.428C332.377 345.995 334.879 317.671 351.332 293.246C390.256 282.451 382.693 331.606 392.06 357.89C394.486 360.478 396.911 363.067 399.336 365.655C401.294 367.745 401.744 370.833 400.464 373.395C399.586 375.152 398.004 376.454 396.095 376.914C383.163 380.033 361.921 383.221 356.555 373.93C356.337 373.553 356.204 373.132 356.119 372.705C355.763 370.923 356.363 369.085 357.702 367.857C359.189 366.493 360.676 365.129 362.163 363.765C363.216 362.799 363.444 361.225 362.709 360C362.183 359.123 361.25 358.577 360.229 358.511C353.299 358.065 343.702 356.359 338.626 358.935C338.192 359.155 337.812 359.465 337.462 359.804C336.746 360.497 336.912 360.439 336.688 362.11C336.627 362.565 336.696 363.029 336.901 363.44C337.15 363.937 337.577 364.322 338.098 364.518C338.575 364.697 339.053 364.876 339.531 365.055C341.606 365.834 343.078 367.7 343.353 369.9C343.359 369.947 343.364 369.994 343.37 370.041C343.524 371.273 343.261 372.521 342.622 373.586C341.902 374.788 340.777 375.683 339.405 375.969C323.222 379.344 278.265 377.606 273.387 371.24C268.323 364.632 269.704 350.997 266.587 342.438C266.093 341.082 264.799 340.237 263.363 340.094C262.487 340.006 261.612 339.918 260.736 339.831C259.614 339.718 258.64 340.6 258.64 341.729C258.444 347.032 258.248 352.336 258.051 357.639C257.979 359.591 258.723 361.485 260.103 362.867C260.516 363.28 260.929 363.693 261.342 364.107C262.751 365.516 263.677 367.497 263.173 369.426C263.063 369.848 262.929 370.194 262.765 370.524C262.044 371.97 260.621 372.945 259.066 373.381C246.634 376.862 225.735 377.671 218.538 369.031C217.538 367.831 217.268 366.147 217.88 364.71C219.636 360.588 223.099 362.39 225.636 358.592C228.837 353.8 235.228 317.907 233.199 308.205C232.969 307.108 232.172 306.272 231.24 305.651C230.792 305.351 230.343 305.052 229.894 304.753C227.71 303.296 226.521 300.742 226.81 298.131C226.84 297.866 226.869 297.602 226.899 297.337C226.993 296.491 227.212 295.649 227.694 294.948C228.827 293.3 230.065 292.819 231.787 291.972ZM433.795 293.314C437.328 291.948 441.067 291.046 444.849 291.251C449.061 291.48 452.643 292.013 456.155 292.659C462.832 293.887 469.088 297.48 471.899 303.664C475.421 311.41 477.292 321.212 470.006 326.271C468.138 327.706 466.049 328.601 463.686 327.676C456.619 326.426 454.025 319.022 450.447 313.635C449.199 311.757 446.916 311.001 444.685 311.32C444.23 311.385 443.776 311.45 443.322 311.515C431.505 317.036 429.483 342.291 435.881 354.943C436.869 356.898 438.989 357.89 441.178 357.89C442.188 357.89 443.197 357.89 444.207 357.89C445.9 357.89 447.537 357.277 448.814 356.166C452.793 352.704 456.772 349.242 460.751 345.78C462.143 344.568 464.054 344.143 465.829 344.65C467.159 345.031 468.295 345.903 469.007 347.09C469.184 347.386 469.362 347.681 469.539 347.977C469.849 348.494 470.102 349.069 470.252 349.653C477.746 378.812 430.274 385.746 413.829 374.051C392.358 358.782 402.596 314.282 418.744 300.976C423.416 297.126 428.189 295.482 433.795 293.314ZM492.395 293.571C494.78 292.889 497.245 292.5 499.723 292.573C505.32 292.738 510.662 293.43 515.365 294.437C517.739 294.946 519.59 296.786 520.288 299.113C520.904 301.169 520.541 303.399 519.332 305.172C515.428 310.894 511.953 316.95 512.672 324.873C512.745 325.678 513.438 326.271 514.245 326.271C517.657 326.271 521.069 326.271 524.481 326.271C525.079 326.271 525.615 325.892 525.792 325.32C528.649 316.044 525.377 309.721 524.289 301.542C524.118 300.257 524.342 298.934 524.976 297.804C525.533 296.811 526.09 296.215 527.587 295.354C533.605 291.306 547.49 292.61 554.452 295.405C556.207 296.11 557.232 297.824 557.499 299.697C557.684 300.991 557.533 302.338 556.796 303.417C555.029 306.002 552.634 307.475 551.462 310.11C547.443 319.142 545.239 354.672 546.547 362.808C547.717 363.511 548.888 364.214 550.058 364.916C552.164 363.043 554.271 361.168 556.378 359.295C563.867 348.054 571.359 336.809 578.849 325.568C584.645 315.732 586.023 303.087 593.264 294.991C594.326 293.803 595.888 293.172 597.481 293.168C629.848 293.094 622.118 331.968 631.514 357.187C633.527 362.589 638.298 363.221 640.467 368.156C641.288 370.024 640.601 372.178 638.855 373.232C630.343 378.373 607.687 382.219 599.915 375.456C598.888 374.775 598.293 374.18 597.831 373.476C596.692 371.743 596.87 369.405 598.203 367.817C600.788 364.736 604.186 362.715 603.663 359.488C603.573 358.933 603.064 358.573 602.503 358.537C595.324 358.068 584.78 356.653 578.791 359.018C578.392 359.175 578.146 359.569 578.146 359.998C578.146 360.709 578.146 361.421 578.146 362.133C578.146 362.56 578.34 362.964 578.673 363.23C579.735 364.08 580.797 364.93 581.858 365.78C583.894 367.409 585.065 370.186 583.6 372.345C576.272 383.145 549.401 372.82 548.653 373.348C541.824 378.168 520.486 381.224 515.273 372.102C514.277 370.359 514.99 368.257 516.194 366.651C520.149 361.378 524.365 354.071 523.688 346.349C523.438 343.494 520.792 341.576 517.934 341.765C516.315 341.872 514.875 342.091 513.558 342.44C511.265 343.047 509.922 345.264 509.74 347.63C509.401 352.042 509.062 356.453 508.723 360.864C508.66 361.685 508.71 362.527 509.066 363.27C510.079 365.381 511.832 366.47 512.603 369.865C512.805 370.758 512.662 371.686 512.323 372.535C511.758 373.948 510.633 375.077 509.172 375.498C500.781 377.912 488.581 378.001 479.49 376.197C477.481 375.798 475.879 374.338 475.118 372.434C474.146 370.005 474.712 367.223 476.106 365.009C483.313 353.567 493.351 323.762 487.561 309.407C486.612 308.458 485.663 307.508 484.714 306.559C483.39 305.234 482.567 303.423 482.809 301.565C483.089 299.42 483.724 298.415 484.691 297.198C485.641 296.001 486.951 295.127 488.419 294.707C489.745 294.329 491.07 293.95 492.395 293.571ZM267.269 304.919C265.464 304.661 263.71 305.58 263.173 307.323C261.607 312.401 260.138 321.288 261.485 325.079C261.778 325.903 262.65 326.271 263.525 326.271C264.007 326.271 264.482 326.158 264.914 325.943C265.183 325.808 265.452 325.673 265.722 325.538C267.473 324.662 268.783 323.09 269.307 321.203C270.447 317.097 271.418 312.848 270.709 308.085C270.632 307.566 270.428 307.074 270.136 306.637C269.524 305.717 268.548 305.102 267.455 304.946C267.393 304.937 267.331 304.928 267.269 304.919ZM185.245 307.121C183.246 306.788 181.18 307.313 179.962 308.933C172.235 319.21 161.624 351.062 173.17 361.105C174.67 362.409 176.881 362.399 178.269 360.976C187.219 351.8 197.826 315.385 186.312 307.299C185.957 307.24 185.601 307.181 185.245 307.121ZM355.525 324.865C355.105 324.865 354.719 325.096 354.515 325.463C351.604 330.705 348.104 335.221 346.537 341.897C346.459 342.229 346.562 342.577 346.803 342.818C347.004 343.019 347.281 343.126 347.565 343.111C351.426 342.908 355.288 342.704 359.149 342.501C359.887 342.462 360.472 341.856 360.459 341.116C360.342 334.634 358.669 330.065 356.555 325.52C356.369 325.12 355.966 324.865 355.525 324.865ZM596.399 325.568C595.972 325.568 595.581 325.81 595.389 326.193C592.869 331.237 590.348 336.282 587.827 341.327C587.574 341.834 587.942 342.432 588.51 342.432C588.621 342.432 588.73 342.456 588.833 342.501C591.999 343.877 597.638 343.183 600.539 342.072C601.029 341.884 601.324 341.398 601.315 340.873C601.213 334.524 599.492 330.515 597.414 326.205C597.226 325.815 596.832 325.568 596.399 325.568Z" fill="#E91315"/>
</svg>
